<svg width="37" height="28" viewBox="0 0 37 28" fill="none" xmlns="http://www.w3.org/2000/svg">
<path d="M26.1419 11.1709C30.8954 15.5331 34.5833 21.0382 36.7702 27.2506C36.8751 27.5488 36.5583 27.8174 36.2763 27.6745C30.8895 24.9444 24.7967 23.406 18.3444 23.406C11.8349 23.406 5.69102 24.9719 0.269071 27.7476C0.105978 27.8311 -0.061965 27.6419 0.0437494 27.4922C6.07361 18.9563 15.385 12.9038 26.1419 11.1709Z" fill="#F23E0D"/>
<path d="M26.1417 11.1715C19.2536 4.85034 10.1279 0.928791 0.0892688 0.731465C-0.00705417 0.729572 -0.0350999 0.862133 0.0534808 0.900017C6.65652 3.72396 12.3393 8.28552 16.5269 14.0099C19.5529 12.6785 22.7766 11.7136 26.1417 11.1715Z" fill="#FB793C"/>
</svg>
