<svg width="22" height="16" viewBox="0 0 22 16" fill="none" xmlns="http://www.w3.org/2000/svg">
<path d="M14.9374 6.24097C17.6536 8.73359 19.7609 11.8792 21.0105 15.429C21.0705 15.5994 20.8894 15.7529 20.7283 15.6713C17.6503 14.1113 14.1687 13.2322 10.4819 13.2322C6.76225 13.2322 3.25162 14.127 0.153471 15.713C0.0602778 15.7607 -0.0356861 15.6526 0.02472 15.5671C3.47023 10.6896 8.79086 7.23118 14.9374 6.24097Z" fill="#F23E0D"/>
<path d="M14.9376 6.24089C11.0017 2.62896 5.78716 0.388156 0.0510089 0.275402C-0.00403081 0.27432 -0.0200564 0.350067 0.0305593 0.371714C3.80359 1.98534 7.05075 4.59185 9.44358 7.86278C11.1727 7.10201 13.0147 6.55067 14.9376 6.24089Z" fill="#FB793C"/>
</svg>
