<svg width="24" height="24" viewBox="0 0 24 24" fill="none" xmlns="http://www.w3.org/2000/svg">
<g clip-path="url(#clip0_905_55)">
<path fill-rule="evenodd" clip-rule="evenodd" d="M10.8982 2.6353C10.5951 4.60669 10.6924 6.21637 10.8297 8.48798C10.8547 8.90282 10.8811 9.33971 10.9067 9.80493C10.9299 10.2273 10.6202 10.5948 10.2 10.6435C9.77981 10.6922 9.39431 10.4053 9.32024 9.98886L9.19616 9.29117C9.03053 8.26446 8.77378 6.8077 8.28501 5.51586C7.77995 4.18099 7.11786 3.26594 6.29507 2.9767C5.84 2.81766 5.47051 2.94846 5.21399 3.21683C4.94003 3.50339 4.79626 3.95304 4.90042 4.40638C5.14346 5.35078 5.51413 6.26672 5.91747 7.22883C5.95341 7.31453 5.98963 7.40069 6.02603 7.48726C6.39274 8.35931 6.778 9.27552 7.0664 10.2253L7.06715 10.2278C7.2993 11.0014 7.45043 11.6152 7.56947 12.0986C7.61664 12.2902 7.65877 12.4613 7.6989 12.6137C7.78838 12.9537 7.64547 13.3122 7.34667 13.4974C7.04787 13.6826 6.66322 13.651 6.39861 13.4196C5.98008 13.0536 5.6241 12.6845 5.30917 12.3488C5.24213 12.2774 5.17773 12.2083 5.11538 12.1414C4.87653 11.8852 4.66749 11.661 4.45344 11.4565C3.93592 10.962 3.49447 10.6881 2.88946 10.6299L2.88528 10.6295C2.49797 10.5902 2.26253 10.6631 2.10819 10.762C1.95048 10.8632 1.79191 11.0466 1.66064 11.3797C1.56262 11.6559 1.62434 12.2078 1.90874 12.7506L1.91575 12.764C2.24147 13.4152 2.7917 14.1054 3.49035 14.8688C3.83592 15.2464 4.20605 15.6296 4.59104 16.0278L4.60755 16.045C4.98483 16.4354 5.37549 16.8395 5.75551 17.2523C7.08618 18.6981 8.44339 20.4061 8.74042 22.4H18.414C18.5019 19.8965 19.0011 18.0288 19.6601 16.2154C19.9127 15.5207 20.1795 14.8546 20.4523 14.1733C20.9756 12.8662 21.5215 11.503 22.0329 9.77318C22.5583 7.99579 22.4156 6.99253 22.1782 6.46374C21.9473 5.94973 21.5863 5.78858 21.4107 5.7537C21.0211 5.67638 20.8615 5.77515 20.7518 5.88642C20.5873 6.05306 20.4318 6.37237 20.3075 6.8843C20.1867 7.38152 20.1204 7.94427 20.0529 8.52002L20.0478 8.56456C19.9879 9.07587 19.9209 9.64826 19.7865 10.0816C19.7414 10.2512 19.6511 10.4065 19.5167 10.5206C19.4212 10.6018 19.2167 10.7331 18.9295 10.709C18.4679 10.6703 18.194 10.2743 18.1841 9.83653C18.1697 9.20726 18.2214 8.57382 18.2519 7.94573C18.3086 6.77834 18.3633 5.65392 18.2793 4.53472L18.2788 4.52694C18.2267 3.72795 17.679 3.20365 17.1212 3.07648C16.8489 3.01442 16.5905 3.04962 16.3756 3.1736C16.1649 3.29514 15.9287 3.54109 15.7719 4.0223L15.7702 4.02762C15.7045 4.22464 15.6369 4.60405 15.5778 5.13984C15.5208 5.65667 15.4775 6.26046 15.4426 6.87069C15.4127 7.39253 15.3887 7.93344 15.367 8.4191C15.3397 9.03246 15.3164 9.55771 15.2902 9.84512C15.2798 9.95934 15.2471 10.0719 15.1921 10.1726C15.1578 10.2354 14.9779 10.5752 14.5138 10.5895C14.0468 10.6039 13.8237 10.2409 13.7873 10.1747C13.6902 9.99838 13.6812 9.78891 13.6762 9.58853C13.6717 9.40902 13.6688 9.14877 13.6669 8.87627C13.6631 8.32931 13.6631 7.7107 13.6631 7.53523C13.6631 5.86512 13.6615 4.24595 13.5155 2.62995C13.427 1.98603 12.9005 1.60728 12.2299 1.60008C11.5585 1.59288 11.0068 1.96326 10.8982 2.6353ZM15.0596 2.17872C14.7436 0.717575 13.4387 0.0129652 12.247 0.000178464C10.9833 -0.0133809 9.58027 0.74541 9.31794 2.38459L9.31719 2.38934C9.25192 2.81344 9.20376 3.2237 9.16954 3.62643C8.63087 2.67782 7.88205 1.8383 6.8249 1.46697C5.73867 1.0869 4.71882 1.41934 4.05741 2.11123C3.41474 2.78354 3.11111 3.78787 3.34459 4.77994L3.3484 4.79541C3.62375 5.86893 4.03843 6.88506 4.44191 7.84744C4.47712 7.93147 4.51226 8.01506 4.5472 8.09822C4.83432 8.78147 5.11015 9.43786 5.34203 10.1001C4.74256 9.57027 4.0309 9.13274 3.04451 9.03744C2.38194 8.97061 1.76635 9.08058 1.24459 9.4151C0.72688 9.74704 0.385171 10.2465 0.166797 10.8065L0.161486 10.8205C-0.162846 11.7006 0.106228 12.7545 0.48793 13.4864C0.918024 14.3436 1.59386 15.1665 2.31005 15.949C2.67283 16.3454 3.05827 16.7443 3.44063 17.1398L3.45101 17.1506C3.83248 17.5453 4.21157 17.9374 4.57824 18.3358C6.09509 19.984 7.20013 21.5411 7.20013 23.2C7.20013 23.6418 7.55831 24 8.00013 24H19.2001C19.642 24 20.0001 23.6418 20.0001 23.2C20.0001 20.5139 20.4835 18.6339 21.1639 16.7619C21.3846 16.1549 21.6347 15.5293 21.899 14.868C22.4382 13.5188 23.0369 12.0208 23.5673 10.2268C24.1531 8.24518 24.0895 6.81446 23.6377 5.80827C23.1793 4.78733 22.3678 4.31248 21.7222 4.18432C21.0043 4.04182 20.3788 4.1676 19.883 4.5293C19.8806 4.49237 19.8779 4.45549 19.8751 4.41867C19.774 2.8968 18.7052 1.79656 17.4769 1.51651C16.8555 1.37486 16.1779 1.44063 15.5762 1.78758C15.3897 1.89514 15.217 2.02597 15.0596 2.17872Z" fill="#F23E0D"/>
</g>
<defs>
<clipPath id="clip0_905_55">
<rect width="24" height="24" fill="white"/>
</clipPath>
</defs>
</svg>
