<svg width="24" height="24" viewBox="0 0 24 24" fill="none" xmlns="http://www.w3.org/2000/svg">
<path fill-rule="evenodd" clip-rule="evenodd" d="M10.9655 6.16563L12.2455 4.8856C13.2768 3.85437 15.0855 3.1387 16.883 2.88195C17.7688 2.75542 18.6064 2.74755 19.29 2.84994C19.9977 2.95592 20.4315 3.16309 20.6342 3.36566C20.8368 3.56824 21.044 4.00195 21.1499 4.70966C21.2523 5.39333 21.2444 6.23098 21.1179 7.11677C20.8611 8.91418 20.1454 10.723 19.114 11.7543L11.9998 18.8686L10.1655 17.0344C9.85304 16.7219 9.34651 16.7219 9.03409 17.0344C8.72168 17.3467 8.72168 17.8532 9.03409 18.1657L11.4341 20.5657C11.7465 20.878 12.2531 20.878 12.5655 20.5657L13.441 19.6902L15.3138 22.8115C15.4405 23.0228 15.6575 23.1638 15.902 23.194C16.1465 23.2241 16.3913 23.1398 16.5654 22.9657L19.7654 19.7657C19.9435 19.5876 20.0273 19.3361 19.9918 19.0868L19.2483 13.8828L20.2456 12.8856C21.6142 11.5169 22.4185 9.32563 22.7017 7.34304C22.8452 6.33883 22.8624 5.3415 22.7323 4.47269C22.6057 3.62792 22.3228 2.79166 21.7654 2.23427C21.2081 1.6769 20.3718 1.39408 19.527 1.26757C18.6582 1.13746 17.6609 1.15458 16.6566 1.29803C14.6741 1.58124 12.4828 2.38555 11.1141 3.75422L10.117 4.75144L4.91294 4.00802C4.66368 3.9724 4.41217 4.05622 4.23412 4.23429L1.03413 7.43427C0.859931 7.60848 0.775706 7.85322 0.805805 8.09771C0.835906 8.34221 0.976973 8.55922 1.18822 8.68597L4.30963 10.5588L3.43414 11.4343C3.28412 11.5843 3.19984 11.7878 3.19984 12C3.19984 12.2121 3.28412 12.4156 3.43414 12.5656L5.83416 14.9656C6.14657 15.2781 6.6531 15.2781 6.96552 14.9656C7.27795 14.6532 7.27795 14.1467 6.96552 13.8343L5.1312 12L6.16552 10.9656L10.9655 6.16563ZM16.1587 21.1097L14.6071 18.524L17.834 15.297L18.3513 18.9171L16.1587 21.1097ZM5.47582 9.39261L8.70276 6.16565L5.08265 5.6485L2.89001 7.84114L5.47582 9.39261ZM3.7655 16.5656C4.07792 16.2532 4.07792 15.7467 3.7655 15.4343C3.45308 15.1218 2.94654 15.1218 2.63412 15.4343L1.03413 17.0342C0.721706 17.3467 0.721706 17.8532 1.03413 18.1656C1.34655 18.478 1.85308 18.478 2.1655 18.1656L3.7655 16.5656ZM6.16553 18.9657C6.47795 18.6532 6.47796 18.1467 6.16555 17.8344C5.85313 17.5219 5.3466 17.5219 5.03417 17.8344L1.83412 21.0342C1.52171 21.3467 1.5217 21.8532 1.83412 22.1656C2.14654 22.478 2.65307 22.478 2.96548 22.1657L6.16553 18.9657ZM8.5655 21.3656C8.87792 21.0532 8.87792 20.5467 8.5655 20.2342C8.25308 19.9219 7.74654 19.9219 7.43412 20.2342L5.83413 21.8342C5.52171 22.1467 5.52171 22.6532 5.83413 22.9656C6.14654 23.278 6.65308 23.278 6.9655 22.9656L8.5655 21.3656ZM15.1998 10.798C16.3033 10.798 17.1979 9.90347 17.1979 8.79995C17.1979 7.69643 16.3033 6.80184 15.1998 6.80184C14.0962 6.80184 13.2016 7.69643 13.2016 8.79995C13.2016 9.90347 14.0962 10.798 15.1998 10.798Z" fill="#F23E0D"/>
</svg>
