<svg width="46" height="16" viewBox="0 0 46 16" fill="none" xmlns="http://www.w3.org/2000/svg">
<path d="M45.78 6.13002C45.7504 6.27755 45.6693 6.35132 45.5365 6.35132H43.2129C43.1539 6.35132 43.1243 6.38082 43.1243 6.43984L42.3941 12.3043C42.3793 12.4076 42.3719 12.5477 42.3719 12.7248C42.3719 13.1969 42.49 13.5362 42.726 13.7427C42.9768 13.9493 43.353 14.0526 43.8546 14.0526H44.4743C44.548 14.0526 44.5997 14.0747 44.6292 14.119C44.6735 14.1632 44.6882 14.2148 44.6735 14.2739L44.4964 15.6459C44.4964 15.7935 44.4226 15.8672 44.2751 15.8672C43.803 15.8967 43.4711 15.9115 43.2793 15.9115C42.2908 15.9115 41.5457 15.7566 41.0441 15.4468C40.5425 15.1222 40.2917 14.5394 40.2917 13.6985C40.2917 13.5657 40.3065 13.3518 40.336 13.0567L41.1548 6.43984C41.1548 6.38082 41.1253 6.35132 41.0663 6.35132H39.7606C39.6131 6.35132 39.554 6.27755 39.5835 6.13002L39.7385 4.82435C39.768 4.67681 39.8491 4.60305 39.9819 4.60305H41.2876C41.3466 4.60305 41.3761 4.57354 41.3761 4.51453L41.708 1.90318C41.7375 1.75565 41.8187 1.68188 41.9515 1.68188H43.5006C43.5596 1.68188 43.6038 1.70401 43.6333 1.74828C43.6776 1.79253 43.6924 1.84417 43.6776 1.90318L43.3678 4.51453C43.353 4.52928 43.353 4.55141 43.3678 4.58092C43.3825 4.59567 43.4047 4.60305 43.4342 4.60305H45.7578C45.9054 4.60305 45.9644 4.67681 45.9349 4.82435L45.78 6.13002Z" fill="#F5F6F6"/>
<path d="M37.7809 2.23514C37.058 2.23514 36.549 2.3753 36.254 2.65561C35.9737 2.93593 35.7892 3.46705 35.7007 4.24897L35.6565 4.51453C35.6565 4.57355 35.686 4.60305 35.745 4.60305H38.0022C38.0613 4.60305 38.1055 4.62518 38.135 4.66944C38.1793 4.7137 38.194 4.76534 38.1793 4.82435L38.0022 6.32919C37.9727 6.47673 37.8916 6.55049 37.7588 6.55049H35.5016C35.4425 6.55049 35.413 6.58 35.413 6.63901L34.3065 15.6459C34.2918 15.7049 34.2623 15.7566 34.218 15.8008C34.1738 15.8451 34.1221 15.8672 34.0631 15.8672H32.4255C32.2927 15.8672 32.2263 15.7935 32.2263 15.6459L33.3328 6.63901C33.3476 6.62426 33.3476 6.60951 33.3328 6.59475C33.3181 6.56525 33.2959 6.55049 33.2664 6.55049H31.828C31.6804 6.55049 31.6214 6.47673 31.6509 6.32919L31.828 4.82435C31.8575 4.67682 31.9386 4.60305 32.0714 4.60305H33.5099C33.5689 4.60305 33.5984 4.57355 33.5984 4.51453L33.6426 4.11619C33.7607 3.14247 33.9672 2.39005 34.2623 1.85893C34.5573 1.32781 34.9778 0.951601 35.5237 0.730302C36.0843 0.494248 36.8441 0.376221 37.8031 0.376221H38.5334C38.6809 0.376221 38.7399 0.449987 38.7104 0.597521L38.5555 2.01384C38.526 2.16137 38.4448 2.23514 38.3121 2.23514H37.7809Z" fill="#F5F6F6"/>
<path d="M28.6838 2.83264C28.315 2.83264 28.0199 2.72199 27.7986 2.50069C27.5773 2.27939 27.4667 1.9917 27.4667 1.63762C27.4667 1.16551 27.6142 0.77455 27.9093 0.46473C28.2191 0.15491 28.5953 0 29.0379 0C29.4067 0 29.7018 0.11065 29.9231 0.33195C30.1444 0.538497 30.255 0.826187 30.255 1.19502C30.255 1.65237 30.1001 2.04334 29.7903 2.36791C29.4805 2.67773 29.1117 2.83264 28.6838 2.83264ZM26.2274 15.8451C26.0799 15.8451 26.0208 15.7713 26.0503 15.6238L27.3781 4.82434C27.3781 4.76533 27.4003 4.71369 27.4445 4.66943C27.4888 4.62517 27.5404 4.60304 27.5994 4.60304H29.2371C29.3698 4.60304 29.4362 4.67681 29.4362 4.82434L28.1084 15.6238C28.0789 15.7713 27.9978 15.8451 27.865 15.8451H26.2274Z" fill="#F5F6F6"/>
<path d="M12.3143 15.8672C12.211 15.8672 12.1373 15.8082 12.093 15.6902L10.3447 4.84646V4.8022C10.3447 4.66942 10.4185 4.60303 10.566 4.60303H12.2479C12.3069 4.60303 12.3512 4.62516 12.3807 4.66942C12.4249 4.69892 12.4471 4.74318 12.4471 4.8022L13.5093 12.8354C13.5093 12.8649 13.5241 12.8797 13.5536 12.8797C13.5831 12.8797 13.6052 12.8649 13.62 12.8354L16.6739 4.8022C16.7329 4.66942 16.8214 4.60303 16.9395 4.60303H18.4222C18.5402 4.60303 18.614 4.66942 18.6435 4.8022L19.7721 12.8133C19.7869 12.8428 19.8016 12.8575 19.8164 12.8575C19.8459 12.8575 19.868 12.8428 19.8828 12.8133L22.981 4.8022C23.04 4.66942 23.1285 4.60303 23.2465 4.60303L24.9063 4.62516C25.0833 4.62516 25.135 4.7063 25.0612 4.86859L20.6352 15.6902C20.5614 15.8082 20.4729 15.8672 20.3696 15.8672H18.6877C18.5845 15.8672 18.5181 15.8082 18.4886 15.6902L17.2935 8.21022C17.2788 8.18071 17.2567 8.16596 17.2272 8.16596C17.2124 8.16596 17.1977 8.18071 17.1829 8.21022L14.2839 15.668C14.2249 15.8008 14.1363 15.8672 14.0183 15.8672H12.3143Z" fill="#F5F6F6"/>
<path d="M3.98373 16C2.77396 16 1.80762 15.7419 1.0847 15.2255C0.376541 14.7091 0.0224609 14.0526 0.0224609 13.2559C0.0224609 13.1231 0.0298376 13.0272 0.0445909 12.9682L0.0888509 12.7248C0.0888509 12.6658 0.110981 12.6141 0.155241 12.5699C0.199501 12.5256 0.258514 12.5035 0.332281 12.5035H1.85925C1.93302 12.5035 1.98466 12.5256 2.01416 12.5699C2.05842 12.6141 2.07318 12.6658 2.05842 12.7248L2.03629 12.8354C1.99203 13.2485 2.16907 13.61 2.56741 13.9198C2.96575 14.2296 3.49687 14.3845 4.16077 14.3845C4.85418 14.3845 5.42218 14.2296 5.86478 13.9198C6.30738 13.5952 6.52868 13.1969 6.52868 12.7248C6.52868 12.3412 6.35164 12.0535 5.99756 11.8617C5.65824 11.6552 5.11236 11.4413 4.35994 11.22C3.60752 10.9987 2.98788 10.7774 2.50102 10.5561C2.01416 10.3348 1.60107 10.0249 1.26174 9.62659C0.922415 9.22825 0.752751 8.72664 0.752751 8.12175C0.752751 7.01525 1.17322 6.13743 2.01416 5.48828C2.86986 4.82438 3.9616 4.49243 5.2894 4.49243C6.45492 4.49243 7.38438 4.75799 8.07779 5.28911C8.77119 5.80548 9.1179 6.48413 9.1179 7.32507C9.1179 7.48736 9.11052 7.60539 9.09577 7.67915L9.07364 7.74554C9.07364 7.80456 9.05151 7.85619 9.00725 7.90045C8.96299 7.94471 8.91135 7.96684 8.85233 7.96684H7.34749C7.27373 7.96684 7.21472 7.94471 7.17045 7.90045C7.14095 7.85619 7.13357 7.80456 7.14832 7.74554L7.17045 7.67915C7.21472 7.25131 7.04505 6.89723 6.66146 6.61691C6.29263 6.32185 5.76151 6.17431 5.0681 6.17431C4.38945 6.17431 3.8362 6.31447 3.40835 6.59478C2.98051 6.86034 2.76658 7.22918 2.76658 7.70128C2.76658 8.08487 2.94362 8.37994 3.2977 8.58648C3.65178 8.79303 4.21241 9.01433 4.97958 9.25038C5.74676 9.47168 6.37377 9.68561 6.86063 9.89215C7.34749 10.0987 7.76059 10.4011 8.09991 10.7995C8.454 11.1978 8.63103 11.7068 8.63103 12.3265C8.63103 13.0641 8.43186 13.7133 8.03352 14.2739C7.64994 14.8198 7.10406 15.2476 6.3959 15.5574C5.68774 15.8525 4.88369 16 3.98373 16Z" fill="#F5F6F6"/>
</svg>
