<svg width="24" height="24" viewBox="0 0 24 24" fill="none" xmlns="http://www.w3.org/2000/svg">
<path d="M2.66667 0C1.196 0 0 1.196 0 2.66667V21.3333C0 22.804 1.196 24 2.66667 24H11.4948H15.2187H21.3333C22.804 24 24 22.804 24 21.3333V2.66667C24 1.196 22.804 0 21.3333 0H2.66667ZM2.66667 2.66667H21.3333L21.3359 21.3333H15.2187V16.0469H18.3724L18.8411 12.4141H15.2396V10.099C15.2396 9.04829 15.5324 8.33854 17.0391 8.33854H18.9427V5.09635C18.016 5.00169 17.0856 4.95567 16.1536 4.95833C13.3883 4.95833 11.4948 6.64612 11.4948 9.74479V12.4193H8.36979V16.0521H11.4948V21.3333H2.66667V2.66667Z" fill="#667472"/>
</svg>
