<svg width="743" height="440" viewBox="0 0 743 440" fill="none" xmlns="http://www.w3.org/2000/svg">
<g opacity="0.05">
<path fill-rule="evenodd" clip-rule="evenodd" d="M130.103 307.57C129.787 306.127 129.907 304.623 130.446 303.247C130.985 301.872 131.92 300.688 133.132 299.844C134.344 299 135.779 298.534 137.256 298.505C138.733 298.476 140.185 298.886 141.429 299.682C142.673 300.478 143.653 301.626 144.246 302.979C144.838 304.332 145.016 305.83 144.757 307.284C144.498 308.739 143.814 310.083 142.791 311.149C141.768 312.214 140.452 312.953 139.009 313.271C137.072 313.694 135.047 313.331 133.377 312.262C131.707 311.194 130.53 309.506 130.103 307.57ZM135.037 295.109C132.878 295.572 130.905 296.667 129.368 298.253C127.832 299.84 126.801 301.847 126.406 304.02C126.012 306.193 126.272 308.434 127.153 310.46C128.034 312.485 129.497 314.203 131.356 315.396C133.215 316.589 135.386 317.203 137.594 317.16C139.802 317.117 141.948 316.42 143.759 315.156C145.57 313.892 146.965 312.119 147.768 310.061C148.57 308.003 148.743 305.754 148.265 303.597C147.627 300.723 145.879 298.217 143.401 296.626C140.922 295.036 137.916 294.49 135.037 295.109Z" fill="url(#paint0_radial_750_296)"/>
<path fill-rule="evenodd" clip-rule="evenodd" d="M46.7499 269.364C46.4431 268.506 46.3976 267.575 46.6193 266.691C46.8409 265.806 47.3198 265.007 47.9953 264.394C48.6708 263.782 49.5127 263.383 50.4146 263.249C51.3166 263.114 52.2381 263.25 53.0629 263.639C53.8876 264.028 54.5786 264.653 55.0485 265.435C55.5185 266.216 55.7462 267.119 55.7031 268.03C55.66 268.941 55.3479 269.819 54.8062 270.552C54.2646 271.286 53.5177 271.843 52.6599 272.152C52.0888 272.358 51.4828 272.449 50.8764 272.421C50.2701 272.392 49.6754 272.244 49.1263 271.985C48.5773 271.726 48.0848 271.361 47.677 270.911C47.2692 270.462 46.9542 269.936 46.7499 269.364ZM48.785 261.405C47.5096 261.862 46.398 262.686 45.5905 263.774C44.783 264.862 44.3157 266.164 44.2476 267.517C44.1796 268.87 44.5137 270.213 45.2079 271.376C45.9021 272.539 46.9253 273.471 48.1484 274.053C49.3714 274.636 50.7396 274.843 52.0803 274.649C53.4209 274.454 54.674 273.867 55.6815 272.962C56.6889 272.056 57.4055 270.872 57.741 269.56C58.0764 268.247 58.0156 266.865 57.5663 265.587C57.268 264.733 56.8035 263.947 56.1995 263.274C55.5956 262.601 54.8642 262.054 54.0477 261.665C53.2311 261.276 52.3456 261.053 51.4423 261.008C50.539 260.964 49.6358 261.099 48.785 261.405Z" fill="url(#paint1_radial_750_296)"/>
<path fill-rule="evenodd" clip-rule="evenodd" d="M599.944 359.017C600.2 357.849 600.796 356.783 601.658 355.953C602.519 355.124 603.608 354.568 604.785 354.357C605.962 354.146 607.175 354.288 608.271 354.766C609.367 355.244 610.297 356.036 610.944 357.043C611.59 358.049 611.923 359.224 611.902 360.42C611.88 361.616 611.505 362.778 610.823 363.76C610.141 364.743 609.183 365.501 608.071 365.94C606.958 366.378 605.741 366.477 604.572 366.223C603.794 366.055 603.058 365.735 602.404 365.281C601.751 364.827 601.193 364.249 600.763 363.58C600.333 362.911 600.04 362.163 599.899 361.38C599.759 360.597 599.774 359.794 599.944 359.017ZM607.764 351.518C606.023 351.139 604.209 351.285 602.552 351.938C600.894 352.59 599.468 353.719 598.452 355.182C597.436 356.646 596.878 358.377 596.846 360.158C596.815 361.939 597.313 363.69 598.276 365.188C599.24 366.686 600.626 367.864 602.26 368.574C603.893 369.285 605.701 369.494 607.453 369.177C609.206 368.859 610.826 368.029 612.106 366.792C613.387 365.554 614.272 363.964 614.649 362.223C614.899 361.065 614.918 359.869 614.705 358.704C614.491 357.539 614.05 356.428 613.407 355.433C612.763 354.439 611.93 353.581 610.954 352.909C609.979 352.237 608.88 351.765 607.722 351.518H607.764Z" fill="url(#paint2_radial_750_296)"/>
<path fill-rule="evenodd" clip-rule="evenodd" d="M207.392 205.01C207.378 203.942 207.682 202.895 208.263 202C208.845 201.105 209.68 200.403 210.661 199.982C211.642 199.562 212.726 199.442 213.775 199.638C214.824 199.833 215.792 200.336 216.555 201.082C217.319 201.828 217.844 202.784 218.064 203.828C218.284 204.873 218.19 205.959 217.792 206.95C217.394 207.94 216.712 208.791 215.831 209.393C214.95 209.996 213.909 210.323 212.842 210.334C211.414 210.349 210.038 209.797 209.016 208.799C207.995 207.801 207.41 206.438 207.392 205.01ZM212.703 196.884C211.117 196.9 209.572 197.387 208.263 198.282C206.954 199.177 205.94 200.44 205.349 201.912C204.758 203.383 204.617 204.997 204.944 206.549C205.271 208.1 206.05 209.52 207.184 210.629C208.318 211.737 209.755 212.485 211.314 212.776C212.873 213.067 214.483 212.89 215.941 212.266C217.398 211.642 218.638 210.6 219.503 209.271C220.369 207.942 220.82 206.386 220.801 204.801C220.79 203.749 220.572 202.709 220.159 201.742C219.746 200.775 219.146 199.898 218.394 199.163C217.641 198.427 216.752 197.848 215.775 197.456C214.799 197.065 213.755 196.871 212.703 196.884Z" fill="url(#paint3_radial_750_296)"/>
<path fill-rule="evenodd" clip-rule="evenodd" d="M472.808 152.448C472.794 151.381 473.097 150.334 473.679 149.439C474.261 148.544 475.095 147.842 476.076 147.421C477.057 147 478.141 146.88 479.19 147.076C480.24 147.272 481.207 147.775 481.971 148.52C482.734 149.266 483.26 150.222 483.48 151.267C483.7 152.311 483.605 153.397 483.207 154.388C482.81 155.379 482.127 156.229 481.246 156.832C480.365 157.434 479.325 157.762 478.258 157.773C476.829 157.788 475.453 157.236 474.432 156.237C473.41 155.239 472.826 153.877 472.808 152.448ZM478.118 144.322C476.533 144.339 474.988 144.825 473.679 145.72C472.37 146.615 471.356 147.879 470.765 149.35C470.174 150.822 470.033 152.436 470.36 153.987C470.686 155.539 471.466 156.959 472.6 158.067C473.734 159.176 475.171 159.923 476.729 160.215C478.288 160.506 479.898 160.328 481.356 159.705C482.814 159.081 484.054 158.038 484.919 156.709C485.784 155.38 486.236 153.825 486.216 152.239C486.206 151.187 485.987 150.148 485.574 149.181C485.161 148.213 484.561 147.337 483.809 146.601C483.057 145.866 482.167 145.286 481.191 144.895C480.214 144.504 479.17 144.309 478.118 144.322Z" fill="url(#paint4_radial_750_296)"/>
<path fill-rule="evenodd" clip-rule="evenodd" d="M627.578 310.484C627.564 309.416 627.867 308.369 628.449 307.474C629.031 306.579 629.865 305.877 630.846 305.456C631.827 305.036 632.911 304.916 633.961 305.111C635.01 305.307 635.978 305.81 636.741 306.556C637.505 307.302 638.03 308.257 638.25 309.302C638.47 310.346 638.375 311.433 637.978 312.423C637.58 313.414 636.897 314.264 636.016 314.867C635.135 315.469 634.095 315.797 633.028 315.808C631.599 315.823 630.224 315.271 629.202 314.273C628.18 313.274 627.596 311.912 627.578 310.484ZM632.888 302.357C631.303 302.374 629.758 302.861 628.449 303.756C627.14 304.651 626.126 305.914 625.535 307.386C624.944 308.857 624.803 310.471 625.13 312.022C625.456 313.574 626.236 314.994 627.37 316.103C628.504 317.211 629.941 317.958 631.5 318.25C633.058 318.541 634.668 318.364 636.126 317.74C637.584 317.116 638.824 316.073 639.689 314.745C640.554 313.416 641.006 311.86 640.987 310.275C640.976 309.223 640.757 308.183 640.344 307.216C639.931 306.248 639.331 305.372 638.579 304.637C637.827 303.901 636.937 303.321 635.961 302.93C634.984 302.539 633.94 302.345 632.888 302.357Z" fill="url(#paint5_radial_750_296)"/>
<path fill-rule="evenodd" clip-rule="evenodd" d="M375.229 97.8887C375.187 97.2279 375.341 96.5691 375.672 95.996C376.004 95.4228 376.499 94.961 377.093 94.6691C377.688 94.3772 378.355 94.2683 379.012 94.3562C379.668 94.4441 380.284 94.7248 380.78 95.1629C381.277 95.6009 381.633 96.1765 381.802 96.8168C381.971 97.457 381.947 98.1331 381.731 98.7594C381.516 99.3857 381.12 99.934 380.592 100.335C380.065 100.736 379.431 100.971 378.77 101.011C378.332 101.039 377.893 100.981 377.478 100.839C377.063 100.698 376.68 100.475 376.351 100.185C376.022 99.8951 375.754 99.5429 375.561 99.1488C375.369 98.7547 375.256 98.3265 375.229 97.8887ZM378.24 92.7315C377.258 92.783 376.314 93.1249 375.527 93.714C374.74 94.3031 374.146 95.1126 373.819 96.0401C373.493 96.9675 373.45 97.9709 373.694 98.923C373.939 99.8751 374.462 100.733 375.195 101.388C375.928 102.043 376.839 102.465 377.813 102.601C378.787 102.737 379.779 102.581 380.664 102.152C381.548 101.724 382.286 101.042 382.783 100.194C383.279 99.3451 383.513 98.3683 383.453 97.387C383.371 96.0839 382.776 94.8662 381.8 93.9994C380.823 93.1326 379.544 92.6869 378.24 92.7593V92.7315Z" fill="url(#paint6_radial_750_296)"/>
<path fill-rule="evenodd" clip-rule="evenodd" d="M579.371 165.619L567.244 169.188L569.906 157.242L579.371 165.619ZM571.008 154.246C570.703 153.977 570.333 153.792 569.935 153.709C569.537 153.626 569.124 153.649 568.738 153.774C568.351 153.899 568.003 154.123 567.729 154.423C567.455 154.723 567.264 155.09 567.174 155.486L564.024 169.648C563.926 170.046 563.935 170.464 564.05 170.857C564.165 171.251 564.382 171.608 564.679 171.891C564.976 172.174 565.343 172.373 565.742 172.469C566.141 172.565 566.558 172.553 566.951 172.435L581.336 168.254C581.735 168.135 582.094 167.911 582.378 167.607C582.661 167.302 582.859 166.928 582.95 166.522C583.041 166.116 583.022 165.693 582.895 165.297C582.768 164.901 582.538 164.545 582.228 164.267L571.008 154.246Z" fill="url(#paint7_radial_750_296)"/>
<path fill-rule="evenodd" clip-rule="evenodd" d="M652.631 241.938L646.958 246.482L645.759 239.513L652.631 241.938ZM645.662 237.757C645.442 237.696 645.21 237.69 644.987 237.739C644.764 237.789 644.556 237.893 644.383 238.042C644.209 238.19 644.075 238.379 643.992 238.592C643.909 238.805 643.879 239.035 643.905 239.262L645.299 247.472C645.351 247.694 645.457 247.9 645.607 248.072C645.757 248.244 645.948 248.376 646.161 248.458C646.374 248.539 646.604 248.566 646.831 248.538C647.057 248.509 647.273 248.426 647.46 248.294L654.178 242.914C654.351 242.757 654.482 242.559 654.558 242.338C654.635 242.117 654.654 241.881 654.615 241.65C654.577 241.42 654.48 241.203 654.336 241.019C654.191 240.836 654.003 240.692 653.788 240.6L645.662 237.757Z" fill="url(#paint8_radial_750_296)"/>
<path fill-rule="evenodd" clip-rule="evenodd" d="M160.656 410.855L148.739 416.611L149.449 403.816L160.656 410.855ZM150.119 400.526C149.76 400.3 149.348 400.171 148.924 400.153C148.5 400.134 148.079 400.227 147.702 400.421C147.324 400.615 147.004 400.905 146.773 401.26C146.542 401.616 146.407 402.026 146.383 402.45L145.533 417.615C145.51 418.039 145.598 418.461 145.788 418.84C145.978 419.22 146.264 419.543 146.617 419.778C146.971 420.013 147.379 420.152 147.802 420.181C148.226 420.21 148.649 420.127 149.031 419.943L163.151 413.141C163.544 412.951 163.879 412.66 164.122 412.297C164.364 411.935 164.505 411.513 164.529 411.078C164.553 410.642 164.46 410.208 164.259 409.821C164.059 409.433 163.758 409.107 163.388 408.875L150.119 400.526Z" fill="url(#paint9_radial_750_296)"/>
<path fill-rule="evenodd" clip-rule="evenodd" d="M494.819 71.757L486.066 78.5173L484.435 67.9379L494.819 71.757ZM484.407 65.1362C484.074 65.0167 483.715 64.9857 483.366 65.0461C483.017 65.1066 482.69 65.2564 482.416 65.481C482.142 65.7057 481.932 65.9974 481.804 66.3279C481.677 66.6583 481.637 67.0161 481.689 67.3664L483.627 79.9111C483.682 80.2607 483.828 80.5899 484.048 80.8666C484.269 81.1433 484.558 81.3581 484.886 81.4901C485.215 81.622 485.572 81.6666 485.923 81.6195C486.274 81.5724 486.606 81.4352 486.888 81.2213L497.245 73.2067C497.533 72.9828 497.757 72.6858 497.892 72.3464C498.028 72.007 498.07 71.6377 498.014 71.2766C497.959 70.9155 497.808 70.5757 497.577 70.2926C497.346 70.0095 497.044 69.7932 496.701 69.6663L484.407 65.1362Z" fill="url(#paint10_radial_750_296)"/>
<path fill-rule="evenodd" clip-rule="evenodd" d="M358.904 325.425L348.2 327.558L351.419 317.48L358.904 325.425ZM352.632 314.999C352.391 314.745 352.088 314.559 351.753 314.457C351.418 314.356 351.062 314.343 350.721 314.42C350.379 314.497 350.064 314.662 349.805 314.898C349.546 315.134 349.353 315.433 349.245 315.766L345.426 327.697C345.32 328.031 345.303 328.387 345.377 328.73C345.45 329.073 345.612 329.39 345.845 329.652C346.078 329.913 346.376 330.11 346.708 330.221C347.04 330.333 347.396 330.357 347.74 330.29L360.424 327.767C360.778 327.699 361.108 327.537 361.378 327.298C361.648 327.058 361.849 326.75 361.959 326.406C362.069 326.063 362.084 325.695 362.002 325.344C361.921 324.992 361.747 324.669 361.497 324.408L352.632 314.999Z" fill="url(#paint11_radial_750_296)"/>
<path fill-rule="evenodd" clip-rule="evenodd" d="M673.98 428.137L663.276 430.27L666.495 420.192L673.98 428.137ZM667.708 417.711C667.467 417.458 667.164 417.271 666.829 417.169C666.494 417.068 666.138 417.055 665.797 417.132C665.455 417.21 665.14 417.374 664.881 417.61C664.622 417.846 664.429 418.145 664.321 418.478L660.502 430.409C660.396 430.744 660.379 431.1 660.453 431.442C660.526 431.785 660.688 432.103 660.921 432.364C661.154 432.625 661.452 432.822 661.784 432.934C662.116 433.045 662.472 433.069 662.816 433.002L675.5 430.479C675.854 430.411 676.184 430.249 676.454 430.01C676.724 429.77 676.925 429.462 677.035 429.119C677.145 428.775 677.16 428.408 677.079 428.056C676.997 427.704 676.823 427.381 676.573 427.12L667.708 417.711Z" fill="url(#paint12_radial_750_296)"/>
<path fill-rule="evenodd" clip-rule="evenodd" d="M211.599 63.9108C211.569 63.6828 211.586 63.4512 211.646 63.2295C211.707 63.0077 211.811 62.8002 211.952 62.6188C212.093 62.4374 212.269 62.2858 212.469 62.1726C212.669 62.0594 212.89 61.9869 213.118 61.9594L223.028 60.7467C223.256 60.7175 223.488 60.7337 223.71 60.7943C223.931 60.8549 224.139 60.9589 224.32 61.1001C224.502 61.2414 224.653 61.4171 224.766 61.6172C224.88 61.8173 224.952 62.0378 224.98 62.266L226.192 72.1763C226.222 72.4044 226.205 72.636 226.145 72.8577C226.084 73.0794 225.98 73.287 225.839 73.4684C225.698 73.6498 225.522 73.8014 225.322 73.9146C225.122 74.0278 224.901 74.1002 224.673 74.1278L214.763 75.3404C214.535 75.3697 214.303 75.3535 214.081 75.2928C213.86 75.2322 213.652 75.1283 213.471 74.987C213.289 74.8458 213.138 74.6701 213.024 74.47C212.911 74.2699 212.839 74.0494 212.811 73.8211L211.599 63.9108ZM213.885 64.1338L214.986 73.0545L223.906 71.9534L222.805 63.0326L213.885 64.1338Z" fill="url(#paint13_radial_750_296)"/>
<path fill-rule="evenodd" clip-rule="evenodd" d="M585.482 110.097C585.296 109.962 585.139 109.791 585.019 109.594C584.9 109.398 584.821 109.18 584.786 108.952C584.751 108.725 584.762 108.493 584.817 108.27C584.873 108.047 584.972 107.837 585.108 107.652L591.04 99.6208C591.175 99.4351 591.346 99.278 591.543 99.1587C591.739 99.0393 591.957 98.96 592.185 98.9253C592.412 98.8907 592.644 98.9013 592.867 98.9566C593.09 99.012 593.3 99.111 593.485 99.2478L601.516 105.179C601.702 105.315 601.859 105.486 601.978 105.682C602.098 105.878 602.177 106.097 602.212 106.324C602.246 106.551 602.236 106.783 602.18 107.006C602.125 107.229 602.026 107.439 601.889 107.624L595.958 115.655C595.822 115.841 595.651 115.998 595.455 116.118C595.258 116.237 595.04 116.316 594.813 116.351C594.586 116.386 594.354 116.375 594.131 116.32C593.908 116.264 593.698 116.165 593.513 116.028L585.482 110.097ZM587.215 108.59L594.451 113.922L599.783 106.686L592.547 101.354L587.215 108.59Z" fill="url(#paint14_radial_750_296)"/>
<path fill-rule="evenodd" clip-rule="evenodd" d="M340.505 424.751C340.578 424.652 340.67 424.569 340.776 424.505C340.881 424.442 340.998 424.399 341.12 424.381C341.242 424.363 341.366 424.369 341.485 424.399C341.605 424.429 341.717 424.483 341.816 424.556L346.081 427.762C346.275 427.911 346.403 428.131 346.436 428.373C346.47 428.616 346.408 428.862 346.262 429.058L343.07 433.338C342.918 433.533 342.697 433.661 342.452 433.695C342.207 433.728 341.959 433.665 341.76 433.519L337.495 430.313C337.395 430.241 337.312 430.151 337.249 430.046C337.185 429.941 337.144 429.825 337.127 429.703C337.11 429.582 337.118 429.459 337.15 429.341C337.182 429.223 337.238 429.113 337.313 429.017L340.505 424.751ZM341.3 425.685L338.429 429.518L342.262 432.404L345.147 428.557L341.3 425.685Z" fill="url(#paint15_radial_750_296)"/>
<path fill-rule="evenodd" clip-rule="evenodd" d="M481.801 206.557C481.775 206.416 481.777 206.271 481.807 206.131C481.837 205.991 481.894 205.858 481.976 205.74C482.057 205.622 482.162 205.522 482.282 205.444C482.403 205.367 482.538 205.314 482.679 205.289L488.826 204.132C489.108 204.079 489.401 204.14 489.638 204.302C489.876 204.464 490.04 204.713 490.094 204.996L491.251 211.143C491.277 211.284 491.275 211.429 491.245 211.569C491.215 211.709 491.158 211.842 491.076 211.96C490.994 212.078 490.89 212.178 490.77 212.256C490.649 212.333 490.514 212.386 490.373 212.411L484.24 213.568C483.956 213.622 483.662 213.561 483.422 213.399C483.182 213.237 483.015 212.988 482.958 212.704L481.801 206.557ZM483.195 206.557L484.226 212.133L489.801 211.087L488.756 205.512L483.195 206.557Z" fill="url(#paint16_radial_750_296)"/>
<path fill-rule="evenodd" clip-rule="evenodd" d="M332.268 382.601C332.227 382.423 332.221 382.238 332.251 382.057C332.281 381.876 332.347 381.703 332.444 381.548C332.541 381.393 332.668 381.258 332.817 381.152C332.966 381.046 333.135 380.97 333.313 380.929L341.091 379.117C341.27 379.073 341.457 379.066 341.639 379.095C341.821 379.124 341.996 379.189 342.153 379.287C342.31 379.384 342.446 379.511 342.553 379.662C342.66 379.812 342.736 379.982 342.777 380.162L344.576 387.94C344.617 388.118 344.623 388.303 344.592 388.484C344.562 388.664 344.497 388.837 344.4 388.993C344.302 389.148 344.176 389.283 344.027 389.389C343.877 389.495 343.709 389.571 343.53 389.612L335.752 391.424C335.574 391.466 335.389 391.471 335.208 391.441C335.028 391.411 334.855 391.345 334.699 391.248C334.544 391.151 334.409 391.024 334.303 390.875C334.197 390.726 334.121 390.557 334.08 390.379L332.268 382.601ZM334.108 382.601L335.738 389.57L342.708 387.94L341.091 380.97L334.108 382.601Z" fill="url(#paint17_radial_750_296)"/>
<path fill-rule="evenodd" clip-rule="evenodd" d="M99.9693 107.18C99.94 106.95 99.9566 106.717 100.018 106.493C100.079 106.27 100.184 106.061 100.327 105.878C100.469 105.695 100.647 105.543 100.848 105.429C101.05 105.315 101.272 105.242 101.502 105.214L111.51 103.974C111.74 103.945 111.974 103.961 112.197 104.023C112.42 104.084 112.63 104.189 112.812 104.331C112.995 104.474 113.148 104.651 113.261 104.853C113.375 105.055 113.448 105.277 113.476 105.507L114.716 115.529C114.768 115.994 114.634 116.461 114.345 116.828C114.055 117.196 113.633 117.435 113.169 117.494L103.161 118.721C102.698 118.776 102.231 118.646 101.863 118.359C101.495 118.072 101.255 117.651 101.196 117.188L99.9693 107.18ZM102.283 107.403L103.384 116.407L112.402 115.306L111.287 106.288L102.283 107.403Z" fill="url(#paint18_radial_750_296)"/>
<path fill-rule="evenodd" clip-rule="evenodd" d="M275.984 121.211C276.099 121.144 276.2 121.054 276.281 120.947C276.361 120.84 276.419 120.717 276.452 120.588C276.484 120.458 276.49 120.323 276.47 120.19C276.449 120.058 276.402 119.931 276.332 119.817C276.266 119.7 276.177 119.598 276.07 119.516C275.963 119.435 275.841 119.376 275.71 119.343C275.58 119.311 275.444 119.305 275.311 119.327C275.179 119.348 275.052 119.397 274.938 119.469L270.074 122.354L267.189 117.476C267.131 117.346 267.046 117.231 266.941 117.136C266.835 117.042 266.711 116.971 266.576 116.928C266.441 116.885 266.299 116.871 266.158 116.887C266.017 116.903 265.882 116.949 265.76 117.021C265.638 117.094 265.533 117.191 265.451 117.307C265.37 117.422 265.314 117.554 265.287 117.693C265.26 117.832 265.263 117.975 265.295 118.113C265.327 118.251 265.388 118.38 265.474 118.493L268.359 123.358L263.495 126.243C263.378 126.309 263.275 126.398 263.194 126.505C263.112 126.612 263.053 126.734 263.021 126.865C262.988 126.995 262.982 127.131 263.004 127.264C263.026 127.396 263.074 127.523 263.146 127.637C263.211 127.755 263.299 127.859 263.406 127.942C263.513 128.025 263.636 128.084 263.767 128.117C263.898 128.15 264.034 128.155 264.167 128.132C264.3 128.11 264.427 128.06 264.54 127.985L269.419 125.1L272.304 129.978C272.371 130.094 272.461 130.195 272.568 130.275C272.675 130.356 272.798 130.414 272.927 130.446C273.057 130.479 273.192 130.485 273.325 130.465C273.457 130.444 273.584 130.397 273.698 130.327C273.929 130.188 274.095 129.963 274.16 129.702C274.225 129.441 274.184 129.164 274.046 128.933L271.161 124.069L275.984 121.211Z" fill="url(#paint19_radial_750_296)"/>
<path fill-rule="evenodd" clip-rule="evenodd" d="M309.848 32.2899C310.018 32.1612 310.161 32.0002 310.268 31.8162C310.375 31.6322 310.445 31.4288 310.474 31.2177C310.502 31.0065 310.489 30.7918 310.434 30.5859C310.379 30.3801 310.284 30.187 310.155 30.0179C310.027 29.8486 309.868 29.7062 309.685 29.599C309.502 29.4919 309.3 29.422 309.09 29.3935C308.88 29.3649 308.666 29.3783 308.462 29.4329C308.257 29.4874 308.065 29.582 307.897 29.7113L300.593 35.2867L295.018 27.9829C294.749 27.6746 294.374 27.4794 293.968 27.4365C293.561 27.3937 293.154 27.5064 292.827 27.7519C292.5 27.9974 292.278 28.3575 292.206 28.7598C292.135 29.1621 292.218 29.5768 292.439 29.9203L298.014 37.2381L290.697 42.8135C290.508 42.9337 290.347 43.0918 290.222 43.2776C290.098 43.4634 290.013 43.673 289.974 43.8931C289.935 44.1133 289.942 44.3392 289.994 44.5565C290.047 44.7739 290.144 44.9779 290.279 45.1559C290.415 45.3338 290.585 45.4818 290.781 45.5903C290.976 45.6989 291.192 45.7657 291.415 45.7866C291.638 45.8075 291.862 45.782 292.074 45.7117C292.287 45.6414 292.482 45.5278 292.648 45.3782L299.952 39.8028L305.527 47.1066C305.652 47.2785 305.811 47.4236 305.993 47.5332C306.175 47.6427 306.378 47.7146 306.589 47.7445C306.799 47.7744 307.014 47.7617 307.219 47.7072C307.425 47.6527 307.617 47.5575 307.785 47.4272C308.126 47.1696 308.351 46.7875 308.412 46.3643C308.472 45.9412 308.362 45.5115 308.106 45.1691L302.531 37.8514L309.848 32.2899Z" fill="url(#paint20_radial_750_296)"/>
<path fill-rule="evenodd" clip-rule="evenodd" d="M360.8 257.405C361.053 257.246 361.238 256.998 361.316 256.709C361.393 256.42 361.359 256.113 361.22 255.848C361.081 255.584 360.846 255.382 360.564 255.283C360.282 255.184 359.973 255.195 359.699 255.314L353.803 258.423L350.695 252.513C350.622 252.376 350.524 252.255 350.405 252.157C350.286 252.059 350.149 251.985 350.001 251.94C349.854 251.894 349.698 251.878 349.545 251.893C349.391 251.908 349.242 251.952 349.106 252.025C348.969 252.097 348.848 252.195 348.75 252.314C348.652 252.433 348.578 252.571 348.533 252.718C348.487 252.866 348.471 253.021 348.486 253.174C348.501 253.328 348.545 253.477 348.618 253.614L351.726 259.51L345.816 262.618C345.543 262.766 345.337 263.015 345.244 263.311C345.15 263.608 345.175 263.929 345.314 264.207C345.386 264.344 345.484 264.465 345.603 264.564C345.722 264.662 345.859 264.736 346.007 264.782C346.155 264.827 346.31 264.843 346.464 264.828C346.618 264.813 346.767 264.768 346.903 264.695L352.813 261.6L355.908 267.497C356.053 267.773 356.301 267.98 356.599 268.074C356.896 268.168 357.219 268.141 357.497 267.998C357.77 267.85 357.975 267.602 358.069 267.305C358.162 267.009 358.137 266.688 357.998 266.409L354.89 260.499L360.8 257.405Z" fill="url(#paint21_radial_750_296)"/>
<path fill-rule="evenodd" clip-rule="evenodd" d="M675.876 360.117C676.13 359.959 676.314 359.71 676.392 359.421C676.47 359.133 676.435 358.825 676.296 358.561C676.157 358.296 675.922 358.094 675.64 357.995C675.358 357.896 675.049 357.907 674.775 358.026L668.879 361.135L665.771 355.225C665.698 355.088 665.6 354.968 665.481 354.869C665.362 354.771 665.225 354.697 665.077 354.652C664.93 354.606 664.775 354.591 664.621 354.605C664.467 354.62 664.318 354.665 664.182 354.737C664.045 354.809 663.924 354.908 663.826 355.027C663.728 355.146 663.654 355.283 663.609 355.43C663.563 355.578 663.548 355.733 663.562 355.887C663.577 356.04 663.621 356.189 663.694 356.326L666.802 362.222L660.892 365.33C660.619 365.478 660.414 365.727 660.32 366.023C660.226 366.32 660.252 366.641 660.39 366.919C660.462 367.056 660.56 367.177 660.679 367.276C660.798 367.374 660.936 367.449 661.083 367.494C661.231 367.539 661.386 367.555 661.54 367.54C661.694 367.525 661.843 367.48 661.979 367.407L667.889 364.313L670.984 370.209C671.129 370.485 671.378 370.692 671.675 370.786C671.973 370.88 672.295 370.853 672.573 370.71C672.846 370.562 673.051 370.314 673.145 370.017C673.238 369.721 673.213 369.4 673.074 369.121L669.966 363.211L675.876 360.117Z" fill="url(#paint22_radial_750_296)"/>
<path fill-rule="evenodd" clip-rule="evenodd" d="M411.955 296.154C411.986 295.976 411.949 295.792 411.852 295.64C411.755 295.487 411.604 295.376 411.43 295.329C411.255 295.282 411.069 295.302 410.908 295.385C410.747 295.468 410.623 295.608 410.561 295.778L409.515 299.722L405.613 298.635C405.521 298.61 405.425 298.604 405.331 298.616C405.237 298.629 405.147 298.66 405.065 298.708C404.983 298.756 404.911 298.82 404.855 298.896C404.798 298.972 404.757 299.059 404.734 299.151C404.687 299.334 404.713 299.528 404.807 299.692C404.901 299.856 405.055 299.977 405.236 300.029L409.181 301.074L408.135 305.019C408.104 305.197 408.141 305.381 408.238 305.534C408.335 305.686 408.486 305.797 408.66 305.844C408.835 305.891 409.021 305.871 409.182 305.788C409.343 305.705 409.467 305.565 409.529 305.395L410.575 301.451L414.519 302.496C414.698 302.527 414.881 302.491 415.034 302.394C415.186 302.297 415.297 302.146 415.344 301.971C415.392 301.797 415.372 301.61 415.289 301.45C415.206 301.289 415.065 301.165 414.896 301.102L410.951 300.057L411.955 296.154Z" fill="url(#paint23_radial_750_296)"/>
<path fill-rule="evenodd" clip-rule="evenodd" d="M742.444 386.239C742.697 386.08 742.881 385.832 742.959 385.543C743.037 385.254 743.003 384.947 742.864 384.682C742.724 384.418 742.49 384.215 742.208 384.116C741.926 384.017 741.617 384.029 741.342 384.148L735.446 387.256L732.338 381.346C732.266 381.21 732.167 381.089 732.048 380.991C731.929 380.892 731.792 380.818 731.645 380.773C731.497 380.728 731.342 380.712 731.188 380.727C731.035 380.741 730.885 380.786 730.749 380.858C730.613 380.931 730.492 381.029 730.394 381.148C730.295 381.267 730.221 381.404 730.176 381.552C730.131 381.699 730.115 381.854 730.13 382.008C730.144 382.162 730.189 382.311 730.261 382.447L733.37 388.343L727.46 391.452C727.186 391.6 726.981 391.848 726.888 392.145C726.794 392.441 726.819 392.762 726.958 393.041C727.03 393.177 727.128 393.299 727.247 393.397C727.366 393.496 727.503 393.57 727.651 393.615C727.798 393.661 727.954 393.677 728.107 393.662C728.261 393.647 728.411 393.601 728.547 393.529L734.457 390.434L737.551 396.33C737.697 396.606 737.945 396.814 738.243 396.908C738.54 397.002 738.863 396.974 739.14 396.832C739.414 396.684 739.619 396.435 739.712 396.139C739.806 395.842 739.781 395.521 739.642 395.243L736.534 389.333L742.444 386.239Z" fill="url(#paint24_radial_750_296)"/>
<path fill-rule="evenodd" clip-rule="evenodd" d="M222.78 286.09C222.814 285.943 222.816 285.79 222.787 285.641C222.759 285.492 222.699 285.351 222.612 285.227C222.526 285.103 222.414 284.998 222.284 284.919C222.155 284.841 222.01 284.79 221.86 284.77C221.71 284.751 221.557 284.763 221.412 284.806C221.267 284.849 221.132 284.922 221.017 285.02C220.901 285.118 220.807 285.239 220.741 285.375C220.676 285.512 220.639 285.66 220.634 285.812L219.867 291.889L213.79 291.108C213.65 291.091 213.508 291.101 213.372 291.138C213.235 291.176 213.108 291.24 212.997 291.327C212.885 291.413 212.792 291.521 212.723 291.644C212.653 291.767 212.608 291.902 212.591 292.042C212.57 292.184 212.577 292.328 212.613 292.466C212.648 292.605 212.712 292.735 212.799 292.848C212.886 292.961 212.996 293.056 213.12 293.126C213.245 293.196 213.383 293.24 213.525 293.255L219.588 294.021L218.822 300.099C218.804 300.239 218.814 300.381 218.852 300.517C218.889 300.653 218.953 300.78 219.04 300.892C219.127 301.003 219.235 301.096 219.357 301.166C219.48 301.235 219.615 301.28 219.756 301.297C219.896 301.317 220.039 301.308 220.176 301.271C220.312 301.235 220.44 301.171 220.552 301.084C220.664 300.997 220.757 300.888 220.826 300.764C220.895 300.641 220.939 300.504 220.954 300.363L221.735 294.3L227.798 295.067C227.939 295.088 228.084 295.081 228.222 295.045C228.361 295.01 228.491 294.946 228.604 294.859C228.717 294.772 228.812 294.662 228.882 294.538C228.951 294.413 228.995 294.275 229.011 294.133C229.028 293.993 229.018 293.851 228.981 293.715C228.943 293.579 228.879 293.451 228.792 293.34C228.706 293.229 228.598 293.135 228.475 293.066C228.352 292.996 228.217 292.951 228.077 292.934L222 292.154L222.78 286.09Z" fill="url(#paint25_radial_750_296)"/>
<path fill-rule="evenodd" clip-rule="evenodd" d="M537.856 388.803C537.89 388.655 537.892 388.502 537.864 388.353C537.835 388.204 537.775 388.063 537.688 387.939C537.602 387.815 537.49 387.71 537.361 387.631C537.231 387.553 537.087 387.502 536.936 387.483C536.786 387.463 536.633 387.475 536.488 387.518C536.343 387.561 536.208 387.634 536.093 387.732C535.977 387.83 535.883 387.951 535.818 388.087C535.752 388.224 535.715 388.372 535.71 388.524L534.943 394.601L528.866 393.82C528.726 393.803 528.584 393.813 528.448 393.851C528.311 393.888 528.184 393.952 528.073 394.039C527.961 394.125 527.868 394.233 527.799 394.356C527.729 394.479 527.684 394.614 527.667 394.754C527.646 394.896 527.653 395.04 527.689 395.178C527.724 395.317 527.788 395.447 527.875 395.56C527.962 395.673 528.072 395.768 528.196 395.838C528.321 395.908 528.459 395.952 528.601 395.967L534.664 396.734L533.898 402.811C533.88 402.951 533.89 403.093 533.928 403.229C533.965 403.365 534.029 403.493 534.116 403.604C534.203 403.715 534.311 403.808 534.433 403.878C534.556 403.948 534.692 403.992 534.832 404.01C534.972 404.029 535.115 404.02 535.252 403.983C535.388 403.947 535.517 403.883 535.628 403.796C535.74 403.709 535.833 403.6 535.902 403.477C535.971 403.353 536.015 403.216 536.03 403.076L536.811 397.012L542.874 397.779C543.016 397.801 543.16 397.793 543.298 397.757C543.437 397.722 543.567 397.658 543.68 397.571C543.793 397.484 543.888 397.374 543.958 397.25C544.028 397.125 544.071 396.987 544.087 396.845C544.104 396.705 544.094 396.563 544.057 396.427C544.019 396.291 543.955 396.163 543.869 396.052C543.782 395.941 543.674 395.848 543.551 395.778C543.428 395.708 543.293 395.664 543.153 395.646L537.076 394.866L537.856 388.803Z" fill="url(#paint26_radial_750_296)"/>
<path d="M169.807 2.50893C170.029 1.93674 170.295 1.38229 170.601 0.850275C170.764 0.5167 171.003 0.225608 171.298 0C171.41 0 171.563 0.13937 171.619 0.376326C171.694 0.925903 171.726 1.48044 171.716 2.03502C171.74 3.22581 171.946 4.40589 172.329 5.53362C172.625 6.67619 173.007 7.79452 173.472 8.87887C173.85 9.60131 174.264 10.3038 174.713 10.9836C175.244 11.7314 175.602 12.5887 175.758 13.4925C175.94 14.287 176.177 15.6809 176.274 16.573C176.329 17.2774 176.46 17.9737 176.664 18.6498C176.809 18.9209 177.04 19.1365 177.32 19.2631C177.969 19.3698 178.629 19.3979 179.285 19.3467C180.581 19.2771 180.916 19.3467 181.501 19.6952C181.863 19.9112 182.192 20.1788 182.477 20.4897C182.653 20.7953 182.771 21.1308 182.825 21.4793C182.825 21.8836 182.825 22.232 182.114 23.0126H180.177C179.368 22.9811 178.557 23.009 177.752 23.0962C177.64 23.1119 177.533 23.1526 177.438 23.2154C177.344 23.2781 177.266 23.3613 177.208 23.4586C177.188 23.7375 177.226 24.0176 177.32 24.281C177.476 24.7676 177.686 25.2352 177.947 25.6749C178.14 26.0055 178.308 26.3503 178.449 26.7063C178.449 26.8039 178.365 27.013 178.198 27.1524C178.03 27.2917 177.584 27.3893 176.804 27.3614C176.042 27.3404 175.298 27.1244 174.643 26.7342C173.724 26.1846 172.935 25.4428 172.329 24.5598C171.747 23.8061 171.089 23.1148 170.364 22.4969C169.838 22.1875 169.263 21.9706 168.664 21.8557C167.906 21.7507 167.143 21.6856 166.378 21.6606C165.667 21.6606 164.984 21.5769 164.844 21.563C164.72 21.5082 164.62 21.4087 164.566 21.2842C164.566 21.1587 164.775 20.8521 165.081 20.5873C165.413 20.3144 165.763 20.063 166.127 19.8346C166.941 19.4781 167.779 19.1799 168.636 18.9425C170.308 18.4129 170.685 18.2316 170.81 17.9389C170.904 17.6178 170.941 17.2831 170.922 16.9493C170.682 15.9454 170.351 14.9655 169.932 14.0222C169.401 12.8558 169.013 11.6297 168.775 10.3703C168.682 9.4434 168.682 8.50949 168.775 7.58259C168.866 6.64412 169.02 5.7128 169.235 4.79487C169.361 4.02825 169.625 3.01072 169.807 2.50893Z" fill="url(#paint27_radial_750_296)"/>
<path d="M398.434 24.3102C398.677 23.9151 398.947 23.5378 399.243 23.1811C399.494 22.9024 399.772 22.6515 399.87 22.6515C399.968 22.6515 400.051 22.7909 400.051 22.9721C400.037 23.3886 399.99 23.8033 399.912 24.2126C399.778 25.1043 399.778 26.011 399.912 26.9027C399.979 27.7899 400.114 28.6706 400.316 29.5371C400.455 30.011 400.748 30.7916 400.957 31.2795C401.254 31.9028 401.416 32.5822 401.431 33.2727C401.431 33.8999 401.431 34.9732 401.431 35.6422C401.373 36.1749 401.373 36.7125 401.431 37.2452C401.504 37.4616 401.646 37.6479 401.835 37.7748C402.285 37.94 402.753 38.0522 403.229 38.1094C404.205 38.2348 404.442 38.3184 404.832 38.6669C405.073 38.8747 405.28 39.1193 405.445 39.3917C405.533 39.6423 405.576 39.9067 405.571 40.1723C405.571 40.4789 405.445 40.7298 404.832 41.2177L403.438 40.9249C402.842 40.7847 402.237 40.6915 401.626 40.6462C401.542 40.6465 401.46 40.664 401.383 40.6976C401.306 40.7312 401.237 40.7801 401.18 40.8413C401.14 41.0485 401.14 41.2614 401.18 41.4686C401.232 41.8494 401.325 42.2234 401.459 42.5836C401.56 42.8508 401.639 43.1259 401.696 43.406C401.678 43.4718 401.646 43.5331 401.603 43.586C401.56 43.6388 401.506 43.6819 401.445 43.7127C401.264 43.8102 400.957 43.8102 400.344 43.7127C399.785 43.5972 399.266 43.3377 398.839 42.96C398.24 42.4223 397.764 41.7614 397.445 41.0225C397.113 40.3869 396.721 39.7848 396.274 39.2244C395.923 38.9241 395.522 38.6882 395.089 38.5275C394.541 38.3424 393.982 38.1888 393.416 38.0675C392.887 37.956 392.385 37.8166 392.287 37.7888C392.244 37.7607 392.206 37.724 392.177 37.6808C392.149 37.6376 392.129 37.589 392.12 37.5379C392.12 37.4403 392.329 37.2452 392.594 37.0918C392.877 36.9322 393.17 36.7924 393.472 36.6737C394.129 36.5255 394.795 36.4185 395.465 36.3531C396.776 36.1858 397.082 36.1022 397.208 35.8931C397.26 35.6647 397.274 35.4292 397.25 35.1962C397.21 34.4162 397.098 33.6416 396.915 32.8824C396.682 31.9709 396.556 31.0354 396.539 30.0947C396.579 29.4019 396.691 28.7152 396.873 28.0457C397.068 27.3671 397.306 26.7014 397.584 26.0525C397.834 25.4561 398.118 24.8744 398.434 24.3102Z" fill="url(#paint28_radial_750_296)"/>
<path d="M527.519 244.721C527.863 244.339 528.236 243.985 528.635 243.661C528.858 243.456 529.124 243.303 529.415 243.215C529.513 243.215 529.582 243.397 529.554 243.606C529.451 244.053 529.311 244.491 529.136 244.916C528.807 245.845 528.615 246.817 528.565 247.801C528.46 248.773 528.423 249.751 528.453 250.728C528.523 251.272 528.676 252.122 528.802 252.736C528.964 253.475 528.964 254.24 528.802 254.98C528.704 255.663 528.467 256.806 528.286 257.53C528.117 258.093 528.009 258.673 527.965 259.259C528 259.506 528.112 259.735 528.286 259.914C528.76 260.191 529.265 260.411 529.791 260.569C530.809 260.904 531.06 261.029 531.408 261.489C531.625 261.766 531.794 262.077 531.91 262.409C531.965 262.694 531.965 262.988 531.91 263.273C531.84 263.594 531.659 263.845 530.906 264.249L529.415 263.635C528.8 263.368 528.166 263.144 527.519 262.966C527.427 262.948 527.332 262.95 527.241 262.972C527.15 262.993 527.064 263.034 526.99 263.092C526.888 263.301 526.831 263.529 526.822 263.761C526.813 264.181 526.841 264.601 526.906 265.015C526.956 265.329 526.984 265.646 526.99 265.963C526.958 266.03 526.911 266.088 526.853 266.134C526.795 266.18 526.727 266.212 526.655 266.228C526.446 266.312 526.112 266.228 525.484 265.963C524.903 265.721 524.394 265.332 524.007 264.834C523.456 264.138 523.065 263.329 522.864 262.465C522.63 261.709 522.327 260.976 521.958 260.276C521.641 259.884 521.259 259.549 520.829 259.287C520.274 258.975 519.702 258.696 519.114 258.45C518.571 258.227 518.055 257.976 517.958 257.921C517.917 257.88 517.886 257.832 517.864 257.78C517.843 257.727 517.832 257.671 517.832 257.614C517.832 257.516 518.111 257.349 518.431 257.238C518.768 257.121 519.113 257.028 519.463 256.959C520.196 256.909 520.932 256.909 521.665 256.959C523.059 257.043 523.463 257.029 523.658 256.833C523.817 256.606 523.944 256.357 524.035 256.095C524.146 255.249 524.178 254.395 524.132 253.544C524.074 252.485 524.139 251.423 524.327 250.38C524.512 249.641 524.768 248.922 525.094 248.233C525.448 247.541 525.844 246.871 526.279 246.226C526.665 245.702 527.079 245.2 527.519 244.721Z" fill="url(#paint29_radial_750_296)"/>
<path d="M215.578 117.579C216.132 117.2 216.715 116.865 217.321 116.575C217.669 116.374 218.061 116.26 218.464 116.241C218.589 116.241 218.617 116.52 218.464 116.771C218.192 117.309 217.879 117.826 217.53 118.318C216.827 119.411 216.282 120.598 215.913 121.844C215.472 123.052 215.123 124.292 214.867 125.552C214.77 126.263 214.7 127.447 214.686 128.228C214.686 129.224 214.472 130.207 214.059 131.113C213.649 132.173 213.184 133.211 212.665 134.222C212.283 134.888 211.975 135.594 211.745 136.326C211.704 136.655 211.773 136.988 211.94 137.274C212.464 137.772 213.044 138.207 213.669 138.57C214.867 139.309 215.063 139.56 215.439 140.257C215.638 140.669 215.765 141.112 215.815 141.567C215.787 141.949 215.687 142.323 215.523 142.668C215.327 143.073 215.021 143.324 213.934 143.616L212.219 142.362C211.512 141.842 210.766 141.376 209.989 140.968C209.879 140.919 209.761 140.893 209.64 140.893C209.52 140.893 209.402 140.919 209.292 140.968C209.094 141.198 208.951 141.469 208.874 141.762C208.719 142.299 208.621 142.85 208.581 143.407C208.554 143.82 208.494 144.23 208.4 144.634C208.4 144.745 208.135 144.857 207.898 144.885C207.661 144.913 207.201 144.717 206.504 144.188C205.832 143.695 205.299 143.038 204.957 142.278C204.469 141.216 204.217 140.06 204.218 138.891C204.167 137.854 204.003 136.826 203.73 135.825C203.436 135.195 203.025 134.627 202.518 134.152C202.058 133.734 201.124 132.995 200.58 132.549C200.125 132.229 199.688 131.885 199.27 131.518C199.189 131.394 199.159 131.244 199.186 131.099C199.186 130.974 199.646 130.848 200.079 130.793C200.543 130.759 201.008 130.759 201.472 130.793C202.417 130.981 203.349 131.233 204.26 131.545C206.086 132.103 206.532 132.173 206.825 131.978C207.107 131.747 207.351 131.474 207.55 131.169C207.947 130.119 208.255 129.037 208.47 127.935C208.707 126.557 209.114 125.213 209.682 123.935C210.153 123.051 210.704 122.211 211.327 121.426C211.995 120.656 212.707 119.925 213.46 119.238C214.135 118.647 214.843 118.093 215.578 117.579Z" fill="url(#paint30_radial_750_296)"/>
<path d="M229.986 375.297C230.417 374.799 230.882 374.334 231.38 373.904C231.655 373.618 231.988 373.395 232.356 373.248C232.495 373.248 232.593 373.471 232.565 373.736C232.47 374.328 232.325 374.911 232.133 375.479C231.791 376.713 231.626 377.989 231.645 379.27C231.58 380.534 231.608 381.801 231.729 383.061C231.854 383.758 232.133 384.887 232.342 385.626C232.637 386.562 232.722 387.552 232.593 388.525C232.504 389.648 232.35 390.765 232.133 391.87C231.961 392.606 231.872 393.359 231.868 394.115C231.931 394.437 232.098 394.731 232.342 394.951C232.974 395.274 233.644 395.517 234.335 395.676C235.729 396.024 236.008 396.177 236.496 396.749C236.806 397.079 237.056 397.461 237.235 397.878C237.306 398.246 237.306 398.625 237.235 398.993C237.235 399.425 236.956 399.76 236.022 400.387L234.029 399.704C233.209 399.414 232.371 399.181 231.52 399.007C231.403 398.992 231.284 399.001 231.171 399.035C231.058 399.068 230.954 399.125 230.865 399.202C230.752 399.481 230.695 399.779 230.697 400.08C230.721 400.629 230.791 401.174 230.906 401.711C230.996 402.111 231.061 402.516 231.102 402.924C231.102 403.035 230.906 403.202 230.683 403.3C230.46 403.398 229.986 403.3 229.15 403.063C228.372 402.78 227.68 402.299 227.143 401.669C226.375 400.811 225.8 399.799 225.456 398.7C225.088 397.726 224.621 396.792 224.063 395.913C223.627 395.428 223.108 395.027 222.529 394.728C221.972 394.449 220.94 394.017 220.243 393.766C219.722 393.6 219.21 393.405 218.71 393.181C218.594 393.087 218.519 392.952 218.501 392.804C218.501 392.679 218.864 392.442 219.254 392.261C219.683 392.083 220.126 391.938 220.578 391.829C221.527 391.727 222.481 391.69 223.435 391.717C225.317 391.717 225.763 391.647 225.986 391.383C226.184 391.084 226.33 390.754 226.418 390.407C226.502 389.301 226.478 388.19 226.349 387.089C226.179 385.701 226.179 384.297 226.349 382.908C226.534 381.955 226.81 381.021 227.171 380.12C227.579 379.2 228.045 378.306 228.565 377.444C229.002 376.705 229.477 375.989 229.986 375.297Z" fill="url(#paint31_radial_750_296)"/>
<path d="M653.53 30.5191C653.635 29.8563 653.792 29.2026 653.998 28.5639C654.092 28.1723 654.278 27.8088 654.541 27.5038C654.627 27.4127 654.849 27.584 654.926 27.8678C655.13 28.4355 655.291 29.0178 655.407 29.6096C655.718 30.8716 656.206 32.0831 656.857 33.2079C657.432 34.3582 658.092 35.4639 658.832 36.5157C659.281 37.0752 660.094 37.9402 660.651 38.4869C661.374 39.1716 661.941 40.0032 662.315 40.9257C662.804 41.9518 663.237 43.0029 663.615 44.0746C663.837 44.8098 664.137 45.5189 664.511 46.1895C664.722 46.4453 665.011 46.6245 665.334 46.6993C666.055 46.6605 666.77 46.5383 667.463 46.335C668.824 45.9721 669.14 46.0028 669.905 46.2086C670.341 46.3476 670.75 46.5597 671.115 46.8358C671.373 47.1192 671.576 47.4479 671.714 47.8053C671.873 48.2249 671.845 48.6201 671.31 49.6109L669.221 49.9939C668.357 50.1504 667.506 50.3716 666.675 50.6556C666.564 50.7013 666.464 50.7701 666.381 50.8573C666.299 50.9446 666.236 51.0483 666.196 51.1617C666.227 51.4633 666.326 51.7538 666.486 52.0116C666.769 52.4929 667.102 52.9431 667.479 53.3547C667.761 53.6582 668.017 53.9842 668.246 54.3294C668.327 54.4061 668.225 54.6751 668.083 54.8664C667.94 55.0576 667.482 55.2576 666.619 55.3997C665.799 55.5494 664.955 55.4843 664.168 55.2108C663.061 54.8353 662.048 54.224 661.2 53.4192C660.412 52.744 659.553 52.1561 658.638 51.6657C657.978 51.4466 657.283 51.3554 656.589 51.3968C655.969 51.4435 654.791 51.614 654.093 51.7022C653.548 51.8129 652.997 51.8939 652.444 51.9448C652.298 51.9187 652.169 51.8375 652.082 51.7181C651.991 51.6319 652.216 51.2116 652.473 50.8594C652.768 50.4996 653.088 50.1613 653.431 49.8471C654.217 49.2903 655.04 48.7867 655.894 48.3397C657.554 47.3967 657.911 47.1207 657.971 46.7739C657.997 46.4108 657.967 46.0458 657.882 45.6918C657.392 44.6814 656.818 43.7143 656.165 42.8009C655.327 41.681 654.631 40.4615 654.093 39.1704C653.775 38.2203 653.543 37.2432 653.402 36.2512C653.301 35.2368 653.26 34.2173 653.278 33.1981C653.313 32.3012 653.397 31.4069 653.53 30.5191Z" fill="url(#paint32_radial_750_296)"/>
<path d="M504.061 332.311C504.901 331.709 505.786 331.173 506.709 330.708C507.299 330.38 507.94 330.154 508.605 330.039C508.939 330.039 509.12 330.15 509.106 330.332C508.985 330.684 508.79 331.007 508.535 331.279C508.181 331.708 507.877 332.176 507.629 332.673C507.381 333.301 507.189 333.949 507.057 334.611C506.818 335.401 506.818 336.245 507.057 337.036C507.3 338.021 507.472 339.023 507.573 340.033C507.673 340.959 507.673 341.894 507.573 342.821C507.42 343.727 507.434 343.964 507.699 344.214C507.949 344.443 508.236 344.627 508.549 344.758C508.842 344.883 509.566 345.134 510.124 345.316C510.788 345.515 511.389 345.885 511.866 346.389C512.161 346.651 512.394 346.975 512.549 347.337C512.549 347.476 512.256 347.546 511.713 347.518C511.169 347.49 509.748 347.518 508.354 347.629C506.906 347.727 505.453 347.727 504.005 347.629C503.026 347.652 502.061 347.401 501.217 346.905C500.354 346.441 499.405 346.156 498.429 346.068C497.426 345.929 496.506 345.776 496.38 345.734C496.32 345.69 496.27 345.634 496.233 345.569C496.197 345.504 496.176 345.432 496.171 345.357C496.171 345.204 496.59 344.897 497.063 344.702C497.537 344.507 498.68 344.075 499.531 343.768C500.924 343.294 501.147 343.155 501.412 342.598C501.634 342.05 501.715 341.456 501.649 340.869C501.649 340.27 501.468 338.904 501.315 337.844C501.153 337.027 501.125 336.19 501.231 335.363C501.456 334.866 501.741 334.397 502.081 333.97C502.672 333.339 503.336 332.782 504.061 332.311Z" fill="url(#paint33_radial_750_296)"/>
<path d="M421.475 398.826C422.217 398.058 423.013 397.346 423.858 396.693C424.398 396.247 425.011 395.898 425.67 395.662C426.005 395.662 426.2 395.662 426.228 395.871C426.158 396.248 426.016 396.607 425.809 396.93C425.541 397.441 425.326 397.978 425.168 398.533C425.033 399.217 424.958 399.912 424.945 400.61C424.877 401.462 425.061 402.315 425.475 403.063C425.879 404.009 426.228 404.977 426.52 405.962C426.824 406.893 427.016 407.857 427.092 408.834C427.092 409.781 427.175 410.018 427.496 410.227C427.793 410.409 428.118 410.54 428.458 410.618C428.778 410.687 429.559 410.813 430.158 410.883C430.87 410.959 431.548 411.224 432.124 411.649C432.598 411.97 432.988 412.346 433.002 412.486C433.016 412.625 432.751 412.736 432.193 412.82C431.636 412.904 430.2 413.21 428.792 413.573C427.342 413.937 425.871 414.211 424.388 414.395C423.393 414.598 422.362 414.526 421.405 414.186C420.436 413.864 419.409 413.754 418.394 413.865C417.363 413.865 416.387 413.865 416.248 413.865C416.178 413.832 416.117 413.783 416.069 413.723C416.02 413.663 415.986 413.592 415.969 413.517C415.969 413.364 416.303 412.973 416.763 412.681C417.223 412.388 418.269 411.747 419.091 411.287C420.401 410.534 420.61 410.367 420.778 409.754C420.893 409.155 420.859 408.538 420.68 407.955C420.541 407.342 420.136 405.99 419.788 404.931C419.459 404.138 419.27 403.294 419.23 402.436C419.362 401.892 419.564 401.367 419.83 400.875C420.292 400.127 420.844 399.439 421.475 398.826Z" fill="url(#paint34_radial_750_296)"/>
<path d="M260.219 199.267C259.83 198.58 259.521 197.851 259.299 197.093C259.165 196.711 259.09 196.312 259.076 195.908C259.076 195.908 259.411 196.019 259.745 196.27C260.434 196.732 261.167 197.125 261.934 197.441C262.835 197.846 263.767 198.177 264.721 198.431C265.433 198.571 266.16 198.609 266.882 198.542C267.638 198.471 268.4 198.523 269.14 198.696C269.809 198.849 270.994 199.128 271.774 199.337C272.456 199.516 273.162 199.582 273.865 199.532C274.451 199.407 274.59 199.253 274.897 198.626C275.195 197.886 275.41 197.114 275.538 196.326C275.679 195.623 275.768 194.91 275.803 194.193C275.73 193.536 275.594 192.888 275.398 192.256C275.226 191.809 275.118 191.34 275.078 190.862C275.078 190.779 275.287 190.862 275.412 190.862C275.706 191.193 275.959 191.558 276.165 191.949C276.546 192.686 276.873 193.45 277.141 194.235C277.392 195.002 277.74 196.256 277.907 197.023C278.052 197.867 278.052 198.73 277.907 199.574C277.823 199.988 277.823 200.414 277.907 200.828C277.907 200.828 278.395 200.661 278.841 200.354C279.248 200.077 279.671 199.825 280.11 199.602C280.458 199.462 280.528 199.49 280.458 199.727C280.388 199.964 279.636 201.344 278.785 202.975C278.226 204.231 277.51 205.412 276.653 206.487C276.045 206.979 275.386 207.404 274.688 207.756C274.21 208.067 273.665 208.263 273.099 208.327C273.019 208.232 272.962 208.119 272.933 207.998C272.904 207.877 272.904 207.751 272.931 207.63C272.931 207.324 273.057 206.822 273.14 206.459C273.179 206.25 273.169 206.034 273.111 205.828C273.053 205.623 272.949 205.433 272.806 205.275C272.513 204.898 272.122 204.609 271.677 204.438C270.969 204.241 270.236 204.152 269.502 204.173C268.622 204.184 267.744 204.1 266.882 203.923C265.977 203.676 265.099 203.34 264.261 202.919C263.356 202.536 262.533 201.982 261.836 201.288C261.217 200.682 260.674 200.004 260.219 199.267Z" fill="url(#paint35_radial_750_296)"/>
<path d="M661.569 197.351C662.196 196.053 662.913 194.8 663.716 193.602C664.222 192.805 664.852 192.094 665.583 191.497C666.002 191.288 666.28 191.288 666.392 191.497C666.483 192.007 666.459 192.531 666.322 193.03C666.189 193.803 666.147 194.589 666.197 195.372C666.298 196.32 666.499 197.254 666.796 198.16C667.072 199.284 667.673 200.302 668.524 201.087C669.472 202.134 670.357 203.237 671.173 204.39C671.954 205.456 672.614 206.606 673.138 207.819C673.556 209.032 673.751 209.311 674.239 209.436C674.696 209.542 675.167 209.57 675.633 209.52C676.065 209.52 677.125 209.297 677.919 209.129C678.867 208.927 679.852 208.975 680.776 209.269C681.313 209.386 681.817 209.619 682.254 209.952C682.338 210.147 682.045 210.398 681.348 210.746C680.651 211.095 678.978 212.14 677.334 213.172C675.633 214.264 673.863 215.246 672.037 216.113C670.848 216.799 669.493 217.146 668.12 217.116C666.745 217.13 665.388 217.429 664.134 217.994C662.824 218.496 661.583 218.942 661.346 218.97C661.243 218.96 661.144 218.926 661.057 218.87C660.969 218.814 660.897 218.739 660.844 218.649C660.761 218.468 661.039 217.813 661.499 217.256C661.959 216.698 663.033 215.388 663.869 214.468C665.263 212.949 665.416 212.628 665.374 211.778C665.272 210.958 664.965 210.176 664.482 209.506C664.05 208.795 662.935 207.234 662.043 206.035C661.289 205.153 660.682 204.155 660.245 203.08C660.192 202.321 660.23 201.558 660.357 200.808C660.623 199.612 661.03 198.452 661.569 197.351Z" fill="url(#paint36_radial_750_296)"/>
<path d="M371.416 144.274C371.026 143.587 370.718 142.858 370.496 142.1C370.362 141.718 370.287 141.319 370.273 140.915C370.273 140.915 370.607 141.026 370.942 141.277C371.631 141.739 372.364 142.132 373.13 142.448C374.031 142.853 374.964 143.184 375.918 143.438C376.629 143.578 377.357 143.616 378.078 143.549C378.834 143.478 379.597 143.53 380.336 143.703C381.006 143.856 382.19 144.135 382.971 144.344C383.652 144.523 384.359 144.589 385.062 144.539C385.647 144.414 385.786 144.26 386.093 143.633C386.392 142.893 386.607 142.121 386.734 141.333C386.876 140.63 386.964 139.917 386.999 139.201C386.926 138.543 386.791 137.895 386.595 137.263C386.423 136.816 386.315 136.347 386.274 135.869C386.274 135.786 386.483 135.869 386.609 135.869C386.903 136.2 387.156 136.565 387.362 136.956C387.743 137.693 388.069 138.457 388.337 139.242C388.588 140.009 388.937 141.263 389.104 142.03C389.248 142.874 389.248 143.737 389.104 144.581C389.019 144.995 389.019 145.421 389.104 145.835C389.104 145.835 389.592 145.668 390.038 145.361C390.444 145.084 390.868 144.833 391.306 144.609C391.655 144.469 391.724 144.497 391.655 144.734C391.585 144.971 390.832 146.351 389.982 147.982C389.423 149.238 388.706 150.419 387.849 151.494C387.241 151.986 386.583 152.411 385.884 152.763C385.406 153.074 384.862 153.27 384.295 153.334C384.215 153.239 384.159 153.126 384.13 153.005C384.101 152.884 384.1 152.758 384.128 152.637C384.128 152.331 384.253 151.829 384.337 151.466C384.376 151.257 384.366 151.041 384.307 150.835C384.249 150.63 384.145 150.44 384.002 150.282C383.709 149.905 383.319 149.616 382.873 149.445C382.166 149.248 381.433 149.159 380.699 149.181C379.819 149.191 378.94 149.107 378.078 148.93C377.174 148.683 376.296 148.347 375.458 147.926C374.552 147.543 373.729 146.989 373.033 146.295C372.414 145.689 371.871 145.011 371.416 144.274Z" fill="url(#paint37_radial_750_296)"/>
<path d="M279.622 314.483C280.271 313.19 281.007 311.942 281.824 310.748C282.349 309.957 282.993 309.251 283.734 308.657C284.152 308.462 284.445 308.462 284.542 308.657C284.626 309.173 284.598 309.701 284.458 310.204C284.328 310.987 284.291 311.782 284.347 312.574C284.447 313.519 284.639 314.453 284.918 315.361C285.181 316.494 285.767 317.525 286.605 318.33C287.547 319.39 288.422 320.507 289.225 321.676C289.992 322.759 290.637 323.922 291.149 325.146C291.553 326.373 291.748 326.652 292.236 326.791C292.693 326.896 293.163 326.929 293.63 326.889C294.076 326.889 295.135 326.68 295.93 326.526C296.886 326.334 297.876 326.397 298.801 326.707C299.343 326.824 299.85 327.068 300.279 327.418C300.362 327.599 300.056 327.864 299.359 328.185C298.662 328.505 296.961 329.579 295.303 330.568C293.573 331.653 291.776 332.626 289.922 333.482C288.72 334.157 287.356 334.489 285.978 334.443C284.596 334.438 283.228 334.723 281.963 335.28C280.57 335.767 279.385 336.186 279.176 336.214C279.07 336.206 278.969 336.171 278.881 336.112C278.793 336.054 278.722 335.973 278.674 335.879C278.59 335.698 278.883 335.057 279.343 334.485C279.803 333.914 280.918 332.645 281.768 331.697C283.162 330.192 283.357 329.871 283.316 329.007C283.221 328.186 282.924 327.4 282.451 326.721C282.019 325.997 280.932 324.421 280.04 323.195C279.298 322.301 278.705 321.294 278.284 320.212C278.236 319.447 278.283 318.679 278.423 317.926C278.685 316.735 279.087 315.579 279.622 314.483Z" fill="url(#paint38_radial_750_296)"/>
<path d="M594.698 417.195C595.348 415.902 596.083 414.654 596.9 413.46C597.425 412.669 598.069 411.964 598.81 411.369C599.228 411.174 599.521 411.174 599.618 411.369C599.702 411.885 599.674 412.413 599.535 412.916C599.404 413.699 599.367 414.494 599.423 415.286C599.523 416.231 599.715 417.165 599.995 418.074C600.257 419.206 600.843 420.237 601.681 421.043C602.623 422.102 603.498 423.22 604.302 424.388C605.068 425.471 605.713 426.635 606.225 427.858C606.629 429.085 606.824 429.364 607.312 429.503C607.769 429.608 608.239 429.641 608.706 429.601C609.152 429.601 610.212 429.392 611.006 429.238C611.963 429.047 612.953 429.109 613.877 429.42C614.419 429.536 614.926 429.78 615.355 430.13C615.438 430.312 615.132 430.576 614.435 430.897C613.738 431.218 612.038 432.291 610.379 433.281C608.649 434.366 606.852 435.339 604.999 436.194C603.796 436.869 602.432 437.202 601.054 437.155C599.672 437.15 598.304 437.435 597.04 437.992C595.646 438.48 594.461 438.898 594.252 438.926C594.147 438.918 594.045 438.883 593.957 438.824C593.869 438.766 593.798 438.685 593.75 438.591C593.666 438.41 593.959 437.769 594.419 437.197C594.879 436.626 595.994 435.357 596.844 434.41C598.238 432.904 598.433 432.584 598.392 431.719C598.297 430.898 598 430.112 597.527 429.434C597.095 428.709 596.008 427.134 595.116 425.907C594.374 425.013 593.781 424.006 593.36 422.924C593.312 422.159 593.359 421.392 593.499 420.638C593.761 419.447 594.164 418.292 594.698 417.195Z" fill="url(#paint39_radial_750_296)"/>
<path d="M669.732 101.036C670.527 100.281 671.375 99.5824 672.268 98.9454C672.843 98.5154 673.483 98.1812 674.164 97.9558C674.513 97.9558 674.722 97.9558 674.736 98.1927C674.656 98.5801 674.494 98.9459 674.262 99.266C673.961 99.7815 673.718 100.328 673.537 100.897C673.37 101.587 673.267 102.292 673.23 103.002C673.119 103.876 673.269 104.763 673.662 105.552C674.049 106.554 674.375 107.578 674.638 108.619C674.903 109.588 675.062 110.584 675.112 111.588C675.112 112.563 675.112 112.814 675.46 112.982C675.759 113.18 676.089 113.326 676.436 113.414C676.757 113.497 677.551 113.665 678.164 113.762C678.892 113.876 679.578 114.173 680.158 114.626C680.509 114.855 680.805 115.16 681.022 115.518C681.022 115.672 680.743 115.783 680.172 115.839C679.6 115.895 678.109 116.16 676.659 116.466C675.15 116.78 673.623 116.999 672.087 117.121C671.057 117.293 669.999 117.173 669.035 116.773C668.055 116.411 667.01 116.259 665.968 116.327C664.895 116.327 663.905 116.327 663.766 116.327C663.693 116.295 663.629 116.245 663.58 116.181C663.531 116.118 663.499 116.043 663.487 115.964C663.487 115.811 663.85 115.421 664.337 115.142C664.825 114.863 665.926 114.236 666.791 113.748C668.184 113.037 668.38 112.87 668.575 112.243C668.729 111.635 668.729 110.997 668.575 110.389C668.463 109.762 668.101 108.354 667.78 107.253C667.484 106.424 667.324 105.554 667.306 104.674C667.47 104.122 667.705 103.592 668.003 103.099C668.491 102.342 669.071 101.649 669.732 101.036Z" fill="url(#paint40_radial_750_296)"/>
<path d="M683.568 301.003C683.179 300.316 682.87 299.587 682.648 298.829C682.514 298.448 682.439 298.048 682.425 297.644C682.425 297.644 682.76 297.756 683.094 298.007C683.783 298.469 684.516 298.861 685.283 299.177C686.184 299.582 687.116 299.913 688.07 300.167C688.781 300.307 689.509 300.345 690.231 300.279C690.987 300.208 691.749 300.259 692.489 300.432C693.158 300.585 694.343 300.864 695.123 301.073C695.805 301.252 696.511 301.318 697.214 301.268C697.799 301.143 697.939 300.989 698.246 300.362C698.544 299.622 698.759 298.85 698.887 298.062C699.028 297.359 699.117 296.646 699.152 295.93C699.079 295.273 698.943 294.624 698.747 293.992C698.575 293.545 698.467 293.076 698.427 292.598C698.427 292.515 698.636 292.598 698.761 292.598C699.055 292.929 699.308 293.294 699.514 293.686C699.895 294.422 700.222 295.186 700.49 295.972C700.741 296.738 701.089 297.993 701.256 298.759C701.401 299.603 701.401 300.466 701.256 301.31C701.172 301.724 701.172 302.151 701.256 302.565C701.256 302.565 701.744 302.397 702.19 302.091C702.597 301.813 703.02 301.562 703.459 301.338C703.807 301.199 703.877 301.226 703.807 301.463C703.737 301.7 702.985 303.08 702.134 304.711C701.575 305.968 700.859 307.148 700.002 308.224C699.394 308.715 698.735 309.141 698.036 309.492C697.558 309.804 697.014 309.999 696.447 310.063C696.368 309.968 696.311 309.855 696.282 309.735C696.253 309.614 696.253 309.488 696.28 309.367C696.28 309.06 696.406 308.558 696.489 308.196C696.528 307.986 696.518 307.77 696.46 307.564C696.402 307.359 696.297 307.17 696.155 307.011C695.862 306.635 695.471 306.345 695.026 306.175C694.318 305.977 693.585 305.888 692.851 305.91C691.971 305.92 691.093 305.836 690.231 305.659C689.326 305.412 688.448 305.076 687.61 304.655C686.705 304.272 685.881 303.719 685.185 303.024C684.566 302.419 684.023 301.74 683.568 301.003Z" fill="url(#paint41_radial_750_296)"/>
<path d="M8.71359 113.982C9.44285 113.25 10.2463 112.596 11.111 112.03C11.5422 111.74 12.0112 111.51 12.5049 111.347C12.6025 111.347 12.5049 111.807 12.2958 112.309C11.9573 113.338 11.7238 114.398 11.5989 115.473C11.4178 116.733 11.3339 118.005 11.348 119.278C11.4205 120.233 11.6318 121.172 11.9752 122.066C12.3283 122.99 12.5307 123.964 12.5746 124.951C12.5746 125.843 12.6861 127.432 12.714 128.478C12.7369 129.397 12.9111 130.306 13.2297 131.168C13.5921 131.851 13.8151 131.976 14.7211 132.144C15.7542 132.256 16.7963 132.256 17.8294 132.144C18.7668 132.065 19.698 131.926 20.6171 131.726C21.4116 131.401 22.1725 130.999 22.8891 130.527C23.4085 130.143 23.9815 129.838 24.5896 129.621C24.7151 129.621 24.729 129.844 24.6733 130.039C24.369 130.546 24.0039 131.014 23.586 131.433C22.7926 132.17 21.9446 132.845 21.0492 133.454C20.0075 134.167 18.928 134.823 17.8155 135.419C16.8199 135.93 15.7456 136.269 14.6375 136.423C14.0859 136.436 13.5419 136.555 13.0346 136.771C13.0346 136.869 13.4248 137.329 13.9684 137.789C14.4629 138.193 14.9287 138.63 15.3623 139.099C15.655 139.503 15.655 139.573 15.3623 139.573C15.0696 139.573 13.0345 139.127 10.6929 138.653C8.91956 138.397 7.18341 137.929 5.52167 137.259C4.69043 136.673 3.92409 136.001 3.23572 135.252C2.67934 134.756 2.24116 134.142 1.95338 133.454C1.95338 133.259 2.37155 133.05 2.77577 132.994C3.17999 132.938 3.83509 132.869 4.309 132.841C4.58907 132.814 4.85967 132.725 5.10089 132.581C5.34211 132.436 5.54781 132.239 5.70286 132.004C6.05598 131.495 6.27638 130.906 6.34404 130.29C6.33585 129.342 6.18068 128.402 5.88406 127.502C5.57649 126.404 5.37576 125.279 5.28469 124.143C5.27496 122.918 5.38233 121.695 5.6053 120.491C5.76827 119.215 6.17019 117.981 6.79006 116.853C7.31292 115.822 7.95881 114.858 8.71359 113.982Z" fill="url(#paint42_radial_750_296)"/>
<path d="M97.9603 364.453C98.5258 363.923 99.1474 363.455 99.8141 363.059C100.149 362.838 100.516 362.669 100.901 362.558C100.901 362.558 100.901 362.906 100.734 363.282C100.453 364.063 100.257 364.871 100.149 365.694C99.9885 366.652 99.9046 367.621 99.8978 368.593C99.9377 369.312 100.083 370.021 100.33 370.698C100.585 371.409 100.722 372.158 100.734 372.914C100.734 373.597 100.734 374.796 100.734 375.604C100.74 376.306 100.858 377.002 101.083 377.667C101.347 378.197 101.515 378.294 102.212 378.434C102.999 378.514 103.793 378.514 104.581 378.434C105.292 378.383 106 378.29 106.7 378.155C107.307 377.908 107.894 377.615 108.456 377.277C108.856 376.988 109.298 376.762 109.766 376.608C109.864 376.608 109.864 376.789 109.766 376.928C109.522 377.294 109.237 377.631 108.916 377.932C108.335 378.49 107.715 379.007 107.062 379.479C106.246 379.986 105.404 380.452 104.539 380.873C103.774 381.253 102.949 381.498 102.1 381.598C101.677 381.587 101.258 381.673 100.873 381.849C100.873 381.849 101.152 382.267 101.57 382.629C101.938 382.943 102.283 383.283 102.602 383.647C102.825 383.953 102.825 384.023 102.602 384.009C102.379 383.995 100.846 383.633 99.0615 383.228C97.7155 382.996 96.4011 382.607 95.1447 382.072C94.4998 381.606 93.9105 381.068 93.3885 380.469C92.817 379.855 92.3849 379.214 92.4406 379.075C92.4964 378.935 92.7612 378.782 93.0679 378.74C93.3745 378.698 93.8763 378.657 94.2387 378.643C94.4503 378.628 94.6557 378.565 94.8393 378.458C95.0229 378.352 95.1798 378.205 95.2981 378.029C95.582 377.649 95.7643 377.203 95.8277 376.733C95.8328 375.997 95.7294 375.264 95.5211 374.559C95.298 373.72 95.1625 372.861 95.1169 371.994C95.1232 371.057 95.2259 370.122 95.4235 369.206C95.5584 368.225 95.8801 367.279 96.3713 366.419C96.8267 365.707 97.3596 365.048 97.9603 364.453Z" fill="url(#paint43_radial_750_296)"/>
<path d="M589.042 5.90164C589.088 5.14698 589.214 4.39936 589.419 3.67146C589.509 3.29664 589.66 2.93895 589.865 2.61215C589.935 2.61215 590.074 2.86301 590.213 3.22541C590.527 3.95993 590.914 4.6605 591.37 5.3162C591.883 6.10329 592.456 6.84897 593.085 7.54638C593.584 8.02475 594.147 8.43272 594.757 8.75903C595.404 9.09523 595.992 9.53291 596.5 10.0553C596.96 10.5293 597.768 11.3655 598.298 11.937C598.754 12.4367 599.291 12.8561 599.887 13.1776C600.416 13.3727 600.597 13.3309 601.183 12.9824C601.805 12.5411 602.375 12.0315 602.883 11.4631C603.379 10.9666 603.845 10.4407 604.277 9.88805C604.552 9.31886 604.776 8.7265 604.946 8.11786C605.048 7.6564 605.212 7.21096 605.434 6.79373C605.532 6.79373 605.629 6.7937 605.685 6.98884C605.739 7.40524 605.739 7.82691 605.685 8.24331C605.603 9.03755 605.463 9.8248 605.267 10.5989C605.039 11.4954 604.765 12.3794 604.445 13.2472C604.145 14.016 603.716 14.7279 603.176 15.352C602.758 15.812 602.424 16.2441 602.465 16.3277C602.786 16.4445 603.131 16.478 603.469 16.4252C603.933 16.392 604.399 16.392 604.863 16.4252C605.211 16.4949 605.253 16.5368 605.086 16.704C604.919 16.8713 603.58 17.5822 602.047 18.4464C600.943 19.1703 599.754 19.7555 598.507 20.1887C597.761 20.2654 597.009 20.2654 596.263 20.1887C595.711 20.1984 595.166 20.0741 594.674 19.8263C594.665 19.7086 594.681 19.5905 594.722 19.4799C594.763 19.3692 594.827 19.2687 594.911 19.1851C595.106 18.9621 595.44 18.5857 595.677 18.3488C595.817 18.1988 595.922 18.0199 595.984 17.8247C596.047 17.6296 596.066 17.423 596.04 17.2198C595.988 16.7644 595.826 16.3288 595.566 15.9513C595.09 15.413 594.541 14.9438 593.935 14.5575C593.227 14.1076 592.568 13.5843 591.97 12.9964C591.361 12.3294 590.824 11.6007 590.367 10.822C589.839 10.0439 589.46 9.17411 589.252 8.25726C589.099 7.48168 589.029 6.69203 589.042 5.90164Z" fill="url(#paint44_radial_750_296)"/>
<path d="M51.0171 29.0863C51.4343 28.6307 51.9019 28.2239 52.4109 27.8737C52.6581 27.6877 52.9303 27.5375 53.2194 27.4276C53.2194 27.4276 53.2194 27.6925 53.1218 27.9991C52.9539 28.6091 52.8512 29.2352 52.8151 29.8669C52.7536 30.609 52.7536 31.3549 52.8151 32.097C52.8809 32.651 53.0313 33.1916 53.2612 33.7C53.4916 34.2267 53.6374 34.7865 53.6933 35.3587C53.6933 35.8883 53.8466 36.7525 53.8884 37.4216C53.9353 37.9578 54.0621 38.484 54.2648 38.9827C54.5017 39.373 54.6411 39.4427 55.1847 39.5124C55.7863 39.5369 56.3888 39.4996 56.9828 39.4008C57.528 39.3285 58.0681 39.2215 58.5997 39.0803C59.0524 38.856 59.486 38.5949 59.8959 38.2997C60.1877 38.0606 60.5114 37.8636 60.8577 37.7143C60.9413 37.7143 60.9553 37.8537 60.8577 37.9652C60.6996 38.2596 60.5027 38.5316 60.2723 38.7736C59.8374 39.2281 59.3717 39.6518 58.8784 40.042C58.3906 40.4184 57.5682 40.9759 57.0525 41.2826C56.483 41.6144 55.8606 41.8454 55.2126 41.9655C54.8912 41.9907 54.5782 42.0808 54.2926 42.2304C54.2926 42.2304 54.5296 42.537 54.8641 42.7879C55.1651 43.0137 55.4536 43.2557 55.7283 43.5127C55.9095 43.7358 55.9095 43.7775 55.7283 43.7915C55.5471 43.8054 54.3344 43.5964 52.9406 43.3873C51.8945 43.2935 50.8642 43.0687 49.8741 42.7182C49.3682 42.4014 48.9005 42.0272 48.4803 41.6032C48.1399 41.3325 47.8638 40.9898 47.6718 40.5996C47.7244 40.519 47.7942 40.4509 47.8761 40.4003C47.958 40.3498 48.0501 40.3178 48.1457 40.3068C48.3687 40.3068 48.759 40.1954 49.0378 40.1675C49.1987 40.1416 49.352 40.0808 49.4868 39.9893C49.6217 39.8978 49.7349 39.7778 49.8184 39.6378C50.0075 39.3303 50.1177 38.9807 50.1389 38.6203C50.1047 38.0578 49.9873 37.5036 49.7905 36.9755C49.572 36.3422 49.4179 35.6884 49.3305 35.0242C49.2857 34.3077 49.3137 33.5884 49.4141 32.8776C49.4681 32.1281 49.662 31.3953 49.9856 30.7171C50.2661 30.136 50.6122 29.5888 51.0171 29.0863Z" fill="url(#paint45_radial_750_296)"/>
<path d="M393.806 181.886C394.257 181.472 394.747 181.103 395.27 180.785C395.463 180.684 395.68 180.636 395.897 180.645C395.736 181.268 395.468 181.858 395.103 182.387C394.538 183.309 394.115 184.309 393.848 185.356C393.653 186.086 393.499 186.826 393.388 187.573C393.388 188.102 393.291 189.106 393.291 189.803C393.279 190.83 393.195 191.854 393.04 192.869C392.9 193.859 392.594 195.434 392.371 196.326C392.17 197.203 391.924 198.068 391.632 198.919C391.469 199.278 391.379 199.667 391.367 200.062C391.705 200.409 392.095 200.701 392.524 200.926C393.071 201.253 393.573 201.651 394.015 202.111C394.243 202.358 394.402 202.661 394.475 202.989C394.464 203.183 394.426 203.375 394.364 203.56C394.152 203.818 393.879 204.02 393.569 204.146C393.208 204.322 392.882 204.563 392.608 204.856C392.375 205.242 392.268 205.69 392.301 206.139C392.336 206.983 392.491 207.819 392.761 208.62C393.015 209.421 393.313 210.207 393.653 210.975C393.89 211.435 394.015 211.812 393.918 211.826C393.487 211.622 393.1 211.338 392.775 210.989C392.217 210.502 391.465 209.749 391.061 209.317C390.638 208.858 390.255 208.364 389.918 207.839C389.627 207.324 389.384 206.783 389.193 206.222C388.972 205.526 388.809 204.813 388.705 204.09C388.538 202.919 388.524 202.891 387.799 202.334C387.247 201.9 386.721 201.434 386.224 200.94C385.669 200.329 385.078 199.752 384.454 199.211C384.039 198.881 383.661 198.507 383.325 198.096C383.227 197.943 383.199 197.748 383.325 197.706C383.604 197.617 383.897 197.584 384.189 197.608C384.872 197.629 385.552 197.703 386.224 197.831C387.339 198.027 387.548 198.027 387.757 197.831C387.931 197.577 388.059 197.294 388.133 196.995C388.203 196.716 388.524 194.779 389.36 188.939L390.461 186.695C390.888 185.605 391.475 184.586 392.203 183.67C392.552 183.112 393.291 182.374 393.806 181.886Z" fill="url(#paint46_radial_750_296)"/>
<path d="M51.726 410.771C51.979 410.199 52.3021 409.66 52.6878 409.168C52.8969 408.945 53.1478 408.778 53.2314 408.792C53.3019 409.443 53.269 410.102 53.1338 410.743C52.9698 411.833 52.9698 412.942 53.1338 414.033C53.2175 414.757 53.4126 415.775 53.5381 416.305C53.6635 416.834 54.0259 417.782 54.2907 418.437C54.6634 419.415 54.9708 420.416 55.2107 421.434C55.4476 422.424 55.7543 424.027 55.8937 424.96C56.0331 425.894 56.1446 427.135 56.1585 427.748C56.1406 428.152 56.207 428.556 56.3537 428.933C56.797 429.127 57.2668 429.254 57.7475 429.309C58.3917 429.413 59.0196 429.601 59.6153 429.867C59.9285 430.001 60.1917 430.23 60.368 430.522C60.4427 430.703 60.4806 430.897 60.4795 431.093C60.3849 431.421 60.2072 431.719 59.9637 431.958C59.6906 432.263 59.4694 432.612 59.3086 432.989C59.2451 433.44 59.3128 433.9 59.5038 434.313C59.8574 435.103 60.3272 435.836 60.8976 436.488C61.44 437.154 62.0218 437.787 62.6399 438.383C63.0302 438.732 63.2811 439.038 63.1975 439.094C62.7154 439.055 62.2438 438.932 61.8036 438.732C61.0928 438.481 60.0892 438.049 59.5456 437.798C58.9748 437.521 58.4291 437.194 57.9148 436.822C57.4455 436.449 57.0116 436.034 56.6185 435.582C56.1491 435.002 55.7251 434.387 55.3501 433.742C54.7507 432.696 54.7228 432.669 53.8168 432.418C53.1207 432.201 52.4407 431.935 51.7818 431.623C51.0277 431.256 50.2501 430.939 49.4541 430.675C48.9369 430.511 48.4373 430.297 47.9626 430.034C47.8232 429.937 47.7257 429.755 47.7814 429.686C48.0149 429.501 48.2792 429.36 48.562 429.268C49.2162 429.032 49.8871 428.845 50.5691 428.71C51.7121 428.473 51.963 428.389 51.963 428.055C52.0139 427.75 52.0139 427.439 51.963 427.135C51.963 426.842 51.4891 424.891 50.0813 419.051L50.2764 416.514C50.2737 415.319 50.4475 414.131 50.7922 412.987C51.0012 412.402 51.4055 411.426 51.726 410.771Z" fill="url(#paint47_radial_750_296)"/>
<path d="M159.666 213.429C159.883 212.722 160.182 212.044 160.558 211.408C160.781 211.115 161.032 210.878 161.13 210.878C161.327 211.628 161.389 212.407 161.311 213.178C161.272 214.479 161.417 215.779 161.743 217.039C161.952 217.889 162.343 219.046 162.566 219.645C162.789 220.245 163.36 221.304 163.778 222.029C164.362 223.121 164.879 224.247 165.325 225.402C165.758 226.531 166.357 228.357 166.719 229.43C167.082 230.504 167.361 231.939 167.458 232.58C167.491 233.069 167.629 233.544 167.862 233.974C168.419 234.139 168.997 234.219 169.577 234.211C170.346 234.223 171.111 234.341 171.849 234.56C172.232 234.685 172.574 234.911 172.838 235.215C173.023 235.487 173.098 235.819 173.049 236.145C173 236.47 172.83 236.765 172.574 236.971C172.299 237.37 172.097 237.813 171.974 238.281C171.961 238.82 172.112 239.35 172.406 239.801C172.936 240.67 173.594 241.455 174.358 242.128C175.088 242.836 175.865 243.493 176.685 244.094C177.201 244.428 177.55 244.763 177.452 244.832C176.882 244.874 176.309 244.803 175.765 244.623C174.887 244.442 173.647 244.094 172.978 243.871C172.266 243.637 171.576 243.344 170.915 242.993C170.302 242.622 169.724 242.197 169.186 241.724C168.554 241.112 167.967 240.456 167.43 239.759C166.566 238.63 166.524 238.616 165.437 238.462C164.588 238.308 163.75 238.098 162.928 237.835C161.987 237.523 161.028 237.267 160.057 237.069C159.429 236.961 158.813 236.793 158.217 236.567C158.022 236.469 157.882 236.274 157.938 236.177C158.182 235.922 158.47 235.714 158.788 235.563C159.52 235.19 160.28 234.873 161.06 234.615C162.357 234.155 162.566 234.03 162.635 233.626C162.657 233.26 162.619 232.893 162.524 232.539C162.44 232.19 161.632 229.974 159.081 223.339L158.914 220.342C158.732 218.953 158.755 217.544 158.983 216.161C159.067 215.45 159.402 214.237 159.666 213.429Z" fill="url(#paint48_radial_750_296)"/>
<path d="M62.849 183.433C62.5837 182.597 62.429 181.73 62.389 180.854C62.3863 180.54 62.4579 180.23 62.5981 179.948C62.7096 179.865 63.3926 180.743 64.3125 182.109C65.1299 183.427 66.1347 184.62 67.2954 185.649C68.076 186.346 69.2189 187.238 69.8322 187.67C70.4455 188.102 71.7279 188.799 72.6199 189.245C73.9317 189.927 75.1939 190.7 76.3973 191.559C77.5681 192.382 79.3801 193.789 80.3837 194.654C81.3873 195.518 82.6696 196.716 83.1714 197.288C83.529 197.736 83.975 198.106 84.4817 198.375C85.1397 198.167 85.7606 197.857 86.3215 197.455C87.0996 196.967 87.9384 196.582 88.8166 196.312C89.2727 196.186 89.7543 196.186 90.2104 196.312C90.4599 196.434 90.6826 196.605 90.8655 196.814C91.0667 197.249 91.1485 197.73 91.1025 198.208C91.1037 198.786 91.1978 199.36 91.3812 199.908C91.716 200.445 92.2006 200.871 92.7751 201.135C93.8747 201.646 95.0446 201.988 96.2458 202.152C97.4361 202.351 98.6367 202.482 99.842 202.543C100.581 202.543 101.138 202.626 101.11 202.766C100.562 203.18 99.9437 203.492 99.2844 203.686C98.2948 204.076 96.8312 204.55 96.0367 204.787C95.1733 205.021 94.2923 205.184 93.4023 205.275C92.5505 205.311 91.697 205.274 90.8516 205.163C89.8201 204.982 88.8043 204.721 87.813 204.383C86.21 203.839 86.1543 203.853 85.0253 204.383C84.0866 204.792 83.1229 205.141 82.14 205.428C80.9985 205.742 79.8768 206.124 78.7808 206.571C78.0881 206.884 77.3638 207.123 76.6203 207.282C76.3694 207.282 76.1046 207.212 76.0906 207.087C76.1676 206.673 76.3187 206.276 76.5367 205.916C77.0083 205.056 77.5491 204.235 78.1535 203.463C79.1153 202.152 79.2547 201.902 79.0456 201.456C78.8365 201.069 78.5577 200.724 78.2232 200.438C77.9166 200.159 75.6446 198.501 68.7311 193.622L66.5706 190.834C65.4384 189.587 64.4988 188.178 63.7829 186.653C63.5877 185.83 63.1278 184.423 62.849 183.433Z" fill="url(#paint49_radial_750_296)"/>
<path d="M15.7785 355.072C16.3654 354.789 16.9827 354.574 17.6184 354.431C17.8425 354.375 18.0772 354.375 18.3013 354.431C18.3013 354.501 17.8135 355.1 16.9075 355.937C16.0392 356.68 15.2874 357.549 14.6773 358.515C14.2508 359.191 13.86 359.889 13.5065 360.606C13.2835 361.122 12.9071 362.111 12.6841 362.808C12.3372 363.843 11.9228 364.853 11.4436 365.833C10.9836 366.781 10.1752 368.258 9.65943 369.095C9.1437 369.931 8.43284 371.004 8.07043 371.464C7.78995 371.775 7.57645 372.14 7.4432 372.537C7.67022 373.042 7.9813 373.504 8.36314 373.903C8.81167 374.409 9.19132 374.971 9.49217 375.576C9.64274 375.898 9.70066 376.255 9.65943 376.608C9.60183 376.803 9.5019 376.984 9.36672 377.137C9.07451 377.341 8.73244 377.461 8.37708 377.486C7.95697 377.549 7.55127 377.686 7.17837 377.89C6.82696 378.204 6.57908 378.617 6.4675 379.075C6.21702 379.934 6.10411 380.828 6.13297 381.723C6.12256 382.617 6.16445 383.51 6.25842 384.399C6.35599 384.929 6.35599 385.347 6.25842 385.333C5.89225 384.988 5.59436 384.576 5.38029 384.12C4.97607 383.451 4.4464 382.448 4.18157 381.876C3.90654 381.278 3.68272 380.658 3.51252 380.023C3.37977 379.385 3.30512 378.736 3.2895 378.085C3.29846 377.315 3.36369 376.546 3.48464 375.785C3.69372 374.545 3.67978 374.517 3.13618 373.722C2.72268 373.089 2.3547 372.428 2.03503 371.743C1.6685 370.947 1.25424 370.175 0.794499 369.429C0.476941 368.962 0.210575 368.462 0 367.938C0 367.757 0 367.561 0.0696929 367.534C0.384742 367.538 0.696378 367.6 0.989639 367.715C1.66611 367.963 2.32306 368.261 2.95498 368.607C4.02825 369.15 4.22339 369.22 4.53004 369.025C4.78144 368.82 4.99797 368.575 5.17121 368.3C5.33847 368.035 6.27236 366.195 9.01826 360.578L10.8442 358.669C11.6456 357.712 12.5852 356.881 13.6319 356.201C14.1337 355.909 15.0955 355.393 15.7785 355.072Z" fill="url(#paint50_radial_750_296)"/>
</g>
<defs>
<radialGradient id="paint0_radial_750_296" cx="0" cy="0" r="1" gradientUnits="userSpaceOnUse" gradientTransform="translate(371.5 181.45) rotate(90) scale(212 504.08)">
<stop stop-color="#F5F6F6"/>
<stop offset="1" stop-color="#F5F6F6" stop-opacity="0"/>
</radialGradient>
<radialGradient id="paint1_radial_750_296" cx="0" cy="0" r="1" gradientUnits="userSpaceOnUse" gradientTransform="translate(371.5 181.45) rotate(90) scale(212 504.08)">
<stop stop-color="#F5F6F6"/>
<stop offset="1" stop-color="#F5F6F6" stop-opacity="0"/>
</radialGradient>
<radialGradient id="paint2_radial_750_296" cx="0" cy="0" r="1" gradientUnits="userSpaceOnUse" gradientTransform="translate(371.5 181.45) rotate(90) scale(212 504.08)">
<stop stop-color="#F5F6F6"/>
<stop offset="1" stop-color="#F5F6F6" stop-opacity="0"/>
</radialGradient>
<radialGradient id="paint3_radial_750_296" cx="0" cy="0" r="1" gradientUnits="userSpaceOnUse" gradientTransform="translate(371.5 181.45) rotate(90) scale(212 504.08)">
<stop stop-color="#F5F6F6"/>
<stop offset="1" stop-color="#F5F6F6" stop-opacity="0"/>
</radialGradient>
<radialGradient id="paint4_radial_750_296" cx="0" cy="0" r="1" gradientUnits="userSpaceOnUse" gradientTransform="translate(371.5 181.45) rotate(90) scale(212 504.08)">
<stop stop-color="#F5F6F6"/>
<stop offset="1" stop-color="#F5F6F6" stop-opacity="0"/>
</radialGradient>
<radialGradient id="paint5_radial_750_296" cx="0" cy="0" r="1" gradientUnits="userSpaceOnUse" gradientTransform="translate(371.5 181.45) rotate(90) scale(212 504.08)">
<stop stop-color="#F5F6F6"/>
<stop offset="1" stop-color="#F5F6F6" stop-opacity="0"/>
</radialGradient>
<radialGradient id="paint6_radial_750_296" cx="0" cy="0" r="1" gradientUnits="userSpaceOnUse" gradientTransform="translate(371.5 181.45) rotate(90) scale(212 504.08)">
<stop stop-color="#F5F6F6"/>
<stop offset="1" stop-color="#F5F6F6" stop-opacity="0"/>
</radialGradient>
<radialGradient id="paint7_radial_750_296" cx="0" cy="0" r="1" gradientUnits="userSpaceOnUse" gradientTransform="translate(371.5 181.45) rotate(90) scale(212 504.08)">
<stop stop-color="#F5F6F6"/>
<stop offset="1" stop-color="#F5F6F6" stop-opacity="0"/>
</radialGradient>
<radialGradient id="paint8_radial_750_296" cx="0" cy="0" r="1" gradientUnits="userSpaceOnUse" gradientTransform="translate(371.5 181.45) rotate(90) scale(212 504.08)">
<stop stop-color="#F5F6F6"/>
<stop offset="1" stop-color="#F5F6F6" stop-opacity="0"/>
</radialGradient>
<radialGradient id="paint9_radial_750_296" cx="0" cy="0" r="1" gradientUnits="userSpaceOnUse" gradientTransform="translate(371.5 181.45) rotate(90) scale(212 504.08)">
<stop stop-color="#F5F6F6"/>
<stop offset="1" stop-color="#F5F6F6" stop-opacity="0"/>
</radialGradient>
<radialGradient id="paint10_radial_750_296" cx="0" cy="0" r="1" gradientUnits="userSpaceOnUse" gradientTransform="translate(371.5 181.45) rotate(90) scale(212 504.08)">
<stop stop-color="#F5F6F6"/>
<stop offset="1" stop-color="#F5F6F6" stop-opacity="0"/>
</radialGradient>
<radialGradient id="paint11_radial_750_296" cx="0" cy="0" r="1" gradientUnits="userSpaceOnUse" gradientTransform="translate(371.5 181.45) rotate(90) scale(212 504.08)">
<stop stop-color="#F5F6F6"/>
<stop offset="1" stop-color="#F5F6F6" stop-opacity="0"/>
</radialGradient>
<radialGradient id="paint12_radial_750_296" cx="0" cy="0" r="1" gradientUnits="userSpaceOnUse" gradientTransform="translate(371.5 181.45) rotate(90) scale(212 504.08)">
<stop stop-color="#F5F6F6"/>
<stop offset="1" stop-color="#F5F6F6" stop-opacity="0"/>
</radialGradient>
<radialGradient id="paint13_radial_750_296" cx="0" cy="0" r="1" gradientUnits="userSpaceOnUse" gradientTransform="translate(371.5 181.45) rotate(90) scale(212 504.08)">
<stop stop-color="#F5F6F6"/>
<stop offset="1" stop-color="#F5F6F6" stop-opacity="0"/>
</radialGradient>
<radialGradient id="paint14_radial_750_296" cx="0" cy="0" r="1" gradientUnits="userSpaceOnUse" gradientTransform="translate(371.5 181.45) rotate(90) scale(212 504.08)">
<stop stop-color="#F5F6F6"/>
<stop offset="1" stop-color="#F5F6F6" stop-opacity="0"/>
</radialGradient>
<radialGradient id="paint15_radial_750_296" cx="0" cy="0" r="1" gradientUnits="userSpaceOnUse" gradientTransform="translate(371.5 181.45) rotate(90) scale(212 504.08)">
<stop stop-color="#F5F6F6"/>
<stop offset="1" stop-color="#F5F6F6" stop-opacity="0"/>
</radialGradient>
<radialGradient id="paint16_radial_750_296" cx="0" cy="0" r="1" gradientUnits="userSpaceOnUse" gradientTransform="translate(371.5 181.45) rotate(90) scale(212 504.08)">
<stop stop-color="#F5F6F6"/>
<stop offset="1" stop-color="#F5F6F6" stop-opacity="0"/>
</radialGradient>
<radialGradient id="paint17_radial_750_296" cx="0" cy="0" r="1" gradientUnits="userSpaceOnUse" gradientTransform="translate(371.5 181.45) rotate(90) scale(212 504.08)">
<stop stop-color="#F5F6F6"/>
<stop offset="1" stop-color="#F5F6F6" stop-opacity="0"/>
</radialGradient>
<radialGradient id="paint18_radial_750_296" cx="0" cy="0" r="1" gradientUnits="userSpaceOnUse" gradientTransform="translate(371.5 181.45) rotate(90) scale(212 504.08)">
<stop stop-color="#F5F6F6"/>
<stop offset="1" stop-color="#F5F6F6" stop-opacity="0"/>
</radialGradient>
<radialGradient id="paint19_radial_750_296" cx="0" cy="0" r="1" gradientUnits="userSpaceOnUse" gradientTransform="translate(371.5 181.45) rotate(90) scale(212 504.08)">
<stop stop-color="#F5F6F6"/>
<stop offset="1" stop-color="#F5F6F6" stop-opacity="0"/>
</radialGradient>
<radialGradient id="paint20_radial_750_296" cx="0" cy="0" r="1" gradientUnits="userSpaceOnUse" gradientTransform="translate(371.5 181.45) rotate(90) scale(212 504.08)">
<stop stop-color="#F5F6F6"/>
<stop offset="1" stop-color="#F5F6F6" stop-opacity="0"/>
</radialGradient>
<radialGradient id="paint21_radial_750_296" cx="0" cy="0" r="1" gradientUnits="userSpaceOnUse" gradientTransform="translate(371.5 181.45) rotate(90) scale(212 504.08)">
<stop stop-color="#F5F6F6"/>
<stop offset="1" stop-color="#F5F6F6" stop-opacity="0"/>
</radialGradient>
<radialGradient id="paint22_radial_750_296" cx="0" cy="0" r="1" gradientUnits="userSpaceOnUse" gradientTransform="translate(371.5 181.45) rotate(90) scale(212 504.08)">
<stop stop-color="#F5F6F6"/>
<stop offset="1" stop-color="#F5F6F6" stop-opacity="0"/>
</radialGradient>
<radialGradient id="paint23_radial_750_296" cx="0" cy="0" r="1" gradientUnits="userSpaceOnUse" gradientTransform="translate(371.5 181.45) rotate(90) scale(212 504.08)">
<stop stop-color="#F5F6F6"/>
<stop offset="1" stop-color="#F5F6F6" stop-opacity="0"/>
</radialGradient>
<radialGradient id="paint24_radial_750_296" cx="0" cy="0" r="1" gradientUnits="userSpaceOnUse" gradientTransform="translate(371.5 181.45) rotate(90) scale(212 504.08)">
<stop stop-color="#F5F6F6"/>
<stop offset="1" stop-color="#F5F6F6" stop-opacity="0"/>
</radialGradient>
<radialGradient id="paint25_radial_750_296" cx="0" cy="0" r="1" gradientUnits="userSpaceOnUse" gradientTransform="translate(371.5 181.45) rotate(90) scale(212 504.08)">
<stop stop-color="#F5F6F6"/>
<stop offset="1" stop-color="#F5F6F6" stop-opacity="0"/>
</radialGradient>
<radialGradient id="paint26_radial_750_296" cx="0" cy="0" r="1" gradientUnits="userSpaceOnUse" gradientTransform="translate(371.5 181.45) rotate(90) scale(212 504.08)">
<stop stop-color="#F5F6F6"/>
<stop offset="1" stop-color="#F5F6F6" stop-opacity="0"/>
</radialGradient>
<radialGradient id="paint27_radial_750_296" cx="0" cy="0" r="1" gradientUnits="userSpaceOnUse" gradientTransform="translate(371.5 181.45) rotate(90) scale(212 504.08)">
<stop stop-color="#F5F6F6"/>
<stop offset="1" stop-color="#F5F6F6" stop-opacity="0"/>
</radialGradient>
<radialGradient id="paint28_radial_750_296" cx="0" cy="0" r="1" gradientUnits="userSpaceOnUse" gradientTransform="translate(371.5 181.45) rotate(90) scale(212 504.08)">
<stop stop-color="#F5F6F6"/>
<stop offset="1" stop-color="#F5F6F6" stop-opacity="0"/>
</radialGradient>
<radialGradient id="paint29_radial_750_296" cx="0" cy="0" r="1" gradientUnits="userSpaceOnUse" gradientTransform="translate(371.5 181.45) rotate(90) scale(212 504.08)">
<stop stop-color="#F5F6F6"/>
<stop offset="1" stop-color="#F5F6F6" stop-opacity="0"/>
</radialGradient>
<radialGradient id="paint30_radial_750_296" cx="0" cy="0" r="1" gradientUnits="userSpaceOnUse" gradientTransform="translate(371.5 181.45) rotate(90) scale(212 504.08)">
<stop stop-color="#F5F6F6"/>
<stop offset="1" stop-color="#F5F6F6" stop-opacity="0"/>
</radialGradient>
<radialGradient id="paint31_radial_750_296" cx="0" cy="0" r="1" gradientUnits="userSpaceOnUse" gradientTransform="translate(371.5 181.45) rotate(90) scale(212 504.08)">
<stop stop-color="#F5F6F6"/>
<stop offset="1" stop-color="#F5F6F6" stop-opacity="0"/>
</radialGradient>
<radialGradient id="paint32_radial_750_296" cx="0" cy="0" r="1" gradientUnits="userSpaceOnUse" gradientTransform="translate(371.5 181.45) rotate(90) scale(212 504.08)">
<stop stop-color="#F5F6F6"/>
<stop offset="1" stop-color="#F5F6F6" stop-opacity="0"/>
</radialGradient>
<radialGradient id="paint33_radial_750_296" cx="0" cy="0" r="1" gradientUnits="userSpaceOnUse" gradientTransform="translate(371.5 181.45) rotate(90) scale(212 504.08)">
<stop stop-color="#F5F6F6"/>
<stop offset="1" stop-color="#F5F6F6" stop-opacity="0"/>
</radialGradient>
<radialGradient id="paint34_radial_750_296" cx="0" cy="0" r="1" gradientUnits="userSpaceOnUse" gradientTransform="translate(371.5 181.45) rotate(90) scale(212 504.08)">
<stop stop-color="#F5F6F6"/>
<stop offset="1" stop-color="#F5F6F6" stop-opacity="0"/>
</radialGradient>
<radialGradient id="paint35_radial_750_296" cx="0" cy="0" r="1" gradientUnits="userSpaceOnUse" gradientTransform="translate(371.5 181.45) rotate(90) scale(212 504.08)">
<stop stop-color="#F5F6F6"/>
<stop offset="1" stop-color="#F5F6F6" stop-opacity="0"/>
</radialGradient>
<radialGradient id="paint36_radial_750_296" cx="0" cy="0" r="1" gradientUnits="userSpaceOnUse" gradientTransform="translate(371.5 181.45) rotate(90) scale(212 504.08)">
<stop stop-color="#F5F6F6"/>
<stop offset="1" stop-color="#F5F6F6" stop-opacity="0"/>
</radialGradient>
<radialGradient id="paint37_radial_750_296" cx="0" cy="0" r="1" gradientUnits="userSpaceOnUse" gradientTransform="translate(371.5 181.45) rotate(90) scale(212 504.08)">
<stop stop-color="#F5F6F6"/>
<stop offset="1" stop-color="#F5F6F6" stop-opacity="0"/>
</radialGradient>
<radialGradient id="paint38_radial_750_296" cx="0" cy="0" r="1" gradientUnits="userSpaceOnUse" gradientTransform="translate(371.5 181.45) rotate(90) scale(212 504.08)">
<stop stop-color="#F5F6F6"/>
<stop offset="1" stop-color="#F5F6F6" stop-opacity="0"/>
</radialGradient>
<radialGradient id="paint39_radial_750_296" cx="0" cy="0" r="1" gradientUnits="userSpaceOnUse" gradientTransform="translate(371.5 181.45) rotate(90) scale(212 504.08)">
<stop stop-color="#F5F6F6"/>
<stop offset="1" stop-color="#F5F6F6" stop-opacity="0"/>
</radialGradient>
<radialGradient id="paint40_radial_750_296" cx="0" cy="0" r="1" gradientUnits="userSpaceOnUse" gradientTransform="translate(371.5 181.45) rotate(90) scale(212 504.08)">
<stop stop-color="#F5F6F6"/>
<stop offset="1" stop-color="#F5F6F6" stop-opacity="0"/>
</radialGradient>
<radialGradient id="paint41_radial_750_296" cx="0" cy="0" r="1" gradientUnits="userSpaceOnUse" gradientTransform="translate(371.5 181.45) rotate(90) scale(212 504.08)">
<stop stop-color="#F5F6F6"/>
<stop offset="1" stop-color="#F5F6F6" stop-opacity="0"/>
</radialGradient>
<radialGradient id="paint42_radial_750_296" cx="0" cy="0" r="1" gradientUnits="userSpaceOnUse" gradientTransform="translate(371.5 181.45) rotate(90) scale(212 504.08)">
<stop stop-color="#F5F6F6"/>
<stop offset="1" stop-color="#F5F6F6" stop-opacity="0"/>
</radialGradient>
<radialGradient id="paint43_radial_750_296" cx="0" cy="0" r="1" gradientUnits="userSpaceOnUse" gradientTransform="translate(371.5 181.45) rotate(90) scale(212 504.08)">
<stop stop-color="#F5F6F6"/>
<stop offset="1" stop-color="#F5F6F6" stop-opacity="0"/>
</radialGradient>
<radialGradient id="paint44_radial_750_296" cx="0" cy="0" r="1" gradientUnits="userSpaceOnUse" gradientTransform="translate(371.5 181.45) rotate(90) scale(212 504.08)">
<stop stop-color="#F5F6F6"/>
<stop offset="1" stop-color="#F5F6F6" stop-opacity="0"/>
</radialGradient>
<radialGradient id="paint45_radial_750_296" cx="0" cy="0" r="1" gradientUnits="userSpaceOnUse" gradientTransform="translate(371.5 181.45) rotate(90) scale(212 504.08)">
<stop stop-color="#F5F6F6"/>
<stop offset="1" stop-color="#F5F6F6" stop-opacity="0"/>
</radialGradient>
<radialGradient id="paint46_radial_750_296" cx="0" cy="0" r="1" gradientUnits="userSpaceOnUse" gradientTransform="translate(371.5 181.45) rotate(90) scale(212 504.08)">
<stop stop-color="#F5F6F6"/>
<stop offset="1" stop-color="#F5F6F6" stop-opacity="0"/>
</radialGradient>
<radialGradient id="paint47_radial_750_296" cx="0" cy="0" r="1" gradientUnits="userSpaceOnUse" gradientTransform="translate(371.5 181.45) rotate(90) scale(212 504.08)">
<stop stop-color="#F5F6F6"/>
<stop offset="1" stop-color="#F5F6F6" stop-opacity="0"/>
</radialGradient>
<radialGradient id="paint48_radial_750_296" cx="0" cy="0" r="1" gradientUnits="userSpaceOnUse" gradientTransform="translate(371.5 181.45) rotate(90) scale(212 504.08)">
<stop stop-color="#F5F6F6"/>
<stop offset="1" stop-color="#F5F6F6" stop-opacity="0"/>
</radialGradient>
<radialGradient id="paint49_radial_750_296" cx="0" cy="0" r="1" gradientUnits="userSpaceOnUse" gradientTransform="translate(371.5 181.45) rotate(90) scale(212 504.08)">
<stop stop-color="#F5F6F6"/>
<stop offset="1" stop-color="#F5F6F6" stop-opacity="0"/>
</radialGradient>
<radialGradient id="paint50_radial_750_296" cx="0" cy="0" r="1" gradientUnits="userSpaceOnUse" gradientTransform="translate(371.5 181.45) rotate(90) scale(212 504.08)">
<stop stop-color="#F5F6F6"/>
<stop offset="1" stop-color="#F5F6F6" stop-opacity="0"/>
</radialGradient>
</defs>
</svg>
