<svg width="16" height="12" viewBox="0 0 16 12" fill="none" xmlns="http://www.w3.org/2000/svg">
<path fill-rule="evenodd" clip-rule="evenodd" d="M8.33094 2.60814C10.5468 2.60823 12.678 3.45967 14.2839 4.98647C14.4049 5.10435 14.5982 5.10286 14.7173 4.98314L15.8733 3.81647C15.9336 3.75575 15.9672 3.6735 15.9667 3.58792C15.9662 3.50234 15.9316 3.42048 15.8706 3.36047C11.6555 -0.679076 5.00571 -0.679076 0.790608 3.36047C0.72955 3.42044 0.694906 3.50227 0.694343 3.58785C0.69378 3.67343 0.727344 3.7557 0.787608 3.81647L1.94394 4.98314C2.06297 5.10304 2.25642 5.10453 2.37728 4.98647C3.98343 3.45957 6.11483 2.60813 8.33094 2.60814ZM8.33094 6.4038C9.54843 6.40373 10.7225 6.85626 11.6249 7.67347C11.747 7.78945 11.9393 7.78694 12.0583 7.6678L13.2129 6.50114C13.2737 6.43994 13.3075 6.35693 13.3066 6.27066C13.3057 6.1844 13.2703 6.10208 13.2083 6.04214C10.4601 3.48576 6.20414 3.48576 3.45594 6.04214C3.39386 6.10208 3.35845 6.18444 3.35763 6.27073C3.35682 6.35702 3.39067 6.44003 3.45161 6.50114L4.60594 7.6678C4.72493 7.78694 4.91721 7.78945 5.03928 7.67347C5.94115 6.8568 7.11426 6.40431 8.33094 6.4038ZM10.6439 8.95762C10.6457 9.04413 10.6117 9.12753 10.5499 9.18814L8.55261 11.2038C8.49406 11.263 8.41423 11.2964 8.33094 11.2964C8.24765 11.2964 8.16783 11.263 8.10928 11.2038L6.11161 9.18814C6.0499 9.12749 6.01595 9.04406 6.01778 8.95755C6.01961 8.87104 6.05705 8.78913 6.12128 8.73114C7.39685 7.65225 9.26504 7.65225 10.5406 8.73114C10.6048 8.78917 10.6422 8.87112 10.6439 8.95762Z" fill="#F5F6F6"/>
</svg>
