<svg width="16" height="5" viewBox="0 0 16 5" fill="none" xmlns="http://www.w3.org/2000/svg">
<g opacity="0.5">
<path d="M13.5832 3.84823V3.63729C13.5832 3.49145 13.6132 3.35798 13.6731 3.23689C13.7343 3.11449 13.8229 3.01683 13.9388 2.94391C14.056 2.86969 14.1979 2.83258 14.3646 2.83258C14.5339 2.83258 14.6758 2.86969 14.7904 2.94391C14.905 3.01683 14.9916 3.11449 15.0502 3.23689C15.1088 3.35798 15.1381 3.49145 15.1381 3.63729V3.84823C15.1381 3.99407 15.1082 4.12819 15.0483 4.25059C14.9897 4.37168 14.9024 4.46934 14.7865 4.54356C14.6719 4.61648 14.5313 4.65294 14.3646 4.65294C14.1953 4.65294 14.0527 4.61648 13.9368 4.54356C13.8209 4.46934 13.733 4.37168 13.6731 4.25059C13.6132 4.12819 13.5832 3.99407 13.5832 3.84823ZM13.9817 3.63729V3.84823C13.9817 3.96933 14.0104 4.07805 14.0677 4.17441C14.125 4.26947 14.2239 4.31699 14.3646 4.31699C14.5013 4.31699 14.5977 4.26947 14.6537 4.17441C14.711 4.07805 14.7396 3.96933 14.7396 3.84823V3.63729C14.7396 3.51619 14.7123 3.40812 14.6576 3.31306C14.6029 3.2167 14.5052 3.16853 14.3646 3.16853C14.2279 3.16853 14.1295 3.2167 14.0696 3.31306C14.011 3.40812 13.9817 3.51619 13.9817 3.63729ZM11.5908 1.55911V1.34817C11.5908 1.20233 11.6208 1.06886 11.6807 0.947764C11.7419 0.825366 11.8304 0.727707 11.9463 0.654788C12.0635 0.580567 12.2055 0.543457 12.3722 0.543457C12.5415 0.543457 12.6834 0.580567 12.798 0.654788C12.9126 0.727707 12.9992 0.825366 13.0578 0.947764C13.1164 1.06886 13.1457 1.20233 13.1457 1.34817V1.55911C13.1457 1.70495 13.1157 1.83906 13.0558 1.96146C12.9972 2.08256 12.91 2.18022 12.7941 2.25444C12.6795 2.32736 12.5389 2.36382 12.3722 2.36382C12.2029 2.36382 12.0603 2.32736 11.9444 2.25444C11.8285 2.18022 11.7406 2.08256 11.6807 1.96146C11.6208 1.83906 11.5908 1.70495 11.5908 1.55911ZM11.9893 1.34817V1.55911C11.9893 1.68021 12.018 1.78893 12.0753 1.88529C12.1326 1.98034 12.2315 2.02787 12.3722 2.02787C12.5089 2.02787 12.6053 1.98034 12.6613 1.88529C12.7186 1.78893 12.7472 1.68021 12.7472 1.55911V1.34817C12.7472 1.22707 12.7199 1.11899 12.6652 1.02394C12.6105 0.927582 12.5128 0.879403 12.3722 0.879403C12.2354 0.879403 12.1371 0.927582 12.0772 1.02394C12.0186 1.11899 11.9893 1.22707 11.9893 1.34817ZM11.7393 4.59825L14.4896 0.598146H14.935L12.1846 4.59825H11.7393Z" fill="#F5F6F6"/>
<path d="M8.21289 4.59825V4.24668L9.53336 2.80133C9.68833 2.63205 9.81595 2.48491 9.91622 2.35991C10.0165 2.23361 10.0907 2.11511 10.1389 2.00443C10.1884 1.89245 10.2131 1.77526 10.2131 1.65286C10.2131 1.51223 10.1793 1.39048 10.1116 1.28762C10.0451 1.18475 9.95398 1.10532 9.83808 1.04933C9.72218 0.993339 9.59196 0.965343 9.44741 0.965343C9.29375 0.965343 9.15962 0.997245 9.04502 1.06105C8.93173 1.12355 8.84383 1.21144 8.78132 1.32473C8.72011 1.43801 8.68951 1.57083 8.68951 1.72318H8.22852C8.22852 1.48879 8.28256 1.28306 8.39065 1.10597C8.49873 0.928884 8.64588 0.790859 8.8321 0.691898C9.01963 0.592937 9.22994 0.543457 9.46304 0.543457C9.69744 0.543457 9.90515 0.592937 10.0862 0.691898C10.2672 0.790859 10.4091 0.924326 10.512 1.0923C10.6149 1.26027 10.6663 1.44713 10.6663 1.65286C10.6663 1.8 10.6396 1.94388 10.5862 2.08451C10.5341 2.22384 10.443 2.37944 10.3127 2.55132C10.1838 2.7219 10.0048 2.93024 9.77558 3.17634L8.87703 4.1373V4.16855H10.7366V4.59825H8.21289Z" fill="#F5F6F6"/>
<path d="M7.04203 4.62941C6.94567 4.62941 6.86298 4.59491 6.79396 4.52589C6.72494 4.45688 6.69043 4.3742 6.69043 4.27784C6.69043 4.18148 6.72494 4.0988 6.79396 4.02979C6.86298 3.96078 6.94567 3.92627 7.04203 3.92627C7.1384 3.92627 7.22109 3.96078 7.29011 4.02979C7.35913 4.0988 7.39364 4.18148 7.39364 4.27784C7.39364 4.34164 7.37736 4.40024 7.3448 4.45363C7.31355 4.50701 7.27123 4.54998 7.21784 4.58254C7.16575 4.61379 7.10715 4.62941 7.04203 4.62941Z" fill="#F5F6F6"/>
<path d="M4.7521 4.65294C4.52291 4.65294 4.3165 4.60737 4.13289 4.51622C3.94927 4.42507 3.80212 4.30007 3.69143 4.14121C3.58074 3.98235 3.52018 3.80135 3.50977 3.59822H3.97857C3.9968 3.77922 4.07884 3.92896 4.22469 4.04745C4.37185 4.16464 4.54765 4.22324 4.7521 4.22324C4.91618 4.22324 5.06203 4.18483 5.18965 4.108C5.31857 4.03118 5.4195 3.92571 5.49242 3.79159C5.56665 3.65617 5.60377 3.50317 5.60377 3.33259C5.60377 3.15811 5.56535 3.0025 5.48852 2.86578C5.41299 2.72776 5.30881 2.61903 5.17598 2.5396C5.04315 2.46017 4.89144 2.41981 4.72085 2.41851C4.59844 2.4172 4.47277 2.43608 4.34385 2.47515C4.21493 2.51291 4.1088 2.56174 4.02545 2.62164L3.57227 2.56695L3.81449 0.598145H5.89286V1.02784H4.22079L4.08015 2.20756H4.10359C4.18563 2.14246 4.2885 2.08842 4.41222 2.04545C4.53593 2.00248 4.66485 1.98099 4.79898 1.98099C5.0438 1.98099 5.26193 2.03959 5.45336 2.15678C5.64609 2.27267 5.79715 2.43153 5.90654 2.63335C6.01723 2.83518 6.07257 3.06566 6.07257 3.32478C6.07257 3.57999 6.01527 3.80786 5.90068 4.00839C5.78738 4.20761 5.63111 4.36517 5.43187 4.48106C5.23263 4.59565 5.00604 4.65294 4.7521 4.65294Z" fill="#F5F6F6"/>
<path d="M0.171875 4.59825V4.24668L1.49234 2.80133C1.64731 2.63205 1.77493 2.48491 1.8752 2.35991C1.97548 2.23361 2.0497 2.11511 2.09789 2.00443C2.14737 1.89245 2.17211 1.77526 2.17211 1.65286C2.17211 1.51223 2.13826 1.39048 2.07054 1.28762C2.00412 1.18475 1.91297 1.10532 1.79707 1.04933C1.68117 0.993339 1.55095 0.965343 1.4064 0.965343C1.25273 0.965343 1.1186 0.997245 1.00401 1.06105C0.890711 1.12355 0.80281 1.21144 0.740302 1.32473C0.679097 1.43801 0.648494 1.57083 0.648494 1.72318H0.187502C0.187502 1.48879 0.241545 1.28306 0.349631 1.10597C0.457716 0.928884 0.604869 0.790859 0.791089 0.691898C0.978612 0.592937 1.18892 0.543457 1.42202 0.543457C1.65643 0.543457 1.86413 0.592937 2.04515 0.691898C2.22616 0.790859 2.3681 0.924326 2.47098 1.0923C2.57385 1.26027 2.62529 1.44713 2.62529 1.65286C2.62529 1.8 2.5986 1.94388 2.5452 2.08451C2.49312 2.22384 2.40196 2.37944 2.27173 2.55132C2.14281 2.7219 1.96376 2.93024 1.73456 3.17634L0.836017 4.1373V4.16855H2.69561V4.59825H0.171875Z" fill="#F5F6F6"/>
</g>
</svg>
