<svg width="33" height="66" viewBox="0 0 33 66" fill="none" xmlns="http://www.w3.org/2000/svg">
<path fill-rule="evenodd" clip-rule="evenodd" d="M17.3472 63.4779C17.7892 62.6393 19.0047 60.3737 20.0483 58.4461C20.5223 57.5705 21.417 55.9199 22.5078 53.9075L22.5141 53.896C23.8233 51.4806 25.4141 48.5458 26.8992 45.8042C29.6125 40.7849 31.8593 36.5918 31.8839 36.5167C31.9207 36.3916 28.7899 36.354 16.5246 36.354C4.28383 36.354 1.11621 36.3915 1.11621 36.5167C1.11621 36.5918 4.55394 43.0004 8.75288 50.7483C12.9395 58.4962 16.4141 64.8672 16.4509 64.9173C16.5 64.9549 16.8929 64.304 17.3472 63.4779Z" stroke="#FB793C" stroke-width="1.39823"/>
<path d="M28.3421 12.5841C28.3421 19.1479 23.021 24.469 16.4571 24.469C9.89324 24.469 4.57216 19.1479 4.57216 12.5841C4.57216 6.02019 9.89324 0.699115 16.4571 0.699115C23.021 0.699115 28.3421 6.02019 28.3421 12.5841Z" stroke="#FB793C" stroke-width="1.39823"/>
</svg>
