<svg width="45" height="75" viewBox="0 0 45 75" fill="none" xmlns="http://www.w3.org/2000/svg">
<g opacity="0.31">
<path d="M32.7086 66.2525C32.7682 65.2716 32.8507 64.2816 32.9516 63.2961C31.118 64.2128 29.0048 65.2304 26.8779 66.2525H32.7086Z" fill="url(#paint0_linear_750_410)"/>
<path d="M35.7798 67.9712C36.5132 66.4449 36.0686 64.6436 35.7477 62.9799C35.3205 60.7486 35.1529 58.4753 35.2481 56.2055C35.2148 55.3451 35.4313 54.4934 35.8715 53.7534C36.3299 53.0888 37.1091 52.7129 37.8105 52.2912C41.4776 50.0637 43.7695 45.9019 44.3425 41.6301C44.9155 37.3583 43.9391 32.9949 42.2614 29.0256C40.1136 29.4257 37.9398 29.6708 35.7569 29.759C35.0189 29.7865 34.2213 29.7819 33.6254 29.3465C32.8736 28.7965 32.7086 27.7652 32.5848 26.8439L31.4022 17.2737C31.2555 16.0728 31.0447 14.7573 30.1279 13.969C28.9269 12.9423 26.9192 13.1715 25.9382 11.9202C24.9573 10.6689 25.787 8.52842 24.9023 7.12588C24.0818 5.81502 22.2482 5.75085 20.8043 5.20542C19.906 4.85794 19.1093 4.29068 18.487 3.55559C17.8648 2.8205 17.4369 1.94106 17.2426 0.997806C17.2404 0.964231 17.2404 0.930548 17.2426 0.896973C16.1746 1.35532 15.1569 2.27201 13.8735 2.40034C13.474 2.45642 13.1067 2.65008 12.8347 2.94795C12.5627 3.24581 12.4033 3.62921 12.3837 4.03205C12.3837 4.82957 12.92 5.60876 12.7275 6.38336C12.535 7.15797 11.6915 7.57965 11.0406 8.06549C9.93021 8.9486 9.18438 10.21 8.94578 11.6085C8.71459 12.9988 8.78335 14.4225 9.14747 15.784C9.32532 16.6769 9.68412 17.5239 10.2018 18.2728C10.6042 18.7977 11.1179 19.227 11.706 19.5297C12.2941 19.8324 12.9419 20.0011 13.603 20.0237C14.264 20.0391 14.9212 19.9202 15.5349 19.6744C16.1487 19.4287 16.7062 19.061 17.1738 18.5937C17.8156 17.952 18.3106 17.1224 19.1312 16.7603C19.8007 16.4959 20.5415 16.4732 21.226 16.6961L22.0144 19.107L19.5529 20.0971L24.2743 31.8765C24.8464 31.6466 25.3997 31.3723 25.9291 31.0561L28.0789 37.6104L30.6825 38.1742L39.4377 32.7932L42.0643 39.5492C39.8411 40.5576 37.4804 42.6202 35.6469 46.6307L27.7718 54.2942L28.5556 54.9451L11.3844 66.2524H6.4659L-0.00195312 72.8709H7.79064L12.0445 69.9513L18.8836 72.8709C20.08 73.4576 21.2397 73.9756 22.3628 74.4339C26.172 73.0955 30.2425 72.3484 33.6254 70.1575C34.5285 69.6375 35.2732 68.8818 35.7798 67.9712ZM32.7086 66.2295H26.8779C29.0048 65.2074 31.0997 64.1853 32.9516 63.2732C32.8507 64.2586 32.7682 65.2487 32.7086 66.2524V66.2295Z" fill="url(#paint1_linear_750_410)"/>
</g>
<defs>
<linearGradient id="paint0_linear_750_410" x1="26.8779" y1="64.7537" x2="32.9516" y2="64.7537" gradientUnits="userSpaceOnUse">
<stop offset="0.15" stop-color="#FBC1B2"/>
<stop offset="0.18" stop-color="#FBC3B5" stop-opacity="0.97"/>
<stop offset="0.24" stop-color="#FBC9BB" stop-opacity="0.88"/>
<stop offset="0.31" stop-color="#FCD2C7" stop-opacity="0.73"/>
<stop offset="0.39" stop-color="#FDDED6" stop-opacity="0.53"/>
<stop offset="0.48" stop-color="#FEEEEA" stop-opacity="0.27"/>
<stop offset="0.57" stop-color="white" stop-opacity="0"/>
<stop offset="1" stop-color="white" stop-opacity="0"/>
</linearGradient>
<linearGradient id="paint1_linear_750_410" x1="-0.00195312" y1="37.6654" x2="44.5075" y2="37.6654" gradientUnits="userSpaceOnUse">
<stop offset="0.15" stop-color="#FBC1B2"/>
<stop offset="0.18" stop-color="#FBC3B5" stop-opacity="0.97"/>
<stop offset="0.24" stop-color="#FBC9BB" stop-opacity="0.88"/>
<stop offset="0.31" stop-color="#FCD2C7" stop-opacity="0.73"/>
<stop offset="0.39" stop-color="#FDDED6" stop-opacity="0.53"/>
<stop offset="0.48" stop-color="#FEEEEA" stop-opacity="0.27"/>
<stop offset="0.57" stop-color="white" stop-opacity="0"/>
<stop offset="1" stop-color="white" stop-opacity="0"/>
</linearGradient>
</defs>
</svg>
