<svg width="1041" height="110" viewBox="0 0 1041 110" fill="none" xmlns="http://www.w3.org/2000/svg">
<g opacity="0.05">
<path d="M1032.39 2.92876C1032.67 2.50252 1033.18 1.87169 1033.5 1.5307C1033.85 1.17266 1034.22 0.882812 1034.34 0.882812C1034.46 0.882812 1034.56 1.07036 1034.56 1.30905C1034.56 1.54775 1034.44 2.24678 1034.29 2.89466C1034.09 3.76419 1034.03 4.58257 1034.1 6.33867C1034.14 7.60034 1034.31 9.1348 1034.44 9.74858C1034.6 10.3624 1034.92 11.3683 1035.16 12.0162C1035.5 12.9028 1035.59 13.4654 1035.59 14.6077C1035.59 15.409 1035.5 16.773 1035.4 17.6425C1035.3 18.495 1035.25 19.4157 1035.32 19.6885C1035.37 19.9442 1035.59 20.2682 1035.8 20.4046C1036.02 20.541 1036.84 20.7796 1037.64 20.916C1038.87 21.1377 1039.18 21.257 1039.66 21.7344C1039.97 22.0243 1040.29 22.4676 1040.39 22.7062C1040.48 22.9449 1040.55 23.3882 1040.51 23.7122C1040.48 24.1043 1040.31 24.4112 1039.51 25.0079L1037.68 24.5306C1036.67 24.2748 1035.64 24.0702 1035.37 24.0702C1035.11 24.0702 1034.86 24.1725 1034.79 24.2919C1034.72 24.3942 1034.68 24.7692 1034.7 25.0932C1034.72 25.4171 1034.86 26.0821 1034.99 26.5424C1035.13 27.0198 1035.25 27.4972 1035.25 27.6165C1035.25 27.7188 1035.09 27.8893 1034.91 27.9916C1034.67 28.111 1034.27 28.0769 1033.5 27.8723C1032.72 27.6506 1032.22 27.3608 1031.61 26.7981C1030.96 26.2185 1030.55 25.6047 1029.9 24.2407C1029.42 23.2518 1028.79 22.1777 1028.5 21.8538C1028.19 21.5298 1027.54 21.0865 1027.03 20.8819C1026.51 20.6774 1025.56 20.3534 1024.91 20.1829C1024.24 20.0124 1023.61 19.8078 1023.49 19.7567C1023.38 19.6885 1023.28 19.535 1023.28 19.4327C1023.28 19.3134 1023.57 19.0747 1023.91 18.8871C1024.27 18.7167 1024.79 18.495 1025.08 18.4098C1025.35 18.3245 1026.51 18.1881 1027.64 18.1199C1029.33 17.9835 1029.73 17.8983 1029.91 17.6425C1030.03 17.472 1030.17 17.0628 1030.24 16.7389C1030.29 16.3979 1030.17 15.1192 1029.95 13.7552C1029.66 11.948 1029.59 11.0443 1029.66 10.0555C1029.73 9.32234 1029.97 8.14593 1030.21 7.44689C1030.44 6.74786 1030.91 5.60554 1031.25 4.94061C1031.59 4.25863 1032.1 3.355 1032.39 2.92876Z" fill="#F23E0D"/>
<path d="M560.197 4.41207C560.71 3.96878 561.428 3.4914 561.804 3.355C562.18 3.23565 562.932 3.1163 563.479 3.1163C564.009 3.09926 564.454 3.13335 564.454 3.1845C564.454 3.23565 564.129 3.4232 563.736 3.59369C563.325 3.78124 562.83 4.10518 562.607 4.32682C562.248 4.66781 562.214 4.83831 562.283 5.82718C562.351 6.79901 562.505 7.2423 563.582 9.32234C564.471 11.0614 564.813 11.8798 564.795 12.3572C564.795 12.6982 564.59 13.4142 564.334 13.9257C564.06 14.4372 563.924 14.9146 563.992 14.9828C564.077 15.051 564.847 15.1533 565.719 15.2044C566.813 15.2556 567.428 15.3749 567.753 15.5966C568.026 15.7671 568.3 16.1763 568.437 16.5684C568.625 17.1992 568.608 17.2845 568.249 17.6425C567.924 17.9494 567.685 18.0176 566.796 18.0006C566.163 17.9835 565.12 17.796 562.659 17.0287L560.778 17.4038C559.53 17.6596 558.658 17.7448 558.214 17.6596C557.838 17.6084 557.103 17.3527 556.59 17.114C556.077 16.8582 554.915 16.1763 554.026 15.5966C553.137 14.9998 552.299 14.5054 552.196 14.5225C552.077 14.5225 551.991 14.4202 552.026 14.3179C552.06 14.1985 552.573 14.011 553.188 13.9087C553.786 13.7893 554.829 13.7041 555.479 13.687C556.128 13.687 557.154 13.7723 557.735 13.8916C558.316 13.9939 558.864 14.0451 558.932 13.9769C559 13.8916 558.812 13.4654 558.522 12.988C558.214 12.5277 557.872 11.7775 557.769 11.3342C557.667 10.8568 557.65 10.0725 557.718 9.49284C557.787 8.9302 557.975 8.04363 558.163 7.53214C558.334 7.02065 558.658 6.28752 558.881 5.91243C559.103 5.53734 559.701 4.85536 560.197 4.41207Z" fill="#F23E0D"/>
<path d="M812.963 19.8078C813.612 18.8189 814.365 17.8471 814.638 17.6425C814.895 17.4209 815.219 17.2504 815.356 17.2504C815.476 17.2504 815.578 17.3015 815.578 17.3868C815.578 17.455 815.39 18.1029 815.151 18.836C814.912 19.5521 814.638 20.9331 814.536 21.9049C814.399 23.1666 814.399 24.1384 814.536 25.4342C814.638 26.4231 814.877 27.6847 815.065 28.2474C815.254 28.81 815.561 30.3445 815.749 31.6573C815.954 32.9701 816.177 34.317 816.262 34.6409C816.348 34.9649 816.587 35.5105 816.809 35.8344C817.117 36.2948 817.647 36.6528 819.117 37.3689C820.16 37.8804 821.134 38.4089 821.254 38.5282C821.442 38.6987 821.425 38.784 821.168 39.0397C820.912 39.2955 820.553 39.3296 818.655 39.2955C817.237 39.2614 816.296 39.3125 816.057 39.4319C815.835 39.5512 815.442 39.824 815.151 40.0627C814.724 40.4037 814.518 40.4548 813.954 40.3696C813.578 40.3014 812.792 40.0286 812.211 39.7558C811.612 39.466 810.997 39.0568 810.843 38.8351C810.672 38.6135 810.33 38.3407 810.074 38.2384C809.8 38.1361 809.185 38.0509 808.706 38.0509C808.21 38.0509 807.698 37.9827 807.578 37.9145C807.441 37.8463 807.373 37.6417 807.407 37.4541C807.441 37.2154 807.886 36.9085 808.877 36.4311C809.663 36.0561 810.45 35.5616 810.638 35.3229C810.866 35.0388 810.98 34.6409 810.98 34.1295C810.963 33.7032 810.706 32.3222 810.381 31.0605C810.04 29.7989 809.732 28.3326 809.663 27.8211C809.578 27.1562 809.629 26.5935 809.852 25.8604C810.005 25.2978 810.518 24.1043 810.963 23.2177C811.407 22.3312 812.313 20.7967 812.963 19.8078Z" fill="#F23E0D"/>
<path d="M588.882 19.5521C589.207 19.2793 589.908 18.8701 590.438 18.6655C590.951 18.4439 591.515 18.2734 591.686 18.2734C591.84 18.2734 591.976 18.3927 591.976 18.5291C591.976 18.6655 591.754 19.2281 591.481 19.7737C591.207 20.3023 590.865 21.1718 590.711 21.6833C590.575 22.1948 590.335 23.5417 590.181 24.6669C590.045 25.7922 589.857 27.9405 589.754 29.4408C589.669 30.9412 589.583 32.7314 589.583 33.4134C589.583 34.3511 589.446 35.0842 588.985 36.5164C588.66 37.5564 588.386 38.5453 588.386 38.7328C588.386 38.9204 588.745 39.4489 589.207 39.9263C589.686 40.4378 590.506 41.0345 591.276 41.4096C592.335 41.9552 592.609 42.1939 592.985 42.8588C593.293 43.4044 593.378 43.7113 593.259 43.8477C593.156 43.95 592.472 44.0523 591.72 44.0693C590.626 44.0864 590.199 44.0182 589.583 43.7284C589.156 43.5238 588.745 43.4044 588.66 43.4726C588.575 43.5408 588.557 44.5638 588.626 45.8084C588.728 47.5304 588.711 48.093 588.523 48.3488C588.318 48.6386 588.233 48.6216 586.951 47.9225C586.215 47.5134 585.292 46.8996 584.899 46.5586C584.432 46.1608 583.891 45.3651 583.275 44.1716C582.762 43.1998 582.061 42.1086 581.737 41.7506C581.378 41.3755 580.796 41.0004 580.352 40.847C579.924 40.7106 578.933 40.5571 578.13 40.506C577.326 40.4548 576.506 40.3866 576.3 40.3355C576.078 40.3014 575.907 40.1991 575.907 40.0968C575.907 39.9945 576.266 39.7047 576.728 39.4319C577.172 39.142 578.078 38.7158 578.728 38.46C579.634 38.102 580.283 37.9827 581.463 37.9486C582.403 37.9145 583.087 37.8122 583.224 37.6758C583.343 37.5564 583.446 37.079 583.429 36.6016C583.429 36.1413 583.309 35.1013 583.173 34.2999C583.036 33.4986 582.916 32.4074 582.916 31.8789C582.916 31.2197 583.121 30.2535 583.532 28.9805C583.856 27.9234 584.66 25.9798 585.309 24.6669C585.976 23.303 586.882 21.8026 587.378 21.1718C587.874 20.558 588.54 19.8419 588.882 19.5521Z" fill="#F23E0D"/>
<path d="M656.134 27.3949C656.168 27.2926 656.459 27.1732 656.783 27.1221C657.108 27.0539 657.518 27.0027 657.707 27.0027C657.895 26.9857 658.63 27.0539 659.331 27.1391C660.185 27.2528 661.012 27.5029 661.809 27.8893C662.596 28.2644 663.297 28.7759 663.861 29.3897C664.322 29.8841 664.835 30.5661 665.006 30.89C665.16 31.214 665.382 31.572 665.519 31.6743C665.639 31.7766 666.425 31.913 667.28 31.9471C668.134 31.9983 668.989 32.1176 669.194 32.2199C669.417 32.3393 669.656 32.6802 669.724 32.9871C669.81 33.277 669.827 33.6862 669.758 33.8737C669.69 34.0613 669.382 34.2999 669.058 34.4193C668.681 34.5557 667.895 34.5898 666.767 34.5216C665.724 34.4534 664.818 34.4875 664.459 34.6068C664.134 34.7091 663.792 34.9308 663.69 35.1013C663.587 35.2888 663.519 37.7269 663.519 41.1198C663.519 46.6268 663.502 46.8655 663.126 47.8544C662.903 48.417 662.561 49.1842 662.339 49.5593C662.117 49.9344 661.792 50.2924 661.621 50.3777C661.45 50.4459 661.245 50.4459 661.177 50.3777C661.108 50.2924 661.006 49.6275 660.955 48.8773C660.886 48.1271 660.732 47.1383 660.613 46.6609C660.476 46.1835 660.117 45.5015 659.775 45.1264C659.45 44.7513 659.04 44.1034 658.852 43.6772C658.664 43.251 658.424 42.4496 658.305 41.887C658.185 41.3244 657.997 39.9775 657.86 38.9033C657.724 37.8122 657.518 36.7721 657.365 36.5675C657.228 36.3459 656.612 35.8685 655.997 35.4934C655.228 35.016 654.852 34.675 654.749 34.3511C654.681 34.0613 654.424 33.8226 654.065 33.6691C653.775 33.5498 653.091 33.4475 652.578 33.4475C652.065 33.4475 651.604 33.3793 651.552 33.277C651.501 33.1747 651.877 32.8507 652.356 32.5268C652.852 32.2199 653.74 31.7084 654.322 31.4186C654.92 31.1287 655.877 30.7707 656.459 30.6172C657.057 30.4638 657.724 30.3786 657.963 30.4297C658.202 30.4979 658.561 30.4979 658.766 30.4467C659.023 30.4126 659.16 30.2592 659.16 30.0376C659.16 29.85 658.852 29.4067 658.493 29.0657C658.117 28.7077 657.433 28.2303 656.954 27.9916C656.459 27.7529 656.1 27.4972 656.134 27.3949Z" fill="#F23E0D"/>
<path d="M873.872 30.8389C874.47 30.3445 875.547 29.6284 876.265 29.2192C876.966 28.827 877.753 28.5031 878.009 28.5031C878.317 28.5031 878.488 28.5883 878.488 28.7588C878.488 28.8952 878.266 29.3044 877.992 29.6625C877.736 30.0035 877.377 30.6172 877.223 31.0264C877.069 31.4186 876.864 32.237 876.778 32.8507C876.624 33.8055 876.659 34.1295 876.949 35.1183C877.154 35.7492 877.428 36.9938 877.565 37.8804C877.736 38.8692 877.787 39.8922 877.736 40.523C877.633 41.3755 877.667 41.5972 877.924 41.8188C878.095 41.9723 878.454 42.1768 878.744 42.2791C879.018 42.3814 879.701 42.586 880.231 42.7224C880.915 42.91 881.445 43.1998 881.907 43.6431C882.283 43.9841 882.591 44.3762 882.591 44.4956C882.591 44.632 882.334 44.7002 881.821 44.7002C881.394 44.7002 879.992 44.8195 878.693 44.973C877.377 45.1264 875.599 45.2117 874.641 45.1776C873.188 45.1264 872.795 45.0412 871.992 44.632C871.257 44.2569 870.675 44.1205 869.342 43.9841C868.402 43.8989 867.53 43.7966 867.41 43.7625C867.308 43.7113 867.205 43.5579 867.205 43.4215C867.205 43.2851 867.564 42.9782 868.009 42.7736C868.47 42.5519 869.479 42.1086 870.265 41.7847C871.53 41.2732 871.735 41.1368 871.957 40.6083C872.128 40.1991 872.163 39.7047 872.094 38.9886C872.043 38.4259 871.838 37.1643 871.65 36.1754C871.428 34.999 871.359 34.2147 871.445 33.8737C871.53 33.6009 871.855 32.9871 872.18 32.5438C872.504 32.0835 873.257 31.3163 873.872 30.8389Z" fill="#F23E0D"/>
<path d="M998.785 36.0049C998.734 35.8685 998.785 35.6469 998.887 35.5275C999.041 35.34 999.588 35.3059 1001.31 35.3741C1002.9 35.4252 1003.84 35.5616 1004.65 35.8003C1005.43 36.0561 1005.95 36.3459 1006.39 36.8062C1006.73 37.1643 1007.55 38.2213 1008.2 39.1591C1008.84 40.0968 1009.64 41.0345 1009.96 41.2562C1010.46 41.5801 1010.77 41.6313 1011.91 41.6313C1013.01 41.6142 1013.37 41.6824 1013.71 41.9382C1014.08 42.245 1014.1 42.2962 1013.88 42.5519C1013.74 42.7054 1013.02 43.0293 1012.29 43.251C1011.42 43.5408 1010.92 43.7966 1010.8 44.0182C1010.7 44.2057 1010.56 46.2517 1010.49 48.5875C1010.41 51.2813 1010.29 52.9351 1010.15 53.1909C1010.03 53.3955 1009.85 53.566 1009.73 53.566C1009.62 53.583 1009.3 53.3614 1009.02 53.1056C1008.75 52.8499 1008.15 52.0485 1007.69 51.3495C1007.23 50.6505 1006.72 49.5764 1006.53 48.9626C1006.36 48.3488 1006.12 47.394 1006.03 46.8314C1005.93 46.2687 1005.85 45.3992 1005.85 44.9218C1005.85 44.4274 1005.78 43.9841 1005.67 43.933C1005.57 43.8818 1004.87 43.7966 1004.08 43.7454C1003.32 43.6772 1001.98 43.4215 1001.14 43.1487C1000.31 42.8929 999.469 42.5349 999.298 42.3644C999.104 42.1598 999.047 41.9495 999.127 41.7336C999.212 41.5631 999.605 41.2221 1000.03 40.9834C1000.46 40.7447 1001.13 40.3355 1001.52 40.0627C1001.98 39.7729 1002.26 39.4489 1002.26 39.2443C1002.26 39.0056 1001.9 38.6646 1001.09 38.1532C1000.46 37.744 999.708 37.1472 999.417 36.8403C999.127 36.5164 998.836 36.1413 998.785 36.0049Z" fill="#F23E0D"/>
<path d="M824.28 40.3525C824.553 39.7899 825.049 39.0056 825.391 38.6135C825.75 38.2043 826.075 37.8804 826.143 37.8804C826.211 37.8804 826.228 38.1702 826.211 38.5282C826.177 38.8692 826.28 39.8581 826.434 40.6935C826.587 41.529 826.878 42.6542 827.083 43.1657C827.288 43.6772 827.716 44.4103 828.058 44.7854C828.4 45.1605 828.844 45.9277 829.049 46.4904C829.271 47.053 829.647 48.0419 829.887 48.7068C830.143 49.3718 830.536 50.0878 830.776 50.3095C831.152 50.6675 831.323 50.7016 831.938 50.6164C832.348 50.5482 833.237 50.2583 833.904 49.9514C834.588 49.6446 835.34 49.2695 835.579 49.099C835.819 48.9285 836.349 48.3658 836.776 47.8544C837.203 47.3258 837.597 46.8996 837.665 46.9166C837.75 46.9166 837.802 47.036 837.802 47.1724C837.802 47.3088 837.614 47.7861 837.391 48.2465C837.169 48.6898 836.639 49.5082 836.212 50.0708C835.785 50.6334 835.049 51.503 834.571 51.9974C834.075 52.5089 833.306 53.0715 832.759 53.3102C832.246 53.5489 831.819 53.7876 831.819 53.8728C831.801 53.941 832.178 54.1456 832.622 54.3161C833.066 54.4866 833.596 54.7424 833.784 54.8617C834.058 55.0493 834.075 55.1004 833.87 55.1686C833.733 55.2027 832.297 55.3732 830.707 55.5608C828.724 55.7994 827.579 55.8506 827.117 55.7483C826.741 55.663 825.887 55.305 825.237 54.947C824.587 54.606 824.04 54.1968 824.04 54.0774C824.04 53.941 824.228 53.7364 824.468 53.6171C824.707 53.4978 825.117 53.3102 825.408 53.1909C825.75 53.0374 825.989 52.7646 826.109 52.3725C826.228 51.9974 826.246 51.5371 826.16 51.1449C826.075 50.7869 825.681 50.0196 825.271 49.44C824.861 48.8432 824.365 47.9396 824.177 47.4281C823.972 46.9166 823.716 45.8425 823.613 45.0412C823.442 43.933 823.442 43.3362 823.596 42.4837C823.698 41.87 824.006 40.9152 824.28 40.3525Z" fill="#F23E0D"/>
<path d="M943.363 41.6824C943.637 41.4778 944.098 41.2221 944.389 41.1368C944.662 41.0516 945.175 40.9663 945.5 40.9663C945.825 40.9663 946.44 41.1027 947.637 41.6313L947.192 42.1087C946.936 42.3644 946.697 42.7736 946.628 43.0464C946.577 43.3021 946.611 44.1034 946.714 44.8366C946.816 45.5527 947.056 46.7973 947.244 47.5986C947.432 48.3999 947.722 49.3547 947.876 49.7127C948.03 50.0708 948.338 50.48 948.577 50.5993C948.816 50.7187 949.534 50.9062 950.201 51.0256C951.193 51.1961 951.5 51.3325 951.945 51.7928C952.304 52.1508 952.543 52.6112 952.611 53.0204C952.663 53.3955 952.629 53.7194 952.526 53.8217C952.389 53.9354 951.854 53.924 950.919 53.7876C950.15 53.6682 949.398 53.5319 949.261 53.4807C949.09 53.4125 948.97 53.5148 948.885 53.7705C948.816 53.9922 948.833 54.7424 948.919 55.4414C949.021 56.1404 949.21 57.1464 949.363 57.6578C949.517 58.1693 949.893 59.1582 950.218 59.8402C950.543 60.5051 950.851 61.3917 950.902 61.8009C950.97 62.2101 950.936 62.6704 950.816 62.9091C950.714 63.1137 950.56 63.2842 950.457 63.2842C950.355 63.2842 950.286 63.1649 950.286 63.0285C950.286 62.8921 949.5 61.9543 948.56 60.9484C947.603 59.9254 946.372 58.408 945.808 57.5726C945.261 56.7372 944.577 55.4244 944.303 54.6742C944.013 53.924 943.688 53.1227 943.568 52.884C943.466 52.6453 943.021 52.2872 942.594 52.0826C942.166 51.878 940.987 51.5541 939.944 51.3666C938.901 51.179 937.858 50.9574 937.585 50.8551C937.26 50.7187 937.141 50.5652 937.158 50.2924C937.192 50.0878 937.431 49.7809 937.722 49.6105C937.995 49.457 939.038 49.2013 940.03 49.0649C941.021 48.9285 941.944 48.775 942.081 48.7239C942.218 48.6727 942.389 48.5193 942.457 48.3658C942.543 48.2294 942.474 47.5986 942.32 46.9678C942.166 46.3199 942.047 45.314 942.064 44.7002C942.064 43.8989 942.184 43.3874 942.457 42.8418C942.679 42.4155 943.072 41.9041 943.363 41.6824Z" fill="#F23E0D"/>
<path d="M552.795 51.5371C553 51.4348 553.462 51.2813 553.803 51.1961H553.821C554.162 51.1108 554.846 51.0767 555.308 51.1108C555.786 51.162 556.744 51.3836 557.445 51.6053C558.146 51.8269 559.376 52.2872 560.18 52.6453C561.376 53.1568 561.872 53.2761 562.915 53.3102C563.616 53.3273 564.385 53.4466 564.625 53.566C564.864 53.6853 565.189 53.941 565.343 54.1456C565.513 54.3332 565.65 54.6571 565.65 54.8447C565.65 55.0322 565.565 55.288 565.445 55.4073C565.325 55.5096 564.83 55.6119 564.334 55.6119C563.838 55.6119 563.24 55.6801 563.001 55.7824C562.659 55.9188 562.573 56.0722 562.573 56.5155C562.573 56.8054 562.727 57.8965 562.898 58.9366C563.086 59.9766 563.291 61.5451 563.342 62.4317C563.428 63.4376 563.394 64.6652 563.257 65.6711C563.137 66.5577 562.864 67.9217 562.642 68.706C562.419 69.4732 562.043 70.4962 561.804 70.9565C561.565 71.4339 561.274 71.7919 561.171 71.7578C561.052 71.7237 560.59 71.1781 560.146 70.5132C559.701 69.8653 558.795 68.2627 558.146 66.9499C557.496 65.637 556.795 64.0685 556.607 63.4547C556.402 62.8409 556.128 61.7497 555.992 61.0337C555.855 60.3005 555.735 59.2605 555.735 58.732C555.735 58.1182 555.872 57.4703 556.077 57.027C556.265 56.6178 556.504 56.2598 556.59 56.2086C556.692 56.1575 556.761 55.9699 556.761 55.7824C556.761 55.4585 556.641 55.4414 554.162 55.4414C552.367 55.4414 551.222 55.3562 550.521 55.1857C549.957 55.0322 549.188 54.6912 548.812 54.4355C548.436 54.1627 548.111 53.8728 548.094 53.7876C548.06 53.7194 548.333 53.6512 548.692 53.6512C549.188 53.6512 549.718 53.4296 550.88 52.6964C551.718 52.1679 552.573 51.6394 552.795 51.5371Z" fill="#F23E0D"/>
<path d="M890.403 53.9581C890.386 53.7535 890.488 53.5489 890.625 53.5148C890.745 53.4637 891.018 53.4637 891.206 53.5148C891.394 53.566 891.753 53.7194 892.027 53.8387C892.283 53.9751 892.967 54.5037 893.565 55.0322C894.147 55.5608 895.087 56.2427 895.651 56.5496C896.215 56.8565 897.908 57.5896 899.412 58.1864C901.805 59.1412 902.233 59.3799 903.002 60.13C903.463 60.6074 904.147 61.3405 904.506 61.8009C905.019 62.4488 905.498 62.7898 906.985 63.5229C907.994 64.0173 908.917 64.5629 909.036 64.7164C909.207 64.938 909.207 65.0403 909.036 65.2449C908.865 65.4495 908.472 65.5177 905.993 65.5006L906.096 66.0633C906.147 66.3531 906.233 67.1886 906.267 67.8876C906.335 68.7742 906.233 70.0529 905.925 72.1159C905.686 73.7185 905.481 75.3212 905.481 75.6451C905.481 75.9691 905.823 77.5888 906.25 79.2255C906.677 80.8623 907.019 82.3627 907.019 82.5502C907.019 82.7377 906.9 82.8912 906.763 82.8912C906.626 82.8912 906.25 82.7889 905.959 82.6696C905.652 82.5332 905.122 82.2092 904.797 81.9194C904.472 81.6466 903.925 80.9987 903.6 80.4872C903.275 79.9757 902.728 78.9186 902.386 78.1173C902.045 77.316 901.6 76.0543 901.412 75.3041C901.207 74.554 901.019 73.4798 901.002 72.9172C900.985 72.3546 901.036 70.8883 901.104 69.6778C901.224 67.9387 901.207 67.3761 901.036 67.0351C900.899 66.7964 900.609 66.4554 900.369 66.2508C900.13 66.0462 899.874 65.6711 899.822 65.3983C899.742 65.0687 899.543 64.8357 899.224 64.6993C898.95 64.597 898.301 64.4095 897.788 64.2901C897.275 64.1878 896.557 63.9662 896.198 63.8127C895.702 63.6081 895.548 63.4547 895.6 63.199C895.634 62.9773 895.925 62.7557 896.506 62.5511C896.984 62.3806 897.412 62.1419 897.463 62.0396C897.531 61.9202 897.531 61.6474 897.463 61.4258C897.412 61.2042 897.138 60.8291 896.848 60.5904C896.574 60.3687 895.634 59.772 894.796 59.2776C893.873 58.732 892.899 57.9988 892.369 57.4192C891.873 56.8906 891.241 55.987 890.95 55.4073C890.676 54.8106 890.42 54.1627 890.403 53.9581Z" fill="#F23E0D"/>
<path d="M703.555 61.6474C703.094 61.3235 702.752 60.9484 702.752 60.795C702.786 60.5392 703.025 60.5222 704.854 60.6074C706.222 60.6586 707.367 60.8291 708.205 61.0678C708.906 61.2724 709.949 61.6815 710.496 61.9714C711.06 62.2783 712.291 63.2501 713.248 64.1367C714.205 65.0233 715.436 65.9951 716 66.2849C716.547 66.5748 717.436 66.9158 717.949 67.0351C718.462 67.1544 719.06 67.342 719.282 67.4784C719.488 67.6148 719.659 67.8705 719.659 68.0581C719.659 68.2456 719.436 68.5866 719.146 68.8253C718.855 69.064 718.411 69.2515 718.12 69.2515C717.829 69.2515 717.385 69.3709 717.094 69.5073C716.804 69.6437 716.479 69.9676 716.342 70.2234C716.223 70.4962 716.069 70.8883 716.017 71.127C715.949 71.3657 716.137 72.7808 716.393 74.2812C716.667 75.7815 716.992 77.8104 717.094 78.7993C717.214 79.7882 717.265 80.9987 717.197 81.4761C717.146 81.9705 717.009 82.5332 716.923 82.7207C716.838 82.9082 716.667 83.0276 716.581 82.9764C716.496 82.9253 716.205 82.2604 715.966 81.4761C715.71 80.7089 715.316 79.6177 715.094 79.055C714.855 78.4924 714.222 77.4183 713.675 76.6681C713.145 75.9179 712.53 74.9802 712.325 74.571C712.137 74.1789 711.692 72.9854 711.35 71.9454C711.009 70.8883 710.581 69.746 710.427 69.422C710.171 68.9447 709.795 68.6719 708.427 67.9899C707.213 67.3761 706.478 67.1204 705.743 67.0522C704.786 66.9499 704.752 66.9328 705.06 66.66C705.248 66.4895 705.897 66.1656 706.547 65.9269C707.179 65.6882 707.88 65.5006 708.119 65.5006C708.359 65.5006 708.667 65.4665 708.803 65.4154C708.94 65.3643 709.06 65.1767 709.06 64.9892C709.06 64.8016 708.769 64.4095 708.427 64.1367C708.068 63.8468 707.47 63.5399 707.094 63.4376C706.718 63.3354 705.948 63.0114 705.384 62.7386C704.82 62.4488 704 61.9543 703.555 61.6474Z" fill="#F23E0D"/>
<path d="M627.089 62.6022C627.038 62.4999 627.26 62.3976 627.568 62.3635C627.859 62.3294 628.884 62.3124 629.825 62.3294C631.09 62.3635 631.739 62.4658 632.303 62.7045C632.731 62.8921 633.38 63.3524 633.739 63.7275C634.115 64.0855 634.628 64.8528 634.902 65.4154C635.175 66.0121 635.483 67.1544 635.637 68.1433C635.791 69.0811 635.996 69.9847 636.081 70.1381C636.167 70.3086 636.372 70.5132 636.543 70.5985C636.697 70.6837 637.261 70.8201 637.774 70.8883C638.287 70.9395 638.919 71.127 639.176 71.2804C639.432 71.4339 639.723 71.7237 639.825 71.9283C639.911 72.15 639.962 72.4739 639.911 72.6615C639.859 72.849 639.671 73.0706 639.483 73.1729C639.261 73.2923 638.714 73.2752 637.825 73.1559C636.526 72.9684 636.475 72.9854 635.551 73.4457C634.697 73.889 634.457 73.9231 630.833 73.9402L629.979 73.207C629.363 72.6615 628.833 72.3716 627.944 72.1329C627.277 71.9454 626.508 71.6044 625.722 70.9736L626.286 70.9565C626.577 70.9565 627.602 70.6496 628.543 70.2745C629.483 69.8994 630.406 69.5925 630.594 69.5925C630.782 69.5925 630.987 69.4732 631.073 69.3368C631.141 69.1833 631.073 68.9447 630.85 68.723C630.577 68.4332 630.491 68.0581 630.423 66.6259C630.355 65.4154 630.235 64.7675 630.03 64.4265C629.842 64.1367 629.261 63.7445 628.457 63.3694C627.756 63.0455 627.141 62.7045 627.089 62.6022Z" fill="#F23E0D"/>
<path d="M772.533 79.5665C772.824 78.8164 773.251 77.998 773.473 77.7252C773.696 77.4694 773.952 77.2648 774.038 77.2648C774.14 77.2648 774.157 78.1344 774.089 79.4301C774.003 81.1521 774.038 81.9194 774.277 83.0617C774.431 83.863 774.721 84.9712 774.909 85.5339C775.115 86.0965 775.559 87.1365 775.901 87.8356C776.26 88.5346 776.824 90.0009 777.166 91.075C777.508 92.1491 777.969 93.8882 778.192 94.9111C778.414 95.9341 778.653 97.281 778.705 97.8948C778.756 98.5086 778.91 99.0883 779.012 99.1906C779.132 99.2929 779.85 99.4293 780.602 99.4975C781.354 99.5657 782.294 99.7703 782.705 99.9578C783.098 100.128 783.508 100.435 783.594 100.623C783.679 100.81 783.765 101.1 783.765 101.254C783.782 101.424 783.542 101.867 783.252 102.242C782.961 102.618 782.688 103.163 782.619 103.436C782.551 103.777 782.653 104.254 782.944 104.885C783.201 105.465 783.833 106.317 784.636 107.17C785.32 107.903 786.26 108.772 786.705 109.13C787.167 109.471 787.474 109.795 787.389 109.864C787.32 109.932 786.619 109.812 785.816 109.574C785.013 109.352 783.867 108.96 783.252 108.721C782.636 108.483 781.799 108.056 781.371 107.784C780.944 107.511 780.26 106.931 779.833 106.505C779.405 106.079 778.722 105.209 778.294 104.578C777.542 103.47 777.508 103.453 776.499 103.248C775.935 103.129 774.892 102.805 774.191 102.532C773.491 102.242 772.294 101.85 771.542 101.663C770.79 101.458 770.02 101.202 769.849 101.083C769.678 100.981 769.559 100.793 769.61 100.708C769.661 100.623 770.037 100.367 770.448 100.179C770.858 99.9749 771.832 99.6339 772.619 99.4122C773.85 99.0542 774.055 98.9519 774.14 98.5768C774.191 98.3381 774.174 97.8778 774.106 97.5538C774.038 97.2299 773.405 95.1157 771.388 88.7733V85.9601C771.371 83.7437 771.439 82.9082 771.678 82.0387C771.867 81.4249 772.243 80.3167 772.533 79.5665Z" fill="#F23E0D"/>
<path d="M945.568 77.998C944.902 77.674 944.765 77.5376 944.97 77.4183C945.107 77.333 945.722 77.2648 946.338 77.2648C946.953 77.2648 947.739 77.3501 948.081 77.4353C948.44 77.5376 949.004 77.8616 949.346 78.1514C949.688 78.4583 950.133 79.0209 950.321 79.396C950.509 79.7711 950.799 80.76 950.97 81.6125C951.175 82.6355 951.381 83.2151 951.586 83.3686C951.757 83.4879 952.099 83.5732 952.355 83.5732C952.629 83.5732 953.022 83.6584 953.261 83.7437C953.5 83.8289 953.808 84.0847 953.945 84.2893C954.116 84.528 954.15 84.8007 954.082 85.0053C953.962 85.2952 953.808 85.3122 952.834 85.244C951.945 85.1588 951.569 85.2099 950.953 85.4998C950.406 85.7385 949.808 85.8408 948.799 85.8578C947.483 85.8749 947.397 85.8578 946.799 85.3122C946.457 85.0224 945.808 84.6644 945.346 84.528C944.902 84.4086 944.372 84.2211 944.149 84.1017C943.944 83.9994 943.808 83.8289 943.859 83.7437C943.91 83.6584 944.115 83.5732 944.32 83.5732C944.543 83.5732 945.141 83.4027 945.654 83.181C946.167 82.9423 946.85 82.7207 947.705 82.5502L947.415 82.0899C947.244 81.8 947.107 81.118 947.073 80.3338C947.021 79.4301 946.919 78.9528 946.714 78.7311C946.56 78.5606 946.03 78.2367 945.568 77.998Z" fill="#F23E0D"/>
<path d="M484.303 2.92876C484.576 2.50252 485.089 1.87169 485.414 1.5307C485.756 1.17266 486.132 0.882812 486.252 0.882812C486.371 0.882812 486.474 1.07036 486.474 1.30905C486.474 1.54775 486.354 2.24678 486.2 2.89466C485.995 3.76419 485.944 4.58257 486.012 6.33867C486.046 7.60034 486.217 9.1348 486.354 9.74858C486.508 10.3624 486.833 11.3683 487.072 12.0162C487.414 12.9028 487.499 13.4654 487.499 14.6077C487.499 15.409 487.414 16.773 487.311 17.6425C487.209 18.495 487.158 19.4157 487.226 19.6885C487.277 19.9442 487.499 20.2682 487.705 20.4046C487.927 20.541 488.747 20.7796 489.551 20.916C490.782 21.1377 491.089 21.257 491.568 21.7344C491.876 22.0243 492.201 22.4676 492.303 22.7062C492.389 22.9449 492.457 23.3882 492.423 23.7122C492.389 24.1043 492.218 24.4112 491.414 25.0079L489.585 24.5306C488.576 24.2748 487.551 24.0702 487.277 24.0702C487.021 24.0702 486.764 24.1725 486.696 24.2919C486.628 24.3942 486.593 24.7692 486.611 25.0932C486.628 25.4171 486.764 26.0821 486.901 26.5424C487.038 27.0198 487.158 27.4972 487.158 27.6165C487.158 27.7188 487.004 27.8893 486.816 27.9916C486.576 28.111 486.183 28.0769 485.414 27.8723C484.628 27.6506 484.132 27.3608 483.516 26.7981C482.867 26.2185 482.456 25.6047 481.807 24.2407C481.328 23.2518 480.696 22.1777 480.405 21.8538C480.097 21.5298 479.448 21.0865 478.935 20.8819C478.422 20.6774 477.465 20.3534 476.815 20.1829C476.148 20.0124 475.516 19.8078 475.396 19.7567C475.294 19.6885 475.191 19.535 475.191 19.4327C475.191 19.3134 475.482 19.0747 475.824 18.8871C476.183 18.7167 476.695 18.495 476.986 18.4098C477.26 18.3245 478.422 18.1881 479.55 18.1199C481.243 17.9835 481.636 17.8983 481.824 17.6425C481.944 17.472 482.08 17.0628 482.149 16.7389C482.2 16.3979 482.08 15.1192 481.858 13.7552C481.568 11.948 481.499 11.0443 481.568 10.0555C481.636 9.32234 481.875 8.14593 482.115 7.44689C482.354 6.74786 482.815 5.60554 483.157 4.94061C483.499 4.25863 484.012 3.355 484.303 2.92876Z" fill="#F23E0D"/>
<path d="M12.1061 4.41207C12.619 3.96878 13.3369 3.4914 13.713 3.355C14.0891 3.23565 14.8413 3.1163 15.3883 3.1163C15.9183 3.09926 16.3628 3.13335 16.3628 3.1845C16.3628 3.23565 16.0379 3.4232 15.6448 3.59369C15.2345 3.78124 14.7387 4.10518 14.5165 4.32682C14.1575 4.66781 14.1233 4.83831 14.1917 5.82718C14.2601 6.79901 14.4139 7.2423 15.4909 9.32234C16.3798 11.0614 16.7217 11.8798 16.7047 12.3572C16.7047 12.6982 16.4995 13.4142 16.2431 13.9257C15.9696 14.4372 15.8328 14.9146 15.9012 14.9828C15.9867 15.051 16.7559 15.1533 17.6278 15.2044C18.7219 15.2556 19.3373 15.3749 19.6621 15.5966C19.9356 15.7671 20.2091 16.1763 20.3459 16.5684C20.5339 17.1992 20.5168 17.2845 20.1578 17.6425C19.833 17.9494 19.5937 18.0176 18.7048 18.0006C18.0722 17.9835 17.0295 17.796 14.5678 17.0287L12.6873 17.4038C11.4394 17.6596 10.5676 17.7448 10.1231 17.6596C9.74701 17.6084 9.01192 17.3527 8.49908 17.114C7.98623 16.8582 6.82377 16.1763 5.93483 15.5966C5.0459 14.9998 4.20825 14.5054 4.10568 14.5225C3.98601 14.5225 3.90054 14.4202 3.93473 14.3179C3.96892 14.1985 4.48176 14.011 5.09718 13.9087C5.69551 13.7893 6.7383 13.7041 7.38791 13.687C8.03751 13.687 9.06321 13.7723 9.64444 13.8916C10.2257 13.9939 10.7727 14.0451 10.8411 13.9769C10.9095 13.8916 10.7214 13.4654 10.4308 12.988C10.1231 12.5277 9.7812 11.7775 9.67863 11.3342C9.57606 10.8568 9.55896 10.0725 9.62734 9.49284C9.69572 8.9302 9.88377 8.04363 10.0718 7.53214C10.2428 7.02065 10.5676 6.28752 10.7898 5.91243C11.012 5.53734 11.6104 4.85536 12.1061 4.41207Z" fill="#F23E0D"/>
<path d="M264.872 19.8078C265.522 18.8189 266.274 17.8471 266.547 17.6425C266.804 17.4209 267.129 17.2504 267.265 17.2504C267.385 17.2504 267.488 17.3015 267.488 17.3868C267.488 17.455 267.299 18.1029 267.06 18.836C266.821 19.5521 266.547 20.9331 266.445 21.9049C266.308 23.1666 266.308 24.1384 266.445 25.4342C266.547 26.4231 266.787 27.6847 266.975 28.2474C267.163 28.81 267.47 30.3445 267.658 31.6573C267.864 32.9701 268.086 34.317 268.171 34.6409C268.257 34.9649 268.496 35.5105 268.718 35.8344C269.026 36.2948 269.556 36.6528 271.026 37.3689C272.069 37.8804 273.043 38.4089 273.163 38.5282C273.351 38.6987 273.334 38.784 273.078 39.0397C272.821 39.2955 272.462 39.3296 270.565 39.2955C269.146 39.2614 268.205 39.3125 267.966 39.4319C267.744 39.5512 267.351 39.824 267.06 40.0627C266.633 40.4037 266.428 40.4548 265.863 40.3696C265.487 40.3014 264.701 40.0286 264.12 39.7558C263.521 39.466 262.906 39.0568 262.752 38.8351C262.581 38.6135 262.239 38.3407 261.983 38.2384C261.709 38.1361 261.094 38.0509 260.615 38.0509C260.12 38.0509 259.607 37.9827 259.487 37.9145C259.35 37.8463 259.282 37.6417 259.316 37.4541C259.35 37.2154 259.795 36.9085 260.786 36.4311C261.573 36.0561 262.359 35.5616 262.547 35.3229C262.775 35.0388 262.889 34.6409 262.889 34.1295C262.872 33.7032 262.615 32.3222 262.291 31.0605C261.949 29.7989 261.641 28.3326 261.573 27.8211C261.487 27.1562 261.538 26.5935 261.761 25.8604C261.915 25.2978 262.427 24.1043 262.872 23.2177C263.316 22.3312 264.222 20.7967 264.872 19.8078Z" fill="#F23E0D"/>
<path d="M40.7914 19.5521C41.1162 19.2793 41.8171 18.8701 42.3471 18.6655C42.8599 18.4439 43.424 18.2734 43.595 18.2734C43.7489 18.2734 43.8856 18.3927 43.8856 18.5291C43.8856 18.6655 43.6634 19.2281 43.3899 19.7737C43.1163 20.3023 42.7744 21.1718 42.6206 21.6833C42.4838 22.1948 42.2445 23.5417 42.0906 24.6669C41.9539 25.7922 41.7658 27.9405 41.6633 29.4408C41.5778 30.9412 41.4923 32.7314 41.4923 33.4134C41.4923 34.3511 41.3556 35.0842 40.894 36.5164C40.5692 37.5564 40.2957 38.5453 40.2957 38.7328C40.2957 38.9204 40.6547 39.4489 41.1162 39.9263C41.5949 40.4378 42.4155 41.0345 43.1847 41.4096C44.2446 41.9552 44.5181 42.1939 44.8942 42.8588C45.2019 43.4044 45.2874 43.7113 45.1677 43.8477C45.0652 43.95 44.3814 44.0523 43.6292 44.0693C42.5351 44.0864 42.1077 44.0182 41.4923 43.7284C41.0649 43.5238 40.6547 43.4044 40.5692 43.4726C40.4837 43.5408 40.4666 44.5638 40.535 45.8084C40.6376 47.5304 40.6205 48.093 40.4324 48.3488C40.2273 48.6386 40.1418 48.6216 38.8597 47.9225C38.1246 47.5134 37.2015 46.8996 36.8083 46.5586C36.341 46.1608 35.7997 45.3651 35.1843 44.1716C34.6714 43.1998 33.9705 42.1086 33.6457 41.7506C33.2867 41.3755 32.7055 41.0004 32.2611 40.847C31.8337 40.7106 30.8422 40.5571 30.0387 40.506C29.2352 40.4548 28.4147 40.3866 28.2095 40.3355C27.9873 40.3014 27.8164 40.1991 27.8164 40.0968C27.8164 39.9945 28.1754 39.7047 28.6369 39.4319C29.0814 39.142 29.9874 38.7158 30.637 38.46C31.5431 38.102 32.1927 37.9827 33.3722 37.9486C34.3124 37.9145 34.9962 37.8122 35.133 37.6758C35.2527 37.5564 35.3552 37.079 35.3381 36.6016C35.3381 36.1413 35.2185 35.1013 35.0817 34.2999C34.945 33.4986 34.8253 32.4074 34.8253 31.8789C34.8253 31.2197 35.0304 30.2535 35.4407 28.9805C35.7655 27.9234 36.569 25.9798 37.2186 24.6669C37.8853 23.303 38.7913 21.8026 39.2871 21.1718C39.7828 20.558 40.4495 19.8419 40.7914 19.5521Z" fill="#F23E0D"/>
<path d="M108.043 27.3949C108.077 27.2926 108.368 27.1732 108.693 27.1221C109.017 27.0539 109.428 27.0027 109.616 27.0027C109.804 26.9857 110.539 27.0539 111.24 27.1391C112.094 27.2528 112.921 27.5029 113.718 27.8893C114.505 28.2644 115.206 28.7759 115.77 29.3897C116.231 29.8841 116.744 30.5661 116.915 30.89C117.069 31.214 117.291 31.572 117.428 31.6743C117.548 31.7766 118.334 31.913 119.189 31.9471C120.044 31.9983 120.898 32.1176 121.103 32.2199C121.326 32.3393 121.565 32.6802 121.633 32.9871C121.719 33.277 121.736 33.6862 121.668 33.8737C121.599 34.0613 121.292 34.2999 120.967 34.4193C120.591 34.5557 119.804 34.5898 118.676 34.5216C117.633 34.4534 116.727 34.4875 116.368 34.6068C116.043 34.7091 115.701 34.9308 115.599 35.1013C115.496 35.2888 115.428 37.7269 115.428 41.1198C115.428 46.6268 115.411 46.8655 115.035 47.8544C114.813 48.417 114.471 49.1842 114.248 49.5593C114.026 49.9344 113.701 50.2924 113.53 50.3777C113.359 50.4459 113.154 50.4459 113.086 50.3777C113.018 50.2924 112.915 49.6275 112.864 48.8773C112.795 48.1271 112.641 47.1383 112.522 46.6609C112.385 46.1835 112.026 45.5015 111.684 45.1264C111.359 44.7513 110.949 44.1034 110.761 43.6772C110.573 43.251 110.334 42.4496 110.214 41.887C110.094 41.3244 109.906 39.9775 109.77 38.9033C109.633 37.8122 109.428 36.7721 109.274 36.5675C109.137 36.3459 108.522 35.8685 107.906 35.4934C107.137 35.016 106.761 34.675 106.658 34.3511C106.59 34.0613 106.333 33.8226 105.974 33.6691C105.684 33.5498 105 33.4475 104.487 33.4475C103.974 33.4475 103.513 33.3793 103.462 33.277C103.41 33.1747 103.786 32.8507 104.265 32.5268C104.761 32.2199 105.65 31.7084 106.231 31.4186C106.829 31.1287 107.787 30.7707 108.368 30.6172C108.966 30.4638 109.633 30.3786 109.872 30.4297C110.111 30.4979 110.47 30.4979 110.676 30.4467C110.932 30.4126 111.069 30.2592 111.069 30.0376C111.069 29.85 110.761 29.4067 110.402 29.0657C110.026 28.7077 109.342 28.2303 108.864 27.9916C108.368 27.7529 108.009 27.4972 108.043 27.3949Z" fill="#F23E0D"/>
<path d="M325.781 30.8389C326.38 30.3445 327.457 29.6284 328.175 29.2192C328.875 28.827 329.662 28.5031 329.918 28.5031C330.226 28.5031 330.397 28.5883 330.397 28.7588C330.397 28.8952 330.175 29.3044 329.901 29.6625C329.645 30.0035 329.286 30.6172 329.132 31.0264C328.978 31.4186 328.773 32.237 328.687 32.8507C328.534 33.8055 328.568 34.1295 328.858 35.1183C329.064 35.7492 329.337 36.9938 329.474 37.8804C329.645 38.8692 329.696 39.8922 329.645 40.523C329.542 41.3755 329.576 41.5972 329.833 41.8188C330.004 41.9723 330.363 42.1768 330.653 42.2791C330.927 42.3814 331.611 42.586 332.141 42.7224C332.824 42.91 333.354 43.1998 333.816 43.6431C334.192 43.9841 334.5 44.3762 334.5 44.4956C334.5 44.632 334.243 44.7002 333.73 44.7002C333.303 44.7002 331.901 44.8195 330.602 44.973C329.286 45.1264 327.508 45.2117 326.551 45.1776C325.097 45.1264 324.704 45.0412 323.901 44.632C323.166 44.2569 322.585 44.1205 321.251 43.9841C320.311 43.8989 319.439 43.7966 319.319 43.7625C319.217 43.7113 319.114 43.5579 319.114 43.4215C319.114 43.2851 319.473 42.9782 319.918 42.7736C320.379 42.5519 321.388 42.1086 322.174 41.7847C323.439 41.2732 323.644 41.1368 323.867 40.6083C324.038 40.1991 324.072 39.7047 324.003 38.9886C323.952 38.4259 323.747 37.1643 323.559 36.1754C323.337 34.999 323.268 34.2147 323.354 33.8737C323.439 33.6009 323.764 32.9871 324.089 32.5438C324.414 32.0835 325.166 31.3163 325.781 30.8389Z" fill="#F23E0D"/>
<path d="M450.694 36.0049C450.643 35.8685 450.694 35.6469 450.797 35.5275C450.95 35.34 451.497 35.3059 453.224 35.3741C454.814 35.4252 455.754 35.5616 456.558 35.8003C457.344 36.0561 457.857 36.3459 458.301 36.8062C458.643 37.1643 459.464 38.2213 460.113 39.1591C460.746 40.0968 461.549 41.0345 461.874 41.2562C462.37 41.5801 462.678 41.6313 463.823 41.6313C464.917 41.6142 465.276 41.6824 465.618 41.9382C465.994 42.245 466.011 42.2962 465.789 42.5519C465.652 42.7054 464.934 43.0293 464.199 43.251C463.327 43.5408 462.831 43.7966 462.712 44.0182C462.609 44.2057 462.472 46.2517 462.404 48.5875C462.319 51.2813 462.199 52.9351 462.062 53.1909C461.943 53.3955 461.754 53.566 461.635 53.566C461.532 53.583 461.207 53.3614 460.934 53.1056C460.66 52.8499 460.062 52.0485 459.6 51.3495C459.139 50.6505 458.626 49.5764 458.438 48.9626C458.267 48.3488 458.028 47.394 457.942 46.8314C457.84 46.2687 457.754 45.3992 457.754 44.9218C457.754 44.4274 457.686 43.9841 457.583 43.933C457.481 43.8818 456.78 43.7966 455.993 43.7454C455.224 43.6772 453.891 43.4215 453.053 43.1487C452.215 42.8929 451.378 42.5349 451.207 42.3644C451.013 42.1598 450.956 41.9495 451.036 41.7336C451.121 41.5631 451.515 41.2221 451.942 40.9834C452.369 40.7447 453.036 40.3355 453.429 40.0627C453.891 39.7729 454.164 39.4489 454.164 39.2443C454.164 39.0056 453.805 38.6646 453.002 38.1532C452.369 37.744 451.617 37.1472 451.327 36.8403C451.036 36.5164 450.745 36.1413 450.694 36.0049Z" fill="#F23E0D"/>
<path d="M276.189 40.3525C276.462 39.7899 276.958 39.0056 277.3 38.6135C277.659 38.2043 277.984 37.8804 278.052 37.8804C278.121 37.8804 278.138 38.1702 278.121 38.5282C278.086 38.8692 278.189 39.8581 278.343 40.6935C278.497 41.529 278.787 42.6542 278.992 43.1657C279.198 43.6772 279.625 44.4103 279.967 44.7854C280.309 45.1605 280.753 45.9277 280.958 46.4904C281.181 47.053 281.557 48.0419 281.796 48.7068C282.052 49.3718 282.446 50.0878 282.685 50.3095C283.061 50.6675 283.232 50.7016 283.847 50.6164C284.258 50.5482 285.147 50.2583 285.813 49.9514C286.497 49.6446 287.249 49.2695 287.489 49.099C287.728 48.9285 288.258 48.3658 288.685 47.8544C289.113 47.3258 289.506 46.8996 289.574 46.9166C289.66 46.9166 289.711 47.036 289.711 47.1724C289.711 47.3088 289.523 47.7861 289.301 48.2465C289.078 48.6898 288.548 49.5082 288.121 50.0708C287.694 50.6334 286.959 51.503 286.48 51.9974C285.984 52.5089 285.215 53.0715 284.668 53.3102C284.155 53.5489 283.728 53.7876 283.728 53.8728C283.711 53.941 284.087 54.1456 284.531 54.3161C284.976 54.4866 285.506 54.7424 285.694 54.8617C285.967 55.0493 285.984 55.1004 285.779 55.1686C285.642 55.2027 284.206 55.3732 282.617 55.5608C280.634 55.7994 279.488 55.8506 279.027 55.7483C278.651 55.663 277.796 55.305 277.146 54.947C276.497 54.606 275.95 54.1968 275.95 54.0774C275.95 53.941 276.138 53.7364 276.377 53.6171C276.616 53.4978 277.026 53.3102 277.317 53.1909C277.659 53.0374 277.898 52.7646 278.018 52.3725C278.138 51.9974 278.155 51.5371 278.069 51.1449C277.984 50.7869 277.591 50.0196 277.18 49.44C276.77 48.8432 276.274 47.9396 276.086 47.4281C275.881 46.9166 275.625 45.8425 275.522 45.0412C275.351 43.933 275.351 43.3362 275.505 42.4837C275.608 41.87 275.915 40.9152 276.189 40.3525Z" fill="#F23E0D"/>
<path d="M395.272 41.6824C395.546 41.4778 396.007 41.2221 396.298 41.1368C396.571 41.0516 397.084 40.9663 397.409 40.9663C397.734 40.9663 398.349 41.1027 399.546 41.6313L399.102 42.1087C398.845 42.3644 398.606 42.7736 398.537 43.0464C398.486 43.3021 398.52 44.1034 398.623 44.8366C398.725 45.5527 398.965 46.7973 399.153 47.5986C399.341 48.3999 399.631 49.3547 399.785 49.7127C399.939 50.0708 400.247 50.48 400.486 50.5993C400.725 50.7187 401.443 50.9062 402.11 51.0256C403.102 51.1961 403.409 51.3325 403.854 51.7928C404.213 52.1508 404.452 52.6112 404.521 53.0204C404.572 53.3955 404.538 53.7194 404.435 53.8217C404.298 53.9354 403.763 53.924 402.828 53.7876C402.059 53.6682 401.307 53.5319 401.17 53.4807C400.999 53.4125 400.879 53.5148 400.794 53.7705C400.725 53.9922 400.743 54.7424 400.828 55.4414C400.931 56.1404 401.119 57.1464 401.273 57.6578C401.426 58.1693 401.802 59.1582 402.127 59.8402C402.452 60.5051 402.76 61.3917 402.811 61.8009C402.879 62.2101 402.845 62.6704 402.726 62.9091C402.623 63.1137 402.469 63.2842 402.367 63.2842C402.264 63.2842 402.196 63.1649 402.196 63.0285C402.196 62.8921 401.409 61.9543 400.469 60.9484C399.512 59.9254 398.281 58.408 397.717 57.5726C397.17 56.7372 396.486 55.4244 396.212 54.6742C395.922 53.924 395.597 53.1227 395.477 52.884C395.375 52.6453 394.93 52.2872 394.503 52.0826C394.076 51.878 392.896 51.5541 391.853 51.3666C390.81 51.179 389.768 50.9574 389.494 50.8551C389.169 50.7187 389.05 50.5652 389.067 50.2924C389.101 50.0878 389.34 49.7809 389.631 49.6105C389.904 49.457 390.947 49.2013 391.939 49.0649C392.93 48.9285 393.853 48.775 393.99 48.7239C394.127 48.6727 394.298 48.5193 394.366 48.3658C394.452 48.2294 394.383 47.5986 394.229 46.9678C394.076 46.3199 393.956 45.314 393.973 44.7002C393.973 43.8989 394.093 43.3874 394.366 42.8418C394.588 42.4155 394.982 41.9041 395.272 41.6824Z" fill="#F23E0D"/>
<path d="M4.704 51.5371C4.90914 51.4348 5.3707 51.2813 5.7126 51.1961H5.7297C6.07159 51.1108 6.75539 51.0767 7.21696 51.1108C7.69561 51.162 8.65293 51.3836 9.35382 51.6053C10.0547 51.8269 11.2856 52.2872 12.089 52.6453C13.2857 53.1568 13.7814 53.2761 14.8242 53.3102C15.5251 53.3273 16.2944 53.4466 16.5337 53.566C16.773 53.6853 17.0978 53.941 17.2517 54.1456C17.4226 54.3332 17.5594 54.6571 17.5594 54.8447C17.5594 55.0322 17.4739 55.288 17.3543 55.4073C17.2346 55.5096 16.7388 55.6119 16.2431 55.6119C15.7473 55.6119 15.149 55.6801 14.9097 55.7824C14.5678 55.9188 14.4823 56.0722 14.4823 56.5155C14.4823 56.8054 14.6362 57.8965 14.8071 58.9366C14.9952 59.9766 15.2003 61.5451 15.2516 62.4317C15.3371 63.4376 15.3029 64.6652 15.1661 65.6711C15.0464 66.5577 14.7729 67.9217 14.5507 68.706C14.3285 69.4732 13.9524 70.4962 13.713 70.9565C13.4737 71.4339 13.1831 71.7919 13.0805 71.7578C12.9609 71.7237 12.4993 71.1781 12.0548 70.5132C11.6104 69.8653 10.7043 68.2627 10.0547 66.9499C9.40511 65.637 8.70422 64.0685 8.51617 63.4547C8.31103 62.8409 8.03751 61.7497 7.90075 61.0337C7.76399 60.3005 7.64433 59.2605 7.64433 58.732C7.64433 58.1182 7.78109 57.4703 7.98623 57.027C8.17427 56.6178 8.4136 56.2598 8.49908 56.2086C8.60165 56.1575 8.67003 55.9699 8.67003 55.7824C8.67003 55.4585 8.55036 55.4414 6.07159 55.4414C4.27662 55.4414 3.13126 55.3562 2.43037 55.1857C1.86624 55.0322 1.09696 54.6912 0.720876 54.4355C0.344787 54.1627 0.0199834 53.8728 0.00288846 53.7876C-0.0313014 53.7194 0.242218 53.6512 0.601212 53.6512C1.09696 53.6512 1.62691 53.4296 2.78936 52.6964C3.62702 52.1679 4.48176 51.6394 4.704 51.5371Z" fill="#F23E0D"/>
<path d="M342.312 53.9581C342.295 53.7535 342.398 53.5489 342.534 53.5148C342.654 53.4637 342.928 53.4637 343.116 53.5148C343.304 53.566 343.663 53.7194 343.936 53.8387C344.193 53.9751 344.876 54.5037 345.475 55.0322C346.056 55.5608 346.996 56.2427 347.56 56.5496C348.124 56.8565 349.817 57.5896 351.321 58.1864C353.714 59.1412 354.142 59.3799 354.911 60.13C355.373 60.6074 356.056 61.3405 356.415 61.8009C356.928 62.4488 357.407 62.7898 358.894 63.5229C359.903 64.0173 360.826 64.5629 360.946 64.7164C361.117 64.938 361.117 65.0403 360.946 65.2449C360.775 65.4495 360.381 65.5177 357.903 65.5006L358.005 66.0633C358.057 66.3531 358.142 67.1886 358.176 67.8876C358.245 68.7742 358.142 70.0529 357.834 72.1159C357.595 73.7185 357.39 75.3212 357.39 75.6451C357.39 75.9691 357.732 77.5888 358.159 79.2255C358.586 80.8623 358.928 82.3627 358.928 82.5502C358.928 82.7377 358.809 82.8912 358.672 82.8912C358.535 82.8912 358.159 82.7889 357.868 82.6696C357.561 82.5332 357.031 82.2092 356.706 81.9194C356.381 81.6466 355.834 80.9987 355.509 80.4872C355.185 79.9757 354.638 78.9186 354.296 78.1173C353.954 77.316 353.509 76.0543 353.321 75.3041C353.116 74.554 352.928 73.4798 352.911 72.9172C352.894 72.3546 352.945 70.8883 353.014 69.6778C353.133 67.9387 353.116 67.3761 352.945 67.0351C352.808 66.7964 352.518 66.4554 352.278 66.2508C352.039 66.0462 351.783 65.6711 351.731 65.3983C351.652 65.0687 351.452 64.8357 351.133 64.6993C350.86 64.597 350.21 64.4095 349.697 64.2901C349.184 64.1878 348.466 63.9662 348.107 63.8127C347.612 63.6081 347.458 63.4547 347.509 63.199C347.543 62.9773 347.834 62.7557 348.415 62.5511C348.894 62.3806 349.321 62.1419 349.372 62.0396C349.441 61.9202 349.441 61.6474 349.372 61.4258C349.321 61.2042 349.048 60.8291 348.757 60.5904C348.483 60.3687 347.543 59.772 346.706 59.2776C345.782 58.732 344.808 57.9988 344.278 57.4192C343.782 56.8906 343.15 55.987 342.859 55.4073C342.586 54.8106 342.329 54.1627 342.312 53.9581Z" fill="#F23E0D"/>
<path d="M155.464 61.6474C155.003 61.3235 154.661 60.9484 154.661 60.795C154.695 60.5392 154.934 60.5222 156.764 60.6074C158.131 60.6586 159.277 60.8291 160.114 61.0678C160.815 61.2724 161.858 61.6815 162.405 61.9714C162.969 62.2783 164.2 63.2501 165.157 64.1367C166.114 65.0233 167.345 65.9951 167.909 66.2849C168.456 66.5748 169.345 66.9158 169.858 67.0351C170.371 67.1544 170.969 67.342 171.192 67.4784C171.397 67.6148 171.568 67.8705 171.568 68.0581C171.568 68.2456 171.346 68.5866 171.055 68.8253C170.764 69.064 170.32 69.2515 170.029 69.2515C169.739 69.2515 169.294 69.3709 169.004 69.5073C168.713 69.6437 168.388 69.9676 168.251 70.2234C168.132 70.4962 167.978 70.8883 167.927 71.127C167.858 71.3657 168.046 72.7808 168.303 74.2812C168.576 75.7815 168.901 77.8104 169.004 78.7993C169.123 79.7882 169.174 80.9987 169.106 81.4761C169.055 81.9705 168.918 82.5332 168.833 82.7207C168.747 82.9082 168.576 83.0276 168.491 82.9764C168.405 82.9253 168.115 82.2604 167.875 81.4761C167.619 80.7089 167.226 79.6177 167.003 79.055C166.764 78.4924 166.132 77.4183 165.585 76.6681C165.055 75.9179 164.439 74.9802 164.234 74.571C164.046 74.1789 163.602 72.9854 163.26 71.9454C162.918 70.8883 162.49 69.746 162.336 69.422C162.08 68.9447 161.704 68.6719 160.336 67.9899C159.123 67.3761 158.388 67.1204 157.652 67.0522C156.695 66.9499 156.661 66.9328 156.969 66.66C157.157 66.4895 157.806 66.1656 158.456 65.9269C159.088 65.6882 159.789 65.5006 160.029 65.5006C160.268 65.5006 160.576 65.4665 160.712 65.4154C160.849 65.3643 160.969 65.1767 160.969 64.9892C160.969 64.8016 160.678 64.4095 160.336 64.1367C159.977 63.8468 159.379 63.5399 159.003 63.4376C158.627 63.3354 157.858 63.0114 157.293 62.7386C156.729 62.4488 155.909 61.9543 155.464 61.6474Z" fill="#F23E0D"/>
<path d="M78.9986 62.6022C78.9473 62.4999 79.1696 62.3976 79.4773 62.3635C79.7679 62.3294 80.7936 62.3124 81.7338 62.3294C82.9988 62.3635 83.6485 62.4658 84.2126 62.7045C84.64 62.8921 85.2896 63.3524 85.6486 63.7275C86.0247 64.0855 86.5375 64.8528 86.811 65.4154C87.0845 66.0121 87.3923 67.1544 87.5461 68.1433C87.7 69.0811 87.9051 69.9847 87.9906 70.1381C88.076 70.3086 88.2812 70.5132 88.4521 70.5985C88.606 70.6837 89.1701 70.8201 89.683 70.8883C90.1958 70.9395 90.8283 71.127 91.0848 71.2804C91.3412 71.4339 91.6318 71.7237 91.7344 71.9283C91.8198 72.15 91.8711 72.4739 91.8198 72.6615C91.7686 72.849 91.5805 73.0706 91.3925 73.1729C91.1702 73.2923 90.6232 73.2752 89.7343 73.1559C88.435 72.9684 88.3838 72.9854 87.4606 73.4457C86.6059 73.889 86.3666 73.9231 82.7424 73.9402L81.8877 73.207C81.2723 72.6615 80.7423 72.3716 79.8534 72.1329C79.1867 71.9454 78.4174 71.6044 77.631 70.9736L78.1952 70.9565C78.4858 70.9565 79.5115 70.6496 80.4517 70.2745C81.3919 69.8994 82.315 69.5925 82.5031 69.5925C82.6911 69.5925 82.8963 69.4732 82.9818 69.3368C83.0501 69.1833 82.9818 68.9447 82.7595 68.723C82.486 68.4332 82.4005 68.0581 82.3321 66.6259C82.2638 65.4154 82.1441 64.7675 81.939 64.4265C81.7509 64.1367 81.1697 63.7445 80.3662 63.3694C79.6653 63.0455 79.0499 62.7045 78.9986 62.6022Z" fill="#F23E0D"/>
<path d="M224.442 79.5665C224.733 78.8164 225.16 77.998 225.383 77.7252C225.605 77.4694 225.861 77.2648 225.947 77.2648C226.049 77.2648 226.066 78.1344 225.998 79.4301C225.913 81.1521 225.947 81.9194 226.186 83.0617C226.34 83.863 226.631 84.9712 226.819 85.5339C227.024 86.0965 227.468 87.1365 227.81 87.8356C228.169 88.5346 228.733 90.0009 229.075 91.075C229.417 92.1491 229.879 93.8882 230.101 94.9111C230.323 95.9341 230.562 97.281 230.614 97.8948C230.665 98.5086 230.819 99.0883 230.921 99.1906C231.041 99.2929 231.759 99.4293 232.511 99.4975C233.263 99.5657 234.204 99.7703 234.614 99.9578C235.007 100.128 235.417 100.435 235.503 100.623C235.588 100.81 235.674 101.1 235.674 101.254C235.691 101.424 235.452 101.867 235.161 102.242C234.87 102.618 234.597 103.163 234.528 103.436C234.46 103.777 234.563 104.254 234.853 104.885C235.11 105.465 235.742 106.317 236.546 107.17C237.229 107.903 238.17 108.772 238.614 109.13C239.076 109.471 239.383 109.795 239.298 109.864C239.23 109.932 238.529 109.812 237.725 109.574C236.922 109.352 235.776 108.96 235.161 108.721C234.546 108.483 233.708 108.056 233.281 107.784C232.853 107.511 232.169 106.931 231.742 106.505C231.315 106.079 230.631 105.209 230.203 104.578C229.451 103.47 229.417 103.453 228.408 103.248C227.844 103.129 226.802 102.805 226.101 102.532C225.4 102.242 224.203 101.85 223.451 101.663C222.699 101.458 221.929 101.202 221.759 101.083C221.588 100.981 221.468 100.793 221.519 100.708C221.57 100.623 221.947 100.367 222.357 100.179C222.767 99.9749 223.742 99.6339 224.528 99.4122C225.759 99.0542 225.964 98.9519 226.049 98.5768C226.101 98.3381 226.084 97.8778 226.015 97.5538C225.947 97.2299 225.314 95.1157 223.297 88.7733V85.9601C223.28 83.7437 223.348 82.9082 223.588 82.0387C223.776 81.4249 224.152 80.3167 224.442 79.5665Z" fill="#F23E0D"/>
<path d="M397.477 77.998C396.811 77.674 396.674 77.5376 396.879 77.4183C397.016 77.333 397.631 77.2648 398.247 77.2648C398.862 77.2648 399.649 77.3501 399.99 77.4353C400.349 77.5376 400.914 77.8616 401.255 78.1514C401.597 78.4583 402.042 79.0209 402.23 79.396C402.418 79.7711 402.709 80.76 402.879 81.6125C403.085 82.6355 403.29 83.2151 403.495 83.3686C403.666 83.4879 404.008 83.5732 404.264 83.5732C404.538 83.5732 404.931 83.6584 405.17 83.7437C405.41 83.8289 405.717 84.0847 405.854 84.2893C406.025 84.528 406.059 84.8007 405.991 85.0053C405.871 85.2952 405.717 85.3122 404.743 85.244C403.854 85.1588 403.478 85.2099 402.862 85.4998C402.315 85.7385 401.717 85.8408 400.708 85.8578C399.392 85.8749 399.307 85.8578 398.708 85.3122C398.366 85.0224 397.717 84.6644 397.255 84.528C396.811 84.4086 396.281 84.2211 396.059 84.1017C395.853 83.9994 395.717 83.8289 395.768 83.7437C395.819 83.6584 396.024 83.5732 396.23 83.5732C396.452 83.5732 397.05 83.4027 397.563 83.181C398.076 82.9423 398.76 82.7207 399.614 82.5502L399.324 82.0899C399.153 81.8 399.016 81.118 398.982 80.3338C398.931 79.4301 398.828 78.9528 398.623 78.7311C398.469 78.5606 397.939 78.2367 397.477 77.998Z" fill="#F23E0D"/>
</g>
</svg>
