<svg width="968" height="559" viewBox="0 0 968 559" fill="none" xmlns="http://www.w3.org/2000/svg">
<g opacity="0.3">
<path opacity="0.3" d="M138.366 108.207C138.366 144.326 109.086 173.606 72.9668 173.606C36.8476 173.606 7.56725 144.326 7.56725 108.207C7.56725 72.0874 36.8476 42.807 72.9668 42.807C109.086 42.807 138.366 72.0874 138.366 108.207Z" stroke="#FFF5ED" stroke-width="7.13449"/>
<path opacity="0.3" d="M902.352 510.414C902.352 522.727 892.37 532.709 880.056 532.709C867.743 532.709 857.761 522.727 857.761 510.414C857.761 498.1 867.743 488.118 880.056 488.118C892.37 488.118 902.352 498.1 902.352 510.414Z" stroke="#FFF5ED" stroke-width="4.75633"/>
<path opacity="0.3" d="M899.404 280.515C900.227 278.586 899.33 276.354 897.4 275.531C895.47 274.708 893.239 275.605 892.416 277.534L877.042 313.571L841.006 298.197C839.076 297.374 836.844 298.271 836.021 300.201C835.198 302.13 836.095 304.362 838.025 305.185L874.061 320.559L858.688 356.595C857.864 358.525 858.761 360.756 860.691 361.58C862.621 362.403 864.852 361.506 865.676 359.576L881.049 323.54L917.085 338.913C919.015 339.736 921.247 338.839 922.07 336.91C922.893 334.98 921.996 332.748 920.067 331.925L884.03 316.552L899.404 280.515Z" fill="#FFF5ED"/>
<path opacity="0.3" d="M81.3372 277.312L124.321 300.884L100.749 343.868L57.7654 320.296L81.3372 277.312Z" stroke="#FFF5ED" stroke-width="4.75633"/>
<path opacity="0.3" fill-rule="evenodd" clip-rule="evenodd" d="M850.546 36.8741C850.576 40.8832 850.579 51.7552 850.547 61.0237C850.533 65.2341 850.501 73.1727 850.463 82.8517L850.463 82.907C850.417 94.5239 850.361 108.639 850.312 121.823C850.244 145.949 850.26 166.066 850.318 166.396C850.43 166.938 862.037 161.011 907.22 137.24C952.312 113.516 963.906 107.235 963.659 106.765C963.51 106.483 938.172 89.055 907.381 68.0684C876.635 47.0579 851.235 29.843 851.001 29.7262C850.746 29.6802 850.585 32.8883 850.546 36.8741Z" stroke="#FFF5ED" stroke-width="7.13449"/>
<path opacity="0.3" fill-rule="evenodd" clip-rule="evenodd" d="M101.751 456.685C98.7448 457.456 90.5774 459.486 83.6081 461.191C80.4422 461.966 74.4722 463.423 67.1934 465.2L67.1518 465.21C58.4156 467.342 47.8006 469.934 37.8866 472.356C19.7481 476.805 4.6377 480.57 4.40068 480.675C4.01443 480.861 10.6323 488.475 36.9201 517.986C63.1553 547.437 70.0365 554.976 70.3438 554.703C70.5282 554.538 78.8945 532.251 88.9176 505.203C98.9669 478.185 107.162 455.892 107.206 455.693C107.193 455.493 104.753 455.971 101.751 456.685Z" stroke="#FFF5ED" stroke-width="7.13449"/>
</g>
</svg>
