<svg width="24" height="24" viewBox="0 0 24 24" fill="none" xmlns="http://www.w3.org/2000/svg">
<path d="M2.14286 4C1.51168 4 1 4.51167 1 5.14286C1 5.77404 1.51167 6.28571 2.14286 6.28571H22.7143C23.3455 6.28571 23.8571 5.77404 23.8571 5.14286C23.8571 4.51167 23.3455 4 22.7143 4H2.14286ZM2.14286 10.8571C1.51168 10.8571 1 11.3688 1 12C1 12.6312 1.51167 13.1429 2.14286 13.1429H22.7143C23.3455 13.1429 23.8571 12.6312 23.8571 12C23.8571 11.3688 23.3455 10.8571 22.7143 10.8571H2.14286ZM2.14286 17.7143C1.51168 17.7143 1 18.226 1 18.8571C1 19.4883 1.51167 20 2.14286 20H22.7143C23.3455 20 23.8571 19.4883 23.8571 18.8571C23.8571 18.226 23.3455 17.7143 22.7143 17.7143H2.14286Z" fill="white"/>
</svg>
