<svg width="24" height="24" viewBox="0 0 24 24" fill="none" xmlns="http://www.w3.org/2000/svg">
<g clip-path="url(#clip0_905_68)">
<path fill-rule="evenodd" clip-rule="evenodd" d="M13.9149 0.0645664C14.254 0.209661 14.4499 0.56777 14.3893 0.931576L12.9445 9.60002H20.0001C20.3031 9.60002 20.5802 9.77122 20.7157 10.0422C20.8511 10.3133 20.822 10.6376 20.6401 10.88L11.0402 23.68C10.8189 23.975 10.4245 24.0805 10.0854 23.9354C9.74636 23.7904 9.55042 23.4322 9.61106 23.0685L11.0558 14.4H4.0002C3.69719 14.4 3.42017 14.2288 3.28466 13.9578C3.14914 13.6867 3.17839 13.3624 3.3602 13.12L12.9602 0.320059C13.1814 0.0250009 13.5758 -0.0805281 13.9149 0.0645664ZM5.6002 12.8H12.0001C12.2353 12.8 12.4586 12.9035 12.6106 13.0829C12.7626 13.2623 12.8279 13.4996 12.7893 13.7315L11.7286 20.0954L18.4001 11.2H12.0001C11.765 11.2 11.5417 11.0965 11.3898 10.9171C11.2378 10.7377 11.1724 10.5004 11.211 10.2685L12.2717 3.90467L5.6002 12.8Z" fill="#F23E0D"/>
</g>
<defs>
<clipPath id="clip0_905_68">
<rect width="24" height="24" fill="white"/>
</clipPath>
</defs>
</svg>
