<svg width="29" height="26" viewBox="0 0 29 26" fill="none" xmlns="http://www.w3.org/2000/svg">
<path opacity="0.3" fill-rule="evenodd" clip-rule="evenodd" d="M13.8029 2.2107C13.439 2.91531 12.4382 4.8188 11.579 6.43834C11.1886 7.17406 10.452 8.56086 9.55384 10.2517L9.5487 10.2614C8.47073 12.2907 7.16093 14.7566 5.93816 17.06C3.70408 21.2772 1.85414 24.8002 1.83392 24.8633C1.80359 24.9685 4.38138 25 14.4802 25C24.5589 25 27.167 24.9685 27.167 24.8633C27.167 24.8002 24.3365 19.4157 20.8792 12.906C17.4321 6.39628 14.5712 1.04337 14.5409 1.0013C14.5005 0.96975 14.177 1.51661 13.8029 2.2107Z" stroke="#F23E0D" stroke-width="2"/>
</svg>
