<svg width="81" height="28" viewBox="0 0 81 28" fill="none" xmlns="http://www.w3.org/2000/svg">
<path d="M80.6549 10.7279C80.6032 10.9861 80.4612 11.1152 80.2288 11.1152H76.1623C76.059 11.1152 76.0074 11.1668 76.0074 11.2701L74.7293 21.5333C74.7035 21.714 74.6906 21.9593 74.6906 22.2691C74.6906 23.0953 74.8972 23.6892 75.3103 24.0506C75.7492 24.4121 76.4076 24.5928 77.2854 24.5928H78.3698C78.4989 24.5928 78.5893 24.6316 78.641 24.709C78.7184 24.7865 78.7442 24.8768 78.7184 24.9801L78.4086 27.3813C78.4086 27.6395 78.2795 27.7686 78.0213 27.7686C77.1951 27.8203 76.6141 27.8461 76.2785 27.8461C74.5486 27.8461 73.2447 27.575 72.3669 27.0328C71.489 26.4647 71.0501 25.4449 71.0501 23.9732C71.0501 23.7408 71.0759 23.3664 71.1275 22.85L72.5605 11.2701C72.5605 11.1668 72.5089 11.1152 72.4056 11.1152H70.1206C69.8624 11.1152 69.7591 10.9861 69.8108 10.7279L70.0819 8.44287C70.1335 8.18468 70.2755 8.05558 70.5079 8.05558H72.7929C72.8962 8.05558 72.9478 8.00394 72.9478 7.90066L73.5287 3.33065C73.5804 3.07246 73.7224 2.94336 73.9548 2.94336H76.6658C76.7691 2.94336 76.8465 2.98209 76.8982 3.05955C76.9756 3.137 77.0014 3.22737 76.9756 3.33065L76.4334 7.90066C76.4076 7.92648 76.4076 7.96521 76.4334 8.01685C76.4592 8.04267 76.498 8.05558 76.5496 8.05558H80.6161C80.8743 8.05558 80.9776 8.18468 80.926 8.44287L80.6549 10.7279Z" fill="#F5F6F6"/>
<path d="M66.6568 3.91143C65.3917 3.91143 64.5009 4.15672 63.9845 4.64728C63.494 5.13785 63.1712 6.06735 63.0163 7.43577L62.9389 7.90051C62.9389 8.00379 62.9905 8.05543 63.0938 8.05543H67.0441C67.1474 8.05543 67.2249 8.09416 67.2765 8.17162C67.354 8.24907 67.3798 8.33944 67.354 8.44272L67.0441 11.0763C66.9925 11.3345 66.8505 11.4636 66.6181 11.4636H62.6678C62.5645 11.4636 62.5128 11.5152 62.5128 11.6185L60.5764 27.3812C60.5506 27.4844 60.4989 27.5748 60.4215 27.6523C60.344 27.7297 60.2537 27.7685 60.1504 27.7685H57.2844C57.0521 27.7685 56.9359 27.6394 56.9359 27.3812L58.8723 11.6185C58.8981 11.5927 58.8981 11.5669 58.8723 11.541C58.8465 11.4894 58.8078 11.4636 58.7561 11.4636H56.2388C55.9806 11.4636 55.8773 11.3345 55.9289 11.0763L56.2388 8.44272C56.2904 8.18453 56.4324 8.05543 56.6648 8.05543H59.1822C59.2854 8.05543 59.3371 8.00379 59.3371 7.90051L59.4145 7.20339C59.6211 5.49932 59.9826 4.18254 60.4989 3.25304C61.0153 2.32355 61.7512 1.66516 62.7065 1.27787C63.6876 0.864758 65.0173 0.658203 66.6956 0.658203H67.9736C68.2318 0.658203 68.3351 0.787299 68.2834 1.04549L68.0123 3.52414C67.9607 3.78234 67.8187 3.91143 67.5863 3.91143H66.6568Z" fill="#F5F6F6"/>
<path d="M50.7359 4.9573C50.0904 4.9573 49.574 4.76366 49.1868 4.37637C48.7995 3.98908 48.6058 3.4856 48.6058 2.86594C48.6058 2.03972 48.864 1.35551 49.3804 0.813306C49.9226 0.271102 50.581 0 51.3556 0C52.0011 0 52.5174 0.193644 52.9047 0.580933C53.292 0.942403 53.4857 1.44588 53.4857 2.09136C53.4857 2.89176 53.2146 3.57597 52.6724 4.144C52.1302 4.6862 51.4847 4.9573 50.7359 4.9573ZM46.437 27.7299C46.1788 27.7299 46.0755 27.6008 46.1272 27.3426L48.4509 8.44291C48.4509 8.33963 48.4896 8.24926 48.5671 8.1718C48.6446 8.09435 48.7349 8.05562 48.8382 8.05562H51.7041C51.9365 8.05562 52.0527 8.18471 52.0527 8.44291L49.729 27.3426C49.6773 27.6008 49.5353 27.7299 49.3029 27.7299H46.437Z" fill="#F5F6F6"/>
<path d="M22.0875 27.7687C21.9068 27.7687 21.7777 27.6654 21.7002 27.4589L18.6406 8.48168V8.40422C18.6406 8.17185 18.7697 8.05566 19.0279 8.05566H21.9713C22.0746 8.05566 22.152 8.09439 22.2037 8.17185C22.2811 8.22349 22.3199 8.30095 22.3199 8.40422L24.1789 22.4628C24.1789 22.5145 24.2047 22.5403 24.2563 22.5403C24.308 22.5403 24.3467 22.5145 24.3725 22.4628L29.7171 8.40422C29.8204 8.17185 29.9753 8.05566 30.1818 8.05566H32.7767C32.9832 8.05566 33.1123 8.17185 33.164 8.40422L35.1391 22.4241C35.165 22.4757 35.1908 22.5016 35.2166 22.5016C35.2682 22.5016 35.307 22.4757 35.3328 22.4241L40.7548 8.40422C40.8581 8.17185 41.013 8.05566 41.2196 8.05566L44.1243 8.09439C44.4341 8.09439 44.5245 8.2364 44.3954 8.52041L36.6496 27.4589C36.5205 27.6654 36.3656 27.7687 36.1848 27.7687H33.2414C33.0607 27.7687 32.9445 27.6654 32.8929 27.4589L30.8015 14.3685C30.7757 14.3168 30.737 14.291 30.6853 14.291C30.6595 14.291 30.6337 14.3168 30.6079 14.3685L25.5344 27.4201C25.4311 27.6525 25.2762 27.7687 25.0696 27.7687H22.0875Z" fill="#F5F6F6"/>
<path d="M7.50865 28.0004C5.39147 28.0004 3.7003 27.5485 2.43516 26.6449C1.19583 25.7412 0.576172 24.5922 0.576172 23.198C0.576172 22.9656 0.589082 22.7978 0.614901 22.6945L0.692359 22.2685C0.692359 22.1652 0.731087 22.0748 0.808545 21.9974C0.886003 21.9199 0.98928 21.8812 1.11838 21.8812H3.79067C3.91977 21.8812 4.01014 21.9199 4.06177 21.9974C4.13923 22.0748 4.16505 22.1652 4.13923 22.2685L4.1005 22.4621C4.02305 23.1851 4.33288 23.8176 5.03 24.3599C5.72712 24.9021 6.65661 25.1732 7.81848 25.1732C9.03199 25.1732 10.026 24.9021 10.8006 24.3599C11.5752 23.7918 11.9625 23.0947 11.9625 22.2685C11.9625 21.5972 11.6526 21.0937 11.033 20.7581C10.4391 20.3966 9.48382 20.0222 8.16704 19.6349C6.85026 19.2476 5.76585 18.8603 4.91381 18.4731C4.06177 18.0858 3.33883 17.5436 2.74499 16.8464C2.15115 16.1493 1.85423 15.2715 1.85423 14.2129C1.85423 12.2764 2.59008 10.7402 4.06177 9.60413C5.55929 8.44226 7.46992 7.86133 9.79365 7.86133C11.8334 7.86133 13.46 8.32608 14.6735 9.25557C15.887 10.1592 16.4938 11.3469 16.4938 12.8186C16.4938 13.1026 16.4808 13.3092 16.455 13.4383L16.4163 13.5545C16.4163 13.6578 16.3776 13.7481 16.3001 13.8256C16.2227 13.903 16.1323 13.9418 16.029 13.9418H13.3954C13.2663 13.9418 13.1631 13.903 13.0856 13.8256C13.034 13.7481 13.0211 13.6578 13.0469 13.5545L13.0856 13.4383C13.1631 12.6895 12.8661 12.0699 12.1948 11.5793C11.5494 11.0629 10.6199 10.8047 9.40636 10.8047C8.21868 10.8047 7.25045 11.05 6.5017 11.5406C5.75294 12.0053 5.37856 12.6508 5.37856 13.477C5.37856 14.1483 5.68839 14.6647 6.30805 15.0262C6.92771 15.3876 7.90885 15.7749 9.25145 16.188C10.5941 16.5753 11.6914 16.9497 12.5434 17.3112C13.3954 17.6727 14.1184 18.202 14.7122 18.8991C15.3319 19.5962 15.6417 20.487 15.6417 21.5714C15.6417 22.8623 15.2932 23.9984 14.596 24.9795C13.9247 25.9348 12.9694 26.6836 11.7301 27.2258C10.4908 27.7422 9.08362 28.0004 7.50865 28.0004Z" fill="#F5F6F6"/>
</svg>
