<svg width="25" height="24" viewBox="0 0 25 24" fill="none" xmlns="http://www.w3.org/2000/svg">
<path opacity="0.3" d="M2.77614 0.390524C2.25544 -0.130175 1.41122 -0.130175 0.890524 0.390524C0.369825 0.911223 0.369825 1.75544 0.890524 2.27614L10.6144 12L0.890525 21.7239C0.369826 22.2446 0.369826 23.0888 0.890525 23.6095C1.41122 24.1302 2.25544 24.1302 2.77614 23.6095L12.5 13.8856L22.2239 23.6095C22.7446 24.1302 23.5888 24.1302 24.1095 23.6095C24.6302 23.0888 24.6302 22.2446 24.1095 21.7239L14.3856 12L24.1095 2.27614C24.6302 1.75544 24.6302 0.911223 24.1095 0.390524C23.5888 -0.130175 22.7446 -0.130175 22.2239 0.390524L12.5 10.1144L2.77614 0.390524Z" fill="#F23E0D"/>
</svg>
