<svg width="28" height="10" viewBox="0 0 28 10" fill="none" xmlns="http://www.w3.org/2000/svg">
<path d="M27.5937 4.90188H27.7404L27.3324 0.900518C27.3313 0.893631 27.3285 0.887137 27.3242 0.881635C27.3199 0.876133 27.3143 0.871806 27.3079 0.86906C27.3015 0.866313 27.2945 0.865234 27.2876 0.865927C27.2806 0.866619 27.274 0.869059 27.2682 0.873018C26.3362 1.64388 25.2546 2.21348 24.0916 2.54598C23.2769 3.4148 22.2618 4.07101 21.135 4.45728C19.465 4.99487 17.691 5.12685 15.9598 4.84229C15.1576 4.7277 14.3692 4.55811 13.5624 4.50311C12.3895 4.42266 11.2128 4.59297 10.1108 5.0027C9.29027 5.30521 8.52476 5.74064 7.72717 6.09356C6.93853 6.48238 6.07157 6.68618 5.19228 6.68942C4.47311 6.67453 3.78456 6.39554 3.25788 5.90564L1.80938 6.42816C1.47438 6.54551 1.18435 6.76448 0.979748 7.05451C0.775143 7.34455 0.666158 7.6912 0.667992 8.04612V9.52199L22.7669 9.34323C22.8691 8.13303 23.4217 7.00522 24.3154 6.18282C25.2092 5.36042 26.3791 4.90331 27.5937 4.90188Z" fill="#F89B81"/>
</svg>
