<svg width="28" height="10" viewBox="0 0 28 10" fill="none" xmlns="http://www.w3.org/2000/svg">
<path d="M27.0239 4.90188H27.1752L26.7672 0.900518C26.7661 0.893631 26.7633 0.887137 26.759 0.881635C26.7547 0.876133 26.7491 0.871806 26.7427 0.86906C26.7363 0.866313 26.7293 0.865234 26.7223 0.865927C26.7154 0.866619 26.7088 0.869059 26.703 0.873018C25.7717 1.64716 24.6901 2.2199 23.5264 2.55514C22.7116 3.42397 21.6966 4.08017 20.5698 4.46644C18.8982 5.00407 17.1227 5.13604 15.39 4.85145C14.5924 4.73687 13.804 4.56728 12.9972 4.51228C11.8242 4.43184 10.6476 4.60215 9.54556 5.01188C8.72504 5.31438 7.95953 5.74981 7.15735 6.10274C6.37049 6.49195 5.50492 6.69577 4.62705 6.69858C3.9077 6.68455 3.21886 6.40545 2.69266 5.91482L1.23956 6.43732C0.910702 6.55853 0.627038 6.77786 0.426981 7.06562C0.226925 7.35338 0.120145 7.69566 0.1211 8.04612V9.52199L22.2246 9.34323C22.3253 8.13735 22.8737 7.01283 23.7619 6.19089C24.6501 5.36895 25.8137 4.90913 27.0239 4.90188Z" fill="#F89B81"/>
</svg>
