<svg width="45" height="29" viewBox="0 0 45 29" fill="none" xmlns="http://www.w3.org/2000/svg">
<path d="M5.8411 5.39586C5.44237 5.45361 5.07599 5.64777 4.80435 5.94529C4.53272 6.24281 4.37262 6.62528 4.35134 7.02757C4.35134 7.82967 4.88765 8.60428 4.69513 9.38346C4.5026 10.1627 3.67751 10.5843 3.0266 11.0427C1.91783 11.9272 1.1724 13.188 0.931759 14.5857C0.700567 15.976 0.769335 17.3997 1.13345 18.7612C1.3113 19.6541 1.6701 20.5011 2.18774 21.25C2.59018 21.7749 3.1039 22.2041 3.69199 22.5069C4.28008 22.8096 4.92792 22.9783 5.58898 23.0009C6.24995 23.0162 6.90716 22.8974 7.5209 22.6516C8.13465 22.4058 8.69219 22.0382 9.15983 21.5709C9.80157 20.9292 10.2966 20.0996 11.1171 19.7375C12.0339 19.3204 13.0745 19.5633 13.9912 19.93C14.908 20.2967 15.8248 20.7917 16.792 20.8788C17.5645 20.9277 18.3324 20.7269 18.982 20.3059C19.6316 19.885 20.1286 19.2663 20.3995 18.5412C20.6241 17.8995 20.6608 17.1983 20.9725 16.5978C21.172 16.2152 21.4744 15.896 21.8457 15.6762C22.217 15.4564 22.6423 15.3447 23.0737 15.3537C23.5051 15.3628 23.9254 15.4922 24.2871 15.7274C24.6489 15.9627 24.9377 16.2943 25.1209 16.6849C25.6801 17.8766 25.1621 19.3158 25.5289 20.5763C25.7556 21.2013 26.1518 21.751 26.6732 22.1638C27.1945 22.5767 27.8204 22.8363 28.4809 22.9138C29.8112 23.0448 31.1497 22.7666 32.3176 22.1163C31.1441 20.6496 31.5933 18.4495 32.5835 16.8362C33.0418 16.0891 33.7294 15.3465 34.6004 15.3511C34.8736 15.372 35.1399 15.4476 35.3832 15.5736C35.6266 15.6996 35.8421 15.8734 36.0168 16.0845C36.9061 17.0378 37.1169 18.422 37.2865 19.7146L37.8916 24.3347C37.911 25.0243 38.1414 25.6914 38.5517 26.246C38.833 26.5196 39.1604 26.7415 39.5189 26.9014C40.674 27.5064 42.8055 28.1069 43.9606 28.7073C44.5428 21.2363 44.0477 13.9623 43.2914 6.50964C43.1264 4.8871 42.833 3.1408 41.6595 2.00869C40.6923 1.092 39.3126 0.743654 37.9924 0.555733C34.5579 0.0678051 31.0591 0.309888 27.7245 1.26617C26.2715 1.68785 24.7175 2.24244 23.2873 1.74743C22.3706 1.43117 21.6371 0.725321 20.702 0.523649C19.1023 0.17989 17.5483 1.48159 16.9112 2.98496C16.764 3.39813 16.5735 3.79452 16.3428 4.16749C15.4489 5.42794 13.4549 5.27669 12.1669 4.41959C11.8305 4.1573 11.4643 3.93576 11.0759 3.75957C9.19191 3.10872 7.84425 5.16669 5.8411 5.39586Z" fill="#F45B31"/>
</svg>
