<svg width="958" height="644" viewBox="0 0 958 644" fill="none" xmlns="http://www.w3.org/2000/svg">
<g opacity="0.3" filter="url(#filter0_dd_770_288)">
<path d="M207.242 25.2472C218.569 19.8822 231.387 14.5172 235.56 13.623C239.733 13.0269 253.743 12.7288 266.859 13.3249C281.763 14.2191 298.455 17.1997 311.571 21.6705C322.898 25.8433 348.533 36.2753 368.207 45.515C387.88 54.4567 414.111 65.1867 426.333 68.7634C444.218 74.4265 454.949 75.9168 479.988 75.6187C500.853 75.6187 517.248 73.8304 529.171 70.2537C539.008 67.2731 567.028 55.6489 591.769 44.6208C616.211 33.5928 644.529 22.2666 654.366 19.2861C664.501 16.3055 683.28 13.921 697.588 13.623C716.367 13.3249 726.8 14.8152 737.829 19.2861C745.877 22.2666 759.291 28.8239 767.637 33.5928C775.686 38.6597 789.099 47.8995 796.849 54.7548C804.898 61.312 819.802 77.109 829.937 89.3293C840.37 101.55 853.485 119.433 859.447 128.971C865.707 138.211 875.245 155.796 881.207 167.718C887.169 179.342 896.409 200.504 902.073 214.513C907.438 228.522 915.188 252.068 919.063 266.673C923.237 281.278 928.602 304.824 931.285 318.833C933.967 332.841 937.843 358.772 940.525 376.954C942.91 395.433 944.997 431.2 944.997 458.919C944.997 486.042 943.506 516.146 942.016 525.982C940.227 535.818 936.054 552.509 932.775 563.239C929.496 573.969 921.448 590.064 915.486 599.005C907.935 609.934 899.787 617.584 891.044 621.956C883.89 625.533 871.966 629.407 864.514 630.301C855.87 631.494 844.245 630.599 831.725 627.321C820.994 624.638 806.984 619.571 800.426 616.293C793.869 613.014 779.263 603.774 767.637 595.727C755.714 587.381 727.098 560.854 700.569 533.135C675.232 506.608 649 481.869 642.443 477.995C635.885 474.418 617.702 468.755 602.202 466.072C578.951 461.602 557.191 460.707 479.988 460.707C401.592 460.707 381.322 461.303 357.774 466.072C342.273 469.053 324.687 473.822 319.023 476.802C313.359 479.485 292.494 498.561 272.82 518.53C253.147 538.798 229.598 562.643 220.656 571.584C211.713 580.526 194.723 593.939 183.395 601.688C172.068 609.139 154.481 618.081 144.645 621.658C134.808 625.234 120.798 629.109 113.346 630.301C104.404 631.792 94.5668 630.898 83.5377 627.619C74.5952 625.234 62.0758 618.975 55.816 613.908C48.9601 608.245 41.21 597.217 34.6522 583.507C28.9886 571.584 22.4308 551.615 20.0461 539.394C17.3634 527.174 14.6806 503.628 13.4883 487.234C12.5941 470.841 12.8921 439.247 14.6806 417.191C16.4691 395.135 20.6423 360.859 23.9212 341.187C27.2001 321.515 33.1618 292.008 37.3349 275.614C41.5081 259.221 48.364 236.271 52.8352 224.945C57.0084 213.619 65.3547 193.351 71.6144 180.236C77.5761 167.122 90.0955 144.172 99.6342 129.567C109.173 114.962 123.481 95.5885 130.933 86.6468C138.385 77.7051 154.183 62.5042 165.51 52.9664C176.838 43.1306 195.915 30.9103 207.242 25.2472Z" stroke="#F23E0D" stroke-width="0.525957" shape-rendering="crispEdges"/>
</g>
<defs>
<filter id="filter0_dd_770_288" x="0.640283" y="0.639794" width="956.717" height="642.72" filterUnits="userSpaceOnUse" color-interpolation-filters="sRGB">
<feFlood flood-opacity="0" result="BackgroundImageFix"/>
<feColorMatrix in="SourceAlpha" type="matrix" values="0 0 0 0 0 0 0 0 0 0 0 0 0 0 0 0 0 0 127 0" result="hardAlpha"/>
<feMorphology radius="0.525957" operator="dilate" in="SourceAlpha" result="effect1_dropShadow_770_288"/>
<feOffset/>
<feGaussianBlur stdDeviation="1.05191"/>
<feComposite in2="hardAlpha" operator="out"/>
<feColorMatrix type="matrix" values="0 0 0 0 0.94902 0 0 0 0 0.243137 0 0 0 0 0.0509804 0 0 0 0.45 0"/>
<feBlend mode="normal" in2="BackgroundImageFix" result="effect1_dropShadow_770_288"/>
<feColorMatrix in="SourceAlpha" type="matrix" values="0 0 0 0 0 0 0 0 0 0 0 0 0 0 0 0 0 0 127 0" result="hardAlpha"/>
<feMorphology radius="1.57787" operator="dilate" in="SourceAlpha" result="effect2_dropShadow_770_288"/>
<feOffset/>
<feGaussianBlur stdDeviation="5.25957"/>
<feComposite in2="hardAlpha" operator="out"/>
<feColorMatrix type="matrix" values="0 0 0 0 0.94902 0 0 0 0 0.243137 0 0 0 0 0.0509804 0 0 0 0.6 0"/>
<feBlend mode="normal" in2="effect1_dropShadow_770_288" result="effect2_dropShadow_770_288"/>
<feBlend mode="normal" in="SourceGraphic" in2="effect2_dropShadow_770_288" result="shape"/>
</filter>
</defs>
</svg>
