<svg width="1440" height="879" viewBox="0 0 1440 879" fill="none" xmlns="http://www.w3.org/2000/svg">
<g opacity="0.05">
<path fill-rule="evenodd" clip-rule="evenodd" d="M237.205 615.14C236.575 612.254 236.814 609.245 237.892 606.495C238.97 603.745 240.84 601.376 243.264 599.688C245.688 597.999 248.558 597.068 251.512 597.01C254.466 596.953 257.37 597.772 259.858 599.364C262.346 600.957 264.306 603.251 265.491 605.958C266.676 608.664 267.032 611.66 266.514 614.569C265.996 617.477 264.627 620.167 262.581 622.298C260.535 624.429 257.904 625.906 255.019 626.541C251.145 627.388 247.094 626.662 243.754 624.525C240.414 622.387 238.059 619.012 237.205 615.14ZM247.074 590.217C242.755 591.145 238.809 593.334 235.736 596.507C232.663 599.68 230.602 603.694 229.813 608.04C229.024 612.386 229.544 616.869 231.306 620.919C233.069 624.97 235.994 628.406 239.711 630.791C243.429 633.177 247.771 634.405 252.188 634.32C256.604 634.234 260.896 632.839 264.518 630.312C268.141 627.784 270.931 624.237 272.535 620.122C274.139 616.006 274.485 611.507 273.529 607.195C272.255 601.445 268.757 596.433 263.801 593.253C258.845 590.072 252.832 588.981 247.074 590.217Z" fill="url(#paint0_radial_739_206)"/>
<path fill-rule="evenodd" clip-rule="evenodd" d="M70.4998 538.729C69.8862 537.011 69.7953 535.15 70.2386 533.381C70.6819 531.612 71.6395 530.014 72.9905 528.789C74.3415 527.564 76.0253 526.766 77.8292 526.497C79.6331 526.229 81.4762 526.5 83.1258 527.279C84.7753 528.057 86.1572 529.306 87.0971 530.869C88.0369 532.432 88.4925 534.239 88.4062 536.06C88.32 537.882 87.6958 539.638 86.6125 541.105C85.5292 542.572 84.0354 543.685 82.3198 544.304C81.1777 544.716 79.9656 544.898 78.7529 544.841C77.5402 544.784 76.3507 544.488 75.2527 543.97C74.1546 543.452 73.1696 542.722 72.354 541.823C71.5384 540.923 70.9083 539.872 70.4998 538.729ZM74.5699 522.811C72.0192 523.724 69.7961 525.373 68.181 527.548C66.566 529.723 65.6315 532.328 65.4953 535.034C65.3591 537.74 66.0274 540.426 67.4158 542.752C68.8042 545.079 70.8506 546.942 73.2967 548.107C75.7429 549.272 78.4792 549.686 81.1606 549.297C83.8419 548.909 86.3481 547.735 88.3629 545.923C90.3778 544.112 91.8111 541.745 92.482 539.12C93.1528 536.495 93.0312 533.73 92.1325 531.174C91.536 529.466 90.607 527.894 89.3991 526.547C88.1912 525.201 86.7284 524.107 85.0953 523.33C83.4622 522.552 81.6912 522.106 79.8846 522.017C78.0779 521.928 76.2716 522.198 74.5699 522.811Z" fill="url(#paint1_radial_739_206)"/>
<path fill-rule="evenodd" clip-rule="evenodd" d="M1176.89 718.034C1177.4 715.698 1178.59 713.565 1180.32 711.907C1182.04 710.248 1184.22 709.137 1186.57 708.714C1188.92 708.292 1191.35 708.576 1193.54 709.532C1195.73 710.488 1197.59 712.073 1198.89 714.085C1200.18 716.098 1200.85 718.448 1200.8 720.84C1200.76 723.231 1200.01 725.556 1198.65 727.521C1197.28 729.486 1195.37 731.003 1193.14 731.879C1190.92 732.756 1188.48 732.953 1186.14 732.447C1184.59 732.11 1183.12 731.469 1181.81 730.562C1180.5 729.655 1179.39 728.499 1178.53 727.16C1177.67 725.821 1177.08 724.326 1176.8 722.76C1176.52 721.194 1176.55 719.588 1176.89 718.034ZM1192.53 703.036C1189.05 702.279 1185.42 702.571 1182.1 703.875C1178.79 705.18 1175.94 707.438 1173.9 710.365C1171.87 713.292 1170.76 716.755 1170.69 720.317C1170.63 723.879 1171.63 727.379 1173.55 730.375C1175.48 733.372 1178.25 735.729 1181.52 737.149C1184.79 738.569 1188.4 738.988 1191.91 738.354C1195.41 737.719 1198.65 736.059 1201.21 733.583C1203.77 731.107 1205.54 727.928 1206.3 724.446C1206.8 722.13 1206.84 719.739 1206.41 717.409C1205.98 715.078 1205.1 712.855 1203.81 710.866C1202.53 708.877 1200.86 707.162 1198.91 705.819C1196.96 704.475 1194.76 703.529 1192.44 703.036H1192.53Z" fill="url(#paint2_radial_739_206)"/>
<path fill-rule="evenodd" clip-rule="evenodd" d="M391.784 410.02C391.757 407.885 392.363 405.79 393.527 404C394.691 402.21 396.359 400.806 398.321 399.965C400.284 399.124 402.451 398.884 404.55 399.275C406.649 399.667 408.584 400.672 410.111 402.164C411.638 403.656 412.688 405.567 413.128 407.656C413.569 409.745 413.379 411.918 412.584 413.899C411.789 415.88 410.424 417.581 408.661 418.786C406.899 419.991 404.819 420.646 402.684 420.669C399.828 420.698 397.076 419.594 395.032 417.598C392.989 415.601 391.821 412.876 391.784 410.02ZM402.405 393.767C399.234 393.8 396.144 394.774 393.526 396.564C390.908 398.354 388.88 400.88 387.699 403.823C386.517 406.766 386.235 409.994 386.888 413.097C387.541 416.201 389.101 419.041 391.368 421.258C393.636 423.475 396.51 424.969 399.628 425.552C402.745 426.135 405.965 425.78 408.881 424.532C411.797 423.284 414.277 421.199 416.007 418.542C417.737 415.884 418.64 412.773 418.602 409.601C418.58 407.498 418.144 405.419 417.318 403.484C416.491 401.549 415.292 399.796 413.787 398.325C412.283 396.855 410.503 395.695 408.55 394.913C406.597 394.131 404.509 393.741 402.405 393.767Z" fill="url(#paint3_radial_739_206)"/>
<path fill-rule="evenodd" clip-rule="evenodd" d="M922.615 304.897C922.588 302.762 923.194 300.667 924.358 298.877C925.522 297.087 927.19 295.683 929.152 294.842C931.115 294.001 933.282 293.761 935.381 294.152C937.48 294.544 939.415 295.549 940.942 297.041C942.469 298.533 943.519 300.444 943.959 302.533C944.4 304.622 944.21 306.795 943.415 308.776C942.62 310.757 941.255 312.458 939.492 313.663C937.73 314.868 935.65 315.523 933.515 315.546C930.659 315.575 927.907 314.471 925.863 312.475C923.82 310.478 922.652 307.753 922.615 304.897ZM933.236 288.644C930.065 288.678 926.975 289.651 924.357 291.441C921.739 293.231 919.711 295.757 918.53 298.701C917.348 301.644 917.066 304.871 917.719 307.974C918.372 311.078 919.932 313.918 922.199 316.135C924.467 318.352 927.341 319.846 930.459 320.429C933.576 321.012 936.796 320.657 939.712 319.409C942.628 318.161 945.108 316.076 946.838 313.419C948.568 310.761 949.471 307.65 949.433 304.478C949.411 302.375 948.975 300.296 948.149 298.361C947.322 296.426 946.123 294.673 944.618 293.202C943.114 291.732 941.334 290.572 939.381 289.79C937.428 289.008 935.34 288.618 933.236 288.644Z" fill="url(#paint4_radial_739_206)"/>
<path fill-rule="evenodd" clip-rule="evenodd" d="M1232.16 620.967C1232.13 618.833 1232.73 616.738 1233.9 614.948C1235.06 613.158 1236.73 611.754 1238.69 610.913C1240.65 610.071 1242.82 609.831 1244.92 610.223C1247.02 610.614 1248.96 611.62 1250.48 613.112C1252.01 614.603 1253.06 616.515 1253.5 618.604C1253.94 620.693 1253.75 622.865 1252.96 624.847C1252.16 626.828 1250.79 628.529 1249.03 629.734C1247.27 630.939 1245.19 631.594 1243.06 631.616C1240.2 631.646 1237.45 630.542 1235.4 628.545C1233.36 626.549 1232.19 623.824 1232.16 620.967ZM1242.78 604.715C1239.61 604.748 1236.52 605.721 1233.9 607.512C1231.28 609.302 1229.25 611.828 1228.07 614.771C1226.89 617.714 1226.61 620.942 1227.26 624.045C1227.91 627.148 1229.47 629.988 1231.74 632.205C1234.01 634.422 1236.88 635.917 1240 636.5C1243.12 637.082 1246.34 636.727 1249.25 635.48C1252.17 634.232 1254.65 632.147 1256.38 629.489C1258.11 626.832 1259.01 623.72 1258.97 620.549C1258.95 618.445 1258.51 616.367 1257.69 614.432C1256.86 612.497 1255.66 610.744 1254.16 609.273C1252.65 607.802 1250.87 606.643 1248.92 605.861C1246.97 605.078 1244.88 604.689 1242.78 604.715Z" fill="url(#paint5_radial_739_206)"/>
<path fill-rule="evenodd" clip-rule="evenodd" d="M727.459 195.777C727.373 194.456 727.681 193.138 728.345 191.992C729.008 190.846 729.997 189.922 731.186 189.338C732.375 188.754 733.711 188.537 735.023 188.712C736.336 188.888 737.567 189.45 738.561 190.326C739.554 191.202 740.265 192.353 740.604 193.634C740.942 194.914 740.893 196.266 740.462 197.519C740.032 198.771 739.239 199.868 738.185 200.67C737.13 201.471 735.862 201.942 734.54 202.022C733.664 202.079 732.786 201.962 731.956 201.678C731.126 201.395 730.36 200.95 729.702 200.37C729.045 199.79 728.508 199.086 728.123 198.298C727.738 197.509 727.512 196.653 727.459 195.777ZM733.48 185.463C731.517 185.566 729.628 186.25 728.054 187.428C726.48 188.606 725.291 190.225 724.638 192.08C723.986 193.935 723.899 195.942 724.389 197.846C724.879 199.75 725.923 201.466 727.39 202.776C728.856 204.085 730.679 204.93 732.626 205.202C734.573 205.475 736.558 205.162 738.327 204.305C740.097 203.448 741.572 202.084 742.565 200.387C743.558 198.69 744.025 196.737 743.906 194.774C743.741 192.168 742.553 189.732 740.6 187.999C738.647 186.265 736.088 185.374 733.48 185.519V185.463Z" fill="url(#paint6_radial_739_206)"/>
<path fill-rule="evenodd" clip-rule="evenodd" d="M1135.74 331.239L1111.49 338.376L1116.81 314.485L1135.74 331.239ZM1119.02 308.491C1118.41 307.953 1117.67 307.584 1116.87 307.418C1116.07 307.253 1115.25 307.298 1114.48 307.548C1113.7 307.798 1113.01 308.246 1112.46 308.846C1111.91 309.446 1111.53 310.179 1111.35 310.972L1105.05 339.295C1104.85 340.092 1104.87 340.927 1105.1 341.715C1105.33 342.503 1105.76 343.216 1106.36 343.782C1106.95 344.348 1107.69 344.747 1108.48 344.938C1109.28 345.129 1110.12 345.106 1110.9 344.871L1139.67 336.508C1140.47 336.269 1141.19 335.822 1141.76 335.214C1142.32 334.605 1142.72 333.856 1142.9 333.044C1143.08 332.232 1143.04 331.386 1142.79 330.594C1142.54 329.801 1142.08 329.091 1141.46 328.535L1119.02 308.491Z" fill="url(#paint7_radial_739_206)"/>
<path fill-rule="evenodd" clip-rule="evenodd" d="M1282.26 483.876L1270.92 492.964L1268.52 479.026L1282.26 483.876ZM1268.32 475.513C1267.88 475.391 1267.42 475.379 1266.97 475.479C1266.53 475.578 1266.11 475.786 1265.77 476.083C1265.42 476.381 1265.15 476.759 1264.98 477.184C1264.82 477.61 1264.76 478.07 1264.81 478.524L1267.6 494.943C1267.7 495.388 1267.91 495.8 1268.21 496.144C1268.51 496.488 1268.9 496.753 1269.32 496.915C1269.75 497.078 1270.21 497.133 1270.66 497.076C1271.11 497.019 1271.55 496.851 1271.92 496.588L1285.36 485.828C1285.7 485.513 1285.96 485.117 1286.12 484.676C1286.27 484.234 1286.31 483.761 1286.23 483.3C1286.15 482.84 1285.96 482.406 1285.67 482.039C1285.38 481.672 1285.01 481.383 1284.58 481.2L1268.32 475.513Z" fill="url(#paint8_radial_739_206)"/>
<path fill-rule="evenodd" clip-rule="evenodd" d="M298.312 821.709L274.477 833.222L275.899 807.631L298.312 821.709ZM277.237 801.052C276.519 800.6 275.696 800.343 274.848 800.306C274 800.269 273.157 800.454 272.403 800.842C271.649 801.231 271.009 801.809 270.546 802.521C270.084 803.232 269.815 804.052 269.766 804.899L268.065 835.23C268.019 836.077 268.195 836.922 268.576 837.681C268.956 838.439 269.528 839.086 270.234 839.556C270.941 840.026 271.758 840.304 272.605 840.361C273.452 840.419 274.299 840.255 275.063 839.885L303.302 826.281C304.088 825.903 304.759 825.32 305.243 824.595C305.728 823.869 306.009 823.027 306.058 822.156C306.106 821.285 305.92 820.416 305.519 819.642C305.117 818.867 304.516 818.214 303.776 817.751L277.237 801.052Z" fill="url(#paint9_radial_739_206)"/>
<path fill-rule="evenodd" clip-rule="evenodd" d="M966.639 143.514L949.132 157.035L945.87 135.876L966.639 143.514ZM945.815 130.272C945.148 130.033 944.43 129.971 943.733 130.092C943.035 130.213 942.38 130.513 941.832 130.962C941.285 131.411 940.863 131.995 940.608 132.656C940.353 133.317 940.274 134.032 940.378 134.733L944.253 159.822C944.365 160.521 944.655 161.18 945.097 161.733C945.538 162.287 946.116 162.716 946.773 162.98C947.43 163.244 948.144 163.333 948.846 163.239C949.547 163.145 950.213 162.87 950.777 162.443L971.489 146.413C972.067 145.966 972.514 145.372 972.785 144.693C973.055 144.014 973.139 143.275 973.029 142.553C972.918 141.831 972.616 141.151 972.154 140.585C971.692 140.019 971.087 139.586 970.402 139.333L945.815 130.272Z" fill="url(#paint10_radial_739_206)"/>
<path fill-rule="evenodd" clip-rule="evenodd" d="M694.809 650.851L673.399 655.116L679.839 634.961L694.809 650.851ZM682.264 629.999C681.782 629.491 681.176 629.117 680.506 628.914C679.836 628.711 679.124 628.686 678.441 628.84C677.758 628.995 677.127 629.324 676.61 629.796C676.093 630.268 675.707 630.866 675.49 631.532L667.852 655.395C667.64 656.063 667.607 656.775 667.754 657.46C667.901 658.145 668.223 658.781 668.69 659.304C669.157 659.827 669.752 660.219 670.416 660.443C671.08 660.667 671.791 660.714 672.479 660.58L697.847 655.534C698.557 655.398 699.216 655.074 699.756 654.595C700.297 654.116 700.698 653.501 700.918 652.813C701.137 652.125 701.167 651.391 701.005 650.687C700.842 649.984 700.493 649.337 699.994 648.816L682.264 629.999Z" fill="url(#paint11_radial_739_206)"/>
<path fill-rule="evenodd" clip-rule="evenodd" d="M1324.96 856.275L1303.55 860.54L1309.99 840.385L1324.96 856.275ZM1312.42 835.423C1311.93 834.915 1311.33 834.542 1310.66 834.339C1309.99 834.135 1309.28 834.11 1308.59 834.265C1307.91 834.419 1307.28 834.749 1306.76 835.22C1306.24 835.692 1305.86 836.29 1305.64 836.956L1298 860.819C1297.79 861.487 1297.76 862.199 1297.91 862.884C1298.05 863.57 1298.38 864.205 1298.84 864.728C1299.31 865.251 1299.9 865.644 1300.57 865.867C1301.23 866.091 1301.94 866.138 1302.63 866.004L1328 860.958C1328.71 860.823 1329.37 860.498 1329.91 860.02C1330.45 859.541 1330.85 858.925 1331.07 858.237C1331.29 857.549 1331.32 856.815 1331.16 856.112C1330.99 855.408 1330.65 854.762 1330.15 854.24L1312.42 835.423Z" fill="url(#paint12_radial_739_206)"/>
<path fill-rule="evenodd" clip-rule="evenodd" d="M400.197 127.822C400.139 127.366 400.171 126.902 400.292 126.459C400.414 126.015 400.622 125.6 400.904 125.238C401.186 124.875 401.538 124.572 401.938 124.345C402.338 124.119 402.779 123.974 403.236 123.919L423.057 121.493C423.513 121.435 423.976 121.467 424.419 121.589C424.863 121.71 425.278 121.918 425.641 122.2C426.003 122.483 426.307 122.834 426.533 123.234C426.759 123.635 426.904 124.076 426.959 124.532L429.385 144.353C429.443 144.809 429.411 145.272 429.289 145.715C429.168 146.159 428.96 146.574 428.678 146.937C428.395 147.3 428.044 147.603 427.644 147.829C427.243 148.056 426.802 148.2 426.346 148.256L406.525 150.681C406.069 150.739 405.606 150.707 405.163 150.586C404.719 150.464 404.304 150.257 403.941 149.974C403.579 149.692 403.275 149.34 403.049 148.94C402.823 148.54 402.678 148.099 402.623 147.642L400.197 127.822ZM404.769 128.268L406.971 146.109L424.813 143.907L422.61 126.065L404.769 128.268Z" fill="url(#paint13_radial_739_206)"/>
<path fill-rule="evenodd" clip-rule="evenodd" d="M1147.96 220.194C1147.59 219.923 1147.28 219.581 1147.04 219.189C1146.8 218.796 1146.64 218.359 1146.57 217.905C1146.5 217.45 1146.52 216.987 1146.63 216.54C1146.75 216.094 1146.94 215.674 1147.22 215.305L1159.08 199.242C1159.35 198.87 1159.69 198.556 1160.09 198.317C1160.48 198.079 1160.91 197.92 1161.37 197.851C1161.82 197.781 1162.29 197.803 1162.73 197.913C1163.18 198.024 1163.6 198.222 1163.97 198.496L1180.03 210.358C1180.4 210.629 1180.72 210.971 1180.96 211.364C1181.2 211.757 1181.35 212.193 1181.42 212.648C1181.49 213.102 1181.47 213.566 1181.36 214.012C1181.25 214.458 1181.05 214.878 1180.78 215.248L1168.92 231.311C1168.64 231.682 1168.3 231.996 1167.91 232.235C1167.52 232.474 1167.08 232.632 1166.63 232.702C1166.17 232.771 1165.71 232.75 1165.26 232.639C1164.82 232.528 1164.4 232.331 1164.03 232.057L1147.96 220.194ZM1151.43 217.18L1165.9 227.844L1176.57 213.372L1162.09 202.708L1151.43 217.18Z" fill="url(#paint14_radial_739_206)"/>
<path fill-rule="evenodd" clip-rule="evenodd" d="M658.011 849.503C658.157 849.305 658.34 849.137 658.551 849.01C658.762 848.883 658.996 848.799 659.24 848.763C659.483 848.726 659.732 848.739 659.97 848.799C660.209 848.859 660.434 848.965 660.631 849.113L669.162 855.524C669.55 855.823 669.805 856.262 669.873 856.746C669.941 857.231 669.815 857.724 669.524 858.117L663.14 866.675C662.837 867.065 662.393 867.321 661.904 867.389C661.414 867.457 660.918 867.331 660.52 867.038L651.989 860.626C651.791 860.483 651.623 860.301 651.497 860.092C651.371 859.882 651.288 859.649 651.255 859.407C651.221 859.165 651.236 858.918 651.3 858.682C651.364 858.446 651.475 858.225 651.627 858.033L658.011 849.503ZM659.6 851.371L653.857 859.037L661.523 864.807L667.294 857.113L659.6 851.371Z" fill="url(#paint15_radial_739_206)"/>
<path fill-rule="evenodd" clip-rule="evenodd" d="M940.601 413.114C940.549 412.832 940.553 412.543 940.613 412.262C940.673 411.982 940.788 411.716 940.952 411.48C941.115 411.245 941.323 411.043 941.564 410.888C941.806 410.733 942.075 410.628 942.358 410.577L954.651 408.264C955.217 408.157 955.801 408.28 956.277 408.604C956.752 408.928 957.08 409.427 957.188 409.992L959.502 422.286C959.554 422.568 959.55 422.857 959.49 423.138C959.43 423.418 959.315 423.684 959.152 423.92C958.989 424.155 958.78 424.357 958.539 424.512C958.298 424.667 958.028 424.772 957.746 424.823L945.48 427.136C944.911 427.243 944.323 427.122 943.843 426.798C943.363 426.475 943.03 425.975 942.915 425.408L940.601 413.114ZM943.389 413.114L945.452 424.265L956.603 422.174L954.512 411.023L943.389 413.114Z" fill="url(#paint16_radial_739_206)"/>
<path fill-rule="evenodd" clip-rule="evenodd" d="M641.536 765.202C641.453 764.845 641.442 764.476 641.502 764.114C641.562 763.753 641.693 763.407 641.888 763.096C642.082 762.786 642.335 762.516 642.634 762.304C642.932 762.091 643.269 761.939 643.626 761.857L659.182 758.233C659.541 758.146 659.913 758.132 660.278 758.19C660.642 758.249 660.992 758.379 661.305 758.573C661.619 758.768 661.891 759.023 662.106 759.323C662.32 759.624 662.473 759.964 662.555 760.324L666.151 775.879C666.234 776.236 666.245 776.606 666.185 776.967C666.124 777.329 665.993 777.675 665.799 777.985C665.605 778.296 665.351 778.565 665.053 778.778C664.755 778.991 664.417 779.142 664.06 779.225L648.505 782.849C648.148 782.931 647.778 782.943 647.417 782.882C647.055 782.822 646.709 782.691 646.399 782.497C646.088 782.302 645.819 782.049 645.606 781.751C645.393 781.452 645.242 781.115 645.16 780.758L641.536 765.202ZM645.215 765.202L648.477 779.141L662.416 775.879L659.182 761.941L645.215 765.202Z" fill="url(#paint17_radial_739_206)"/>
<path fill-rule="evenodd" clip-rule="evenodd" d="M176.939 214.36C176.88 213.9 176.913 213.433 177.036 212.986C177.159 212.539 177.368 212.121 177.654 211.756C177.939 211.39 178.293 211.085 178.697 210.857C179.1 210.63 179.545 210.484 180.005 210.429L200.021 207.948C200.48 207.889 200.947 207.922 201.394 208.045C201.841 208.168 202.259 208.378 202.624 208.663C202.99 208.948 203.295 209.302 203.523 209.706C203.751 210.11 203.896 210.554 203.951 211.014L206.433 231.058C206.535 231.988 206.268 232.921 205.69 233.656C205.111 234.392 204.266 234.87 203.338 234.989L183.322 237.442C182.395 237.552 181.462 237.292 180.726 236.718C179.99 236.143 179.51 235.301 179.392 234.375L176.939 214.36ZM181.566 214.806L183.768 232.814L201.805 230.612L199.575 212.575L181.566 214.806Z" fill="url(#paint18_radial_739_206)"/>
<path fill-rule="evenodd" clip-rule="evenodd" d="M528.967 242.422C529.199 242.287 529.401 242.107 529.562 241.893C529.722 241.679 529.838 241.435 529.903 241.175C529.968 240.915 529.981 240.645 529.94 240.381C529.899 240.116 529.805 239.862 529.664 239.634C529.532 239.4 529.354 239.195 529.14 239.032C528.926 238.869 528.681 238.752 528.42 238.687C528.16 238.621 527.888 238.61 527.623 238.653C527.357 238.696 527.103 238.793 526.877 238.938L517.148 244.708L511.377 234.951C511.262 234.692 511.093 234.461 510.882 234.272C510.671 234.084 510.422 233.942 510.152 233.856C509.882 233.77 509.597 233.742 509.316 233.775C509.034 233.807 508.763 233.898 508.52 234.043C508.276 234.187 508.066 234.382 507.903 234.613C507.74 234.845 507.628 235.108 507.574 235.386C507.52 235.664 507.525 235.951 507.59 236.226C507.654 236.502 507.776 236.761 507.948 236.986L513.719 246.715L503.99 252.486C503.755 252.618 503.55 252.796 503.388 253.01C503.225 253.224 503.107 253.469 503.042 253.73C502.976 253.991 502.965 254.262 503.008 254.528C503.051 254.793 503.148 255.047 503.293 255.274C503.422 255.511 503.599 255.719 503.812 255.884C504.026 256.049 504.271 256.169 504.533 256.234C504.795 256.3 505.068 256.31 505.335 256.265C505.601 256.219 505.855 256.119 506.08 255.97L515.837 250.2L521.608 259.957C521.743 260.188 521.923 260.39 522.137 260.551C522.351 260.712 522.595 260.828 522.855 260.893C523.115 260.958 523.385 260.97 523.649 260.929C523.914 260.888 524.168 260.794 524.396 260.654C524.857 260.376 525.19 259.927 525.32 259.404C525.451 258.881 525.369 258.328 525.093 257.866L519.322 248.137L528.967 242.422Z" fill="url(#paint19_radial_739_206)"/>
<path fill-rule="evenodd" clip-rule="evenodd" d="M596.697 64.5798C597.036 64.3224 597.321 64.0004 597.536 63.6324C597.751 63.2644 597.891 62.8576 597.948 62.4353C598.005 62.0131 597.978 61.5837 597.868 61.1719C597.759 60.7601 597.569 60.374 597.31 60.0358C597.055 59.6972 596.735 59.4125 596.37 59.1981C596.004 58.9837 595.6 58.8439 595.18 58.7869C594.76 58.7299 594.333 58.7567 593.923 58.8658C593.513 58.9749 593.13 59.1641 592.794 59.4225L578.186 70.5734L567.035 55.9658C566.499 55.3492 565.748 54.9588 564.935 54.8731C564.122 54.7873 563.307 55.0127 562.654 55.5037C562 55.9947 561.557 56.715 561.413 57.5196C561.269 58.3243 561.435 59.1535 561.878 59.8406L573.029 74.4761L558.393 85.627C558.016 85.8674 557.693 86.1835 557.444 86.5552C557.196 86.9268 557.027 87.346 556.948 87.7863C556.87 88.2265 556.884 88.6783 556.989 89.113C557.094 89.5477 557.288 89.9558 557.558 90.3117C557.829 90.6676 558.171 90.9635 558.562 91.1807C558.953 91.3978 559.385 91.5315 559.83 91.5733C560.275 91.6151 560.724 91.5641 561.149 91.4235C561.573 91.2829 561.964 91.0557 562.296 90.7564L576.904 79.6055L588.055 94.2132C588.305 94.5571 588.622 94.8472 588.986 95.0663C589.351 95.2855 589.756 95.4293 590.177 95.4891C590.598 95.5489 591.027 95.5235 591.438 95.4145C591.849 95.3055 592.234 95.1149 592.571 94.8543C593.253 94.3391 593.703 93.5749 593.823 92.7287C593.943 91.8824 593.724 91.0229 593.212 90.3382L582.061 75.7027L596.697 64.5798Z" fill="url(#paint20_radial_739_206)"/>
<path fill-rule="evenodd" clip-rule="evenodd" d="M698.6 514.81C699.107 514.493 699.475 513.996 699.631 513.418C699.787 512.841 699.719 512.226 699.44 511.697C699.161 511.168 698.693 510.764 698.128 510.565C697.564 510.367 696.946 510.39 696.398 510.628L684.606 516.845L678.389 505.025C678.244 504.752 678.048 504.511 677.81 504.314C677.572 504.118 677.297 503.97 677.002 503.879C676.707 503.788 676.397 503.757 676.09 503.786C675.782 503.815 675.484 503.905 675.211 504.049C674.938 504.194 674.697 504.391 674.5 504.629C674.303 504.867 674.156 505.141 674.065 505.436C673.974 505.731 673.943 506.041 673.972 506.349C674.001 506.656 674.091 506.955 674.235 507.227L680.452 519.019L668.632 525.236C668.085 525.532 667.675 526.029 667.488 526.622C667.3 527.215 667.351 527.858 667.628 528.414C667.772 528.688 667.969 528.93 668.206 529.127C668.444 529.325 668.719 529.473 669.014 529.564C669.31 529.654 669.62 529.686 669.928 529.656C670.235 529.626 670.534 529.536 670.806 529.39L682.626 523.201L688.815 534.993C689.106 535.545 689.603 535.96 690.198 536.148C690.793 536.336 691.438 536.281 691.993 535.997C692.54 535.701 692.95 535.203 693.137 534.611C693.325 534.018 693.274 533.375 692.997 532.819L686.78 520.999L698.6 514.81Z" fill="url(#paint21_radial_739_206)"/>
<path fill-rule="evenodd" clip-rule="evenodd" d="M1328.75 720.234C1329.26 719.917 1329.63 719.42 1329.78 718.843C1329.94 718.265 1329.87 717.65 1329.59 717.121C1329.31 716.592 1328.84 716.188 1328.28 715.99C1327.72 715.791 1327.1 715.814 1326.55 716.053L1314.76 722.269L1308.54 710.449C1308.4 710.177 1308.2 709.935 1307.96 709.738C1307.72 709.542 1307.45 709.394 1307.15 709.303C1306.86 709.213 1306.55 709.181 1306.24 709.21C1305.93 709.24 1305.64 709.329 1305.36 709.474C1305.09 709.618 1304.85 709.815 1304.65 710.053C1304.46 710.291 1304.31 710.565 1304.22 710.861C1304.13 711.156 1304.1 711.466 1304.12 711.773C1304.15 712.08 1304.24 712.379 1304.39 712.652L1310.6 724.444L1298.78 730.66C1298.24 730.956 1297.83 731.453 1297.64 732.046C1297.45 732.639 1297.5 733.282 1297.78 733.838C1297.92 734.112 1298.12 734.354 1298.36 734.552C1298.6 734.749 1298.87 734.897 1299.17 734.988C1299.46 735.079 1299.77 735.11 1300.08 735.08C1300.39 735.05 1300.69 734.96 1300.96 734.814L1312.78 728.625L1318.97 740.417C1319.26 740.969 1319.76 741.384 1320.35 741.572C1320.95 741.76 1321.59 741.706 1322.15 741.421C1322.69 741.125 1323.1 740.628 1323.29 740.035C1323.48 739.442 1323.43 738.799 1323.15 738.243L1316.93 726.423L1328.75 720.234Z" fill="url(#paint22_radial_739_206)"/>
<path fill-rule="evenodd" clip-rule="evenodd" d="M800.909 592.308C800.972 591.952 800.899 591.585 800.705 591.279C800.51 590.974 800.209 590.752 799.859 590.658C799.51 590.564 799.138 590.603 798.816 590.769C798.495 590.936 798.247 591.216 798.122 591.556L796.031 599.445L788.225 597.27C788.042 597.22 787.851 597.207 787.663 597.232C787.474 597.257 787.293 597.319 787.129 597.416C786.966 597.512 786.823 597.64 786.71 597.792C786.596 597.944 786.514 598.117 786.469 598.302C786.374 598.668 786.426 599.056 786.614 599.384C786.801 599.712 787.109 599.954 787.472 600.058L795.362 602.149L793.271 610.038C793.208 610.395 793.281 610.762 793.476 611.067C793.67 611.372 793.971 611.594 794.321 611.688C794.67 611.783 795.042 611.743 795.364 611.577C795.685 611.411 795.933 611.13 796.059 610.791L798.149 602.902L806.039 604.992C806.395 605.055 806.762 604.982 807.068 604.788C807.373 604.593 807.595 604.292 807.689 603.942C807.783 603.593 807.744 603.221 807.577 602.899C807.411 602.578 807.131 602.33 806.791 602.205L798.902 600.114L800.909 592.308Z" fill="url(#paint23_radial_739_206)"/>
<path fill-rule="evenodd" clip-rule="evenodd" d="M1461.89 772.477C1462.39 772.16 1462.76 771.663 1462.92 771.086C1463.07 770.508 1463.01 769.893 1462.73 769.364C1462.45 768.835 1461.98 768.431 1461.42 768.233C1460.85 768.035 1460.23 768.057 1459.68 768.296L1447.89 774.512L1441.68 762.692C1441.53 762.42 1441.33 762.178 1441.1 761.982C1440.86 761.785 1440.58 761.637 1440.29 761.546C1439.99 761.456 1439.68 761.424 1439.38 761.453C1439.07 761.483 1438.77 761.572 1438.5 761.717C1438.23 761.861 1437.98 762.058 1437.79 762.296C1437.59 762.534 1437.44 762.809 1437.35 763.104C1437.26 763.399 1437.23 763.709 1437.26 764.016C1437.29 764.323 1437.38 764.622 1437.52 764.895L1443.74 776.687L1431.92 782.903C1431.37 783.2 1430.96 783.696 1430.78 784.289C1430.59 784.882 1430.64 785.525 1430.92 786.081C1431.06 786.355 1431.26 786.597 1431.49 786.795C1431.73 786.992 1432.01 787.14 1432.3 787.231C1432.6 787.322 1432.91 787.353 1433.21 787.323C1433.52 787.293 1433.82 787.203 1434.09 787.057L1445.91 780.868L1452.1 792.66C1452.39 793.212 1452.89 793.627 1453.49 793.815C1454.08 794.003 1454.73 793.949 1455.28 793.664C1455.83 793.368 1456.24 792.871 1456.42 792.278C1456.61 791.685 1456.56 791.042 1456.28 790.486L1450.07 778.666L1461.89 772.477Z" fill="url(#paint24_radial_739_206)"/>
<path fill-rule="evenodd" clip-rule="evenodd" d="M422.56 572.181C422.628 571.885 422.633 571.579 422.575 571.282C422.517 570.984 422.398 570.702 422.224 570.454C422.051 570.205 421.828 569.996 421.569 569.838C421.31 569.681 421.021 569.58 420.721 569.541C420.42 569.502 420.115 569.526 419.824 569.612C419.534 569.698 419.264 569.843 419.033 570.039C418.802 570.235 418.615 570.478 418.483 570.75C418.351 571.023 418.278 571.32 418.267 571.623L416.734 583.778L404.58 582.217C404.299 582.182 404.015 582.202 403.743 582.277C403.471 582.352 403.216 582.48 402.993 582.653C402.771 582.827 402.584 583.042 402.445 583.288C402.306 583.534 402.217 583.804 402.182 584.084C402.139 584.367 402.154 584.656 402.225 584.933C402.297 585.21 402.424 585.469 402.598 585.696C402.773 585.922 402.991 586.111 403.241 586.251C403.49 586.391 403.766 586.479 404.05 586.51L416.176 588.043L414.643 600.197C414.608 600.477 414.629 600.762 414.704 601.034C414.778 601.306 414.906 601.561 415.08 601.784C415.253 602.006 415.469 602.192 415.715 602.332C415.96 602.471 416.231 602.56 416.511 602.595C416.792 602.634 417.077 602.616 417.351 602.543C417.625 602.469 417.881 602.342 418.104 602.168C418.328 601.993 418.514 601.776 418.652 601.529C418.791 601.281 418.878 601.009 418.908 600.727L420.47 588.6L432.596 590.134C432.879 590.177 433.167 590.162 433.444 590.091C433.721 590.019 433.981 589.892 434.208 589.718C434.434 589.543 434.623 589.325 434.763 589.075C434.903 588.826 434.991 588.55 435.021 588.266C435.057 587.986 435.036 587.701 434.961 587.429C434.886 587.157 434.758 586.902 434.585 586.68C434.411 586.457 434.196 586.271 433.95 586.132C433.704 585.992 433.434 585.903 433.154 585.868L420.999 584.307L422.56 572.181Z" fill="url(#paint25_radial_739_206)"/>
<path fill-rule="evenodd" clip-rule="evenodd" d="M1052.71 777.605C1052.78 777.31 1052.78 777.004 1052.73 776.706C1052.67 776.409 1052.55 776.127 1052.38 775.878C1052.2 775.63 1051.98 775.42 1051.72 775.263C1051.46 775.105 1051.17 775.004 1050.87 774.965C1050.57 774.926 1050.27 774.95 1049.98 775.036C1049.69 775.122 1049.42 775.268 1049.19 775.464C1048.95 775.66 1048.77 775.902 1048.64 776.175C1048.5 776.447 1048.43 776.745 1048.42 777.048L1046.89 789.202L1034.73 787.641C1034.45 787.606 1034.17 787.626 1033.9 787.701C1033.62 787.776 1033.37 787.904 1033.15 788.077C1032.92 788.251 1032.74 788.467 1032.6 788.712C1032.46 788.958 1032.37 789.228 1032.33 789.509C1032.29 789.791 1032.31 790.08 1032.38 790.357C1032.45 790.634 1032.58 790.894 1032.75 791.12C1032.92 791.347 1033.14 791.536 1033.39 791.676C1033.64 791.815 1033.92 791.903 1034.2 791.934L1046.33 793.467L1044.8 805.622C1044.76 805.902 1044.78 806.186 1044.86 806.458C1044.93 806.73 1045.06 806.985 1045.23 807.208C1045.41 807.431 1045.62 807.617 1045.87 807.756C1046.11 807.895 1046.38 807.985 1046.66 808.019C1046.94 808.058 1047.23 808.04 1047.5 807.967C1047.78 807.894 1048.03 807.766 1048.26 807.592C1048.48 807.418 1048.67 807.201 1048.8 806.953C1048.94 806.706 1049.03 806.433 1049.06 806.151L1050.62 794.025L1062.75 795.558C1063.03 795.601 1063.32 795.586 1063.6 795.515C1063.87 795.443 1064.13 795.317 1064.36 795.142C1064.59 794.968 1064.78 794.749 1064.92 794.499C1065.06 794.25 1065.14 793.975 1065.17 793.69C1065.21 793.41 1065.19 793.126 1065.11 792.854C1065.04 792.581 1064.91 792.327 1064.74 792.104C1064.56 791.881 1064.35 791.695 1064.1 791.556C1063.86 791.417 1063.59 791.327 1063.31 791.293L1051.15 789.732L1052.71 777.605Z" fill="url(#paint26_radial_739_206)"/>
<path d="M316.613 5.01785C317.058 3.87347 317.589 2.76458 318.202 1.70055C318.529 1.0334 319.006 0.451216 319.596 0C319.819 0 320.126 0.278741 320.237 0.752652C320.387 1.85181 320.453 2.96088 320.432 4.07004C320.479 6.45162 320.893 8.81178 321.659 11.0672C322.249 13.3524 323.014 15.589 323.945 17.7577C324.699 19.2026 325.527 20.6077 326.426 21.9672C327.489 23.4629 328.203 25.1774 328.517 26.9851C328.879 28.5741 329.353 31.3618 329.548 33.146C329.657 34.5547 329.919 35.9474 330.329 37.2996C330.618 37.8418 331.079 38.273 331.639 38.5262C332.938 38.7396 334.257 38.7957 335.57 38.6935C338.162 38.5541 338.831 38.6935 340.002 39.3904C340.726 39.8224 341.384 40.3577 341.954 40.9794C342.306 41.5905 342.542 42.2616 342.65 42.9587C342.65 43.7671 342.65 44.4641 341.229 46.0252H337.354C335.735 45.9621 334.114 46.018 332.503 46.1925C332.279 46.2238 332.065 46.3053 331.877 46.4308C331.689 46.5562 331.531 46.7225 331.416 46.9173C331.376 47.4751 331.452 48.0351 331.639 48.562C331.952 49.5353 332.372 50.4704 332.893 51.3497C333.28 52.011 333.615 52.7006 333.897 53.4126C333.897 53.6078 333.73 54.0259 333.395 54.3047C333.061 54.5835 332.169 54.7786 330.608 54.7229C329.084 54.6808 327.596 54.2488 326.287 53.4684C324.449 52.3692 322.87 50.8857 321.659 49.1195C320.495 47.6122 319.178 46.2296 317.728 44.9938C316.676 44.3751 315.526 43.9413 314.327 43.7113C312.811 43.5014 311.285 43.3712 309.755 43.3211C308.334 43.3211 306.968 43.1538 306.689 43.126C306.44 43.0164 306.241 42.8174 306.131 42.5684C306.131 42.3175 306.55 41.7042 307.163 41.1745C307.827 40.6287 308.525 40.126 309.254 39.6692C310.882 38.9561 312.559 38.3599 314.272 37.885C317.617 36.8257 318.369 36.4633 318.62 35.8779C318.807 35.2357 318.883 34.5663 318.843 33.8986C318.364 31.8907 317.702 29.9311 316.864 28.0444C315.802 25.7116 315.025 23.2593 314.55 20.7406C314.364 18.8868 314.364 17.019 314.55 15.1652C314.732 13.2882 315.039 11.4256 315.47 9.58975C315.721 8.0565 316.251 6.02143 316.613 5.01785Z" fill="url(#paint27_radial_739_206)"/>
<path d="M773.869 48.6203C774.353 47.8302 774.893 47.0756 775.485 46.3623C775.987 45.8047 776.545 45.303 776.74 45.303C776.935 45.303 777.102 45.5817 777.102 45.9441C777.074 46.7771 776.981 47.6067 776.824 48.4252C776.556 50.2087 776.556 52.022 776.824 53.8055C776.958 55.5798 777.229 57.3412 777.632 59.0743C777.911 60.0221 778.496 61.5832 778.914 62.5589C779.509 63.8056 779.832 65.1644 779.862 66.5453C779.862 67.7998 779.862 69.9464 779.862 71.2845C779.745 72.3499 779.745 73.4249 779.862 74.4903C780.007 74.9231 780.291 75.2957 780.671 75.5497C781.571 75.8799 782.506 76.1044 783.458 76.2187C785.41 76.4696 785.884 76.6369 786.664 77.3338C787.147 77.7494 787.561 78.2386 787.891 78.7834C788.067 79.2847 788.152 79.8134 788.142 80.3445C788.142 80.9578 787.891 81.4596 786.664 82.4353L783.876 81.8499C782.685 81.5695 781.473 81.3831 780.252 81.2924C780.085 81.2931 779.919 81.3281 779.766 81.3952C779.613 81.4623 779.475 81.5601 779.36 81.6826C779.281 82.097 779.281 82.5228 779.36 82.9371C779.463 83.6988 779.65 84.4468 779.918 85.1673C780.12 85.7017 780.279 86.2518 780.392 86.812C780.356 86.9437 780.292 87.0663 780.206 87.1719C780.12 87.2775 780.012 87.3639 779.89 87.4253C779.528 87.6205 778.914 87.6205 777.688 87.4253C776.57 87.1943 775.532 86.6754 774.677 85.92C773.479 84.8447 772.528 83.5228 771.889 82.045C771.226 80.7738 770.442 79.5695 769.548 78.4489C768.846 77.8482 768.044 77.3763 767.178 77.055C766.081 76.6847 764.964 76.3776 763.833 76.1351C762.773 75.9121 761.77 75.6333 761.575 75.5775C761.487 75.5215 761.413 75.448 761.355 75.3616C761.297 75.2753 761.258 75.1779 761.24 75.0757C761.24 74.8806 761.658 74.4903 762.188 74.1837C762.753 73.8643 763.34 73.5849 763.944 73.3474C765.259 73.0511 766.59 72.837 767.931 72.7062C770.551 72.3717 771.164 72.2044 771.415 71.7862C771.52 71.3294 771.548 70.8584 771.499 70.3924C771.42 68.8325 771.196 67.2833 770.83 65.7648C770.364 63.9417 770.111 62.0707 770.077 60.1894C770.157 58.8038 770.381 57.4304 770.746 56.0914C771.137 54.7343 771.612 53.4029 772.168 52.105C772.669 50.9123 773.237 49.7489 773.869 48.6203Z" fill="url(#paint28_radial_739_206)"/>
<path d="M1032.04 489.442C1032.73 488.679 1033.47 487.97 1034.27 487.323C1034.72 486.911 1035.25 486.606 1035.83 486.431C1036.03 486.431 1036.16 486.793 1036.11 487.211C1035.9 488.106 1035.62 488.982 1035.27 489.832C1034.61 491.69 1034.23 493.634 1034.13 495.603C1033.92 497.546 1033.85 499.503 1033.91 501.457C1034.05 502.544 1034.35 504.244 1034.6 505.471C1034.93 506.949 1034.93 508.481 1034.6 509.959C1034.41 511.325 1033.93 513.611 1033.57 515.061C1033.23 516.186 1033.02 517.345 1032.93 518.518C1033 519.011 1033.22 519.47 1033.57 519.828C1034.52 520.383 1035.53 520.823 1036.58 521.138C1038.62 521.807 1039.12 522.058 1039.82 522.978C1040.25 523.532 1040.59 524.154 1040.82 524.818C1040.93 525.389 1040.93 525.975 1040.82 526.546C1040.68 527.187 1040.32 527.689 1038.81 528.498L1035.83 527.271C1034.6 526.735 1033.33 526.288 1032.04 525.933C1031.85 525.896 1031.66 525.9 1031.48 525.943C1031.3 525.986 1031.13 526.068 1030.98 526.184C1030.78 526.602 1030.66 527.057 1030.64 527.522C1030.63 528.361 1030.68 529.201 1030.81 530.031C1030.91 530.658 1030.97 531.291 1030.98 531.926C1030.92 532.06 1030.82 532.177 1030.71 532.268C1030.59 532.36 1030.45 532.424 1030.31 532.456C1029.89 532.623 1029.22 532.456 1027.97 531.926C1026.81 531.441 1025.79 530.663 1025.01 529.668C1023.91 528.277 1023.13 526.658 1022.73 524.929C1022.26 523.418 1021.65 521.953 1020.92 520.553C1020.28 519.768 1019.52 519.099 1018.66 518.573C1017.55 517.95 1016.4 517.391 1015.23 516.901C1014.14 516.455 1013.11 515.953 1012.92 515.841C1012.83 515.761 1012.77 515.665 1012.73 515.56C1012.69 515.454 1012.66 515.342 1012.66 515.228C1012.66 515.033 1013.22 514.698 1013.86 514.475C1014.54 514.242 1015.23 514.056 1015.93 513.918C1017.39 513.819 1018.86 513.819 1020.33 513.918C1023.12 514.085 1023.93 514.057 1024.32 513.667C1024.63 513.211 1024.89 512.714 1025.07 512.189C1025.29 510.499 1025.36 508.791 1025.26 507.088C1025.15 504.97 1025.28 502.847 1025.65 500.76C1026.02 499.282 1026.54 497.844 1027.19 496.467C1027.9 495.082 1028.69 493.742 1029.56 492.452C1030.33 491.404 1031.16 490.399 1032.04 489.442Z" fill="url(#paint29_radial_739_206)"/>
<path d="M408.157 235.158C409.265 234.4 410.43 233.729 411.641 233.151C412.339 232.749 413.123 232.519 413.927 232.482C414.178 232.482 414.234 233.039 413.927 233.541C413.383 234.618 412.759 235.652 412.059 236.635C410.653 238.822 409.565 241.196 408.826 243.688C407.945 246.105 407.246 248.583 406.735 251.104C406.54 252.525 406.4 254.895 406.372 256.456C406.371 258.447 405.943 260.415 405.118 262.227C404.299 264.346 403.368 266.421 402.33 268.443C401.567 269.776 400.95 271.187 400.49 272.653C400.408 273.31 400.545 273.977 400.881 274.548C401.929 275.543 403.089 276.413 404.337 277.141C406.735 278.618 407.125 279.12 407.878 280.514C408.275 281.339 408.53 282.225 408.63 283.134C408.573 283.898 408.375 284.645 408.045 285.337C407.655 286.145 407.041 286.647 404.867 287.232L401.438 284.724C400.023 283.684 398.532 282.752 396.978 281.936C396.759 281.837 396.521 281.786 396.281 281.786C396.041 281.786 395.803 281.837 395.584 281.936C395.189 282.396 394.903 282.939 394.748 283.525C394.438 284.598 394.241 285.7 394.162 286.814C394.109 287.641 393.987 288.461 393.8 289.267C393.8 289.49 393.27 289.714 392.796 289.769C392.322 289.825 391.402 289.435 390.008 288.375C388.665 287.391 387.598 286.075 386.914 284.556C385.938 282.432 385.434 280.12 385.437 277.782C385.334 275.709 385.007 273.652 384.461 271.649C383.873 270.39 383.049 269.255 382.036 268.304C381.116 267.468 379.248 265.99 378.161 265.098C377.25 264.458 376.376 263.77 375.54 263.035C375.379 262.788 375.319 262.489 375.373 262.199C375.373 261.948 376.293 261.697 377.157 261.585C378.085 261.519 379.017 261.519 379.945 261.585C381.835 261.962 383.697 262.465 385.52 263.091C389.172 264.206 390.064 264.345 390.65 263.955C391.213 263.494 391.702 262.948 392.099 262.338C392.894 260.238 393.51 258.075 393.939 255.871C394.414 253.114 395.228 250.426 396.364 247.87C397.307 246.101 398.408 244.422 399.654 242.852C400.99 241.312 402.414 239.85 403.919 238.475C405.27 237.294 406.685 236.186 408.157 235.158Z" fill="url(#paint30_radial_739_206)"/>
<path d="M436.973 750.595C437.833 749.599 438.765 748.667 439.761 747.807C440.311 747.237 440.976 746.79 441.712 746.497C441.991 746.497 442.186 746.943 442.13 747.473C441.939 748.656 441.65 749.822 441.266 750.957C440.581 753.425 440.253 755.979 440.29 758.54C440.16 761.068 440.216 763.602 440.458 766.122C440.708 767.516 441.266 769.774 441.684 771.252C442.273 773.125 442.444 775.104 442.186 777.05C442.007 779.296 441.7 781.53 441.266 783.741C440.922 785.212 440.744 786.718 440.736 788.229C440.863 788.875 441.196 789.461 441.684 789.902C442.948 790.547 444.287 791.034 445.671 791.351C448.458 792.048 449.016 792.355 449.992 793.498C450.612 794.159 451.112 794.923 451.469 795.756C451.612 796.492 451.612 797.25 451.469 797.986C451.469 798.85 450.912 799.519 449.044 800.774L445.057 799.408C443.419 798.828 441.742 798.362 440.039 798.014C439.806 797.983 439.568 798.002 439.343 798.069C439.117 798.136 438.908 798.25 438.729 798.404C438.504 798.962 438.39 799.559 438.395 800.16C438.443 801.257 438.583 802.348 438.813 803.422C438.991 804.222 439.122 805.032 439.203 805.847C439.203 806.07 438.813 806.405 438.367 806.6C437.921 806.795 436.973 806.6 435.3 806.126C433.744 805.559 432.361 804.599 431.286 803.339C429.75 801.623 428.6 799.598 427.913 797.401C427.175 795.452 426.241 793.584 425.125 791.825C424.254 790.857 423.215 790.054 422.059 789.456C420.944 788.898 418.881 788.034 417.487 787.532C416.443 787.201 415.419 786.81 414.42 786.361C414.188 786.174 414.038 785.904 414.002 785.609C414.002 785.358 414.727 784.884 415.508 784.521C416.367 784.166 417.252 783.877 418.156 783.657C420.054 783.455 421.963 783.38 423.871 783.434C427.634 783.434 428.526 783.295 428.972 782.765C429.368 782.168 429.66 781.508 429.836 780.814C430.003 778.603 429.957 776.381 429.697 774.179C429.359 771.401 429.359 768.593 429.697 765.816C430.069 763.91 430.619 762.043 431.342 760.24C432.159 758.4 433.09 756.612 434.129 754.888C435.005 753.41 435.954 751.977 436.973 750.595Z" fill="url(#paint31_radial_739_206)"/>
<path d="M1284.06 61.0383C1284.27 59.7126 1284.58 58.4052 1285 57.1277C1285.18 56.3445 1285.56 55.6175 1286.08 55.0075C1286.25 54.8253 1286.7 55.1681 1286.85 55.7357C1287.26 56.871 1287.58 58.0355 1287.81 59.2192C1288.44 61.7432 1289.41 64.1662 1290.71 66.4159C1291.86 68.7164 1293.18 70.9278 1294.66 73.0315C1295.56 74.1505 1297.19 75.8805 1298.3 76.9738C1299.75 78.3432 1300.88 80.0065 1301.63 81.8514C1302.61 83.9036 1303.47 86.0058 1304.23 88.1493C1304.67 89.6197 1305.27 91.0379 1306.02 92.379C1306.44 92.8907 1307.02 93.249 1307.67 93.3986C1309.11 93.321 1310.54 93.0765 1311.93 92.67C1314.65 91.9443 1315.28 92.0057 1316.81 92.4171C1317.68 92.6952 1318.5 93.1194 1319.23 93.6716C1319.75 94.2383 1320.15 94.8958 1320.43 95.6106C1320.75 96.4498 1320.69 97.2401 1319.62 99.2218L1315.44 99.9877C1313.71 100.301 1312.01 100.743 1310.35 101.311C1310.13 101.403 1309.93 101.54 1309.76 101.715C1309.6 101.889 1309.47 102.097 1309.39 102.323C1309.45 102.927 1309.65 103.508 1309.97 104.023C1310.54 104.986 1311.2 105.886 1311.96 106.709C1312.52 107.316 1313.03 107.968 1313.49 108.659C1313.65 108.812 1313.45 109.35 1313.17 109.733C1312.88 110.115 1311.96 110.515 1310.24 110.799C1308.6 111.099 1306.91 110.969 1305.34 110.422C1303.12 109.671 1301.1 108.448 1299.4 106.838C1297.82 105.488 1296.11 104.312 1294.28 103.331C1292.96 102.893 1291.57 102.711 1290.18 102.794C1288.94 102.887 1286.58 103.228 1285.19 103.404C1284.1 103.626 1282.99 103.788 1281.89 103.89C1281.6 103.837 1281.34 103.675 1281.16 103.436C1280.98 103.264 1281.43 102.423 1281.95 101.719C1282.54 100.999 1283.18 100.323 1283.86 99.6941C1285.43 98.5807 1287.08 97.5735 1288.79 96.6794C1292.11 94.7935 1292.82 94.2413 1292.94 93.5479C1292.99 92.8216 1292.93 92.0916 1292.76 91.3836C1291.78 89.3629 1290.64 87.4286 1289.33 85.6018C1287.65 83.362 1286.26 80.9231 1285.19 78.3408C1284.55 76.4406 1284.09 74.4864 1283.8 72.5024C1283.6 70.4735 1283.52 68.4347 1283.56 66.3962C1283.63 64.6024 1283.79 62.8138 1284.06 61.0383Z" fill="url(#paint32_radial_739_206)"/>
<path d="M985.121 664.622C986.801 663.418 988.572 662.346 990.418 661.416C991.597 660.76 992.879 660.308 994.209 660.078C994.878 660.078 995.241 660.301 995.213 660.663C994.969 661.369 994.58 662.015 994.07 662.559C993.362 663.417 992.755 664.352 992.258 665.347C991.761 666.601 991.379 667.898 991.115 669.221C990.636 670.803 990.636 672.491 991.115 674.072C991.6 676.043 991.945 678.046 992.146 680.066C992.346 681.919 992.346 683.788 992.146 685.641C991.84 687.453 991.867 687.927 992.397 688.429C992.898 688.886 993.473 689.253 994.098 689.516C994.683 689.767 996.133 690.269 997.248 690.631C998.577 691.03 999.778 691.77 1000.73 692.778C1001.32 693.302 1001.79 693.949 1002.1 694.673C1002.1 694.952 1001.51 695.091 1000.43 695.036C999.339 694.98 996.495 695.036 993.707 695.259C990.811 695.455 987.906 695.455 985.01 695.259C983.052 695.304 981.121 694.802 979.434 693.809C977.707 692.882 975.811 692.313 973.859 692.136C971.852 691.858 970.012 691.551 969.761 691.467C969.64 691.381 969.539 691.268 969.467 691.138C969.395 691.008 969.352 690.863 969.343 690.715C969.343 690.408 970.179 689.795 971.127 689.405C972.075 689.014 974.361 688.15 976.061 687.537C978.849 686.589 979.295 686.31 979.825 685.195C980.267 684.1 980.43 682.912 980.298 681.738C980.298 680.54 979.936 677.808 979.629 675.689C979.306 674.055 979.249 672.379 979.462 670.727C979.912 669.731 980.483 668.795 981.163 667.939C982.344 666.678 983.673 665.564 985.121 664.622Z" fill="url(#paint33_radial_739_206)"/>
<path d="M819.949 797.651C821.433 796.117 823.026 794.691 824.716 793.386C825.796 792.495 827.022 791.796 828.34 791.323C829.009 791.323 829.399 791.323 829.455 791.741C829.316 792.495 829.032 793.215 828.619 793.86C828.082 794.882 827.652 795.956 827.336 797.066C827.066 798.435 826.916 799.825 826.89 801.22C826.754 802.924 827.122 804.63 827.95 806.126C828.758 808.017 829.456 809.953 830.041 811.924C830.648 813.786 831.032 815.714 831.184 817.667C831.184 819.563 831.351 820.037 831.992 820.455C832.587 820.817 833.236 821.081 833.916 821.235C834.557 821.375 836.118 821.626 837.316 821.765C838.74 821.918 840.096 822.447 841.247 823.298C842.195 823.94 842.976 824.692 843.003 824.971C843.031 825.25 842.502 825.473 841.387 825.64C840.271 825.807 837.4 826.421 834.585 827.145C831.685 827.873 828.743 828.423 825.775 828.79C823.786 829.197 821.723 829.052 819.81 828.372C817.872 827.727 815.818 827.509 813.788 827.731C811.725 827.731 809.774 827.731 809.495 827.731C809.356 827.664 809.234 827.566 809.137 827.446C809.041 827.325 808.972 827.184 808.938 827.034C808.938 826.727 809.607 825.947 810.527 825.361C811.446 824.776 813.537 823.494 815.182 822.574C817.803 821.068 818.221 820.734 818.555 819.507C818.786 818.31 818.719 817.076 818.36 815.911C818.081 814.684 817.273 811.98 816.576 809.862C815.918 808.276 815.54 806.587 815.461 804.872C815.724 803.784 816.127 802.734 816.66 801.749C817.584 800.253 818.688 798.877 819.949 797.651Z" fill="url(#paint34_radial_739_206)"/>
<path d="M497.439 398.534C496.66 397.16 496.042 395.701 495.599 394.185C495.331 393.423 495.18 392.624 495.153 391.816C495.153 391.816 495.822 392.039 496.491 392.541C497.868 393.465 499.334 394.249 500.867 394.882C502.67 395.691 504.534 396.353 506.443 396.862C507.865 397.142 509.32 397.217 510.764 397.085C512.276 396.943 513.801 397.046 515.28 397.391C516.618 397.698 518.988 398.255 520.549 398.674C521.912 399.032 523.324 399.164 524.73 399.064C525.901 398.813 526.18 398.506 526.793 397.252C527.391 395.771 527.821 394.228 528.076 392.652C528.359 391.246 528.536 389.82 528.605 388.387C528.459 387.073 528.188 385.775 527.797 384.512C527.452 383.618 527.237 382.679 527.156 381.724C527.156 381.557 527.574 381.724 527.825 381.724C528.413 382.386 528.918 383.116 529.33 383.899C530.093 385.372 530.745 386.9 531.281 388.471C531.783 390.004 532.48 392.513 532.815 394.046C533.104 395.734 533.104 397.459 532.815 399.148C532.646 399.975 532.646 400.829 532.815 401.656C532.815 401.656 533.79 401.322 534.682 400.709C535.495 400.154 536.343 399.651 537.219 399.203C537.916 398.925 538.056 398.98 537.916 399.454C537.777 399.928 536.271 402.688 534.571 405.95C533.453 408.463 532.019 410.823 530.306 412.975C529.09 413.958 527.772 414.809 526.375 415.511C525.419 416.135 524.331 416.526 523.197 416.654C523.038 416.463 522.925 416.238 522.867 415.997C522.809 415.755 522.807 415.503 522.862 415.261C522.862 414.647 523.113 413.644 523.281 412.919C523.358 412.499 523.338 412.067 523.222 411.656C523.106 411.245 522.897 410.867 522.612 410.549C522.025 409.797 521.245 409.218 520.354 408.877C518.939 408.482 517.473 408.303 516.005 408.347C514.245 408.368 512.488 408.2 510.764 407.845C508.954 407.352 507.199 406.68 505.523 405.838C503.712 405.072 502.065 403.965 500.672 402.576C499.435 401.365 498.349 400.007 497.439 398.534Z" fill="url(#paint35_radial_739_206)"/>
<path d="M1300.14 394.703C1301.39 392.106 1302.83 389.6 1304.43 387.204C1305.44 385.61 1306.7 384.189 1308.17 382.994C1309 382.576 1309.56 382.576 1309.78 382.994C1309.97 384.014 1309.92 385.062 1309.64 386.061C1309.38 387.607 1309.29 389.178 1309.39 390.744C1309.6 392.639 1310 394.508 1310.59 396.319C1311.14 398.568 1312.35 400.604 1314.05 402.174C1315.94 404.268 1317.71 406.475 1319.35 408.781C1320.91 410.912 1322.23 413.212 1323.28 415.638C1324.11 418.064 1324.5 418.621 1325.48 418.872C1326.39 419.084 1327.33 419.14 1328.27 419.039C1329.13 419.039 1331.25 418.593 1332.84 418.259C1334.73 417.853 1336.7 417.949 1338.55 418.538C1339.63 418.773 1340.63 419.239 1341.51 419.904C1341.68 420.294 1341.09 420.796 1339.7 421.493C1338.3 422.189 1334.96 424.28 1331.67 426.343C1328.27 428.528 1324.73 430.492 1321.07 432.225C1318.7 433.598 1315.99 434.292 1313.24 434.232C1310.49 434.26 1307.78 434.858 1305.27 435.989C1302.65 436.992 1300.17 437.884 1299.69 437.94C1299.49 437.92 1299.29 437.852 1299.11 437.74C1298.94 437.629 1298.79 437.477 1298.69 437.299C1298.52 436.936 1299.08 435.626 1300 434.511C1300.92 433.396 1303.07 430.776 1304.74 428.936C1307.53 425.897 1307.83 425.256 1307.75 423.555C1307.54 421.915 1306.93 420.353 1305.96 419.011C1305.1 417.59 1302.87 414.467 1301.09 412.07C1299.58 410.306 1298.36 408.311 1297.49 406.16C1297.38 404.642 1297.46 403.117 1297.71 401.616C1298.25 399.224 1299.06 396.903 1300.14 394.703Z" fill="url(#paint36_radial_739_206)"/>
<path d="M719.832 288.548C719.053 287.174 718.435 285.715 717.992 284.199C717.724 283.437 717.573 282.638 717.546 281.83C717.546 281.83 718.215 282.053 718.884 282.555C720.261 283.479 721.727 284.263 723.26 284.896C725.063 285.705 726.927 286.367 728.836 286.876C730.258 287.156 731.713 287.231 733.157 287.099C734.669 286.957 736.194 287.06 737.673 287.405C739.011 287.712 741.381 288.27 742.942 288.688C744.305 289.046 745.717 289.178 747.123 289.078C748.294 288.827 748.573 288.52 749.186 287.266C749.784 285.785 750.214 284.242 750.469 282.666C750.752 281.26 750.929 279.834 750.998 278.401C750.852 277.087 750.582 275.789 750.19 274.526C749.846 273.632 749.63 272.693 749.549 271.738C749.549 271.571 749.967 271.738 750.218 271.738C750.806 272.4 751.311 273.13 751.723 273.913C752.486 275.386 753.138 276.914 753.674 278.485C754.176 280.018 754.873 282.527 755.208 284.06C755.497 285.748 755.497 287.473 755.208 289.162C755.039 289.989 755.039 290.843 755.208 291.671C755.208 291.671 756.183 291.336 757.076 290.723C757.888 290.168 758.736 289.665 759.612 289.217C760.309 288.939 760.449 288.994 760.309 289.468C760.17 289.942 758.664 292.702 756.964 295.964C755.846 298.477 754.412 300.837 752.699 302.989C751.483 303.972 750.165 304.823 748.768 305.525C747.812 306.149 746.724 306.54 745.59 306.668C745.431 306.477 745.318 306.252 745.26 306.011C745.202 305.769 745.2 305.517 745.256 305.275C745.256 304.661 745.506 303.658 745.674 302.933C745.751 302.513 745.731 302.081 745.615 301.67C745.499 301.259 745.29 300.881 745.005 300.563C744.418 299.811 743.638 299.232 742.747 298.891C741.332 298.496 739.866 298.318 738.398 298.361C736.638 298.382 734.881 298.214 733.157 297.859C731.347 297.366 729.592 296.694 727.916 295.852C726.105 295.086 724.458 293.979 723.065 292.59C721.828 291.379 720.742 290.022 719.832 288.548Z" fill="url(#paint37_radial_739_206)"/>
<path d="M536.244 628.967C537.543 626.38 539.014 623.884 540.648 621.496C541.698 619.913 542.986 618.503 544.467 617.314C545.304 616.924 545.889 616.924 546.084 617.314C546.252 618.345 546.195 619.401 545.917 620.408C545.657 621.974 545.582 623.564 545.694 625.147C545.895 627.038 546.277 628.905 546.837 630.723C547.362 632.987 548.534 635.05 550.21 636.661C552.094 638.78 553.844 641.015 555.451 643.351C556.984 645.517 558.274 647.845 559.298 650.293C560.106 652.746 560.497 653.303 561.472 653.582C562.386 653.792 563.326 653.858 564.26 653.777C565.152 653.777 567.271 653.359 568.86 653.052C570.773 652.669 572.753 652.794 574.603 653.415C575.686 653.648 576.699 654.135 577.558 654.837C577.725 655.199 577.112 655.729 575.718 656.37C574.324 657.011 570.923 659.158 567.605 661.137C564.147 663.307 560.552 665.253 556.845 666.963C554.44 668.314 551.712 668.979 548.956 668.887C546.192 668.876 543.457 669.446 540.927 670.559C538.139 671.535 535.77 672.371 535.352 672.427C535.141 672.411 534.938 672.342 534.762 672.224C534.586 672.107 534.443 671.947 534.348 671.758C534.181 671.396 534.766 670.113 535.686 668.97C536.606 667.827 538.836 665.291 540.537 663.395C543.324 660.384 543.715 659.743 543.631 658.015C543.442 656.371 542.848 654.8 541.903 653.443C541.039 651.993 538.864 648.843 537.08 646.39C535.596 644.603 534.41 642.588 533.567 640.424C533.472 638.894 533.565 637.359 533.846 635.852C534.37 633.47 535.175 631.159 536.244 628.967Z" fill="url(#paint38_radial_739_206)"/>
<path d="M1166.4 834.391C1167.7 831.805 1169.17 829.309 1170.8 826.92C1171.85 825.338 1173.14 823.927 1174.62 822.738C1175.46 822.348 1176.04 822.348 1176.24 822.738C1176.4 823.77 1176.35 824.825 1176.07 825.833C1175.81 827.398 1175.73 828.989 1175.85 830.572C1176.05 832.463 1176.43 834.33 1176.99 836.147C1177.51 838.412 1178.69 840.475 1180.36 842.085C1182.25 844.205 1184 846.439 1185.6 848.776C1187.14 850.942 1188.43 853.269 1189.45 855.717C1190.26 858.17 1190.65 858.728 1191.62 859.006C1192.54 859.216 1193.48 859.282 1194.41 859.202C1195.3 859.202 1197.42 858.783 1199.01 858.477C1200.93 858.093 1202.91 858.218 1204.75 858.839C1205.84 859.072 1206.85 859.56 1207.71 860.261C1207.88 860.623 1207.26 861.153 1205.87 861.794C1204.48 862.435 1201.08 864.582 1197.76 866.561C1194.3 868.731 1190.7 870.677 1187 872.387C1184.59 873.738 1181.86 874.403 1179.11 874.311C1176.34 874.3 1173.61 874.87 1171.08 875.984C1168.29 876.959 1165.92 877.796 1165.5 877.851C1165.29 877.836 1165.09 877.766 1164.91 877.649C1164.74 877.531 1164.6 877.371 1164.5 877.182C1164.33 876.82 1164.92 875.538 1165.84 874.395C1166.76 873.252 1168.99 870.715 1170.69 868.819C1173.48 865.808 1173.87 865.167 1173.78 863.439C1173.59 861.796 1173 860.225 1172.05 858.867C1171.19 857.417 1169.02 854.267 1167.23 851.814C1165.75 850.027 1164.56 848.013 1163.72 845.848C1163.62 844.319 1163.72 842.783 1164 841.277C1164.52 838.895 1165.33 836.583 1166.4 834.391Z" fill="url(#paint39_radial_739_206)"/>
<path d="M1316.46 202.072C1318.05 200.562 1319.75 199.165 1321.54 197.891C1322.69 197.031 1323.97 196.362 1325.33 195.912C1326.03 195.912 1326.44 195.912 1326.47 196.385C1326.31 197.16 1325.99 197.892 1325.52 198.532C1324.92 199.563 1324.44 200.657 1324.07 201.794C1323.74 203.175 1323.53 204.584 1323.46 206.003C1323.24 207.752 1323.54 209.527 1324.32 211.105C1325.1 213.108 1325.75 215.156 1326.28 217.238C1326.81 219.177 1327.12 221.168 1327.22 223.175C1327.22 225.127 1327.22 225.629 1327.92 225.963C1328.52 226.36 1329.18 226.652 1329.87 226.827C1330.51 226.995 1332.1 227.329 1333.33 227.524C1334.78 227.751 1336.16 228.346 1337.32 229.253C1338.02 229.71 1338.61 230.32 1339.04 231.037C1339.04 231.343 1338.49 231.566 1337.34 231.678C1336.2 231.789 1333.22 232.319 1330.32 232.932C1327.3 233.561 1324.25 233.998 1321.17 234.243C1319.11 234.587 1317 234.345 1315.07 233.546C1313.11 232.821 1311.02 232.517 1308.94 232.654C1306.79 232.654 1304.81 232.654 1304.53 232.654C1304.39 232.59 1304.26 232.49 1304.16 232.363C1304.06 232.236 1304 232.087 1303.97 231.929C1303.97 231.622 1304.7 230.842 1305.67 230.284C1306.65 229.727 1308.85 228.472 1310.58 227.496C1313.37 226.075 1313.76 225.74 1314.15 224.486C1314.46 223.269 1314.46 221.995 1314.15 220.778C1313.93 219.524 1313.2 216.708 1312.56 214.506C1311.97 212.849 1311.65 211.107 1311.61 209.348C1311.94 208.243 1312.41 207.184 1313.01 206.198C1313.98 204.684 1315.14 203.298 1316.46 202.072Z" fill="url(#paint40_radial_739_206)"/>
<path d="M1344.14 602.007C1343.36 600.633 1342.74 599.174 1342.3 597.658C1342.03 596.895 1341.88 596.096 1341.85 595.288C1341.85 595.288 1342.52 595.511 1343.19 596.013C1344.57 596.937 1346.03 597.722 1347.57 598.355C1349.37 599.164 1351.23 599.826 1353.14 600.334C1354.56 600.615 1356.02 600.69 1357.46 600.557C1358.97 600.415 1360.5 600.519 1361.98 600.864C1363.32 601.17 1365.69 601.728 1367.25 602.146C1368.61 602.504 1370.02 602.636 1371.43 602.536C1372.6 602.286 1372.88 601.979 1373.49 600.724C1374.09 599.244 1374.52 597.701 1374.77 596.125C1375.06 594.718 1375.23 593.292 1375.3 591.859C1375.16 590.545 1374.89 589.248 1374.49 587.985C1374.15 587.09 1373.93 586.152 1373.85 585.197C1373.85 585.03 1374.27 585.197 1374.52 585.197C1375.11 585.858 1375.62 586.588 1376.03 587.371C1376.79 588.845 1377.44 590.373 1377.98 591.943C1378.48 593.476 1379.18 595.985 1379.51 597.519C1379.8 599.207 1379.8 600.932 1379.51 602.62C1379.34 603.448 1379.34 604.301 1379.51 605.129C1379.51 605.129 1380.49 604.794 1381.38 604.181C1382.19 603.626 1383.04 603.123 1383.92 602.676C1384.61 602.397 1384.75 602.453 1384.61 602.927C1384.47 603.401 1382.97 606.16 1381.27 609.422C1380.15 611.935 1378.72 614.296 1377 616.447C1375.79 617.431 1374.47 618.281 1373.07 618.984C1372.12 619.607 1371.03 619.998 1369.89 620.127C1369.74 619.936 1369.62 619.711 1369.56 619.469C1369.51 619.227 1369.51 618.976 1369.56 618.733C1369.56 618.12 1369.81 617.116 1369.98 616.391C1370.06 615.972 1370.04 615.54 1369.92 615.129C1369.8 614.718 1369.59 614.339 1369.31 614.022C1368.72 613.269 1367.94 612.691 1367.05 612.349C1365.64 611.955 1364.17 611.776 1362.7 611.82C1360.94 611.84 1359.19 611.672 1357.46 611.318C1355.65 610.825 1353.9 610.152 1352.22 609.311C1350.41 608.544 1348.76 607.437 1347.37 606.049C1346.13 604.837 1345.05 603.48 1344.14 602.007Z" fill="url(#paint41_radial_739_206)"/>
<path d="M-5.57281 227.964C-4.11429 226.5 -2.50734 225.192 -0.777943 224.061C0.084322 223.48 1.02234 223.02 2.00977 222.695C2.20491 222.695 2.00975 223.615 1.59159 224.618C0.914625 226.675 0.447624 228.795 0.197733 230.946C-0.164421 233.467 -0.332157 236.011 -0.304035 238.557C-0.15897 240.466 0.26362 242.345 0.950428 244.132C1.65656 245.979 2.06131 247.928 2.14917 249.903C2.14917 251.687 2.37216 254.865 2.42791 256.956C2.4737 258.794 2.82222 260.611 3.4594 262.336C4.1842 263.702 4.63021 263.953 6.44223 264.287C8.50838 264.511 10.5927 264.511 12.6588 264.287C14.5336 264.131 16.396 263.851 18.2342 263.451C19.8232 262.801 21.345 261.999 22.7782 261.054C23.8171 260.286 24.963 259.676 26.1793 259.242C26.4301 259.242 26.458 259.688 26.3465 260.078C25.7379 261.092 25.0077 262.029 24.1721 262.866C22.5852 264.339 20.8891 265.69 19.0985 266.908C17.0149 268.334 14.8559 269.646 12.631 270.839C10.6398 271.859 8.49116 272.538 6.27497 272.846C5.17181 272.873 4.08386 273.109 3.06912 273.543C3.06912 273.738 3.84967 274.658 4.93688 275.578C5.92586 276.385 6.85735 277.261 7.7246 278.198C8.31002 279.007 8.31002 279.146 7.7246 279.146C7.13918 279.146 3.0691 278.254 -1.61427 277.306C-5.16088 276.794 -8.63317 275.858 -11.9567 274.518C-13.6191 273.347 -15.1518 272.001 -16.5286 270.504C-17.6413 269.512 -18.5177 268.283 -19.0932 266.908C-19.0932 266.518 -18.2569 266.099 -17.4485 265.988C-16.64 265.876 -15.3298 265.737 -14.382 265.681C-13.8219 265.629 -13.2807 265.451 -12.7982 265.162C-12.3158 264.872 -11.9044 264.478 -11.5943 264.009C-10.888 262.99 -10.4472 261.812 -10.3119 260.58C-10.3283 258.685 -10.6386 256.804 -11.2319 255.004C-11.847 252.809 -12.2485 250.559 -12.4306 248.286C-12.4501 245.836 -12.2353 243.391 -11.7894 240.982C-11.4635 238.43 -10.6596 235.961 -9.41987 233.706C-8.37416 231.644 -7.08239 229.715 -5.57281 227.964Z" fill="url(#paint42_radial_739_206)"/>
<path d="M172.921 728.906C174.052 727.845 175.295 726.911 176.628 726.119C177.298 725.677 178.032 725.338 178.803 725.115C178.803 725.115 178.803 725.812 178.468 726.565C177.907 728.126 177.514 729.743 177.297 731.387C176.977 733.304 176.809 735.243 176.796 737.186C176.875 738.624 177.167 740.042 177.66 741.395C178.171 742.818 178.444 744.316 178.468 745.828C178.468 747.194 178.468 749.591 178.468 751.208C178.48 752.612 178.716 754.004 179.165 755.334C179.695 756.393 180.029 756.588 181.423 756.867C182.999 757.029 184.587 757.029 186.162 756.867C187.585 756.766 189 756.58 190.4 756.31C191.615 755.817 192.789 755.23 193.912 754.553C194.712 753.975 195.595 753.524 196.533 753.215C196.728 753.215 196.728 753.578 196.533 753.856C196.045 754.588 195.474 755.262 194.832 755.864C193.669 756.979 192.43 758.013 191.124 758.958C189.491 759.973 187.807 760.903 186.079 761.746C184.548 762.505 182.897 762.996 181.2 763.195C180.355 763.174 179.516 763.346 178.747 763.697C178.747 763.697 179.305 764.533 180.141 765.258C180.876 765.887 181.565 766.567 182.204 767.293C182.65 767.906 182.65 768.046 182.204 768.018C181.758 767.99 178.691 767.265 175.123 766.457C172.431 765.991 169.802 765.215 167.289 764.143C166 763.213 164.821 762.137 163.777 760.937C162.634 759.711 161.77 758.428 161.881 758.149C161.993 757.871 162.522 757.564 163.136 757.48C163.749 757.397 164.753 757.313 165.477 757.285C165.901 757.255 166.311 757.13 166.679 756.917C167.046 756.704 167.36 756.411 167.596 756.059C168.164 755.299 168.529 754.406 168.655 753.466C168.666 751.994 168.459 750.529 168.042 749.117C167.596 747.44 167.325 745.721 167.234 743.988C167.246 742.113 167.452 740.245 167.847 738.412C168.117 736.45 168.76 734.557 169.743 732.837C170.653 731.413 171.719 730.095 172.921 728.906Z" fill="url(#paint43_radial_739_206)"/>
<path d="M1155.08 11.8033C1155.18 10.294 1155.43 8.79871 1155.84 7.34291C1156.02 6.59328 1156.32 5.87791 1156.73 5.22431C1156.87 5.22431 1157.15 5.72602 1157.43 6.45082C1158.05 7.91986 1158.83 9.32099 1159.74 10.6324C1160.77 12.2066 1161.91 13.6979 1163.17 15.0928C1164.17 16.0495 1165.29 16.8654 1166.51 17.5181C1167.81 18.1905 1168.98 19.0658 1170 20.1107C1170.92 21.0585 1172.54 22.7311 1173.6 23.874C1174.51 24.8734 1175.58 25.7121 1176.77 26.3551C1177.83 26.7454 1178.19 26.6618 1179.37 25.9648C1180.61 25.0822 1181.75 24.063 1182.77 22.9262C1183.76 21.9333 1184.69 20.8813 1185.55 19.7761C1186.1 18.6377 1186.55 17.453 1186.89 16.2357C1187.1 15.3128 1187.42 14.4219 1187.87 13.5875C1188.06 13.5875 1188.26 13.5874 1188.37 13.9777C1188.48 14.8105 1188.48 15.6538 1188.37 16.4866C1188.21 18.0751 1187.93 19.6496 1187.53 21.1979C1187.08 22.9908 1186.53 24.7587 1185.89 26.4945C1185.29 28.0321 1184.43 29.4558 1183.35 30.704C1182.52 31.6239 1181.85 32.4881 1181.93 32.6554C1182.57 32.889 1183.26 32.9561 1183.94 32.8505C1184.87 32.784 1185.8 32.784 1186.73 32.8505C1187.42 32.9899 1187.51 33.0735 1187.17 33.4081C1186.84 33.7426 1184.16 35.1643 1181.09 36.8927C1178.89 38.3407 1176.51 39.5111 1174.01 40.3773C1172.52 40.5308 1171.02 40.5308 1169.53 40.3773C1168.42 40.3969 1167.33 40.1481 1166.35 39.6525C1166.33 39.4173 1166.36 39.181 1166.44 38.9598C1166.53 38.7385 1166.65 38.5375 1166.82 38.3702C1167.21 37.9242 1167.88 37.1715 1168.35 36.6975C1168.63 36.3976 1168.84 36.0397 1168.97 35.6494C1169.09 35.2591 1169.13 34.846 1169.08 34.4395C1168.98 33.5289 1168.65 32.6575 1168.13 31.9027C1167.18 30.8259 1166.08 29.8876 1164.87 29.115C1163.45 28.2151 1162.14 27.1686 1160.94 25.9927C1159.72 24.6589 1158.65 23.2013 1157.73 21.6439C1156.68 20.0878 1155.92 18.3482 1155.5 16.5145C1155.2 14.9634 1155.06 13.3841 1155.08 11.8033Z" fill="url(#paint44_radial_739_206)"/>
<path d="M79.0341 58.1726C79.8687 57.2614 80.8039 56.4477 81.8219 55.7473C82.3162 55.3754 82.8605 55.0751 83.4387 54.8552C83.4387 54.8552 83.4387 55.3849 83.2436 55.9982C82.9079 57.2183 82.7023 58.4704 82.6303 59.7337C82.5072 61.218 82.5072 62.7099 82.6303 64.1941C82.7618 65.3021 83.0627 66.3833 83.5224 67.3999C83.9832 68.4534 84.2748 69.573 84.3865 70.7173C84.3865 71.7767 84.6932 73.5051 84.7768 74.8432C84.8705 75.9157 85.1242 76.968 85.5295 77.9654C86.0034 78.746 86.2822 78.8854 87.3694 79.0248C88.5726 79.0739 89.7776 78.9991 90.9656 78.8017C92.056 78.657 93.1361 78.4429 94.1993 78.1606C95.1048 77.7121 95.9719 77.1898 96.7919 76.5994C97.3753 76.1213 98.0227 75.7272 98.7154 75.4286C98.8827 75.4286 98.9105 75.7073 98.7154 75.9304C98.3992 76.5193 98.0054 77.0631 97.5446 77.5473C96.6749 78.4561 95.7434 79.3037 94.7569 80.084C93.7812 80.8367 92.1364 81.9518 91.1049 82.5651C89.9661 83.2287 88.7212 83.6908 87.4252 83.9311C86.7824 83.9814 86.1564 84.1616 85.5853 84.4607C85.5853 84.4607 86.0592 85.074 86.7282 85.5758C87.3302 86.0274 87.9072 86.5113 88.4566 87.0255C88.819 87.4715 88.819 87.5551 88.4566 87.583C88.0942 87.6109 85.6689 87.1928 82.8812 86.7746C80.7889 86.5871 78.7285 86.1375 76.7482 85.4365C75.7363 84.8027 74.8009 84.0544 73.9605 83.2063C73.2798 82.665 72.7276 81.9795 72.3436 81.1992C72.4489 81.0379 72.5884 80.9019 72.7522 80.8007C72.916 80.6995 73.1002 80.6356 73.2915 80.6137C73.7375 80.6137 74.5181 80.3907 75.0756 80.335C75.3974 80.2832 75.704 80.1615 75.9737 79.9785C76.2434 79.7955 76.4697 79.5556 76.6367 79.2756C77.015 78.6606 77.2353 77.9614 77.2779 77.2406C77.2094 76.1157 76.9746 75.0071 76.581 73.9511C76.1441 72.6843 75.8359 71.3768 75.661 70.0483C75.5713 68.6153 75.6274 67.1769 75.8283 65.7552C75.9363 64.2562 76.324 62.7907 76.9712 61.4343C77.5322 60.272 78.2244 59.1776 79.0341 58.1726Z" fill="url(#paint45_radial_739_206)"/>
<path d="M764.613 363.771C765.514 362.943 766.495 362.206 767.54 361.569C767.926 361.368 768.359 361.271 768.794 361.29C768.473 362.536 767.935 363.715 767.205 364.775C766.076 366.617 765.23 368.619 764.696 370.713C764.305 372.172 763.998 373.651 763.777 375.145C763.777 376.205 763.581 378.212 763.581 379.606C763.557 381.659 763.39 383.708 763.08 385.739C762.801 387.718 762.188 390.868 761.741 392.652C761.34 394.405 760.847 396.136 760.264 397.837C759.939 398.557 759.759 399.334 759.734 400.123C760.409 400.818 761.19 401.402 762.048 401.852C763.143 402.506 764.146 403.303 765.031 404.221C765.487 404.715 765.804 405.321 765.951 405.977C765.928 406.367 765.853 406.751 765.728 407.12C765.304 407.637 764.758 408.039 764.139 408.291C763.417 408.644 762.765 409.126 762.215 409.713C761.75 410.484 761.536 411.38 761.602 412.278C761.672 413.967 761.982 415.638 762.522 417.24C763.03 418.842 763.626 420.414 764.306 421.951C764.78 422.871 765.031 423.624 764.836 423.652C763.975 423.244 763.199 422.676 762.55 421.979C761.435 421.003 759.929 419.498 759.121 418.634C758.276 417.716 757.511 416.727 756.835 415.679C756.253 414.648 755.768 413.565 755.385 412.445C754.945 411.052 754.618 409.626 754.41 408.18C754.075 405.838 754.047 405.782 752.598 404.667C751.495 403.8 750.443 402.869 749.448 401.879C748.337 400.658 747.155 399.504 745.907 398.423C745.078 397.761 744.321 397.014 743.649 396.193C743.454 395.886 743.398 395.496 743.649 395.412C744.207 395.235 744.794 395.169 745.378 395.217C746.744 395.258 748.105 395.407 749.448 395.663C751.678 396.053 752.096 396.053 752.514 395.663C752.863 395.155 753.118 394.588 753.267 393.99C753.406 393.433 754.047 389.558 755.72 377.877L757.922 373.389C758.776 371.21 759.95 369.171 761.407 367.34C762.104 366.225 763.581 364.747 764.613 363.771Z" fill="url(#paint46_radial_739_206)"/>
<path d="M80.4521 821.542C80.9581 820.398 81.6042 819.321 82.3756 818.336C82.7938 817.89 83.2956 817.556 83.4628 817.583C83.6039 818.887 83.538 820.204 83.2677 821.486C82.9395 823.667 82.9395 825.885 83.2677 828.065C83.4349 829.515 83.8252 831.55 84.0761 832.609C84.327 833.669 85.0518 835.564 85.5815 836.875C86.3269 838.829 86.9415 840.832 87.4214 842.868C87.8953 844.847 88.5086 848.053 88.7874 849.921C89.0661 851.789 89.2892 854.27 89.317 855.496C89.2812 856.305 89.4141 857.112 89.7073 857.866C90.5941 858.254 91.5336 858.507 92.495 858.619C93.7834 858.826 95.0392 859.201 96.2306 859.734C96.8569 860.002 97.3834 860.461 97.7359 861.044C97.8853 861.406 97.9612 861.795 97.9589 862.187C97.7698 862.842 97.4145 863.438 96.9275 863.915C96.3813 864.527 95.9387 865.224 95.6173 865.978C95.4902 866.88 95.6256 867.8 96.0075 868.627C96.7148 870.207 97.6544 871.673 98.7952 872.975C99.8799 874.308 101.044 875.574 102.28 876.767C103.06 877.464 103.562 878.077 103.395 878.188C102.431 878.11 101.488 877.865 100.607 877.464C99.1855 876.962 97.1784 876.098 96.0912 875.596C94.9495 875.041 93.8582 874.388 92.8295 873.644C91.891 872.899 91.0231 872.068 90.237 871.163C89.2983 870.004 88.4502 868.773 87.7001 867.484C86.5014 865.393 86.4457 865.337 84.6337 864.835C83.2414 864.402 81.8813 863.871 80.5636 863.246C79.0555 862.512 77.5002 861.879 75.9081 861.351C74.8738 861.023 73.8747 860.593 72.9253 860.068C72.6465 859.873 72.4513 859.511 72.5629 859.371C73.0299 859.003 73.5584 858.72 74.124 858.535C75.4324 858.064 76.7742 857.691 78.1383 857.42C80.4242 856.946 80.926 856.779 80.926 856.11C81.0279 855.501 81.0279 854.879 80.926 854.27C80.926 853.684 79.9782 849.782 77.1626 838.101L77.5529 833.027C77.5475 830.638 77.895 828.262 78.5843 825.975C79.0025 824.804 79.8109 822.852 80.4521 821.542Z" fill="url(#paint47_radial_739_206)"/>
<path d="M296.333 426.858C296.766 425.444 297.364 424.087 298.117 422.815C298.563 422.23 299.065 421.756 299.26 421.756C299.655 423.255 299.778 424.813 299.622 426.356C299.544 428.958 299.835 431.558 300.487 434.078C300.905 435.778 301.685 438.092 302.131 439.291C302.577 440.49 303.72 442.608 304.557 444.058C305.724 446.242 306.758 448.495 307.651 450.804C308.515 453.062 309.714 456.714 310.439 458.861C311.163 461.007 311.721 463.878 311.916 465.161C311.983 466.137 312.258 467.088 312.725 467.949C313.837 468.278 314.993 468.438 316.153 468.422C317.693 468.447 319.222 468.681 320.697 469.119C321.463 469.369 322.147 469.822 322.677 470.43C323.046 470.975 323.196 471.639 323.098 472.289C323 472.94 322.66 473.53 322.147 473.942C321.599 474.74 321.193 475.626 320.948 476.563C320.922 477.64 321.224 478.699 321.813 479.601C322.873 481.34 324.188 482.909 325.715 484.257C327.175 485.672 328.731 486.986 330.371 488.187C331.402 488.856 332.099 489.525 331.904 489.665C330.763 489.747 329.617 489.605 328.531 489.247C326.775 488.884 324.294 488.187 322.955 487.741C321.533 487.275 320.152 486.687 318.83 485.985C317.605 485.243 316.448 484.394 315.373 483.448C314.108 482.225 312.934 480.911 311.86 479.518C310.132 477.259 310.048 477.232 307.874 476.925C306.176 476.616 304.5 476.197 302.856 475.671C300.974 475.045 299.056 474.533 297.113 474.137C295.857 473.922 294.625 473.586 293.434 473.134C293.043 472.939 292.765 472.548 292.876 472.353C293.364 471.844 293.94 471.429 294.577 471.127C296.04 470.379 297.56 469.745 299.121 469.231C301.713 468.311 302.131 468.06 302.271 467.252C302.314 466.52 302.239 465.785 302.048 465.077C301.88 464.38 300.263 459.948 295.162 446.678L294.827 440.685C294.463 437.905 294.51 435.087 294.967 432.322C295.134 430.9 295.803 428.474 296.333 426.858Z" fill="url(#paint48_radial_739_206)"/>
<path d="M102.698 366.866C102.167 365.194 101.858 363.461 101.778 361.709C101.773 361.08 101.916 360.459 102.196 359.897C102.419 359.729 103.785 361.486 105.625 364.218C107.26 366.855 109.269 369.24 111.591 371.298C113.152 372.692 115.438 374.476 116.664 375.341C117.891 376.205 120.456 377.599 122.24 378.491C124.863 379.854 127.388 381.401 129.795 383.118C132.136 384.763 135.76 387.579 137.767 389.307C139.775 391.035 142.339 393.433 143.343 394.576C144.058 395.473 144.95 396.213 145.963 396.75C147.279 396.335 148.521 395.714 149.643 394.91C151.199 393.933 152.877 393.165 154.633 392.624C155.545 392.373 156.509 392.373 157.421 392.624C157.92 392.869 158.365 393.21 158.731 393.628C159.133 394.499 159.297 395.461 159.205 396.416C159.207 397.572 159.396 398.72 159.762 399.817C160.432 400.889 161.401 401.742 162.55 402.27C164.749 403.291 167.089 403.977 169.492 404.305C171.872 404.703 174.273 404.963 176.684 405.085C178.161 405.085 179.276 405.253 179.221 405.531C178.125 406.36 176.887 406.984 175.569 407.371C173.59 408.152 170.662 409.1 169.073 409.574C167.347 410.042 165.585 410.368 163.805 410.549C162.101 410.623 160.394 410.548 158.703 410.326C156.64 409.963 154.609 409.441 152.626 408.765C149.42 407.678 149.309 407.706 147.051 408.765C145.173 409.584 143.246 410.282 141.28 410.856C138.997 411.484 136.754 412.247 134.562 413.142C133.176 413.769 131.728 414.245 130.241 414.564C129.739 414.564 129.209 414.424 129.181 414.173C129.335 413.346 129.637 412.552 130.073 411.832C131.017 410.111 132.098 408.471 133.307 406.925C135.231 404.305 135.509 403.803 135.091 402.911C134.673 402.137 134.115 401.447 133.446 400.876C132.833 400.318 128.289 397.001 114.462 387.244L110.141 381.669C107.877 379.174 105.998 376.355 104.566 373.306C104.175 371.661 103.256 368.845 102.698 366.866Z" fill="url(#paint49_radial_739_206)"/>
<path d="M8.55693 710.145C9.7308 709.579 10.9654 709.149 12.2367 708.863C12.685 708.749 13.1544 708.749 13.6027 708.863C13.6027 709.002 12.627 710.201 10.815 711.873C9.07843 713.359 7.57489 715.098 6.35464 717.031C5.50168 718.383 4.72005 719.778 4.01295 721.212C3.56692 722.244 2.81424 724.223 2.3682 725.617C1.67432 727.685 0.84552 729.706 -0.112862 731.666C-1.03281 733.562 -2.64968 736.517 -3.68114 738.189C-4.71259 739.862 -6.13433 742.008 -6.85913 742.928C-7.4201 743.55 -7.84711 744.281 -8.1136 745.075C-7.65956 746.083 -7.0374 747.007 -6.27371 747.807C-5.37665 748.817 -4.61737 749.942 -4.01566 751.152C-3.71453 751.795 -3.59868 752.51 -3.68114 753.215C-3.79634 753.607 -3.99619 753.969 -4.26656 754.274C-4.85097 754.682 -5.53511 754.923 -6.24583 754.971C-7.08606 755.099 -7.89747 755.372 -8.64327 755.78C-9.34608 756.408 -9.84183 757.234 -10.065 758.149C-10.566 759.869 -10.7918 761.656 -10.7341 763.446C-10.7549 765.233 -10.6711 767.021 -10.4832 768.798C-10.288 769.858 -10.288 770.694 -10.4832 770.666C-11.2155 769.975 -11.8113 769.152 -12.2394 768.241C-13.0479 766.903 -14.1072 764.896 -14.6369 763.753C-15.1869 762.557 -15.6346 761.317 -15.975 760.045C-16.2405 758.77 -16.3898 757.473 -16.421 756.17C-16.4031 754.629 -16.2726 753.092 -16.0307 751.57C-15.6126 749.089 -15.6404 749.034 -16.7276 747.445C-17.5546 746.179 -18.2906 744.856 -18.9299 743.486C-19.663 741.895 -20.4915 740.349 -21.411 738.858C-22.0461 737.924 -22.5789 736.924 -23 735.875C-23 735.513 -23 735.123 -22.8606 735.067C-22.2305 735.076 -21.6072 735.199 -21.0207 735.429C-19.6678 735.925 -18.3539 736.522 -17.09 737.214C-14.9435 738.301 -14.5532 738.44 -13.9399 738.05C-13.4371 737.639 -13.0041 737.149 -12.6576 736.6C-12.3231 736.071 -10.4553 732.391 -4.96349 721.156L-1.31158 717.337C0.291157 715.424 2.17032 713.761 4.26385 712.403C5.26743 711.818 7.19095 710.786 8.55693 710.145Z" fill="url(#paint50_radial_739_206)"/>
</g>
<defs>
<radialGradient id="paint0_radial_739_206" cx="0" cy="0" r="1" gradientUnits="userSpaceOnUse" gradientTransform="translate(720 362.901) rotate(90) scale(424 1008.16)">
<stop stop-color="#F5F6F6"/>
<stop offset="1" stop-color="#F5F6F6" stop-opacity="0"/>
</radialGradient>
<radialGradient id="paint1_radial_739_206" cx="0" cy="0" r="1" gradientUnits="userSpaceOnUse" gradientTransform="translate(720 362.901) rotate(90) scale(424 1008.16)">
<stop stop-color="#F5F6F6"/>
<stop offset="1" stop-color="#F5F6F6" stop-opacity="0"/>
</radialGradient>
<radialGradient id="paint2_radial_739_206" cx="0" cy="0" r="1" gradientUnits="userSpaceOnUse" gradientTransform="translate(720 362.901) rotate(90) scale(424 1008.16)">
<stop stop-color="#F5F6F6"/>
<stop offset="1" stop-color="#F5F6F6" stop-opacity="0"/>
</radialGradient>
<radialGradient id="paint3_radial_739_206" cx="0" cy="0" r="1" gradientUnits="userSpaceOnUse" gradientTransform="translate(720 362.901) rotate(90) scale(424 1008.16)">
<stop stop-color="#F5F6F6"/>
<stop offset="1" stop-color="#F5F6F6" stop-opacity="0"/>
</radialGradient>
<radialGradient id="paint4_radial_739_206" cx="0" cy="0" r="1" gradientUnits="userSpaceOnUse" gradientTransform="translate(720 362.901) rotate(90) scale(424 1008.16)">
<stop stop-color="#F5F6F6"/>
<stop offset="1" stop-color="#F5F6F6" stop-opacity="0"/>
</radialGradient>
<radialGradient id="paint5_radial_739_206" cx="0" cy="0" r="1" gradientUnits="userSpaceOnUse" gradientTransform="translate(720 362.901) rotate(90) scale(424 1008.16)">
<stop stop-color="#F5F6F6"/>
<stop offset="1" stop-color="#F5F6F6" stop-opacity="0"/>
</radialGradient>
<radialGradient id="paint6_radial_739_206" cx="0" cy="0" r="1" gradientUnits="userSpaceOnUse" gradientTransform="translate(720 362.901) rotate(90) scale(424 1008.16)">
<stop stop-color="#F5F6F6"/>
<stop offset="1" stop-color="#F5F6F6" stop-opacity="0"/>
</radialGradient>
<radialGradient id="paint7_radial_739_206" cx="0" cy="0" r="1" gradientUnits="userSpaceOnUse" gradientTransform="translate(720 362.901) rotate(90) scale(424 1008.16)">
<stop stop-color="#F5F6F6"/>
<stop offset="1" stop-color="#F5F6F6" stop-opacity="0"/>
</radialGradient>
<radialGradient id="paint8_radial_739_206" cx="0" cy="0" r="1" gradientUnits="userSpaceOnUse" gradientTransform="translate(720 362.901) rotate(90) scale(424 1008.16)">
<stop stop-color="#F5F6F6"/>
<stop offset="1" stop-color="#F5F6F6" stop-opacity="0"/>
</radialGradient>
<radialGradient id="paint9_radial_739_206" cx="0" cy="0" r="1" gradientUnits="userSpaceOnUse" gradientTransform="translate(720 362.901) rotate(90) scale(424 1008.16)">
<stop stop-color="#F5F6F6"/>
<stop offset="1" stop-color="#F5F6F6" stop-opacity="0"/>
</radialGradient>
<radialGradient id="paint10_radial_739_206" cx="0" cy="0" r="1" gradientUnits="userSpaceOnUse" gradientTransform="translate(720 362.901) rotate(90) scale(424 1008.16)">
<stop stop-color="#F5F6F6"/>
<stop offset="1" stop-color="#F5F6F6" stop-opacity="0"/>
</radialGradient>
<radialGradient id="paint11_radial_739_206" cx="0" cy="0" r="1" gradientUnits="userSpaceOnUse" gradientTransform="translate(720 362.901) rotate(90) scale(424 1008.16)">
<stop stop-color="#F5F6F6"/>
<stop offset="1" stop-color="#F5F6F6" stop-opacity="0"/>
</radialGradient>
<radialGradient id="paint12_radial_739_206" cx="0" cy="0" r="1" gradientUnits="userSpaceOnUse" gradientTransform="translate(720 362.901) rotate(90) scale(424 1008.16)">
<stop stop-color="#F5F6F6"/>
<stop offset="1" stop-color="#F5F6F6" stop-opacity="0"/>
</radialGradient>
<radialGradient id="paint13_radial_739_206" cx="0" cy="0" r="1" gradientUnits="userSpaceOnUse" gradientTransform="translate(720 362.901) rotate(90) scale(424 1008.16)">
<stop stop-color="#F5F6F6"/>
<stop offset="1" stop-color="#F5F6F6" stop-opacity="0"/>
</radialGradient>
<radialGradient id="paint14_radial_739_206" cx="0" cy="0" r="1" gradientUnits="userSpaceOnUse" gradientTransform="translate(720 362.901) rotate(90) scale(424 1008.16)">
<stop stop-color="#F5F6F6"/>
<stop offset="1" stop-color="#F5F6F6" stop-opacity="0"/>
</radialGradient>
<radialGradient id="paint15_radial_739_206" cx="0" cy="0" r="1" gradientUnits="userSpaceOnUse" gradientTransform="translate(720 362.901) rotate(90) scale(424 1008.16)">
<stop stop-color="#F5F6F6"/>
<stop offset="1" stop-color="#F5F6F6" stop-opacity="0"/>
</radialGradient>
<radialGradient id="paint16_radial_739_206" cx="0" cy="0" r="1" gradientUnits="userSpaceOnUse" gradientTransform="translate(720 362.901) rotate(90) scale(424 1008.16)">
<stop stop-color="#F5F6F6"/>
<stop offset="1" stop-color="#F5F6F6" stop-opacity="0"/>
</radialGradient>
<radialGradient id="paint17_radial_739_206" cx="0" cy="0" r="1" gradientUnits="userSpaceOnUse" gradientTransform="translate(720 362.901) rotate(90) scale(424 1008.16)">
<stop stop-color="#F5F6F6"/>
<stop offset="1" stop-color="#F5F6F6" stop-opacity="0"/>
</radialGradient>
<radialGradient id="paint18_radial_739_206" cx="0" cy="0" r="1" gradientUnits="userSpaceOnUse" gradientTransform="translate(720 362.901) rotate(90) scale(424 1008.16)">
<stop stop-color="#F5F6F6"/>
<stop offset="1" stop-color="#F5F6F6" stop-opacity="0"/>
</radialGradient>
<radialGradient id="paint19_radial_739_206" cx="0" cy="0" r="1" gradientUnits="userSpaceOnUse" gradientTransform="translate(720 362.901) rotate(90) scale(424 1008.16)">
<stop stop-color="#F5F6F6"/>
<stop offset="1" stop-color="#F5F6F6" stop-opacity="0"/>
</radialGradient>
<radialGradient id="paint20_radial_739_206" cx="0" cy="0" r="1" gradientUnits="userSpaceOnUse" gradientTransform="translate(720 362.901) rotate(90) scale(424 1008.16)">
<stop stop-color="#F5F6F6"/>
<stop offset="1" stop-color="#F5F6F6" stop-opacity="0"/>
</radialGradient>
<radialGradient id="paint21_radial_739_206" cx="0" cy="0" r="1" gradientUnits="userSpaceOnUse" gradientTransform="translate(720 362.901) rotate(90) scale(424 1008.16)">
<stop stop-color="#F5F6F6"/>
<stop offset="1" stop-color="#F5F6F6" stop-opacity="0"/>
</radialGradient>
<radialGradient id="paint22_radial_739_206" cx="0" cy="0" r="1" gradientUnits="userSpaceOnUse" gradientTransform="translate(720 362.901) rotate(90) scale(424 1008.16)">
<stop stop-color="#F5F6F6"/>
<stop offset="1" stop-color="#F5F6F6" stop-opacity="0"/>
</radialGradient>
<radialGradient id="paint23_radial_739_206" cx="0" cy="0" r="1" gradientUnits="userSpaceOnUse" gradientTransform="translate(720 362.901) rotate(90) scale(424 1008.16)">
<stop stop-color="#F5F6F6"/>
<stop offset="1" stop-color="#F5F6F6" stop-opacity="0"/>
</radialGradient>
<radialGradient id="paint24_radial_739_206" cx="0" cy="0" r="1" gradientUnits="userSpaceOnUse" gradientTransform="translate(720 362.901) rotate(90) scale(424 1008.16)">
<stop stop-color="#F5F6F6"/>
<stop offset="1" stop-color="#F5F6F6" stop-opacity="0"/>
</radialGradient>
<radialGradient id="paint25_radial_739_206" cx="0" cy="0" r="1" gradientUnits="userSpaceOnUse" gradientTransform="translate(720 362.901) rotate(90) scale(424 1008.16)">
<stop stop-color="#F5F6F6"/>
<stop offset="1" stop-color="#F5F6F6" stop-opacity="0"/>
</radialGradient>
<radialGradient id="paint26_radial_739_206" cx="0" cy="0" r="1" gradientUnits="userSpaceOnUse" gradientTransform="translate(720 362.901) rotate(90) scale(424 1008.16)">
<stop stop-color="#F5F6F6"/>
<stop offset="1" stop-color="#F5F6F6" stop-opacity="0"/>
</radialGradient>
<radialGradient id="paint27_radial_739_206" cx="0" cy="0" r="1" gradientUnits="userSpaceOnUse" gradientTransform="translate(720 362.901) rotate(90) scale(424 1008.16)">
<stop stop-color="#F5F6F6"/>
<stop offset="1" stop-color="#F5F6F6" stop-opacity="0"/>
</radialGradient>
<radialGradient id="paint28_radial_739_206" cx="0" cy="0" r="1" gradientUnits="userSpaceOnUse" gradientTransform="translate(720 362.901) rotate(90) scale(424 1008.16)">
<stop stop-color="#F5F6F6"/>
<stop offset="1" stop-color="#F5F6F6" stop-opacity="0"/>
</radialGradient>
<radialGradient id="paint29_radial_739_206" cx="0" cy="0" r="1" gradientUnits="userSpaceOnUse" gradientTransform="translate(720 362.901) rotate(90) scale(424 1008.16)">
<stop stop-color="#F5F6F6"/>
<stop offset="1" stop-color="#F5F6F6" stop-opacity="0"/>
</radialGradient>
<radialGradient id="paint30_radial_739_206" cx="0" cy="0" r="1" gradientUnits="userSpaceOnUse" gradientTransform="translate(720 362.901) rotate(90) scale(424 1008.16)">
<stop stop-color="#F5F6F6"/>
<stop offset="1" stop-color="#F5F6F6" stop-opacity="0"/>
</radialGradient>
<radialGradient id="paint31_radial_739_206" cx="0" cy="0" r="1" gradientUnits="userSpaceOnUse" gradientTransform="translate(720 362.901) rotate(90) scale(424 1008.16)">
<stop stop-color="#F5F6F6"/>
<stop offset="1" stop-color="#F5F6F6" stop-opacity="0"/>
</radialGradient>
<radialGradient id="paint32_radial_739_206" cx="0" cy="0" r="1" gradientUnits="userSpaceOnUse" gradientTransform="translate(720 362.901) rotate(90) scale(424 1008.16)">
<stop stop-color="#F5F6F6"/>
<stop offset="1" stop-color="#F5F6F6" stop-opacity="0"/>
</radialGradient>
<radialGradient id="paint33_radial_739_206" cx="0" cy="0" r="1" gradientUnits="userSpaceOnUse" gradientTransform="translate(720 362.901) rotate(90) scale(424 1008.16)">
<stop stop-color="#F5F6F6"/>
<stop offset="1" stop-color="#F5F6F6" stop-opacity="0"/>
</radialGradient>
<radialGradient id="paint34_radial_739_206" cx="0" cy="0" r="1" gradientUnits="userSpaceOnUse" gradientTransform="translate(720 362.901) rotate(90) scale(424 1008.16)">
<stop stop-color="#F5F6F6"/>
<stop offset="1" stop-color="#F5F6F6" stop-opacity="0"/>
</radialGradient>
<radialGradient id="paint35_radial_739_206" cx="0" cy="0" r="1" gradientUnits="userSpaceOnUse" gradientTransform="translate(720 362.901) rotate(90) scale(424 1008.16)">
<stop stop-color="#F5F6F6"/>
<stop offset="1" stop-color="#F5F6F6" stop-opacity="0"/>
</radialGradient>
<radialGradient id="paint36_radial_739_206" cx="0" cy="0" r="1" gradientUnits="userSpaceOnUse" gradientTransform="translate(720 362.901) rotate(90) scale(424 1008.16)">
<stop stop-color="#F5F6F6"/>
<stop offset="1" stop-color="#F5F6F6" stop-opacity="0"/>
</radialGradient>
<radialGradient id="paint37_radial_739_206" cx="0" cy="0" r="1" gradientUnits="userSpaceOnUse" gradientTransform="translate(720 362.901) rotate(90) scale(424 1008.16)">
<stop stop-color="#F5F6F6"/>
<stop offset="1" stop-color="#F5F6F6" stop-opacity="0"/>
</radialGradient>
<radialGradient id="paint38_radial_739_206" cx="0" cy="0" r="1" gradientUnits="userSpaceOnUse" gradientTransform="translate(720 362.901) rotate(90) scale(424 1008.16)">
<stop stop-color="#F5F6F6"/>
<stop offset="1" stop-color="#F5F6F6" stop-opacity="0"/>
</radialGradient>
<radialGradient id="paint39_radial_739_206" cx="0" cy="0" r="1" gradientUnits="userSpaceOnUse" gradientTransform="translate(720 362.901) rotate(90) scale(424 1008.16)">
<stop stop-color="#F5F6F6"/>
<stop offset="1" stop-color="#F5F6F6" stop-opacity="0"/>
</radialGradient>
<radialGradient id="paint40_radial_739_206" cx="0" cy="0" r="1" gradientUnits="userSpaceOnUse" gradientTransform="translate(720 362.901) rotate(90) scale(424 1008.16)">
<stop stop-color="#F5F6F6"/>
<stop offset="1" stop-color="#F5F6F6" stop-opacity="0"/>
</radialGradient>
<radialGradient id="paint41_radial_739_206" cx="0" cy="0" r="1" gradientUnits="userSpaceOnUse" gradientTransform="translate(720 362.901) rotate(90) scale(424 1008.16)">
<stop stop-color="#F5F6F6"/>
<stop offset="1" stop-color="#F5F6F6" stop-opacity="0"/>
</radialGradient>
<radialGradient id="paint42_radial_739_206" cx="0" cy="0" r="1" gradientUnits="userSpaceOnUse" gradientTransform="translate(720 362.901) rotate(90) scale(424 1008.16)">
<stop stop-color="#F5F6F6"/>
<stop offset="1" stop-color="#F5F6F6" stop-opacity="0"/>
</radialGradient>
<radialGradient id="paint43_radial_739_206" cx="0" cy="0" r="1" gradientUnits="userSpaceOnUse" gradientTransform="translate(720 362.901) rotate(90) scale(424 1008.16)">
<stop stop-color="#F5F6F6"/>
<stop offset="1" stop-color="#F5F6F6" stop-opacity="0"/>
</radialGradient>
<radialGradient id="paint44_radial_739_206" cx="0" cy="0" r="1" gradientUnits="userSpaceOnUse" gradientTransform="translate(720 362.901) rotate(90) scale(424 1008.16)">
<stop stop-color="#F5F6F6"/>
<stop offset="1" stop-color="#F5F6F6" stop-opacity="0"/>
</radialGradient>
<radialGradient id="paint45_radial_739_206" cx="0" cy="0" r="1" gradientUnits="userSpaceOnUse" gradientTransform="translate(720 362.901) rotate(90) scale(424 1008.16)">
<stop stop-color="#F5F6F6"/>
<stop offset="1" stop-color="#F5F6F6" stop-opacity="0"/>
</radialGradient>
<radialGradient id="paint46_radial_739_206" cx="0" cy="0" r="1" gradientUnits="userSpaceOnUse" gradientTransform="translate(720 362.901) rotate(90) scale(424 1008.16)">
<stop stop-color="#F5F6F6"/>
<stop offset="1" stop-color="#F5F6F6" stop-opacity="0"/>
</radialGradient>
<radialGradient id="paint47_radial_739_206" cx="0" cy="0" r="1" gradientUnits="userSpaceOnUse" gradientTransform="translate(720 362.901) rotate(90) scale(424 1008.16)">
<stop stop-color="#F5F6F6"/>
<stop offset="1" stop-color="#F5F6F6" stop-opacity="0"/>
</radialGradient>
<radialGradient id="paint48_radial_739_206" cx="0" cy="0" r="1" gradientUnits="userSpaceOnUse" gradientTransform="translate(720 362.901) rotate(90) scale(424 1008.16)">
<stop stop-color="#F5F6F6"/>
<stop offset="1" stop-color="#F5F6F6" stop-opacity="0"/>
</radialGradient>
<radialGradient id="paint49_radial_739_206" cx="0" cy="0" r="1" gradientUnits="userSpaceOnUse" gradientTransform="translate(720 362.901) rotate(90) scale(424 1008.16)">
<stop stop-color="#F5F6F6"/>
<stop offset="1" stop-color="#F5F6F6" stop-opacity="0"/>
</radialGradient>
<radialGradient id="paint50_radial_739_206" cx="0" cy="0" r="1" gradientUnits="userSpaceOnUse" gradientTransform="translate(720 362.901) rotate(90) scale(424 1008.16)">
<stop stop-color="#F5F6F6"/>
<stop offset="1" stop-color="#F5F6F6" stop-opacity="0"/>
</radialGradient>
</defs>
</svg>
