<svg width="1128" height="296" viewBox="0 0 1128 296" fill="none" xmlns="http://www.w3.org/2000/svg">
<mask id="mask0_739_256" style="mask-type:alpha" maskUnits="userSpaceOnUse" x="0" y="0" width="1128" height="296">
<rect width="1128" height="296" fill="#090A0A"/>
</mask>
<g mask="url(#mask0_739_256)">
<rect x="228" y="169" width="336" height="336" transform="rotate(-90 228 169)" fill="url(#paint0_angular_739_256)"/>
<rect width="336" height="336" transform="matrix(4.37114e-08 -1 -1 -4.37114e-08 900 169)" fill="url(#paint1_angular_739_256)"/>
<g filter="url(#filter0_bf_739_256)">
<path d="M193 100H961L1138 234L-11 233.999L193 100Z" fill="#F23E0D" fill-opacity="0.02"/>
</g>
<g style="mix-blend-mode:screen" filter="url(#filter1_f_739_256)">
<ellipse cx="563" cy="75" rx="106" ry="21" fill="#F23E0D"/>
</g>
<g style="mix-blend-mode:soft-light" opacity="0.5">
<path fill-rule="evenodd" clip-rule="evenodd" d="M384.992 141.403C384.992 141.18 384.812 141 384.589 141C384.367 141 384.186 141.18 384.186 141.403V142.008H383.581C383.359 142.008 383.178 142.188 383.178 142.411C383.178 142.633 383.359 142.814 383.581 142.814H384.186V143.419C384.186 143.641 384.367 143.822 384.589 143.822C384.812 143.822 384.992 143.641 384.992 143.419V142.814H385.597C385.819 142.814 386 142.633 386 142.411C386 142.188 385.819 142.008 385.597 142.008H384.992V141.403ZM382.93 144.07C383.127 144.267 383.127 144.586 382.93 144.783L381.922 145.79C381.725 145.987 381.406 145.987 381.21 145.79C381.013 145.594 381.013 145.275 381.21 145.078L382.217 144.07C382.414 143.873 382.733 143.873 382.93 144.07ZM380.914 146.086C381.111 146.282 381.111 146.601 380.914 146.798L373.86 153.852C373.663 154.049 373.344 154.049 373.148 153.852C372.951 153.656 372.951 153.337 373.148 153.14L380.202 146.086C380.399 145.889 380.718 145.889 380.914 146.086ZM384.589 146.039C384.812 146.039 384.992 146.219 384.992 146.442V147.047H385.597C385.819 147.047 386 147.227 386 147.45C386 147.672 385.819 147.853 385.597 147.853H384.992V148.457C384.992 148.68 384.812 148.86 384.589 148.86C384.367 148.86 384.186 148.68 384.186 148.457V147.853H383.581C383.359 147.853 383.178 147.672 383.178 147.45C383.178 147.227 383.359 147.047 383.581 147.047H384.186V146.442C384.186 146.219 384.367 146.039 384.589 146.039ZM379.953 141.403C379.953 141.18 379.773 141 379.55 141C379.328 141 379.147 141.18 379.147 141.403V142.008H378.543C378.32 142.008 378.14 142.188 378.14 142.411C378.14 142.633 378.32 142.814 378.543 142.814H379.147V143.419C379.147 143.641 379.328 143.822 379.55 143.822C379.773 143.822 379.953 143.641 379.953 143.419V142.814H380.558C380.781 142.814 380.961 142.633 380.961 142.411C380.961 142.188 380.781 142.008 380.558 142.008H379.953V141.403Z" fill="#F5F6F6"/>
<path fill-rule="evenodd" clip-rule="evenodd" d="M394.244 55.5395C393.939 55.3633 393.549 55.4679 393.373 55.7731C393.196 56.0783 393.301 56.4686 393.606 56.6448L394.435 57.1234L393.956 57.9523C393.78 58.2575 393.885 58.6478 394.19 58.824C394.495 59.0002 394.885 58.8956 395.062 58.5904L395.54 57.7615L396.369 58.2401C396.674 58.4163 397.065 58.3117 397.241 58.0065C397.417 57.7013 397.312 57.311 397.007 57.1348L396.178 56.6562L396.657 55.8273C396.833 55.5221 396.729 55.1318 396.423 54.9556C396.118 54.7794 395.728 54.884 395.552 55.1892L395.073 56.0181L394.244 55.5395ZM396.268 60.4776C396.694 60.3637 397.131 60.6162 397.245 61.0417L397.829 63.2208C397.943 63.6464 397.69 64.0838 397.265 64.1977C396.839 64.3118 396.402 64.0593 396.288 63.6337L395.704 61.4547C395.59 61.0291 395.843 60.5917 396.268 60.4776ZM397.436 64.836C397.861 64.7221 398.299 64.9746 398.413 65.4001L402.5 80.6543C402.614 81.0799 402.362 81.5172 401.936 81.6312C401.511 81.7453 401.073 81.4928 400.959 81.0672L396.872 65.8129C396.758 65.3874 397.01 64.9501 397.436 64.836ZM400.28 59.7613C400.456 59.4561 400.847 59.3515 401.152 59.5277L401.981 60.0063L402.459 59.1774C402.636 58.8722 403.026 58.7676 403.331 58.9438C403.636 59.12 403.741 59.5103 403.565 59.8155L403.086 60.6444L403.915 61.123C404.22 61.2992 404.325 61.6895 404.149 61.9947C403.972 62.2999 403.582 62.4044 403.277 62.2282L402.448 61.7497L401.969 62.5786C401.793 62.8838 401.403 62.9884 401.098 62.8121C400.793 62.6359 400.688 62.2457 400.864 61.9405L401.343 61.1115L400.514 60.633C400.209 60.4568 400.104 60.0665 400.28 59.7613ZM390.256 62.4472C389.951 62.271 389.561 62.3756 389.384 62.6808C389.208 62.986 389.313 63.3763 389.618 63.5525L390.447 64.0311L389.968 64.86C389.792 65.1652 389.897 65.5555 390.202 65.7317C390.507 65.9079 390.897 65.8033 391.073 65.4981L391.552 64.6692L392.381 65.1478C392.686 65.324 393.076 65.2194 393.253 64.9142C393.429 64.609 393.324 64.2187 393.019 64.0425L392.19 63.5639L392.669 62.735C392.845 62.4298 392.74 62.0395 392.435 61.8633C392.13 61.6871 391.74 61.7917 391.564 62.0969L391.085 62.9258L390.256 62.4472Z" fill="#F5F6F6"/>
<path fill-rule="evenodd" clip-rule="evenodd" d="M567.067 146.411C567.372 146.587 567.762 146.483 567.939 146.177C568.115 145.872 568.01 145.482 567.705 145.306L566.876 144.827L567.355 143.998C567.531 143.693 567.426 143.303 567.121 143.126C566.816 142.95 566.426 143.055 566.249 143.36L565.771 144.189L564.942 143.71C564.637 143.534 564.246 143.639 564.07 143.944C563.894 144.249 563.999 144.639 564.304 144.816L565.133 145.294L564.654 146.123C564.478 146.428 564.583 146.819 564.888 146.995C565.193 147.171 565.583 147.066 565.759 146.761L566.238 145.932L567.067 146.411ZM565.043 141.473C564.618 141.587 564.18 141.334 564.066 140.909L563.482 138.73C563.368 138.304 563.621 137.867 564.046 137.753C564.472 137.639 564.909 137.891 565.023 138.317L565.607 140.496C565.721 140.921 565.469 141.359 565.043 141.473ZM563.875 137.114C563.45 137.228 563.012 136.976 562.898 136.55L558.811 121.296C558.697 120.871 558.949 120.433 559.375 120.319C559.8 120.205 560.238 120.458 560.352 120.883L564.439 136.137C564.553 136.563 564.301 137 563.875 137.114ZM561.031 142.189C560.855 142.494 560.464 142.599 560.159 142.423L559.33 141.944L558.852 142.773C558.675 143.078 558.285 143.183 557.98 143.007C557.675 142.83 557.57 142.44 557.746 142.135L558.225 141.306L557.396 140.827C557.091 140.651 556.986 140.261 557.163 139.956C557.339 139.651 557.729 139.546 558.034 139.722L558.863 140.201L559.342 139.372C559.518 139.067 559.908 138.962 560.213 139.138C560.519 139.315 560.623 139.705 560.447 140.01L559.968 140.839L560.797 141.317C561.103 141.494 561.207 141.884 561.031 142.189ZM571.055 139.503C571.36 139.679 571.751 139.575 571.927 139.27C572.103 138.964 571.998 138.574 571.693 138.398L570.864 137.919L571.343 137.09C571.519 136.785 571.414 136.395 571.109 136.219C570.804 136.043 570.414 136.147 570.238 136.452L569.759 137.281L568.93 136.803C568.625 136.626 568.235 136.731 568.058 137.036C567.882 137.341 567.987 137.732 568.292 137.908L569.121 138.386L568.642 139.215C568.466 139.521 568.571 139.911 568.876 140.087C569.181 140.263 569.571 140.159 569.748 139.854L570.226 139.025L571.055 139.503Z" fill="#F5F6F6"/>
<path fill-rule="evenodd" clip-rule="evenodd" d="M439.565 -18.3489C438.91 -18.7273 438.072 -18.5027 437.694 -17.8475C437.316 -17.1923 437.54 -16.3543 438.195 -15.976L439.975 -14.9485L438.948 -13.1688C438.569 -12.5136 438.794 -11.6757 439.449 -11.2973C440.104 -10.919 440.942 -11.1436 441.321 -11.7988L442.348 -13.5785L444.128 -12.551C444.783 -12.1727 445.621 -12.3972 445.999 -13.0524C446.377 -13.7077 446.153 -14.5456 445.498 -14.9239L443.718 -15.9514L444.746 -17.7311C445.124 -18.3863 444.899 -19.2243 444.244 -19.6026C443.589 -19.9809 442.751 -19.7564 442.373 -19.1011L441.345 -17.3214L439.565 -18.3489ZM443.911 -7.7469C444.824 -7.99151 445.763 -7.44936 446.008 -6.53596L447.262 -1.85728C447.506 -0.943603 446.964 -0.00451458 446.051 0.240095C445.137 0.485001 444.198 -0.0571476 443.953 -0.970843L442.7 -5.64921C442.455 -6.56291 442.997 -7.502 443.911 -7.7469ZM446.418 1.61055C447.331 1.36585 448.271 1.90802 448.515 2.82149L457.291 35.5723C457.536 36.4859 456.994 37.4249 456.08 37.6696C455.166 37.9146 454.227 37.3724 453.982 36.4587L445.207 3.70796C444.962 2.7944 445.504 1.85534 446.418 1.61055ZM452.525 -9.28489C452.903 -9.94012 453.741 -10.1647 454.396 -9.78635L456.176 -8.75884L457.203 -10.5385C457.582 -11.1938 458.42 -11.4183 459.075 -11.04C459.73 -10.6617 459.955 -9.82375 459.576 -9.16853L458.549 -7.38883L460.329 -6.36132C460.984 -5.98301 461.208 -5.14507 460.83 -4.48985C460.452 -3.83462 459.614 -3.61008 458.959 -3.98839L457.179 -5.0159L456.151 -3.2362C455.773 -2.58097 454.935 -2.35643 454.28 -2.73474C453.625 -3.11307 453.4 -3.95098 453.778 -4.60621L454.806 -6.38591L453.026 -7.41342C452.371 -7.79175 452.146 -8.62967 452.525 -9.28489ZM431.003 -3.51817C430.348 -3.89649 429.51 -3.67197 429.131 -3.01671C428.753 -2.36143 428.978 -1.52356 429.633 -1.14524L431.413 -0.117724L430.385 1.66198C430.007 2.31726 430.231 3.15512 430.887 3.53345C431.542 3.91176 432.38 3.68727 432.758 3.03199L433.785 1.25229L435.565 2.2798C436.22 2.65811 437.058 2.43363 437.437 1.77834C437.815 1.12308 437.59 0.28518 436.935 -0.0931323L435.155 -1.12064L436.183 -2.90034C436.561 -3.5556 436.337 -4.3935 435.682 -4.77181C435.026 -5.15014 434.188 -4.92561 433.81 -4.27035L432.783 -2.49066L431.003 -3.51817Z" fill="#F5F6F6"/>
<path fill-rule="evenodd" clip-rule="evenodd" d="M639.019 81.312C636.722 80.6965 635.429 77.9023 636.072 75.5014C636.715 73.1005 639.232 71.3271 641.529 71.9425C643.652 72.5112 644.359 73.8547 645.255 75.6461L645.292 75.7202C646.18 77.4959 647.279 79.6947 650.408 80.5333C651.022 80.6977 651.652 80.3337 651.817 79.7202C651.981 79.1067 651.617 78.4761 651.004 78.3117C648.908 77.7501 648.212 76.4157 647.312 74.6175L647.288 74.5677C646.394 72.7812 645.288 70.5688 642.124 69.721C638.314 68.7 634.74 71.586 633.851 74.9061C632.961 78.2263 634.613 82.5126 638.423 83.5336C639.037 83.698 639.667 83.3339 639.832 82.7205C639.996 82.107 639.632 81.4764 639.019 81.312ZM658.158 81.4193C658.408 80.4857 657.854 79.5261 656.921 79.276C655.987 79.0258 655.027 79.5799 654.777 80.5134C654.527 81.447 655.081 82.4066 656.015 82.6567C656.948 82.9069 657.908 82.3529 658.158 81.4193Z" fill="#F5F6F6"/>
<path fill-rule="evenodd" clip-rule="evenodd" d="M304.341 134.083C302.66 135.765 299.593 135.487 297.836 133.73C296.078 131.972 295.801 128.906 297.482 127.224C299.036 125.671 300.553 125.729 302.553 125.849L302.635 125.854C304.617 125.974 307.071 126.121 309.362 123.83C309.811 123.381 309.811 122.653 309.362 122.204C308.913 121.755 308.184 121.755 307.735 122.204C306.201 123.738 304.697 123.674 302.69 123.553L302.635 123.55C300.641 123.43 298.172 123.282 295.856 125.598C293.067 128.388 293.779 132.926 296.21 135.356C298.64 137.787 303.178 138.499 305.968 135.71C306.417 135.261 306.417 134.532 305.968 134.083C305.519 133.634 304.79 133.634 304.341 134.083ZM314.004 117.562C313.32 116.878 312.212 116.878 311.529 117.562C310.845 118.245 310.846 119.353 311.529 120.037C312.212 120.72 313.32 120.72 314.004 120.037C314.687 119.353 314.687 118.245 314.004 117.562Z" fill="#F5F6F6"/>
<path fill-rule="evenodd" clip-rule="evenodd" d="M493.908 94.7531C496.96 89.4664 504.777 88.1341 510.334 91.3424C515.891 94.5506 518.646 101.987 515.594 107.274C512.773 112.158 508.958 113.013 503.902 114.033L503.693 114.076C498.681 115.086 492.476 116.336 488.317 123.54C487.502 124.952 487.992 126.761 489.412 127.581C490.832 128.401 492.644 127.921 493.459 126.508C496.244 121.685 500.029 120.853 505.105 119.829L505.245 119.801C510.287 118.784 516.531 117.524 520.735 110.242C525.799 101.472 520.971 90.6657 513.286 86.229C505.602 81.7922 493.829 83.014 488.765 91.7844C487.95 93.1964 488.44 95.0057 489.86 95.8255C491.28 96.6453 493.092 96.1652 493.908 94.7531ZM480.985 142.176C483.146 143.424 485.903 142.693 487.144 140.544C488.385 138.396 487.638 135.643 485.478 134.395C483.317 133.147 480.56 133.878 479.319 136.027C478.079 138.175 478.824 140.929 480.985 142.176Z" fill="#F5F6F6"/>
<path fill-rule="evenodd" clip-rule="evenodd" d="M543.592 21.7383C543.218 20.342 544.029 18.9113 545.405 18.5428L552.875 16.541L560.346 14.5392C561.722 14.1707 563.14 15.0039 563.514 16.4002C563.888 17.7965 563.077 19.2272 561.701 19.5957L556.721 20.9303L558.237 26.5896C563.822 25.553 569.397 26.022 574.516 27.7366C574.577 27.5729 574.651 27.4121 574.74 27.2559L577.64 22.143C578.525 20.5831 580.496 20.055 582.043 20.9634C583.589 21.8719 584.125 23.8728 583.24 25.4328L580.431 30.3851C587.945 34.6715 593.833 41.8946 596.268 50.9803C601.057 68.8532 590.668 87.1662 573.063 91.8832C555.459 96.6003 537.306 85.9353 532.517 68.0624C527.955 51.0403 537.162 33.6192 553.257 27.9242L551.74 22.2648L546.76 23.5993C545.384 23.9679 543.966 23.1347 543.592 21.7383ZM537.497 66.7279C533.456 51.6476 542.222 36.1962 557.076 32.2161C571.929 28.2361 587.246 37.2346 591.287 52.3149C595.328 67.395 586.562 82.8467 571.708 86.8267C556.855 90.8067 541.538 81.808 537.497 66.7279ZM561.463 38.6281C561.089 37.2318 559.67 36.3986 558.295 36.7671C556.92 37.1356 556.108 38.5663 556.482 39.9626L563.257 65.2453C563.631 66.6416 565.049 67.4748 566.424 67.1063C567.8 66.7377 568.611 65.307 568.237 63.9107L561.463 38.6281Z" fill="#F5F6F6"/>
<path fill-rule="evenodd" clip-rule="evenodd" d="M417.987 110.249C417.442 110.564 417.251 111.255 417.561 111.792L419.247 114.712L420.933 117.632C421.243 118.169 421.937 118.35 422.483 118.035C423.028 117.72 423.219 117.029 422.909 116.491L421.785 114.545L423.997 113.268C425.399 115.309 427.261 116.882 429.368 117.932C429.336 118.001 429.31 118.073 429.289 118.149L428.607 120.619C428.399 121.372 428.843 122.143 429.6 122.339C430.357 122.536 431.139 122.084 431.347 121.331L432.007 118.938C435.645 119.933 439.686 119.522 443.237 117.472C450.222 113.439 452.664 104.592 448.692 97.712C444.72 90.8319 435.837 88.5237 428.852 92.5566C422.199 96.3974 419.667 104.605 422.873 111.321L420.661 112.598L419.537 110.652C419.227 110.114 418.533 109.934 417.987 110.249ZM429.976 94.5031C424.082 97.9058 422.021 105.37 425.373 111.175C428.725 116.98 436.219 118.928 442.113 115.525C448.007 112.123 450.067 104.658 446.716 98.853C443.364 93.0478 435.869 91.1004 429.976 94.5031ZM428.702 110.551C428.156 110.866 427.462 110.686 427.152 110.148C426.841 109.611 427.032 108.92 427.578 108.605L437.459 102.9C438.004 102.585 438.698 102.765 439.009 103.303C439.319 103.84 439.128 104.531 438.583 104.846L428.702 110.551Z" fill="#F5F6F6"/>
<path fill-rule="evenodd" clip-rule="evenodd" d="M743.762 109.434C743.594 109.143 743.225 109.041 742.939 109.206L741.381 110.106L739.824 111.005C739.538 111.17 739.441 111.54 739.609 111.831C739.777 112.122 740.146 112.224 740.433 112.059L741.471 111.459L742.152 112.639C741.063 113.387 740.224 114.38 739.664 115.504C739.627 115.487 739.589 115.472 739.549 115.461L738.231 115.098C737.829 114.987 737.419 115.224 737.314 115.627C737.209 116.031 737.45 116.448 737.852 116.559L739.128 116.911C738.597 118.851 738.816 121.007 739.91 122.9C742.061 126.626 746.779 127.928 750.448 125.81C754.118 123.691 755.349 118.954 753.198 115.228C751.149 111.68 746.772 110.33 743.19 112.039L742.509 110.86L743.547 110.26C743.834 110.095 743.93 109.725 743.762 109.434ZM752.16 115.828C750.345 112.684 746.364 111.585 743.268 113.373C740.172 115.16 739.133 119.158 740.948 122.301C742.763 125.444 746.744 126.543 749.84 124.756C752.936 122.968 753.975 118.971 752.16 115.828ZM743.601 115.148C743.433 114.857 743.529 114.487 743.816 114.321C744.102 114.156 744.471 114.258 744.639 114.549L747.681 119.819C747.849 120.11 747.753 120.48 747.467 120.645C747.18 120.811 746.811 120.709 746.643 120.418L743.601 115.148Z" fill="#F5F6F6"/>
<path d="M359.301 75.6558L365.952 91.3006L350.307 97.9518L343.656 82.3069L359.301 75.6558Z" stroke="#F5F6F6"/>
<path fill-rule="evenodd" clip-rule="evenodd" d="M510.804 20.6736C510.996 20.1557 510.731 19.5803 510.214 19.3884C509.696 19.1965 509.12 19.4607 508.928 19.9786L505.345 29.6496L495.674 26.0657C495.156 25.8738 494.58 26.1381 494.388 26.6559C494.196 27.1738 494.461 27.7492 494.979 27.9411L504.65 31.525L501.066 41.196C500.874 41.7139 501.138 42.2892 501.656 42.4812C502.174 42.6731 502.749 42.4088 502.941 41.891L506.525 32.22L516.196 35.8038C516.714 35.9957 517.289 35.7315 517.481 35.2136C517.673 34.6958 517.409 34.1204 516.891 33.9285L507.22 30.3446L510.804 20.6736Z" fill="#F5F6F6"/>
<path fill-rule="evenodd" clip-rule="evenodd" d="M682.685 130.762C683.203 130.954 683.779 130.689 683.971 130.171C684.162 129.654 683.898 129.078 683.38 128.886L679.22 127.345L680.762 123.184C680.954 122.666 680.689 122.091 680.171 121.899C679.654 121.707 679.078 121.971 678.886 122.489L677.345 126.65L673.184 125.108C672.666 124.916 672.091 125.18 671.899 125.698C671.707 126.216 671.971 126.791 672.489 126.983L676.65 128.525L675.108 132.685C674.916 133.203 675.18 133.779 675.698 133.971C676.216 134.162 676.791 133.898 676.983 133.38L678.525 129.22L682.685 130.762Z" fill="#F5F6F6"/>
<path fill-rule="evenodd" clip-rule="evenodd" d="M683.966 28.5781C683.469 28.1175 682.129 26.8585 680.99 25.7807C680.473 25.2911 679.498 24.3675 678.31 23.2415L678.303 23.235C676.877 21.8835 675.144 20.2413 673.525 18.7079C670.56 15.9044 668.079 13.5761 668.032 13.5452C667.952 13.4966 667.347 15.6525 665.076 24.1256C662.81 32.5818 662.25 34.777 662.336 34.8001C662.388 34.814 667.452 33.6254 673.582 32.1589C679.709 30.7008 684.753 29.4799 684.795 29.4637C684.83 29.4367 684.453 29.0448 683.966 28.5781Z" stroke="#F5F6F6"/>
<path d="M603.68 128.358C605.692 132.6 603.884 137.669 599.642 139.68C595.4 141.692 590.331 139.884 588.32 135.642C586.308 131.4 588.116 126.331 592.358 124.32C596.6 122.308 601.669 124.116 603.68 128.358Z" stroke="#F5F6F6"/>
</g>
</g>
<defs>
<filter id="filter0_bf_739_256" x="-95" y="16" width="1317" height="302" filterUnits="userSpaceOnUse" color-interpolation-filters="sRGB">
<feFlood flood-opacity="0" result="BackgroundImageFix"/>
<feGaussianBlur in="BackgroundImageFix" stdDeviation="42"/>
<feComposite in2="SourceAlpha" operator="in" result="effect1_backgroundBlur_739_256"/>
<feBlend mode="normal" in="SourceGraphic" in2="effect1_backgroundBlur_739_256" result="shape"/>
<feGaussianBlur stdDeviation="38" result="effect2_foregroundBlur_739_256"/>
</filter>
<filter id="filter1_f_739_256" x="365" y="-38" width="396" height="226" filterUnits="userSpaceOnUse" color-interpolation-filters="sRGB">
<feFlood flood-opacity="0" result="BackgroundImageFix"/>
<feBlend mode="normal" in="SourceGraphic" in2="BackgroundImageFix" result="shape"/>
<feGaussianBlur stdDeviation="46" result="effect1_foregroundBlur_739_256"/>
</filter>
<radialGradient id="paint0_angular_739_256" cx="0" cy="0" r="1" gradientUnits="userSpaceOnUse" gradientTransform="translate(396 337) rotate(90) scale(168)">
<stop offset="6.26769e-05" stop-color="#F23E0D"/>
<stop offset="0.153554" stop-color="#C22A0C"/>
<stop offset="0.408209" stop-color="#0A0B0B"/>
<stop offset="0.541746" stop-color="#0A0C0C"/>
<stop offset="0.641251" stop-color="#0A0B0B"/>
<stop offset="0.718202" stop-color="#0B0C0C"/>
<stop offset="0.816967" stop-color="#0A0B0B"/>
<stop offset="0.916266" stop-color="#090A0A"/>
<stop offset="0.999753" stop-color="#090A0A"/>
<stop offset="0.999925" stop-color="#FB793C"/>
</radialGradient>
<radialGradient id="paint1_angular_739_256" cx="0" cy="0" r="1" gradientUnits="userSpaceOnUse" gradientTransform="translate(168 168) rotate(90) scale(168)">
<stop offset="6.26769e-05" stop-color="#F23E0D"/>
<stop offset="0.153554" stop-color="#C22A0C"/>
<stop offset="0.408209" stop-color="#0A0B0B"/>
<stop offset="0.541746" stop-color="#0A0C0C"/>
<stop offset="0.641251" stop-color="#0A0B0B"/>
<stop offset="0.718202" stop-color="#0B0C0C"/>
<stop offset="0.816967" stop-color="#0A0B0B"/>
<stop offset="0.916266" stop-color="#090A0A"/>
<stop offset="0.999753" stop-color="#090A0A"/>
<stop offset="0.999925" stop-color="#FB793C"/>
</radialGradient>
</defs>
</svg>
