<svg width="360" height="360" viewBox="0 0 360 360" fill="none" xmlns="http://www.w3.org/2000/svg">
<g opacity="0.3">
<path d="M277.88 67.5449H249.46V68.6908H277.88V67.5449Z" fill="#F5F6F6"/>
<path d="M291.861 64.9048H249.46V66.0507H291.861V64.9048Z" fill="#F5F6F6"/>
<path d="M291.861 62.2649H249.46V63.4108H291.861V62.2649Z" fill="#F5F6F6"/>
<path d="M291.861 59.6155H266.539V60.7613H291.861V59.6155Z" fill="#F5F6F6"/>
</g>
<path opacity="0.3" d="M239.549 50.8704V77.7477H244.115V71.2209H240.98V54.1521H257.326V52.6762H248.442V51.4845H242.181V52.5112H241.062V50.8704H239.549Z" fill="#F5F6F6"/>
<path opacity="0.3" d="M158.57 98.2267C167.527 98.2267 174.788 90.9664 174.788 82.0104C174.788 73.0545 167.527 65.7942 158.57 65.7942C149.614 65.7942 142.353 73.0545 142.353 82.0104C142.353 90.9664 149.614 98.2267 158.57 98.2267Z" stroke="#F5F6F6" stroke-miterlimit="10"/>
<path opacity="0.3" d="M180.967 82.0103H165.62" stroke="#F5F6F6" stroke-miterlimit="10"/>
<path d="M150.549 331.259L154.867 323.192L170.874 328.243L169.783 332.762C169.783 332.762 154.243 340.279 150.549 331.259Z" fill="#F5F6F6"/>
<path d="M107.423 331.167L111.732 323.091L127.739 328.151L126.648 332.67C126.648 332.67 111.118 340.196 107.423 331.167Z" fill="#F5F6F6"/>
<path d="M170.525 266.751L152.996 326.611L170.873 328.224L198.496 266.751H170.525Z" fill="#F34D20"/>
<path d="M130.169 212.923H86.6859L87.5201 209.742H130.169V212.923Z" fill="#F23E0D"/>
<path d="M108.248 142.191L89.9861 212.923L86.8966 212.125L105.626 139.606L108.248 142.191Z" fill="#F23E0D"/>
<path d="M178.272 209.742H141.912V212.932H178.272V209.742Z" fill="#F5F6F6"/>
<path d="M309.453 157.289L278.228 272.728C277.229 274.066 275.276 274.406 273.864 274.47L192.665 274.424V278.091H273.864C280.135 278.503 281.721 273.727 281.721 273.727L312.956 158.288L309.453 157.289Z" fill="#F5F6F6"/>
<path d="M214.595 276.734L195.984 349.931" stroke="#F5F6F6" stroke-width="2" stroke-miterlimit="10" stroke-linecap="round"/>
<path d="M270.151 276.734L288.762 349.931" stroke="#F5F6F6" stroke-width="2" stroke-miterlimit="10" stroke-linecap="round"/>
<path d="M141.912 259.757L111.732 323.1L127.739 328.16C127.739 328.16 149.907 284.718 172.533 274.992L236.863 274.414C236.863 274.414 267.117 271.756 270.06 253.257L201.026 227.406L141.912 259.757Z" fill="#F45B31"/>
<path d="M231.537 128.661L237.725 144.556L267.969 131.759L246.865 100.528L237.862 106.578L231.537 128.661Z" fill="#F89B81"/>
<path d="M201.026 227.434L247.965 171.516L242.208 142.108L267.3 130.091C267.3 130.091 301.358 129.394 301.358 164.842C301.358 200.291 292.732 222.695 270.06 253.239L201.026 227.434Z" fill="#F67C5A"/>
<path d="M173.147 198.173L210.148 173.808L231.537 184.258C231.537 184.258 213.549 193.315 198.588 200.337L173.147 198.173Z" fill="#F89175"/>
<path d="M208.553 172.534L222.671 184.258L231.537 150.148L208.553 172.534Z" fill="#FDE8E2"/>
<path d="M152.996 209.742L165.932 196.45H218.418C219.03 185.878 220.773 175.401 223.616 165.2C226.146 156.29 229.547 146.279 239.293 143.199C242.647 142.222 246.16 141.91 249.634 142.283C253.787 142.631 257.995 143.731 261.286 146.279C266.787 150.542 267.969 157.656 266.988 164.192C262.909 191.491 235.818 219.147 235.818 219.147C235.818 219.147 217.556 222.814 190.786 209.742L177.135 203.903L168.627 209.742H152.996Z" fill="#F89B81"/>
<path d="M219.6 172.928L262.056 186.091C262.056 186.091 282.619 149.112 251.192 142.154C251.192 142.154 226.843 133.171 219.6 172.928Z" fill="#F5F6F6"/>
<path d="M238.99 125.141L214.365 140.339L209.158 139.212L191.574 85.613L238.99 72.1101L247.709 104.038L238.99 125.141Z" fill="#F89B81"/>
<path d="M236.982 92.6623L215.621 107.247L212.587 95.9074L234.718 87.0247L236.982 92.6623Z" fill="#F34A1C"/>
<path d="M201.549 127.753L192.078 104.158L213.568 95.5315L214.42 97.6582C215.552 100.479 216.118 103.496 216.083 106.535C216.049 109.575 215.416 112.578 214.221 115.372C213.026 118.167 211.291 120.699 209.117 122.824C206.942 124.948 204.371 126.623 201.549 127.753Z" fill="#F45B31"/>
<path d="M180.683 68.7917C179.885 68.9072 179.153 69.2955 178.609 69.8906C178.066 70.4856 177.746 71.2506 177.703 72.0551C177.703 73.6593 178.776 75.2086 178.391 76.7669C178.006 78.3253 176.356 79.1687 175.054 80.0854C172.836 81.8544 171.346 84.3759 170.864 87.1714C170.402 89.952 170.539 92.7993 171.268 95.5224C171.623 97.3082 172.341 99.0022 173.376 100.5C174.181 101.55 175.209 102.408 176.385 103.014C177.561 103.619 178.857 103.957 180.179 104.002C181.501 104.032 182.815 103.795 184.043 103.303C185.27 102.812 186.385 102.076 187.32 101.142C188.604 99.8584 189.594 98.1992 191.235 97.475C193.069 96.6408 195.15 97.1266 196.983 97.86C198.817 98.5933 200.65 99.5834 202.585 99.7575C204.13 99.8554 205.665 99.4538 206.965 98.6119C208.264 97.77 209.258 96.5326 209.8 95.0824C210.249 93.7991 210.322 92.3965 210.946 91.1957C211.345 90.4305 211.95 89.792 212.692 89.3524C213.435 88.9127 214.285 88.6893 215.148 88.7075C216.011 88.7256 216.852 88.9844 217.575 89.4549C218.299 89.9253 218.876 90.5886 219.243 91.3698C220.361 93.7532 219.325 96.6316 220.059 99.1525C220.512 100.403 221.304 101.502 222.347 102.328C223.39 103.153 224.642 103.673 225.963 103.828C228.623 104.09 231.3 103.533 233.636 102.233C231.289 99.2992 232.187 94.8991 234.168 91.6723C235.084 90.1781 236.46 88.6931 238.202 88.7023C238.748 88.7439 239.281 88.8953 239.767 89.1473C240.254 89.3993 240.685 89.7467 241.034 90.169C242.813 92.0757 243.235 94.8441 243.574 97.4291L244.784 106.669C244.823 108.049 245.284 109.383 246.104 110.492C246.667 111.039 247.322 111.483 248.039 111.803C250.349 113.013 254.612 114.214 256.922 115.415C258.086 100.473 257.096 85.9247 255.584 71.0193C255.254 67.7742 254.667 64.2816 252.32 62.0174C250.385 60.184 247.626 59.4873 244.986 59.1115C238.117 58.1356 231.119 58.6198 224.45 60.5323C221.544 61.3757 218.436 62.4849 215.575 61.4949C213.742 60.8623 212.275 59.4506 210.405 59.0473C207.205 58.3598 204.097 60.9632 202.823 63.9699C202.529 64.7963 202.148 65.589 201.686 66.335C199.899 68.8559 195.911 68.5534 193.334 66.8392C192.662 66.3146 191.929 65.8715 191.153 65.5191C187.385 64.2174 184.689 68.3334 180.683 68.7917Z" fill="#F45B31"/>
<path d="M249.79 62.879L242.226 57.168C242.226 57.168 256.528 61.6873 249.79 62.879Z" fill="#F45B31"/>
<path d="M252.732 67.0224L250.276 57.8555C250.276 57.8555 258.774 70.2308 252.732 67.0224Z" fill="#F45B31"/>
<path d="M236.203 109.658C242.218 109.658 247.094 104.782 247.094 98.7675C247.094 92.7529 242.218 87.8772 236.203 87.8772C230.188 87.8772 225.312 92.7529 225.312 98.7675C225.312 104.782 230.188 109.658 236.203 109.658Z" fill="#F5F6F6"/>
<path d="M218.037 56.504L219.976 55.7227C220.72 55.4228 221.553 55.4308 222.291 55.745C223.029 56.0591 223.613 56.6536 223.913 57.3978L238.782 94.2897L231.231 97.3325L216.362 60.4406C216.062 59.6964 216.07 58.8636 216.384 58.1254C216.698 57.3871 217.293 56.8039 218.037 56.504Z" fill="#F5F6F6"/>
<path d="M117.284 347.058L172.289 346.616L172.294 347.175C172.299 347.839 172.04 348.478 171.575 348.951C171.109 349.424 170.475 349.693 169.811 349.698L119.802 350.099C119.139 350.105 118.5 349.846 118.027 349.381C117.554 348.915 117.285 348.281 117.28 347.617L117.275 347.058L117.284 347.058Z" fill="#F5F6F6"/>
<path d="M171.048 337.804H171.35L170.534 329.801C170.532 329.787 170.527 329.774 170.518 329.763C170.509 329.752 170.498 329.744 170.485 329.738C170.473 329.733 170.459 329.73 170.445 329.732C170.431 329.733 170.417 329.738 170.406 329.746C168.543 331.294 166.38 332.44 164.053 333.11C162.423 334.848 160.393 336.16 158.14 336.933C154.796 338.008 151.245 338.272 147.78 337.703C146.185 337.474 144.608 337.135 142.994 337.025C140.648 336.864 138.295 337.204 136.091 338.024C134.45 338.629 132.919 339.5 131.315 340.205C129.741 340.984 128.01 341.392 126.254 341.397C124.815 341.369 123.438 340.811 122.385 339.83L119.479 340.875C118.821 341.117 118.254 341.556 117.854 342.131C117.454 342.707 117.24 343.391 117.242 344.092V347.044L161.449 346.686C161.651 344.275 162.747 342.026 164.524 340.382C166.3 338.738 168.627 337.818 171.048 337.804Z" fill="#F89B81"/>
<path d="M171.35 337.804H171.048C168.629 337.823 166.305 338.746 164.532 340.391C162.76 342.037 161.666 344.285 161.467 346.696L172.239 346.613L171.35 337.804Z" fill="#F45B31"/>
<path d="M131.315 340.205C132.919 339.5 134.45 338.629 136.091 338.024C138.295 337.204 140.648 336.864 142.994 337.025C144.608 337.135 146.185 337.474 147.78 337.703C151.245 338.272 154.796 338.008 158.139 336.933C160.393 336.16 162.423 334.848 164.053 333.11C156.132 335.283 150.072 329.819 150.072 329.819L122.385 339.83C123.438 340.811 124.815 341.369 126.254 341.397C128.01 341.392 129.741 340.984 131.315 340.205Z" fill="#F45B31"/>
<path d="M74.4079 347.063L129.339 346.622L129.344 347.181C129.349 347.845 129.091 348.483 128.625 348.956C128.159 349.429 127.525 349.698 126.861 349.703L76.9352 350.104C76.2714 350.11 75.6327 349.851 75.1596 349.386C74.6865 348.92 74.4177 348.286 74.4124 347.622L74.4079 347.063Z" fill="#F5F6F6"/>
<path d="M128.188 337.804H128.482L127.666 329.801C127.664 329.787 127.658 329.774 127.649 329.763C127.641 329.752 127.63 329.744 127.617 329.738C127.604 329.733 127.59 329.73 127.576 329.732C127.562 329.733 127.549 329.738 127.537 329.746C125.673 331.288 123.51 332.427 121.184 333.092C119.555 334.83 117.524 336.142 115.271 336.915C111.931 337.99 108.383 338.254 104.92 337.685C103.316 337.455 101.739 337.116 100.126 337.006C97.7798 336.845 95.4264 337.186 93.2224 338.005C91.5814 338.61 90.0503 339.481 88.4551 340.187C86.8779 340.965 85.1439 341.372 83.3854 341.379C81.947 341.349 80.5699 340.791 79.5166 339.811L76.6196 340.856C75.9496 341.091 75.3695 341.529 74.9603 342.109C74.5511 342.689 74.3331 343.382 74.3368 344.092V347.044L118.535 346.686C118.739 344.266 119.844 342.01 121.632 340.366C123.419 338.721 125.759 337.807 128.188 337.804Z" fill="#F89B81"/>
<path d="M128.482 337.804H128.188C125.769 337.823 123.444 338.745 121.669 340.391C119.895 342.036 118.8 344.285 118.599 346.696L129.344 346.613L128.482 337.804Z" fill="#FDE2DB"/>
<path d="M88.4551 340.205C90.0503 339.5 91.5813 338.629 93.2224 338.024C95.4264 337.204 97.7797 336.864 100.126 337.025C101.739 337.135 103.316 337.474 104.92 337.703C108.383 338.272 111.931 338.008 115.271 336.933C117.526 336.155 119.557 334.836 121.184 333.092C113.263 335.265 107.212 329.801 107.212 329.801L79.5165 339.83C80.5699 340.809 81.947 341.367 83.3853 341.397C85.1439 341.391 86.8778 340.983 88.4551 340.205Z" fill="#F45B31"/>
<path d="M132.406 218.047H104.811V349.941H132.406V218.047Z" fill="#F5F6F6"/>
<path d="M184.167 212.923H53.0403V218.038H184.167V212.923Z" fill="#F5F6F6"/>
<path d="M132.406 218.047H104.811V227.434H132.406V218.047Z" fill="#FDE4DD"/>
<g opacity="0.31">
<path d="M218.418 196.505C218.537 194.543 218.702 192.563 218.904 190.593C215.236 192.426 211.01 194.461 206.756 196.505H218.418Z" fill="url(#paint0_linear_739_293)"/>
<path d="M224.56 199.943C226.027 196.89 225.138 193.288 224.496 189.96C223.641 185.497 223.306 180.951 223.496 176.411C223.43 174.69 223.863 172.987 224.743 171.507C225.66 170.178 227.219 169.426 228.621 168.583C235.955 164.128 240.539 155.804 241.685 147.261C242.831 138.717 240.879 129.99 237.523 122.052C233.228 122.852 228.88 123.342 224.514 123.518C223.038 123.573 221.443 123.564 220.251 122.693C218.748 121.593 218.418 119.531 218.17 117.688L215.805 98.5476C215.511 96.1458 215.09 93.5149 213.256 91.9382C210.854 89.8848 206.839 90.3432 204.877 87.8406C202.915 85.338 204.574 81.0571 202.805 78.252C201.164 75.6303 197.497 75.5019 194.609 74.4111C192.812 73.7161 191.219 72.5816 189.974 71.1114C188.73 69.6412 187.874 67.8824 187.485 65.9959C187.481 65.9287 187.481 65.8613 187.485 65.7942C185.349 66.7109 183.314 68.5443 180.747 68.8009C179.948 68.9131 179.214 69.3004 178.67 69.8961C178.126 70.4919 177.807 71.2587 177.768 72.0644C177.768 73.6594 178.84 75.2178 178.455 76.767C178.07 78.3162 176.383 79.1595 175.081 80.1312C172.861 81.8974 171.369 84.4203 170.892 87.2173C170.429 89.9979 170.567 92.8452 171.295 95.5683C171.651 97.354 172.369 99.048 173.404 100.546C174.209 101.596 175.236 102.454 176.412 103.06C177.588 103.665 178.884 104.003 180.206 104.048C181.528 104.078 182.843 103.841 184.07 103.349C185.298 102.858 186.413 102.122 187.348 101.188C188.631 99.9043 189.622 98.245 191.263 97.5209C192.602 96.992 194.083 96.9467 195.452 97.3925L197.029 102.214L192.106 104.194L201.549 127.753C202.693 127.293 203.8 126.745 204.858 126.112L209.158 139.221L214.365 140.349L231.876 129.587L237.129 143.099C232.683 145.115 227.961 149.241 224.294 157.262L208.544 172.589L210.112 173.89L175.769 196.505H165.932L152.996 209.742H168.582L177.089 203.903L190.768 209.742C193.16 210.916 195.48 211.951 197.726 212.868C205.344 210.191 213.485 208.697 220.251 204.315C222.057 203.275 223.547 201.764 224.56 199.943ZM218.418 196.459H206.756C211.01 194.415 215.2 192.371 218.903 190.547C218.702 192.518 218.537 194.498 218.418 196.505V196.459Z" fill="url(#paint1_linear_739_293)"/>
</g>
<path opacity="0.41" d="M315 349.932H58.0183V353.25H315V349.932Z" fill="#FECCAA"/>
<g style="mix-blend-mode:color-dodge" opacity="0.3">
<path d="M94.8909 78.6827L217.767 6.75L212.825 227.434L118.681 185.349L94.8909 78.6827Z" fill="url(#paint2_linear_739_293)" style="mix-blend-mode:overlay"/>
</g>
<path opacity="0.3" d="M119.901 78.2518V77.4268H112.273V78.2518H110.733V98.3181H121.441V78.2518H119.901Z" stroke="#F5F6F6" stroke-miterlimit="10"/>
<path opacity="0.3" d="M120.579 95.1924H111.585V97.0166H120.579V95.1924Z" fill="#F5F6F6"/>
<path opacity="0.3" d="M120.579 92.5156H111.585V94.3398H120.579V92.5156Z" fill="#F5F6F6"/>
<path opacity="0.3" d="M120.579 89.8481H111.585V91.6724H120.579V89.8481Z" fill="#F5F6F6"/>
<path opacity="0.3" d="M120.579 87.1711H111.585V88.9954H120.579V87.1711Z" fill="#F5F6F6"/>
<path opacity="0.3" d="M120.579 84.5037H111.585V86.3279H120.579V84.5037Z" fill="#F5F6F6"/>
<path opacity="0.3" d="M120.579 81.8269H111.585V83.6511H120.579V81.8269Z" fill="#F5F6F6"/>
<path opacity="0.3" d="M158.57 59.6155V74.9517" stroke="#F5F6F6" stroke-miterlimit="10"/>
<path opacity="0.3" d="M158.57 89.0596V104.405" stroke="#F5F6F6" stroke-miterlimit="10"/>
<path opacity="0.3" d="M151.511 82.0103H136.174" stroke="#F5F6F6" stroke-miterlimit="10"/>
<path opacity="0.3" d="M156.627 77.4819L158.57 80.8462L160.514 77.4819H156.627Z" fill="#F5F6F6"/>
<path opacity="0.3" d="M160.514 86.5295L158.57 83.1653L156.627 86.5295H160.514Z" fill="#F5F6F6"/>
<path opacity="0.3" d="M163.09 80.0669L159.725 82.0103L163.09 83.9537V80.0669Z" fill="#F5F6F6"/>
<path opacity="0.3" d="M154.042 83.9537L157.406 82.0103L154.042 80.0669V83.9537Z" fill="#F5F6F6"/>
<path opacity="0.3" d="M300.753 78.1236V51.2554H296.197V57.7822H299.332V74.851H282.977V76.3177H291.87V77.5186H298.131V76.4919H299.241V78.1236H300.753Z" fill="#F5F6F6"/>
<g opacity="0.4">
<path d="M71.7974 149.946H45V151.092H71.7974V149.946Z" fill="#F5F6F6"/>
<path d="M84.9898 147.306H45V148.452H84.9898V147.306Z" fill="#F5F6F6"/>
<path d="M84.9898 144.666H45V145.812H84.9898V144.666Z" fill="#F5F6F6"/>
<path d="M84.9897 142.017H61.1077V143.163H84.9897V142.017Z" fill="#F5F6F6"/>
</g>
<path opacity="0.5" d="M128.711 67.9043C128.419 67.9043 128.157 67.8463 127.923 67.7303C127.689 67.6143 127.502 67.4552 127.361 67.253C127.22 67.0509 127.143 66.8205 127.13 66.562H127.727C127.75 66.7923 127.854 66.9829 128.04 67.1337C128.227 67.2829 128.451 67.3574 128.711 67.3574C128.92 67.3574 129.106 67.3086 129.268 67.2108C129.432 67.113 129.56 66.9788 129.653 66.8081C129.748 66.6357 129.795 66.441 129.795 66.2239C129.795 66.0019 129.746 65.8038 129.648 65.6298C129.552 65.4542 129.42 65.3158 129.251 65.2147C129.081 65.1136 128.888 65.0622 128.671 65.0606C128.516 65.0589 128.356 65.0829 128.192 65.1327C128.028 65.1807 127.892 65.2429 127.786 65.3191L127.21 65.2495L127.518 62.7438H130.163V63.2907H128.035L127.856 64.7921H127.886C127.99 64.7092 128.121 64.6405 128.279 64.5858C128.436 64.5311 128.6 64.5038 128.771 64.5038C129.082 64.5038 129.36 64.5783 129.603 64.7275C129.849 64.875 130.041 65.0771 130.18 65.334C130.321 65.5909 130.391 65.8842 130.391 66.214C130.391 66.5388 130.319 66.8288 130.173 67.084C130.029 67.3376 129.83 67.5381 129.576 67.6856C129.323 67.8314 129.034 67.9043 128.711 67.9043ZM133.039 67.9043C132.665 67.9043 132.346 67.8024 132.082 67.5986C131.819 67.3931 131.618 67.0956 131.478 66.7062C131.339 66.3151 131.27 65.8428 131.27 65.2893C131.27 64.7391 131.339 64.2693 131.478 63.8798C131.619 63.4887 131.821 63.1904 132.085 62.9849C132.35 62.7778 132.668 62.6742 133.039 62.6742C133.411 62.6742 133.728 62.7778 133.992 62.9849C134.257 63.1904 134.459 63.4887 134.598 63.8798C134.739 64.2693 134.809 64.7391 134.809 65.2893C134.809 65.8428 134.74 66.3151 134.601 66.7062C134.461 67.0956 134.26 67.3931 133.997 67.5986C133.733 67.8024 133.414 67.9043 133.039 67.9043ZM133.039 67.3574C133.411 67.3574 133.699 67.1785 133.905 66.8205C134.11 66.4626 134.213 65.9521 134.213 65.2893C134.213 64.8484 134.166 64.4731 134.071 64.1632C133.978 63.8533 133.844 63.6172 133.668 63.4547C133.494 63.2923 133.285 63.2111 133.039 63.2111C132.672 63.2111 132.384 63.3926 132.177 63.7555C131.97 64.1168 131.866 64.628 131.866 65.2893C131.866 65.7301 131.913 66.1046 132.005 66.4128C132.098 66.7211 132.232 66.9556 132.406 67.1163C132.581 67.2771 132.793 67.3574 133.039 67.3574ZM135.843 67.8347V62.7438H136.46V65.2694H136.52L138.807 62.7438H139.612L137.474 65.0407L139.612 67.8347H138.866L137.096 65.4682L136.46 66.1841V67.8347H135.843ZM127.21 70.7438H127.945L129.676 74.9697H129.735L131.465 70.7438H132.201V75.8347H131.624V71.9668H131.575L129.984 75.8347H129.427L127.836 71.9668H127.786V75.8347H127.21V70.7438Z" fill="#F5F6F6"/>
<g style="mix-blend-mode:overlay">
<path d="M167.857 87.9414V77.2162L158.57 71.8535L149.283 77.2162V87.9414L158.57 93.3041L167.857 87.9414Z" stroke="#F5F6F6" stroke-miterlimit="10"/>
</g>
<g opacity="0.5">
<path d="M156.166 163.697V163.275C156.166 162.983 156.226 162.716 156.346 162.474C156.468 162.229 156.645 162.034 156.877 161.888C157.112 161.74 157.396 161.665 157.729 161.665C158.068 161.665 158.351 161.74 158.581 161.888C158.81 162.034 158.983 162.229 159.1 162.474C159.217 162.716 159.276 162.983 159.276 163.275V163.697C159.276 163.988 159.216 164.257 159.096 164.501C158.979 164.744 158.805 164.939 158.573 165.087C158.344 165.233 158.062 165.306 157.729 165.306C157.39 165.306 157.105 165.233 156.873 165.087C156.642 164.939 156.466 164.744 156.346 164.501C156.226 164.257 156.166 163.988 156.166 163.697ZM156.963 163.275V163.697C156.963 163.939 157.021 164.156 157.135 164.349C157.25 164.539 157.448 164.634 157.729 164.634C158.002 164.634 158.195 164.539 158.307 164.349C158.422 164.156 158.479 163.939 158.479 163.697V163.275C158.479 163.033 158.424 162.816 158.315 162.626C158.206 162.434 158.01 162.337 157.729 162.337C157.455 162.337 157.259 162.434 157.139 162.626C157.022 162.816 156.963 163.033 156.963 163.275ZM152.181 159.118V158.697C152.181 158.405 152.241 158.138 152.361 157.896C152.484 157.651 152.661 157.456 152.892 157.31C153.127 157.161 153.411 157.087 153.744 157.087C154.083 157.087 154.367 157.161 154.596 157.31C154.825 157.456 154.998 157.651 155.115 157.896C155.233 158.138 155.291 158.405 155.291 158.697V159.118C155.291 159.41 155.231 159.678 155.111 159.923C154.994 160.165 154.82 160.361 154.588 160.509C154.359 160.655 154.077 160.728 153.744 160.728C153.406 160.728 153.12 160.655 152.889 160.509C152.657 160.361 152.481 160.165 152.361 159.923C152.241 159.678 152.181 159.41 152.181 159.118ZM152.978 158.697V159.118C152.978 159.361 153.036 159.578 153.15 159.771C153.265 159.961 153.463 160.056 153.744 160.056C154.018 160.056 154.21 159.961 154.322 159.771C154.437 159.578 154.494 159.361 154.494 159.118V158.697C154.494 158.454 154.439 158.238 154.33 158.048C154.221 157.855 154.025 157.759 153.744 157.759C153.471 157.759 153.274 157.855 153.154 158.048C153.037 158.238 152.978 158.454 152.978 158.697ZM152.478 165.197L157.979 157.197H158.87L153.369 165.197H152.478Z" fill="#F5F6F6"/>
<path d="M145.427 165.197V164.494L148.067 161.603C148.377 161.264 148.633 160.97 148.833 160.72C149.034 160.467 149.182 160.23 149.279 160.009C149.378 159.785 149.427 159.551 149.427 159.306C149.427 159.025 149.359 158.781 149.224 158.575C149.091 158.37 148.909 158.211 148.677 158.099C148.445 157.987 148.185 157.931 147.896 157.931C147.588 157.931 147.32 157.995 147.091 158.122C146.864 158.247 146.688 158.423 146.563 158.65C146.441 158.876 146.38 159.142 146.38 159.447H145.458C145.458 158.978 145.566 158.566 145.782 158.212C145.998 157.858 146.293 157.582 146.665 157.384C147.04 157.186 147.461 157.087 147.927 157.087C148.396 157.087 148.811 157.186 149.173 157.384C149.535 157.582 149.819 157.849 150.025 158.185C150.23 158.521 150.333 158.894 150.333 159.306C150.333 159.6 150.28 159.888 150.173 160.169C150.069 160.448 149.887 160.759 149.626 161.103C149.368 161.444 149.01 161.861 148.552 162.353L146.755 164.275V164.337H150.474V165.197H145.427Z" fill="#F5F6F6"/>
<path d="M143.084 165.259C142.892 165.259 142.726 165.19 142.588 165.052C142.45 164.914 142.381 164.749 142.381 164.556C142.381 164.363 142.45 164.198 142.588 164.06C142.726 163.922 142.892 163.853 143.084 163.853C143.277 163.853 143.443 163.922 143.581 164.06C143.719 164.198 143.788 164.363 143.788 164.556C143.788 164.684 143.755 164.801 143.69 164.908C143.628 165.015 143.543 165.1 143.436 165.166C143.332 165.228 143.215 165.259 143.084 165.259Z" fill="#F5F6F6"/>
<path d="M138.505 165.306C138.046 165.306 137.634 165.215 137.266 165.033C136.899 164.85 136.605 164.6 136.384 164.283C136.162 163.965 136.041 163.603 136.02 163.197H136.958C136.994 163.559 137.158 163.858 137.45 164.095C137.744 164.33 138.096 164.447 138.505 164.447C138.833 164.447 139.125 164.37 139.38 164.216C139.638 164.063 139.84 163.852 139.986 163.583C140.134 163.313 140.208 163.007 140.208 162.665C140.208 162.316 140.131 162.005 139.978 161.732C139.827 161.456 139.618 161.238 139.353 161.079C139.087 160.921 138.784 160.84 138.442 160.837C138.198 160.835 137.946 160.872 137.688 160.951C137.431 161.026 137.218 161.124 137.052 161.244L136.145 161.134L136.63 157.197H140.786V158.056H137.442L137.161 160.415H137.208C137.372 160.285 137.578 160.177 137.825 160.091C138.073 160.005 138.33 159.962 138.599 159.962C139.088 159.962 139.525 160.079 139.907 160.314C140.293 160.546 140.595 160.863 140.814 161.267C141.035 161.671 141.146 162.132 141.146 162.65C141.146 163.16 141.031 163.616 140.802 164.017C140.575 164.415 140.263 164.731 139.864 164.962C139.466 165.192 139.013 165.306 138.505 165.306Z" fill="#F5F6F6"/>
<path d="M129.344 165.197V164.494L131.984 161.603C132.294 161.264 132.55 160.97 132.75 160.72C132.951 160.467 133.099 160.23 133.196 160.009C133.295 159.785 133.344 159.551 133.344 159.306C133.344 159.025 133.276 158.781 133.141 158.575C133.008 158.37 132.826 158.211 132.594 158.099C132.362 157.987 132.102 157.931 131.813 157.931C131.505 157.931 131.237 157.995 131.008 158.122C130.781 158.247 130.605 158.423 130.48 158.65C130.358 158.876 130.297 159.142 130.297 159.447H129.375C129.375 158.978 129.483 158.566 129.699 158.212C129.915 157.858 130.209 157.582 130.582 157.384C130.957 157.186 131.378 157.087 131.844 157.087C132.313 157.087 132.728 157.186 133.09 157.384C133.452 157.582 133.736 157.849 133.942 158.185C134.147 158.521 134.25 158.894 134.25 159.306C134.25 159.6 134.197 159.888 134.09 160.169C133.986 160.448 133.804 160.759 133.543 161.103C133.285 161.444 132.927 161.861 132.469 162.353L130.672 164.275V164.337H134.391V165.197H129.344Z" fill="#F5F6F6"/>
</g>
<g style="mix-blend-mode:overlay">
<path d="M124.54 145.968L127.822 152.815H151.786L155.16 149.433H184.845" stroke="#F5F6F6" stroke-miterlimit="10"/>
</g>
<g style="mix-blend-mode:overlay">
<path d="M184.543 144.822H167.922V148.287H184.543V144.822Z" fill="#F5F6F6"/>
</g>
<g style="mix-blend-mode:overlay">
<path d="M60.2368 101.774V128.642H64.7932V122.116H61.6578V105.047H78.0131V103.58H69.1204V102.379H62.8588V103.415H61.7495V101.774H60.2368Z" fill="#F5F6F6"/>
</g>
<g style="mix-blend-mode:overlay">
<path d="M121.441 129.027V102.159H116.875V108.686H120.011V125.746H103.664V127.222H112.548V128.413H118.81V127.387H119.928V129.027H121.441Z" fill="#F5F6F6"/>
</g>
<g opacity="0.4">
<path d="M98.5673 118.44H70.1472V119.586H98.5673V118.44Z" fill="#F5F6F6"/>
<path d="M112.548 115.8H70.1472V116.945H112.548V115.8Z" fill="#F5F6F6"/>
<path d="M112.548 113.16H70.1472V114.306H112.548V113.16Z" fill="#F5F6F6"/>
<path d="M112.548 110.52H87.2267V111.665H112.548V110.52Z" fill="#F5F6F6"/>
</g>
<path d="M94.891 78.6826L118.681 185.349L115.583 186.091L91.7923 79.4251L94.891 78.6826Z" fill="#F23E0D"/>
<defs>
<linearGradient id="paint0_linear_739_293" x1="206.756" y1="193.508" x2="218.904" y2="193.508" gradientUnits="userSpaceOnUse">
<stop offset="0.15" stop-color="#FBC1B2"/>
<stop offset="0.18" stop-color="#FBC3B5" stop-opacity="0.97"/>
<stop offset="0.24" stop-color="#FBC9BB" stop-opacity="0.88"/>
<stop offset="0.31" stop-color="#FCD2C7" stop-opacity="0.73"/>
<stop offset="0.39" stop-color="#FDDED6" stop-opacity="0.53"/>
<stop offset="0.48" stop-color="#FEEEEA" stop-opacity="0.27"/>
<stop offset="0.57" stop-color="white" stop-opacity="0"/>
<stop offset="1" stop-color="white" stop-opacity="0"/>
</linearGradient>
<linearGradient id="paint1_linear_739_293" x1="152.996" y1="139.331" x2="242.015" y2="139.331" gradientUnits="userSpaceOnUse">
<stop offset="0.15" stop-color="#FBC1B2"/>
<stop offset="0.18" stop-color="#FBC3B5" stop-opacity="0.97"/>
<stop offset="0.24" stop-color="#FBC9BB" stop-opacity="0.88"/>
<stop offset="0.31" stop-color="#FCD2C7" stop-opacity="0.73"/>
<stop offset="0.39" stop-color="#FDDED6" stop-opacity="0.53"/>
<stop offset="0.48" stop-color="#FEEEEA" stop-opacity="0.27"/>
<stop offset="0.57" stop-color="white" stop-opacity="0"/>
<stop offset="1" stop-color="white" stop-opacity="0"/>
</linearGradient>
<linearGradient id="paint2_linear_739_293" x1="105.085" y1="136.526" x2="236.56" y2="113.339" gradientUnits="userSpaceOnUse">
<stop stop-color="white"/>
<stop offset="0.02" stop-color="white" stop-opacity="0.97"/>
<stop offset="0.13" stop-color="white" stop-opacity="0.74"/>
<stop offset="0.25" stop-color="white" stop-opacity="0.54"/>
<stop offset="0.37" stop-color="white" stop-opacity="0.38"/>
<stop offset="0.49" stop-color="white" stop-opacity="0.24"/>
<stop offset="0.62" stop-color="white" stop-opacity="0.14"/>
<stop offset="0.74" stop-color="white" stop-opacity="0.06"/>
<stop offset="0.87" stop-color="white" stop-opacity="0.01"/>
<stop offset="1" stop-color="white" stop-opacity="0"/>
</linearGradient>
</defs>
</svg>
